%TF.GenerationSoftware,KiCad,Pcbnew,9.0.4*%
%TF.CreationDate,2025-10-12T20:17:52-04:00*%
%TF.ProjectId,Camera_PCB,43616d65-7261-45f5-9043-422e6b696361,rev?*%
%TF.SameCoordinates,Original*%
%TF.FileFunction,Legend,Top*%
%TF.FilePolarity,Positive*%
%FSLAX46Y46*%
G04 Gerber Fmt 4.6, Leading zero omitted, Abs format (unit mm)*
G04 Created by KiCad (PCBNEW 9.0.4) date 2025-10-12 20:17:52*
%MOMM*%
%LPD*%
G01*
G04 APERTURE LIST*
%ADD10C,0.150000*%
%ADD11C,0.120000*%
G04 APERTURE END LIST*
D10*
X156067142Y-128429580D02*
X156019523Y-128477200D01*
X156019523Y-128477200D02*
X155876666Y-128524819D01*
X155876666Y-128524819D02*
X155781428Y-128524819D01*
X155781428Y-128524819D02*
X155638571Y-128477200D01*
X155638571Y-128477200D02*
X155543333Y-128381961D01*
X155543333Y-128381961D02*
X155495714Y-128286723D01*
X155495714Y-128286723D02*
X155448095Y-128096247D01*
X155448095Y-128096247D02*
X155448095Y-127953390D01*
X155448095Y-127953390D02*
X155495714Y-127762914D01*
X155495714Y-127762914D02*
X155543333Y-127667676D01*
X155543333Y-127667676D02*
X155638571Y-127572438D01*
X155638571Y-127572438D02*
X155781428Y-127524819D01*
X155781428Y-127524819D02*
X155876666Y-127524819D01*
X155876666Y-127524819D02*
X156019523Y-127572438D01*
X156019523Y-127572438D02*
X156067142Y-127620057D01*
X156448095Y-127620057D02*
X156495714Y-127572438D01*
X156495714Y-127572438D02*
X156590952Y-127524819D01*
X156590952Y-127524819D02*
X156829047Y-127524819D01*
X156829047Y-127524819D02*
X156924285Y-127572438D01*
X156924285Y-127572438D02*
X156971904Y-127620057D01*
X156971904Y-127620057D02*
X157019523Y-127715295D01*
X157019523Y-127715295D02*
X157019523Y-127810533D01*
X157019523Y-127810533D02*
X156971904Y-127953390D01*
X156971904Y-127953390D02*
X156400476Y-128524819D01*
X156400476Y-128524819D02*
X157019523Y-128524819D01*
X157876666Y-127858152D02*
X157876666Y-128524819D01*
X157638571Y-127477200D02*
X157400476Y-128191485D01*
X157400476Y-128191485D02*
X158019523Y-128191485D01*
X141859580Y-87067857D02*
X141907200Y-87115476D01*
X141907200Y-87115476D02*
X141954819Y-87258333D01*
X141954819Y-87258333D02*
X141954819Y-87353571D01*
X141954819Y-87353571D02*
X141907200Y-87496428D01*
X141907200Y-87496428D02*
X141811961Y-87591666D01*
X141811961Y-87591666D02*
X141716723Y-87639285D01*
X141716723Y-87639285D02*
X141526247Y-87686904D01*
X141526247Y-87686904D02*
X141383390Y-87686904D01*
X141383390Y-87686904D02*
X141192914Y-87639285D01*
X141192914Y-87639285D02*
X141097676Y-87591666D01*
X141097676Y-87591666D02*
X141002438Y-87496428D01*
X141002438Y-87496428D02*
X140954819Y-87353571D01*
X140954819Y-87353571D02*
X140954819Y-87258333D01*
X140954819Y-87258333D02*
X141002438Y-87115476D01*
X141002438Y-87115476D02*
X141050057Y-87067857D01*
X140954819Y-86734523D02*
X140954819Y-86115476D01*
X140954819Y-86115476D02*
X141335771Y-86448809D01*
X141335771Y-86448809D02*
X141335771Y-86305952D01*
X141335771Y-86305952D02*
X141383390Y-86210714D01*
X141383390Y-86210714D02*
X141431009Y-86163095D01*
X141431009Y-86163095D02*
X141526247Y-86115476D01*
X141526247Y-86115476D02*
X141764342Y-86115476D01*
X141764342Y-86115476D02*
X141859580Y-86163095D01*
X141859580Y-86163095D02*
X141907200Y-86210714D01*
X141907200Y-86210714D02*
X141954819Y-86305952D01*
X141954819Y-86305952D02*
X141954819Y-86591666D01*
X141954819Y-86591666D02*
X141907200Y-86686904D01*
X141907200Y-86686904D02*
X141859580Y-86734523D01*
X141288152Y-85258333D02*
X141954819Y-85258333D01*
X140907200Y-85496428D02*
X141621485Y-85734523D01*
X141621485Y-85734523D02*
X141621485Y-85115476D01*
X139319642Y-91859580D02*
X139272023Y-91907200D01*
X139272023Y-91907200D02*
X139129166Y-91954819D01*
X139129166Y-91954819D02*
X139033928Y-91954819D01*
X139033928Y-91954819D02*
X138891071Y-91907200D01*
X138891071Y-91907200D02*
X138795833Y-91811961D01*
X138795833Y-91811961D02*
X138748214Y-91716723D01*
X138748214Y-91716723D02*
X138700595Y-91526247D01*
X138700595Y-91526247D02*
X138700595Y-91383390D01*
X138700595Y-91383390D02*
X138748214Y-91192914D01*
X138748214Y-91192914D02*
X138795833Y-91097676D01*
X138795833Y-91097676D02*
X138891071Y-91002438D01*
X138891071Y-91002438D02*
X139033928Y-90954819D01*
X139033928Y-90954819D02*
X139129166Y-90954819D01*
X139129166Y-90954819D02*
X139272023Y-91002438D01*
X139272023Y-91002438D02*
X139319642Y-91050057D01*
X140272023Y-91954819D02*
X139700595Y-91954819D01*
X139986309Y-91954819D02*
X139986309Y-90954819D01*
X139986309Y-90954819D02*
X139891071Y-91097676D01*
X139891071Y-91097676D02*
X139795833Y-91192914D01*
X139795833Y-91192914D02*
X139700595Y-91240533D01*
X141129166Y-91288152D02*
X141129166Y-91954819D01*
X140891071Y-90907200D02*
X140652976Y-91621485D01*
X140652976Y-91621485D02*
X141272023Y-91621485D01*
X131814819Y-123736666D02*
X131338628Y-124069999D01*
X131814819Y-124308094D02*
X130814819Y-124308094D01*
X130814819Y-124308094D02*
X130814819Y-123927142D01*
X130814819Y-123927142D02*
X130862438Y-123831904D01*
X130862438Y-123831904D02*
X130910057Y-123784285D01*
X130910057Y-123784285D02*
X131005295Y-123736666D01*
X131005295Y-123736666D02*
X131148152Y-123736666D01*
X131148152Y-123736666D02*
X131243390Y-123784285D01*
X131243390Y-123784285D02*
X131291009Y-123831904D01*
X131291009Y-123831904D02*
X131338628Y-123927142D01*
X131338628Y-123927142D02*
X131338628Y-124308094D01*
X131814819Y-123260475D02*
X131814819Y-123069999D01*
X131814819Y-123069999D02*
X131767200Y-122974761D01*
X131767200Y-122974761D02*
X131719580Y-122927142D01*
X131719580Y-122927142D02*
X131576723Y-122831904D01*
X131576723Y-122831904D02*
X131386247Y-122784285D01*
X131386247Y-122784285D02*
X131005295Y-122784285D01*
X131005295Y-122784285D02*
X130910057Y-122831904D01*
X130910057Y-122831904D02*
X130862438Y-122879523D01*
X130862438Y-122879523D02*
X130814819Y-122974761D01*
X130814819Y-122974761D02*
X130814819Y-123165237D01*
X130814819Y-123165237D02*
X130862438Y-123260475D01*
X130862438Y-123260475D02*
X130910057Y-123308094D01*
X130910057Y-123308094D02*
X131005295Y-123355713D01*
X131005295Y-123355713D02*
X131243390Y-123355713D01*
X131243390Y-123355713D02*
X131338628Y-123308094D01*
X131338628Y-123308094D02*
X131386247Y-123260475D01*
X131386247Y-123260475D02*
X131433866Y-123165237D01*
X131433866Y-123165237D02*
X131433866Y-122974761D01*
X131433866Y-122974761D02*
X131386247Y-122879523D01*
X131386247Y-122879523D02*
X131338628Y-122831904D01*
X131338628Y-122831904D02*
X131243390Y-122784285D01*
X147067142Y-128429580D02*
X147019523Y-128477200D01*
X147019523Y-128477200D02*
X146876666Y-128524819D01*
X146876666Y-128524819D02*
X146781428Y-128524819D01*
X146781428Y-128524819D02*
X146638571Y-128477200D01*
X146638571Y-128477200D02*
X146543333Y-128381961D01*
X146543333Y-128381961D02*
X146495714Y-128286723D01*
X146495714Y-128286723D02*
X146448095Y-128096247D01*
X146448095Y-128096247D02*
X146448095Y-127953390D01*
X146448095Y-127953390D02*
X146495714Y-127762914D01*
X146495714Y-127762914D02*
X146543333Y-127667676D01*
X146543333Y-127667676D02*
X146638571Y-127572438D01*
X146638571Y-127572438D02*
X146781428Y-127524819D01*
X146781428Y-127524819D02*
X146876666Y-127524819D01*
X146876666Y-127524819D02*
X147019523Y-127572438D01*
X147019523Y-127572438D02*
X147067142Y-127620057D01*
X147448095Y-127620057D02*
X147495714Y-127572438D01*
X147495714Y-127572438D02*
X147590952Y-127524819D01*
X147590952Y-127524819D02*
X147829047Y-127524819D01*
X147829047Y-127524819D02*
X147924285Y-127572438D01*
X147924285Y-127572438D02*
X147971904Y-127620057D01*
X147971904Y-127620057D02*
X148019523Y-127715295D01*
X148019523Y-127715295D02*
X148019523Y-127810533D01*
X148019523Y-127810533D02*
X147971904Y-127953390D01*
X147971904Y-127953390D02*
X147400476Y-128524819D01*
X147400476Y-128524819D02*
X148019523Y-128524819D01*
X148971904Y-128524819D02*
X148400476Y-128524819D01*
X148686190Y-128524819D02*
X148686190Y-127524819D01*
X148686190Y-127524819D02*
X148590952Y-127667676D01*
X148590952Y-127667676D02*
X148495714Y-127762914D01*
X148495714Y-127762914D02*
X148400476Y-127810533D01*
X141543333Y-122929580D02*
X141495714Y-122977200D01*
X141495714Y-122977200D02*
X141352857Y-123024819D01*
X141352857Y-123024819D02*
X141257619Y-123024819D01*
X141257619Y-123024819D02*
X141114762Y-122977200D01*
X141114762Y-122977200D02*
X141019524Y-122881961D01*
X141019524Y-122881961D02*
X140971905Y-122786723D01*
X140971905Y-122786723D02*
X140924286Y-122596247D01*
X140924286Y-122596247D02*
X140924286Y-122453390D01*
X140924286Y-122453390D02*
X140971905Y-122262914D01*
X140971905Y-122262914D02*
X141019524Y-122167676D01*
X141019524Y-122167676D02*
X141114762Y-122072438D01*
X141114762Y-122072438D02*
X141257619Y-122024819D01*
X141257619Y-122024819D02*
X141352857Y-122024819D01*
X141352857Y-122024819D02*
X141495714Y-122072438D01*
X141495714Y-122072438D02*
X141543333Y-122120057D01*
X141876667Y-122024819D02*
X142543333Y-122024819D01*
X142543333Y-122024819D02*
X142114762Y-123024819D01*
X160569580Y-116712857D02*
X160617200Y-116760476D01*
X160617200Y-116760476D02*
X160664819Y-116903333D01*
X160664819Y-116903333D02*
X160664819Y-116998571D01*
X160664819Y-116998571D02*
X160617200Y-117141428D01*
X160617200Y-117141428D02*
X160521961Y-117236666D01*
X160521961Y-117236666D02*
X160426723Y-117284285D01*
X160426723Y-117284285D02*
X160236247Y-117331904D01*
X160236247Y-117331904D02*
X160093390Y-117331904D01*
X160093390Y-117331904D02*
X159902914Y-117284285D01*
X159902914Y-117284285D02*
X159807676Y-117236666D01*
X159807676Y-117236666D02*
X159712438Y-117141428D01*
X159712438Y-117141428D02*
X159664819Y-116998571D01*
X159664819Y-116998571D02*
X159664819Y-116903333D01*
X159664819Y-116903333D02*
X159712438Y-116760476D01*
X159712438Y-116760476D02*
X159760057Y-116712857D01*
X160664819Y-115760476D02*
X160664819Y-116331904D01*
X160664819Y-116046190D02*
X159664819Y-116046190D01*
X159664819Y-116046190D02*
X159807676Y-116141428D01*
X159807676Y-116141428D02*
X159902914Y-116236666D01*
X159902914Y-116236666D02*
X159950533Y-116331904D01*
X159664819Y-114855714D02*
X159664819Y-115331904D01*
X159664819Y-115331904D02*
X160141009Y-115379523D01*
X160141009Y-115379523D02*
X160093390Y-115331904D01*
X160093390Y-115331904D02*
X160045771Y-115236666D01*
X160045771Y-115236666D02*
X160045771Y-114998571D01*
X160045771Y-114998571D02*
X160093390Y-114903333D01*
X160093390Y-114903333D02*
X160141009Y-114855714D01*
X160141009Y-114855714D02*
X160236247Y-114808095D01*
X160236247Y-114808095D02*
X160474342Y-114808095D01*
X160474342Y-114808095D02*
X160569580Y-114855714D01*
X160569580Y-114855714D02*
X160617200Y-114903333D01*
X160617200Y-114903333D02*
X160664819Y-114998571D01*
X160664819Y-114998571D02*
X160664819Y-115236666D01*
X160664819Y-115236666D02*
X160617200Y-115331904D01*
X160617200Y-115331904D02*
X160569580Y-115379523D01*
X130144580Y-119722857D02*
X130192200Y-119770476D01*
X130192200Y-119770476D02*
X130239819Y-119913333D01*
X130239819Y-119913333D02*
X130239819Y-120008571D01*
X130239819Y-120008571D02*
X130192200Y-120151428D01*
X130192200Y-120151428D02*
X130096961Y-120246666D01*
X130096961Y-120246666D02*
X130001723Y-120294285D01*
X130001723Y-120294285D02*
X129811247Y-120341904D01*
X129811247Y-120341904D02*
X129668390Y-120341904D01*
X129668390Y-120341904D02*
X129477914Y-120294285D01*
X129477914Y-120294285D02*
X129382676Y-120246666D01*
X129382676Y-120246666D02*
X129287438Y-120151428D01*
X129287438Y-120151428D02*
X129239819Y-120008571D01*
X129239819Y-120008571D02*
X129239819Y-119913333D01*
X129239819Y-119913333D02*
X129287438Y-119770476D01*
X129287438Y-119770476D02*
X129335057Y-119722857D01*
X129335057Y-119341904D02*
X129287438Y-119294285D01*
X129287438Y-119294285D02*
X129239819Y-119199047D01*
X129239819Y-119199047D02*
X129239819Y-118960952D01*
X129239819Y-118960952D02*
X129287438Y-118865714D01*
X129287438Y-118865714D02*
X129335057Y-118818095D01*
X129335057Y-118818095D02*
X129430295Y-118770476D01*
X129430295Y-118770476D02*
X129525533Y-118770476D01*
X129525533Y-118770476D02*
X129668390Y-118818095D01*
X129668390Y-118818095D02*
X130239819Y-119389523D01*
X130239819Y-119389523D02*
X130239819Y-118770476D01*
X129668390Y-118199047D02*
X129620771Y-118294285D01*
X129620771Y-118294285D02*
X129573152Y-118341904D01*
X129573152Y-118341904D02*
X129477914Y-118389523D01*
X129477914Y-118389523D02*
X129430295Y-118389523D01*
X129430295Y-118389523D02*
X129335057Y-118341904D01*
X129335057Y-118341904D02*
X129287438Y-118294285D01*
X129287438Y-118294285D02*
X129239819Y-118199047D01*
X129239819Y-118199047D02*
X129239819Y-118008571D01*
X129239819Y-118008571D02*
X129287438Y-117913333D01*
X129287438Y-117913333D02*
X129335057Y-117865714D01*
X129335057Y-117865714D02*
X129430295Y-117818095D01*
X129430295Y-117818095D02*
X129477914Y-117818095D01*
X129477914Y-117818095D02*
X129573152Y-117865714D01*
X129573152Y-117865714D02*
X129620771Y-117913333D01*
X129620771Y-117913333D02*
X129668390Y-118008571D01*
X129668390Y-118008571D02*
X129668390Y-118199047D01*
X129668390Y-118199047D02*
X129716009Y-118294285D01*
X129716009Y-118294285D02*
X129763628Y-118341904D01*
X129763628Y-118341904D02*
X129858866Y-118389523D01*
X129858866Y-118389523D02*
X130049342Y-118389523D01*
X130049342Y-118389523D02*
X130144580Y-118341904D01*
X130144580Y-118341904D02*
X130192200Y-118294285D01*
X130192200Y-118294285D02*
X130239819Y-118199047D01*
X130239819Y-118199047D02*
X130239819Y-118008571D01*
X130239819Y-118008571D02*
X130192200Y-117913333D01*
X130192200Y-117913333D02*
X130144580Y-117865714D01*
X130144580Y-117865714D02*
X130049342Y-117818095D01*
X130049342Y-117818095D02*
X129858866Y-117818095D01*
X129858866Y-117818095D02*
X129763628Y-117865714D01*
X129763628Y-117865714D02*
X129716009Y-117913333D01*
X129716009Y-117913333D02*
X129668390Y-118008571D01*
X135069580Y-124212857D02*
X135117200Y-124260476D01*
X135117200Y-124260476D02*
X135164819Y-124403333D01*
X135164819Y-124403333D02*
X135164819Y-124498571D01*
X135164819Y-124498571D02*
X135117200Y-124641428D01*
X135117200Y-124641428D02*
X135021961Y-124736666D01*
X135021961Y-124736666D02*
X134926723Y-124784285D01*
X134926723Y-124784285D02*
X134736247Y-124831904D01*
X134736247Y-124831904D02*
X134593390Y-124831904D01*
X134593390Y-124831904D02*
X134402914Y-124784285D01*
X134402914Y-124784285D02*
X134307676Y-124736666D01*
X134307676Y-124736666D02*
X134212438Y-124641428D01*
X134212438Y-124641428D02*
X134164819Y-124498571D01*
X134164819Y-124498571D02*
X134164819Y-124403333D01*
X134164819Y-124403333D02*
X134212438Y-124260476D01*
X134212438Y-124260476D02*
X134260057Y-124212857D01*
X135164819Y-123260476D02*
X135164819Y-123831904D01*
X135164819Y-123546190D02*
X134164819Y-123546190D01*
X134164819Y-123546190D02*
X134307676Y-123641428D01*
X134307676Y-123641428D02*
X134402914Y-123736666D01*
X134402914Y-123736666D02*
X134450533Y-123831904D01*
X134260057Y-122879523D02*
X134212438Y-122831904D01*
X134212438Y-122831904D02*
X134164819Y-122736666D01*
X134164819Y-122736666D02*
X134164819Y-122498571D01*
X134164819Y-122498571D02*
X134212438Y-122403333D01*
X134212438Y-122403333D02*
X134260057Y-122355714D01*
X134260057Y-122355714D02*
X134355295Y-122308095D01*
X134355295Y-122308095D02*
X134450533Y-122308095D01*
X134450533Y-122308095D02*
X134593390Y-122355714D01*
X134593390Y-122355714D02*
X135164819Y-122927142D01*
X135164819Y-122927142D02*
X135164819Y-122308095D01*
X134514819Y-91953333D02*
X135229104Y-91953333D01*
X135229104Y-91953333D02*
X135371961Y-92000952D01*
X135371961Y-92000952D02*
X135467200Y-92096190D01*
X135467200Y-92096190D02*
X135514819Y-92239047D01*
X135514819Y-92239047D02*
X135514819Y-92334285D01*
X134610057Y-91524761D02*
X134562438Y-91477142D01*
X134562438Y-91477142D02*
X134514819Y-91381904D01*
X134514819Y-91381904D02*
X134514819Y-91143809D01*
X134514819Y-91143809D02*
X134562438Y-91048571D01*
X134562438Y-91048571D02*
X134610057Y-91000952D01*
X134610057Y-91000952D02*
X134705295Y-90953333D01*
X134705295Y-90953333D02*
X134800533Y-90953333D01*
X134800533Y-90953333D02*
X134943390Y-91000952D01*
X134943390Y-91000952D02*
X135514819Y-91572380D01*
X135514819Y-91572380D02*
X135514819Y-90953333D01*
X150067142Y-122929580D02*
X150019523Y-122977200D01*
X150019523Y-122977200D02*
X149876666Y-123024819D01*
X149876666Y-123024819D02*
X149781428Y-123024819D01*
X149781428Y-123024819D02*
X149638571Y-122977200D01*
X149638571Y-122977200D02*
X149543333Y-122881961D01*
X149543333Y-122881961D02*
X149495714Y-122786723D01*
X149495714Y-122786723D02*
X149448095Y-122596247D01*
X149448095Y-122596247D02*
X149448095Y-122453390D01*
X149448095Y-122453390D02*
X149495714Y-122262914D01*
X149495714Y-122262914D02*
X149543333Y-122167676D01*
X149543333Y-122167676D02*
X149638571Y-122072438D01*
X149638571Y-122072438D02*
X149781428Y-122024819D01*
X149781428Y-122024819D02*
X149876666Y-122024819D01*
X149876666Y-122024819D02*
X150019523Y-122072438D01*
X150019523Y-122072438D02*
X150067142Y-122120057D01*
X151019523Y-123024819D02*
X150448095Y-123024819D01*
X150733809Y-123024819D02*
X150733809Y-122024819D01*
X150733809Y-122024819D02*
X150638571Y-122167676D01*
X150638571Y-122167676D02*
X150543333Y-122262914D01*
X150543333Y-122262914D02*
X150448095Y-122310533D01*
X151638571Y-122024819D02*
X151733809Y-122024819D01*
X151733809Y-122024819D02*
X151829047Y-122072438D01*
X151829047Y-122072438D02*
X151876666Y-122120057D01*
X151876666Y-122120057D02*
X151924285Y-122215295D01*
X151924285Y-122215295D02*
X151971904Y-122405771D01*
X151971904Y-122405771D02*
X151971904Y-122643866D01*
X151971904Y-122643866D02*
X151924285Y-122834342D01*
X151924285Y-122834342D02*
X151876666Y-122929580D01*
X151876666Y-122929580D02*
X151829047Y-122977200D01*
X151829047Y-122977200D02*
X151733809Y-123024819D01*
X151733809Y-123024819D02*
X151638571Y-123024819D01*
X151638571Y-123024819D02*
X151543333Y-122977200D01*
X151543333Y-122977200D02*
X151495714Y-122929580D01*
X151495714Y-122929580D02*
X151448095Y-122834342D01*
X151448095Y-122834342D02*
X151400476Y-122643866D01*
X151400476Y-122643866D02*
X151400476Y-122405771D01*
X151400476Y-122405771D02*
X151448095Y-122215295D01*
X151448095Y-122215295D02*
X151495714Y-122120057D01*
X151495714Y-122120057D02*
X151543333Y-122072438D01*
X151543333Y-122072438D02*
X151638571Y-122024819D01*
X150067142Y-128429580D02*
X150019523Y-128477200D01*
X150019523Y-128477200D02*
X149876666Y-128524819D01*
X149876666Y-128524819D02*
X149781428Y-128524819D01*
X149781428Y-128524819D02*
X149638571Y-128477200D01*
X149638571Y-128477200D02*
X149543333Y-128381961D01*
X149543333Y-128381961D02*
X149495714Y-128286723D01*
X149495714Y-128286723D02*
X149448095Y-128096247D01*
X149448095Y-128096247D02*
X149448095Y-127953390D01*
X149448095Y-127953390D02*
X149495714Y-127762914D01*
X149495714Y-127762914D02*
X149543333Y-127667676D01*
X149543333Y-127667676D02*
X149638571Y-127572438D01*
X149638571Y-127572438D02*
X149781428Y-127524819D01*
X149781428Y-127524819D02*
X149876666Y-127524819D01*
X149876666Y-127524819D02*
X150019523Y-127572438D01*
X150019523Y-127572438D02*
X150067142Y-127620057D01*
X150448095Y-127620057D02*
X150495714Y-127572438D01*
X150495714Y-127572438D02*
X150590952Y-127524819D01*
X150590952Y-127524819D02*
X150829047Y-127524819D01*
X150829047Y-127524819D02*
X150924285Y-127572438D01*
X150924285Y-127572438D02*
X150971904Y-127620057D01*
X150971904Y-127620057D02*
X151019523Y-127715295D01*
X151019523Y-127715295D02*
X151019523Y-127810533D01*
X151019523Y-127810533D02*
X150971904Y-127953390D01*
X150971904Y-127953390D02*
X150400476Y-128524819D01*
X150400476Y-128524819D02*
X151019523Y-128524819D01*
X151400476Y-127620057D02*
X151448095Y-127572438D01*
X151448095Y-127572438D02*
X151543333Y-127524819D01*
X151543333Y-127524819D02*
X151781428Y-127524819D01*
X151781428Y-127524819D02*
X151876666Y-127572438D01*
X151876666Y-127572438D02*
X151924285Y-127620057D01*
X151924285Y-127620057D02*
X151971904Y-127715295D01*
X151971904Y-127715295D02*
X151971904Y-127810533D01*
X151971904Y-127810533D02*
X151924285Y-127953390D01*
X151924285Y-127953390D02*
X151352857Y-128524819D01*
X151352857Y-128524819D02*
X151971904Y-128524819D01*
X175539580Y-122680357D02*
X175587200Y-122727976D01*
X175587200Y-122727976D02*
X175634819Y-122870833D01*
X175634819Y-122870833D02*
X175634819Y-122966071D01*
X175634819Y-122966071D02*
X175587200Y-123108928D01*
X175587200Y-123108928D02*
X175491961Y-123204166D01*
X175491961Y-123204166D02*
X175396723Y-123251785D01*
X175396723Y-123251785D02*
X175206247Y-123299404D01*
X175206247Y-123299404D02*
X175063390Y-123299404D01*
X175063390Y-123299404D02*
X174872914Y-123251785D01*
X174872914Y-123251785D02*
X174777676Y-123204166D01*
X174777676Y-123204166D02*
X174682438Y-123108928D01*
X174682438Y-123108928D02*
X174634819Y-122966071D01*
X174634819Y-122966071D02*
X174634819Y-122870833D01*
X174634819Y-122870833D02*
X174682438Y-122727976D01*
X174682438Y-122727976D02*
X174730057Y-122680357D01*
X174968152Y-121823214D02*
X175634819Y-121823214D01*
X174587200Y-122061309D02*
X175301485Y-122299404D01*
X175301485Y-122299404D02*
X175301485Y-121680357D01*
X174634819Y-121108928D02*
X174634819Y-121013690D01*
X174634819Y-121013690D02*
X174682438Y-120918452D01*
X174682438Y-120918452D02*
X174730057Y-120870833D01*
X174730057Y-120870833D02*
X174825295Y-120823214D01*
X174825295Y-120823214D02*
X175015771Y-120775595D01*
X175015771Y-120775595D02*
X175253866Y-120775595D01*
X175253866Y-120775595D02*
X175444342Y-120823214D01*
X175444342Y-120823214D02*
X175539580Y-120870833D01*
X175539580Y-120870833D02*
X175587200Y-120918452D01*
X175587200Y-120918452D02*
X175634819Y-121013690D01*
X175634819Y-121013690D02*
X175634819Y-121108928D01*
X175634819Y-121108928D02*
X175587200Y-121204166D01*
X175587200Y-121204166D02*
X175539580Y-121251785D01*
X175539580Y-121251785D02*
X175444342Y-121299404D01*
X175444342Y-121299404D02*
X175253866Y-121347023D01*
X175253866Y-121347023D02*
X175015771Y-121347023D01*
X175015771Y-121347023D02*
X174825295Y-121299404D01*
X174825295Y-121299404D02*
X174730057Y-121251785D01*
X174730057Y-121251785D02*
X174682438Y-121204166D01*
X174682438Y-121204166D02*
X174634819Y-121108928D01*
X141067142Y-128429580D02*
X141019523Y-128477200D01*
X141019523Y-128477200D02*
X140876666Y-128524819D01*
X140876666Y-128524819D02*
X140781428Y-128524819D01*
X140781428Y-128524819D02*
X140638571Y-128477200D01*
X140638571Y-128477200D02*
X140543333Y-128381961D01*
X140543333Y-128381961D02*
X140495714Y-128286723D01*
X140495714Y-128286723D02*
X140448095Y-128096247D01*
X140448095Y-128096247D02*
X140448095Y-127953390D01*
X140448095Y-127953390D02*
X140495714Y-127762914D01*
X140495714Y-127762914D02*
X140543333Y-127667676D01*
X140543333Y-127667676D02*
X140638571Y-127572438D01*
X140638571Y-127572438D02*
X140781428Y-127524819D01*
X140781428Y-127524819D02*
X140876666Y-127524819D01*
X140876666Y-127524819D02*
X141019523Y-127572438D01*
X141019523Y-127572438D02*
X141067142Y-127620057D01*
X142019523Y-128524819D02*
X141448095Y-128524819D01*
X141733809Y-128524819D02*
X141733809Y-127524819D01*
X141733809Y-127524819D02*
X141638571Y-127667676D01*
X141638571Y-127667676D02*
X141543333Y-127762914D01*
X141543333Y-127762914D02*
X141448095Y-127810533D01*
X142495714Y-128524819D02*
X142686190Y-128524819D01*
X142686190Y-128524819D02*
X142781428Y-128477200D01*
X142781428Y-128477200D02*
X142829047Y-128429580D01*
X142829047Y-128429580D02*
X142924285Y-128286723D01*
X142924285Y-128286723D02*
X142971904Y-128096247D01*
X142971904Y-128096247D02*
X142971904Y-127715295D01*
X142971904Y-127715295D02*
X142924285Y-127620057D01*
X142924285Y-127620057D02*
X142876666Y-127572438D01*
X142876666Y-127572438D02*
X142781428Y-127524819D01*
X142781428Y-127524819D02*
X142590952Y-127524819D01*
X142590952Y-127524819D02*
X142495714Y-127572438D01*
X142495714Y-127572438D02*
X142448095Y-127620057D01*
X142448095Y-127620057D02*
X142400476Y-127715295D01*
X142400476Y-127715295D02*
X142400476Y-127953390D01*
X142400476Y-127953390D02*
X142448095Y-128048628D01*
X142448095Y-128048628D02*
X142495714Y-128096247D01*
X142495714Y-128096247D02*
X142590952Y-128143866D01*
X142590952Y-128143866D02*
X142781428Y-128143866D01*
X142781428Y-128143866D02*
X142876666Y-128096247D01*
X142876666Y-128096247D02*
X142924285Y-128048628D01*
X142924285Y-128048628D02*
X142971904Y-127953390D01*
X124569580Y-116712857D02*
X124617200Y-116760476D01*
X124617200Y-116760476D02*
X124664819Y-116903333D01*
X124664819Y-116903333D02*
X124664819Y-116998571D01*
X124664819Y-116998571D02*
X124617200Y-117141428D01*
X124617200Y-117141428D02*
X124521961Y-117236666D01*
X124521961Y-117236666D02*
X124426723Y-117284285D01*
X124426723Y-117284285D02*
X124236247Y-117331904D01*
X124236247Y-117331904D02*
X124093390Y-117331904D01*
X124093390Y-117331904D02*
X123902914Y-117284285D01*
X123902914Y-117284285D02*
X123807676Y-117236666D01*
X123807676Y-117236666D02*
X123712438Y-117141428D01*
X123712438Y-117141428D02*
X123664819Y-116998571D01*
X123664819Y-116998571D02*
X123664819Y-116903333D01*
X123664819Y-116903333D02*
X123712438Y-116760476D01*
X123712438Y-116760476D02*
X123760057Y-116712857D01*
X123664819Y-116379523D02*
X123664819Y-115760476D01*
X123664819Y-115760476D02*
X124045771Y-116093809D01*
X124045771Y-116093809D02*
X124045771Y-115950952D01*
X124045771Y-115950952D02*
X124093390Y-115855714D01*
X124093390Y-115855714D02*
X124141009Y-115808095D01*
X124141009Y-115808095D02*
X124236247Y-115760476D01*
X124236247Y-115760476D02*
X124474342Y-115760476D01*
X124474342Y-115760476D02*
X124569580Y-115808095D01*
X124569580Y-115808095D02*
X124617200Y-115855714D01*
X124617200Y-115855714D02*
X124664819Y-115950952D01*
X124664819Y-115950952D02*
X124664819Y-116236666D01*
X124664819Y-116236666D02*
X124617200Y-116331904D01*
X124617200Y-116331904D02*
X124569580Y-116379523D01*
X123664819Y-115427142D02*
X123664819Y-114808095D01*
X123664819Y-114808095D02*
X124045771Y-115141428D01*
X124045771Y-115141428D02*
X124045771Y-114998571D01*
X124045771Y-114998571D02*
X124093390Y-114903333D01*
X124093390Y-114903333D02*
X124141009Y-114855714D01*
X124141009Y-114855714D02*
X124236247Y-114808095D01*
X124236247Y-114808095D02*
X124474342Y-114808095D01*
X124474342Y-114808095D02*
X124569580Y-114855714D01*
X124569580Y-114855714D02*
X124617200Y-114903333D01*
X124617200Y-114903333D02*
X124664819Y-114998571D01*
X124664819Y-114998571D02*
X124664819Y-115284285D01*
X124664819Y-115284285D02*
X124617200Y-115379523D01*
X124617200Y-115379523D02*
X124569580Y-115427142D01*
X124569580Y-119712857D02*
X124617200Y-119760476D01*
X124617200Y-119760476D02*
X124664819Y-119903333D01*
X124664819Y-119903333D02*
X124664819Y-119998571D01*
X124664819Y-119998571D02*
X124617200Y-120141428D01*
X124617200Y-120141428D02*
X124521961Y-120236666D01*
X124521961Y-120236666D02*
X124426723Y-120284285D01*
X124426723Y-120284285D02*
X124236247Y-120331904D01*
X124236247Y-120331904D02*
X124093390Y-120331904D01*
X124093390Y-120331904D02*
X123902914Y-120284285D01*
X123902914Y-120284285D02*
X123807676Y-120236666D01*
X123807676Y-120236666D02*
X123712438Y-120141428D01*
X123712438Y-120141428D02*
X123664819Y-119998571D01*
X123664819Y-119998571D02*
X123664819Y-119903333D01*
X123664819Y-119903333D02*
X123712438Y-119760476D01*
X123712438Y-119760476D02*
X123760057Y-119712857D01*
X123664819Y-119379523D02*
X123664819Y-118760476D01*
X123664819Y-118760476D02*
X124045771Y-119093809D01*
X124045771Y-119093809D02*
X124045771Y-118950952D01*
X124045771Y-118950952D02*
X124093390Y-118855714D01*
X124093390Y-118855714D02*
X124141009Y-118808095D01*
X124141009Y-118808095D02*
X124236247Y-118760476D01*
X124236247Y-118760476D02*
X124474342Y-118760476D01*
X124474342Y-118760476D02*
X124569580Y-118808095D01*
X124569580Y-118808095D02*
X124617200Y-118855714D01*
X124617200Y-118855714D02*
X124664819Y-118950952D01*
X124664819Y-118950952D02*
X124664819Y-119236666D01*
X124664819Y-119236666D02*
X124617200Y-119331904D01*
X124617200Y-119331904D02*
X124569580Y-119379523D01*
X123664819Y-117855714D02*
X123664819Y-118331904D01*
X123664819Y-118331904D02*
X124141009Y-118379523D01*
X124141009Y-118379523D02*
X124093390Y-118331904D01*
X124093390Y-118331904D02*
X124045771Y-118236666D01*
X124045771Y-118236666D02*
X124045771Y-117998571D01*
X124045771Y-117998571D02*
X124093390Y-117903333D01*
X124093390Y-117903333D02*
X124141009Y-117855714D01*
X124141009Y-117855714D02*
X124236247Y-117808095D01*
X124236247Y-117808095D02*
X124474342Y-117808095D01*
X124474342Y-117808095D02*
X124569580Y-117855714D01*
X124569580Y-117855714D02*
X124617200Y-117903333D01*
X124617200Y-117903333D02*
X124664819Y-117998571D01*
X124664819Y-117998571D02*
X124664819Y-118236666D01*
X124664819Y-118236666D02*
X124617200Y-118331904D01*
X124617200Y-118331904D02*
X124569580Y-118379523D01*
X160389580Y-98180357D02*
X160437200Y-98227976D01*
X160437200Y-98227976D02*
X160484819Y-98370833D01*
X160484819Y-98370833D02*
X160484819Y-98466071D01*
X160484819Y-98466071D02*
X160437200Y-98608928D01*
X160437200Y-98608928D02*
X160341961Y-98704166D01*
X160341961Y-98704166D02*
X160246723Y-98751785D01*
X160246723Y-98751785D02*
X160056247Y-98799404D01*
X160056247Y-98799404D02*
X159913390Y-98799404D01*
X159913390Y-98799404D02*
X159722914Y-98751785D01*
X159722914Y-98751785D02*
X159627676Y-98704166D01*
X159627676Y-98704166D02*
X159532438Y-98608928D01*
X159532438Y-98608928D02*
X159484819Y-98466071D01*
X159484819Y-98466071D02*
X159484819Y-98370833D01*
X159484819Y-98370833D02*
X159532438Y-98227976D01*
X159532438Y-98227976D02*
X159580057Y-98180357D01*
X159818152Y-97323214D02*
X160484819Y-97323214D01*
X159437200Y-97561309D02*
X160151485Y-97799404D01*
X160151485Y-97799404D02*
X160151485Y-97180357D01*
X159484819Y-96894642D02*
X159484819Y-96275595D01*
X159484819Y-96275595D02*
X159865771Y-96608928D01*
X159865771Y-96608928D02*
X159865771Y-96466071D01*
X159865771Y-96466071D02*
X159913390Y-96370833D01*
X159913390Y-96370833D02*
X159961009Y-96323214D01*
X159961009Y-96323214D02*
X160056247Y-96275595D01*
X160056247Y-96275595D02*
X160294342Y-96275595D01*
X160294342Y-96275595D02*
X160389580Y-96323214D01*
X160389580Y-96323214D02*
X160437200Y-96370833D01*
X160437200Y-96370833D02*
X160484819Y-96466071D01*
X160484819Y-96466071D02*
X160484819Y-96751785D01*
X160484819Y-96751785D02*
X160437200Y-96847023D01*
X160437200Y-96847023D02*
X160389580Y-96894642D01*
X154067142Y-98429580D02*
X154019523Y-98477200D01*
X154019523Y-98477200D02*
X153876666Y-98524819D01*
X153876666Y-98524819D02*
X153781428Y-98524819D01*
X153781428Y-98524819D02*
X153638571Y-98477200D01*
X153638571Y-98477200D02*
X153543333Y-98381961D01*
X153543333Y-98381961D02*
X153495714Y-98286723D01*
X153495714Y-98286723D02*
X153448095Y-98096247D01*
X153448095Y-98096247D02*
X153448095Y-97953390D01*
X153448095Y-97953390D02*
X153495714Y-97762914D01*
X153495714Y-97762914D02*
X153543333Y-97667676D01*
X153543333Y-97667676D02*
X153638571Y-97572438D01*
X153638571Y-97572438D02*
X153781428Y-97524819D01*
X153781428Y-97524819D02*
X153876666Y-97524819D01*
X153876666Y-97524819D02*
X154019523Y-97572438D01*
X154019523Y-97572438D02*
X154067142Y-97620057D01*
X154400476Y-97524819D02*
X155019523Y-97524819D01*
X155019523Y-97524819D02*
X154686190Y-97905771D01*
X154686190Y-97905771D02*
X154829047Y-97905771D01*
X154829047Y-97905771D02*
X154924285Y-97953390D01*
X154924285Y-97953390D02*
X154971904Y-98001009D01*
X154971904Y-98001009D02*
X155019523Y-98096247D01*
X155019523Y-98096247D02*
X155019523Y-98334342D01*
X155019523Y-98334342D02*
X154971904Y-98429580D01*
X154971904Y-98429580D02*
X154924285Y-98477200D01*
X154924285Y-98477200D02*
X154829047Y-98524819D01*
X154829047Y-98524819D02*
X154543333Y-98524819D01*
X154543333Y-98524819D02*
X154448095Y-98477200D01*
X154448095Y-98477200D02*
X154400476Y-98429580D01*
X155352857Y-97524819D02*
X156019523Y-97524819D01*
X156019523Y-97524819D02*
X155590952Y-98524819D01*
X170333333Y-77454819D02*
X170000000Y-76978628D01*
X169761905Y-77454819D02*
X169761905Y-76454819D01*
X169761905Y-76454819D02*
X170142857Y-76454819D01*
X170142857Y-76454819D02*
X170238095Y-76502438D01*
X170238095Y-76502438D02*
X170285714Y-76550057D01*
X170285714Y-76550057D02*
X170333333Y-76645295D01*
X170333333Y-76645295D02*
X170333333Y-76788152D01*
X170333333Y-76788152D02*
X170285714Y-76883390D01*
X170285714Y-76883390D02*
X170238095Y-76931009D01*
X170238095Y-76931009D02*
X170142857Y-76978628D01*
X170142857Y-76978628D02*
X169761905Y-76978628D01*
X171190476Y-76788152D02*
X171190476Y-77454819D01*
X170952381Y-76407200D02*
X170714286Y-77121485D01*
X170714286Y-77121485D02*
X171333333Y-77121485D01*
X167067142Y-92929580D02*
X167019523Y-92977200D01*
X167019523Y-92977200D02*
X166876666Y-93024819D01*
X166876666Y-93024819D02*
X166781428Y-93024819D01*
X166781428Y-93024819D02*
X166638571Y-92977200D01*
X166638571Y-92977200D02*
X166543333Y-92881961D01*
X166543333Y-92881961D02*
X166495714Y-92786723D01*
X166495714Y-92786723D02*
X166448095Y-92596247D01*
X166448095Y-92596247D02*
X166448095Y-92453390D01*
X166448095Y-92453390D02*
X166495714Y-92262914D01*
X166495714Y-92262914D02*
X166543333Y-92167676D01*
X166543333Y-92167676D02*
X166638571Y-92072438D01*
X166638571Y-92072438D02*
X166781428Y-92024819D01*
X166781428Y-92024819D02*
X166876666Y-92024819D01*
X166876666Y-92024819D02*
X167019523Y-92072438D01*
X167019523Y-92072438D02*
X167067142Y-92120057D01*
X167400476Y-92024819D02*
X168019523Y-92024819D01*
X168019523Y-92024819D02*
X167686190Y-92405771D01*
X167686190Y-92405771D02*
X167829047Y-92405771D01*
X167829047Y-92405771D02*
X167924285Y-92453390D01*
X167924285Y-92453390D02*
X167971904Y-92501009D01*
X167971904Y-92501009D02*
X168019523Y-92596247D01*
X168019523Y-92596247D02*
X168019523Y-92834342D01*
X168019523Y-92834342D02*
X167971904Y-92929580D01*
X167971904Y-92929580D02*
X167924285Y-92977200D01*
X167924285Y-92977200D02*
X167829047Y-93024819D01*
X167829047Y-93024819D02*
X167543333Y-93024819D01*
X167543333Y-93024819D02*
X167448095Y-92977200D01*
X167448095Y-92977200D02*
X167400476Y-92929580D01*
X168590952Y-92453390D02*
X168495714Y-92405771D01*
X168495714Y-92405771D02*
X168448095Y-92358152D01*
X168448095Y-92358152D02*
X168400476Y-92262914D01*
X168400476Y-92262914D02*
X168400476Y-92215295D01*
X168400476Y-92215295D02*
X168448095Y-92120057D01*
X168448095Y-92120057D02*
X168495714Y-92072438D01*
X168495714Y-92072438D02*
X168590952Y-92024819D01*
X168590952Y-92024819D02*
X168781428Y-92024819D01*
X168781428Y-92024819D02*
X168876666Y-92072438D01*
X168876666Y-92072438D02*
X168924285Y-92120057D01*
X168924285Y-92120057D02*
X168971904Y-92215295D01*
X168971904Y-92215295D02*
X168971904Y-92262914D01*
X168971904Y-92262914D02*
X168924285Y-92358152D01*
X168924285Y-92358152D02*
X168876666Y-92405771D01*
X168876666Y-92405771D02*
X168781428Y-92453390D01*
X168781428Y-92453390D02*
X168590952Y-92453390D01*
X168590952Y-92453390D02*
X168495714Y-92501009D01*
X168495714Y-92501009D02*
X168448095Y-92548628D01*
X168448095Y-92548628D02*
X168400476Y-92643866D01*
X168400476Y-92643866D02*
X168400476Y-92834342D01*
X168400476Y-92834342D02*
X168448095Y-92929580D01*
X168448095Y-92929580D02*
X168495714Y-92977200D01*
X168495714Y-92977200D02*
X168590952Y-93024819D01*
X168590952Y-93024819D02*
X168781428Y-93024819D01*
X168781428Y-93024819D02*
X168876666Y-92977200D01*
X168876666Y-92977200D02*
X168924285Y-92929580D01*
X168924285Y-92929580D02*
X168971904Y-92834342D01*
X168971904Y-92834342D02*
X168971904Y-92643866D01*
X168971904Y-92643866D02*
X168924285Y-92548628D01*
X168924285Y-92548628D02*
X168876666Y-92501009D01*
X168876666Y-92501009D02*
X168781428Y-92453390D01*
X130069580Y-107712857D02*
X130117200Y-107760476D01*
X130117200Y-107760476D02*
X130164819Y-107903333D01*
X130164819Y-107903333D02*
X130164819Y-107998571D01*
X130164819Y-107998571D02*
X130117200Y-108141428D01*
X130117200Y-108141428D02*
X130021961Y-108236666D01*
X130021961Y-108236666D02*
X129926723Y-108284285D01*
X129926723Y-108284285D02*
X129736247Y-108331904D01*
X129736247Y-108331904D02*
X129593390Y-108331904D01*
X129593390Y-108331904D02*
X129402914Y-108284285D01*
X129402914Y-108284285D02*
X129307676Y-108236666D01*
X129307676Y-108236666D02*
X129212438Y-108141428D01*
X129212438Y-108141428D02*
X129164819Y-107998571D01*
X129164819Y-107998571D02*
X129164819Y-107903333D01*
X129164819Y-107903333D02*
X129212438Y-107760476D01*
X129212438Y-107760476D02*
X129260057Y-107712857D01*
X130164819Y-106760476D02*
X130164819Y-107331904D01*
X130164819Y-107046190D02*
X129164819Y-107046190D01*
X129164819Y-107046190D02*
X129307676Y-107141428D01*
X129307676Y-107141428D02*
X129402914Y-107236666D01*
X129402914Y-107236666D02*
X129450533Y-107331904D01*
X129593390Y-106189047D02*
X129545771Y-106284285D01*
X129545771Y-106284285D02*
X129498152Y-106331904D01*
X129498152Y-106331904D02*
X129402914Y-106379523D01*
X129402914Y-106379523D02*
X129355295Y-106379523D01*
X129355295Y-106379523D02*
X129260057Y-106331904D01*
X129260057Y-106331904D02*
X129212438Y-106284285D01*
X129212438Y-106284285D02*
X129164819Y-106189047D01*
X129164819Y-106189047D02*
X129164819Y-105998571D01*
X129164819Y-105998571D02*
X129212438Y-105903333D01*
X129212438Y-105903333D02*
X129260057Y-105855714D01*
X129260057Y-105855714D02*
X129355295Y-105808095D01*
X129355295Y-105808095D02*
X129402914Y-105808095D01*
X129402914Y-105808095D02*
X129498152Y-105855714D01*
X129498152Y-105855714D02*
X129545771Y-105903333D01*
X129545771Y-105903333D02*
X129593390Y-105998571D01*
X129593390Y-105998571D02*
X129593390Y-106189047D01*
X129593390Y-106189047D02*
X129641009Y-106284285D01*
X129641009Y-106284285D02*
X129688628Y-106331904D01*
X129688628Y-106331904D02*
X129783866Y-106379523D01*
X129783866Y-106379523D02*
X129974342Y-106379523D01*
X129974342Y-106379523D02*
X130069580Y-106331904D01*
X130069580Y-106331904D02*
X130117200Y-106284285D01*
X130117200Y-106284285D02*
X130164819Y-106189047D01*
X130164819Y-106189047D02*
X130164819Y-105998571D01*
X130164819Y-105998571D02*
X130117200Y-105903333D01*
X130117200Y-105903333D02*
X130069580Y-105855714D01*
X130069580Y-105855714D02*
X129974342Y-105808095D01*
X129974342Y-105808095D02*
X129783866Y-105808095D01*
X129783866Y-105808095D02*
X129688628Y-105855714D01*
X129688628Y-105855714D02*
X129641009Y-105903333D01*
X129641009Y-105903333D02*
X129593390Y-105998571D01*
X167067142Y-84929580D02*
X167019523Y-84977200D01*
X167019523Y-84977200D02*
X166876666Y-85024819D01*
X166876666Y-85024819D02*
X166781428Y-85024819D01*
X166781428Y-85024819D02*
X166638571Y-84977200D01*
X166638571Y-84977200D02*
X166543333Y-84881961D01*
X166543333Y-84881961D02*
X166495714Y-84786723D01*
X166495714Y-84786723D02*
X166448095Y-84596247D01*
X166448095Y-84596247D02*
X166448095Y-84453390D01*
X166448095Y-84453390D02*
X166495714Y-84262914D01*
X166495714Y-84262914D02*
X166543333Y-84167676D01*
X166543333Y-84167676D02*
X166638571Y-84072438D01*
X166638571Y-84072438D02*
X166781428Y-84024819D01*
X166781428Y-84024819D02*
X166876666Y-84024819D01*
X166876666Y-84024819D02*
X167019523Y-84072438D01*
X167019523Y-84072438D02*
X167067142Y-84120057D01*
X167400476Y-84024819D02*
X168019523Y-84024819D01*
X168019523Y-84024819D02*
X167686190Y-84405771D01*
X167686190Y-84405771D02*
X167829047Y-84405771D01*
X167829047Y-84405771D02*
X167924285Y-84453390D01*
X167924285Y-84453390D02*
X167971904Y-84501009D01*
X167971904Y-84501009D02*
X168019523Y-84596247D01*
X168019523Y-84596247D02*
X168019523Y-84834342D01*
X168019523Y-84834342D02*
X167971904Y-84929580D01*
X167971904Y-84929580D02*
X167924285Y-84977200D01*
X167924285Y-84977200D02*
X167829047Y-85024819D01*
X167829047Y-85024819D02*
X167543333Y-85024819D01*
X167543333Y-85024819D02*
X167448095Y-84977200D01*
X167448095Y-84977200D02*
X167400476Y-84929580D01*
X168495714Y-85024819D02*
X168686190Y-85024819D01*
X168686190Y-85024819D02*
X168781428Y-84977200D01*
X168781428Y-84977200D02*
X168829047Y-84929580D01*
X168829047Y-84929580D02*
X168924285Y-84786723D01*
X168924285Y-84786723D02*
X168971904Y-84596247D01*
X168971904Y-84596247D02*
X168971904Y-84215295D01*
X168971904Y-84215295D02*
X168924285Y-84120057D01*
X168924285Y-84120057D02*
X168876666Y-84072438D01*
X168876666Y-84072438D02*
X168781428Y-84024819D01*
X168781428Y-84024819D02*
X168590952Y-84024819D01*
X168590952Y-84024819D02*
X168495714Y-84072438D01*
X168495714Y-84072438D02*
X168448095Y-84120057D01*
X168448095Y-84120057D02*
X168400476Y-84215295D01*
X168400476Y-84215295D02*
X168400476Y-84453390D01*
X168400476Y-84453390D02*
X168448095Y-84548628D01*
X168448095Y-84548628D02*
X168495714Y-84596247D01*
X168495714Y-84596247D02*
X168590952Y-84643866D01*
X168590952Y-84643866D02*
X168781428Y-84643866D01*
X168781428Y-84643866D02*
X168876666Y-84596247D01*
X168876666Y-84596247D02*
X168924285Y-84548628D01*
X168924285Y-84548628D02*
X168971904Y-84453390D01*
X153057142Y-122929580D02*
X153009523Y-122977200D01*
X153009523Y-122977200D02*
X152866666Y-123024819D01*
X152866666Y-123024819D02*
X152771428Y-123024819D01*
X152771428Y-123024819D02*
X152628571Y-122977200D01*
X152628571Y-122977200D02*
X152533333Y-122881961D01*
X152533333Y-122881961D02*
X152485714Y-122786723D01*
X152485714Y-122786723D02*
X152438095Y-122596247D01*
X152438095Y-122596247D02*
X152438095Y-122453390D01*
X152438095Y-122453390D02*
X152485714Y-122262914D01*
X152485714Y-122262914D02*
X152533333Y-122167676D01*
X152533333Y-122167676D02*
X152628571Y-122072438D01*
X152628571Y-122072438D02*
X152771428Y-122024819D01*
X152771428Y-122024819D02*
X152866666Y-122024819D01*
X152866666Y-122024819D02*
X153009523Y-122072438D01*
X153009523Y-122072438D02*
X153057142Y-122120057D01*
X154009523Y-123024819D02*
X153438095Y-123024819D01*
X153723809Y-123024819D02*
X153723809Y-122024819D01*
X153723809Y-122024819D02*
X153628571Y-122167676D01*
X153628571Y-122167676D02*
X153533333Y-122262914D01*
X153533333Y-122262914D02*
X153438095Y-122310533D01*
X154961904Y-123024819D02*
X154390476Y-123024819D01*
X154676190Y-123024819D02*
X154676190Y-122024819D01*
X154676190Y-122024819D02*
X154580952Y-122167676D01*
X154580952Y-122167676D02*
X154485714Y-122262914D01*
X154485714Y-122262914D02*
X154390476Y-122310533D01*
X130144580Y-116722857D02*
X130192200Y-116770476D01*
X130192200Y-116770476D02*
X130239819Y-116913333D01*
X130239819Y-116913333D02*
X130239819Y-117008571D01*
X130239819Y-117008571D02*
X130192200Y-117151428D01*
X130192200Y-117151428D02*
X130096961Y-117246666D01*
X130096961Y-117246666D02*
X130001723Y-117294285D01*
X130001723Y-117294285D02*
X129811247Y-117341904D01*
X129811247Y-117341904D02*
X129668390Y-117341904D01*
X129668390Y-117341904D02*
X129477914Y-117294285D01*
X129477914Y-117294285D02*
X129382676Y-117246666D01*
X129382676Y-117246666D02*
X129287438Y-117151428D01*
X129287438Y-117151428D02*
X129239819Y-117008571D01*
X129239819Y-117008571D02*
X129239819Y-116913333D01*
X129239819Y-116913333D02*
X129287438Y-116770476D01*
X129287438Y-116770476D02*
X129335057Y-116722857D01*
X129335057Y-116341904D02*
X129287438Y-116294285D01*
X129287438Y-116294285D02*
X129239819Y-116199047D01*
X129239819Y-116199047D02*
X129239819Y-115960952D01*
X129239819Y-115960952D02*
X129287438Y-115865714D01*
X129287438Y-115865714D02*
X129335057Y-115818095D01*
X129335057Y-115818095D02*
X129430295Y-115770476D01*
X129430295Y-115770476D02*
X129525533Y-115770476D01*
X129525533Y-115770476D02*
X129668390Y-115818095D01*
X129668390Y-115818095D02*
X130239819Y-116389523D01*
X130239819Y-116389523D02*
X130239819Y-115770476D01*
X129239819Y-115437142D02*
X129239819Y-114770476D01*
X129239819Y-114770476D02*
X130239819Y-115199047D01*
X124569580Y-113712857D02*
X124617200Y-113760476D01*
X124617200Y-113760476D02*
X124664819Y-113903333D01*
X124664819Y-113903333D02*
X124664819Y-113998571D01*
X124664819Y-113998571D02*
X124617200Y-114141428D01*
X124617200Y-114141428D02*
X124521961Y-114236666D01*
X124521961Y-114236666D02*
X124426723Y-114284285D01*
X124426723Y-114284285D02*
X124236247Y-114331904D01*
X124236247Y-114331904D02*
X124093390Y-114331904D01*
X124093390Y-114331904D02*
X123902914Y-114284285D01*
X123902914Y-114284285D02*
X123807676Y-114236666D01*
X123807676Y-114236666D02*
X123712438Y-114141428D01*
X123712438Y-114141428D02*
X123664819Y-113998571D01*
X123664819Y-113998571D02*
X123664819Y-113903333D01*
X123664819Y-113903333D02*
X123712438Y-113760476D01*
X123712438Y-113760476D02*
X123760057Y-113712857D01*
X123664819Y-113379523D02*
X123664819Y-112760476D01*
X123664819Y-112760476D02*
X124045771Y-113093809D01*
X124045771Y-113093809D02*
X124045771Y-112950952D01*
X124045771Y-112950952D02*
X124093390Y-112855714D01*
X124093390Y-112855714D02*
X124141009Y-112808095D01*
X124141009Y-112808095D02*
X124236247Y-112760476D01*
X124236247Y-112760476D02*
X124474342Y-112760476D01*
X124474342Y-112760476D02*
X124569580Y-112808095D01*
X124569580Y-112808095D02*
X124617200Y-112855714D01*
X124617200Y-112855714D02*
X124664819Y-112950952D01*
X124664819Y-112950952D02*
X124664819Y-113236666D01*
X124664819Y-113236666D02*
X124617200Y-113331904D01*
X124617200Y-113331904D02*
X124569580Y-113379523D01*
X123760057Y-112379523D02*
X123712438Y-112331904D01*
X123712438Y-112331904D02*
X123664819Y-112236666D01*
X123664819Y-112236666D02*
X123664819Y-111998571D01*
X123664819Y-111998571D02*
X123712438Y-111903333D01*
X123712438Y-111903333D02*
X123760057Y-111855714D01*
X123760057Y-111855714D02*
X123855295Y-111808095D01*
X123855295Y-111808095D02*
X123950533Y-111808095D01*
X123950533Y-111808095D02*
X124093390Y-111855714D01*
X124093390Y-111855714D02*
X124664819Y-112427142D01*
X124664819Y-112427142D02*
X124664819Y-111808095D01*
X146948095Y-97174819D02*
X146948095Y-97984342D01*
X146948095Y-97984342D02*
X146995714Y-98079580D01*
X146995714Y-98079580D02*
X147043333Y-98127200D01*
X147043333Y-98127200D02*
X147138571Y-98174819D01*
X147138571Y-98174819D02*
X147329047Y-98174819D01*
X147329047Y-98174819D02*
X147424285Y-98127200D01*
X147424285Y-98127200D02*
X147471904Y-98079580D01*
X147471904Y-98079580D02*
X147519523Y-97984342D01*
X147519523Y-97984342D02*
X147519523Y-97174819D01*
X148519523Y-98174819D02*
X147948095Y-98174819D01*
X148233809Y-98174819D02*
X148233809Y-97174819D01*
X148233809Y-97174819D02*
X148138571Y-97317676D01*
X148138571Y-97317676D02*
X148043333Y-97412914D01*
X148043333Y-97412914D02*
X147948095Y-97460533D01*
X159543333Y-86024819D02*
X159210000Y-85548628D01*
X158971905Y-86024819D02*
X158971905Y-85024819D01*
X158971905Y-85024819D02*
X159352857Y-85024819D01*
X159352857Y-85024819D02*
X159448095Y-85072438D01*
X159448095Y-85072438D02*
X159495714Y-85120057D01*
X159495714Y-85120057D02*
X159543333Y-85215295D01*
X159543333Y-85215295D02*
X159543333Y-85358152D01*
X159543333Y-85358152D02*
X159495714Y-85453390D01*
X159495714Y-85453390D02*
X159448095Y-85501009D01*
X159448095Y-85501009D02*
X159352857Y-85548628D01*
X159352857Y-85548628D02*
X158971905Y-85548628D01*
X160495714Y-86024819D02*
X159924286Y-86024819D01*
X160210000Y-86024819D02*
X160210000Y-85024819D01*
X160210000Y-85024819D02*
X160114762Y-85167676D01*
X160114762Y-85167676D02*
X160019524Y-85262914D01*
X160019524Y-85262914D02*
X159924286Y-85310533D01*
X162964819Y-107593808D02*
X161964819Y-107593808D01*
X162964819Y-107117618D02*
X161964819Y-107117618D01*
X161964819Y-107117618D02*
X162679104Y-106784285D01*
X162679104Y-106784285D02*
X161964819Y-106450952D01*
X161964819Y-106450952D02*
X162964819Y-106450952D01*
X161964819Y-106069999D02*
X162964819Y-105403333D01*
X161964819Y-105403333D02*
X162964819Y-106069999D01*
X162964819Y-104498571D02*
X162964819Y-105069999D01*
X162964819Y-104784285D02*
X161964819Y-104784285D01*
X161964819Y-104784285D02*
X162107676Y-104879523D01*
X162107676Y-104879523D02*
X162202914Y-104974761D01*
X162202914Y-104974761D02*
X162250533Y-105069999D01*
X135069580Y-128712857D02*
X135117200Y-128760476D01*
X135117200Y-128760476D02*
X135164819Y-128903333D01*
X135164819Y-128903333D02*
X135164819Y-128998571D01*
X135164819Y-128998571D02*
X135117200Y-129141428D01*
X135117200Y-129141428D02*
X135021961Y-129236666D01*
X135021961Y-129236666D02*
X134926723Y-129284285D01*
X134926723Y-129284285D02*
X134736247Y-129331904D01*
X134736247Y-129331904D02*
X134593390Y-129331904D01*
X134593390Y-129331904D02*
X134402914Y-129284285D01*
X134402914Y-129284285D02*
X134307676Y-129236666D01*
X134307676Y-129236666D02*
X134212438Y-129141428D01*
X134212438Y-129141428D02*
X134164819Y-128998571D01*
X134164819Y-128998571D02*
X134164819Y-128903333D01*
X134164819Y-128903333D02*
X134212438Y-128760476D01*
X134212438Y-128760476D02*
X134260057Y-128712857D01*
X135164819Y-127760476D02*
X135164819Y-128331904D01*
X135164819Y-128046190D02*
X134164819Y-128046190D01*
X134164819Y-128046190D02*
X134307676Y-128141428D01*
X134307676Y-128141428D02*
X134402914Y-128236666D01*
X134402914Y-128236666D02*
X134450533Y-128331904D01*
X134164819Y-127427142D02*
X134164819Y-126808095D01*
X134164819Y-126808095D02*
X134545771Y-127141428D01*
X134545771Y-127141428D02*
X134545771Y-126998571D01*
X134545771Y-126998571D02*
X134593390Y-126903333D01*
X134593390Y-126903333D02*
X134641009Y-126855714D01*
X134641009Y-126855714D02*
X134736247Y-126808095D01*
X134736247Y-126808095D02*
X134974342Y-126808095D01*
X134974342Y-126808095D02*
X135069580Y-126855714D01*
X135069580Y-126855714D02*
X135117200Y-126903333D01*
X135117200Y-126903333D02*
X135164819Y-126998571D01*
X135164819Y-126998571D02*
X135164819Y-127284285D01*
X135164819Y-127284285D02*
X135117200Y-127379523D01*
X135117200Y-127379523D02*
X135069580Y-127427142D01*
X156067142Y-122929580D02*
X156019523Y-122977200D01*
X156019523Y-122977200D02*
X155876666Y-123024819D01*
X155876666Y-123024819D02*
X155781428Y-123024819D01*
X155781428Y-123024819D02*
X155638571Y-122977200D01*
X155638571Y-122977200D02*
X155543333Y-122881961D01*
X155543333Y-122881961D02*
X155495714Y-122786723D01*
X155495714Y-122786723D02*
X155448095Y-122596247D01*
X155448095Y-122596247D02*
X155448095Y-122453390D01*
X155448095Y-122453390D02*
X155495714Y-122262914D01*
X155495714Y-122262914D02*
X155543333Y-122167676D01*
X155543333Y-122167676D02*
X155638571Y-122072438D01*
X155638571Y-122072438D02*
X155781428Y-122024819D01*
X155781428Y-122024819D02*
X155876666Y-122024819D01*
X155876666Y-122024819D02*
X156019523Y-122072438D01*
X156019523Y-122072438D02*
X156067142Y-122120057D01*
X157019523Y-123024819D02*
X156448095Y-123024819D01*
X156733809Y-123024819D02*
X156733809Y-122024819D01*
X156733809Y-122024819D02*
X156638571Y-122167676D01*
X156638571Y-122167676D02*
X156543333Y-122262914D01*
X156543333Y-122262914D02*
X156448095Y-122310533D01*
X157352857Y-122024819D02*
X158019523Y-122024819D01*
X158019523Y-122024819D02*
X157590952Y-123024819D01*
X153067142Y-128429580D02*
X153019523Y-128477200D01*
X153019523Y-128477200D02*
X152876666Y-128524819D01*
X152876666Y-128524819D02*
X152781428Y-128524819D01*
X152781428Y-128524819D02*
X152638571Y-128477200D01*
X152638571Y-128477200D02*
X152543333Y-128381961D01*
X152543333Y-128381961D02*
X152495714Y-128286723D01*
X152495714Y-128286723D02*
X152448095Y-128096247D01*
X152448095Y-128096247D02*
X152448095Y-127953390D01*
X152448095Y-127953390D02*
X152495714Y-127762914D01*
X152495714Y-127762914D02*
X152543333Y-127667676D01*
X152543333Y-127667676D02*
X152638571Y-127572438D01*
X152638571Y-127572438D02*
X152781428Y-127524819D01*
X152781428Y-127524819D02*
X152876666Y-127524819D01*
X152876666Y-127524819D02*
X153019523Y-127572438D01*
X153019523Y-127572438D02*
X153067142Y-127620057D01*
X153448095Y-127620057D02*
X153495714Y-127572438D01*
X153495714Y-127572438D02*
X153590952Y-127524819D01*
X153590952Y-127524819D02*
X153829047Y-127524819D01*
X153829047Y-127524819D02*
X153924285Y-127572438D01*
X153924285Y-127572438D02*
X153971904Y-127620057D01*
X153971904Y-127620057D02*
X154019523Y-127715295D01*
X154019523Y-127715295D02*
X154019523Y-127810533D01*
X154019523Y-127810533D02*
X153971904Y-127953390D01*
X153971904Y-127953390D02*
X153400476Y-128524819D01*
X153400476Y-128524819D02*
X154019523Y-128524819D01*
X154352857Y-127524819D02*
X154971904Y-127524819D01*
X154971904Y-127524819D02*
X154638571Y-127905771D01*
X154638571Y-127905771D02*
X154781428Y-127905771D01*
X154781428Y-127905771D02*
X154876666Y-127953390D01*
X154876666Y-127953390D02*
X154924285Y-128001009D01*
X154924285Y-128001009D02*
X154971904Y-128096247D01*
X154971904Y-128096247D02*
X154971904Y-128334342D01*
X154971904Y-128334342D02*
X154924285Y-128429580D01*
X154924285Y-128429580D02*
X154876666Y-128477200D01*
X154876666Y-128477200D02*
X154781428Y-128524819D01*
X154781428Y-128524819D02*
X154495714Y-128524819D01*
X154495714Y-128524819D02*
X154400476Y-128477200D01*
X154400476Y-128477200D02*
X154352857Y-128429580D01*
X167023809Y-126978628D02*
X167023809Y-127454819D01*
X166690476Y-126454819D02*
X167023809Y-126978628D01*
X167023809Y-126978628D02*
X167357142Y-126454819D01*
X168119047Y-126788152D02*
X168119047Y-127454819D01*
X167880952Y-126407200D02*
X167642857Y-127121485D01*
X167642857Y-127121485D02*
X168261904Y-127121485D01*
X124569580Y-110712857D02*
X124617200Y-110760476D01*
X124617200Y-110760476D02*
X124664819Y-110903333D01*
X124664819Y-110903333D02*
X124664819Y-110998571D01*
X124664819Y-110998571D02*
X124617200Y-111141428D01*
X124617200Y-111141428D02*
X124521961Y-111236666D01*
X124521961Y-111236666D02*
X124426723Y-111284285D01*
X124426723Y-111284285D02*
X124236247Y-111331904D01*
X124236247Y-111331904D02*
X124093390Y-111331904D01*
X124093390Y-111331904D02*
X123902914Y-111284285D01*
X123902914Y-111284285D02*
X123807676Y-111236666D01*
X123807676Y-111236666D02*
X123712438Y-111141428D01*
X123712438Y-111141428D02*
X123664819Y-110998571D01*
X123664819Y-110998571D02*
X123664819Y-110903333D01*
X123664819Y-110903333D02*
X123712438Y-110760476D01*
X123712438Y-110760476D02*
X123760057Y-110712857D01*
X123664819Y-110379523D02*
X123664819Y-109760476D01*
X123664819Y-109760476D02*
X124045771Y-110093809D01*
X124045771Y-110093809D02*
X124045771Y-109950952D01*
X124045771Y-109950952D02*
X124093390Y-109855714D01*
X124093390Y-109855714D02*
X124141009Y-109808095D01*
X124141009Y-109808095D02*
X124236247Y-109760476D01*
X124236247Y-109760476D02*
X124474342Y-109760476D01*
X124474342Y-109760476D02*
X124569580Y-109808095D01*
X124569580Y-109808095D02*
X124617200Y-109855714D01*
X124617200Y-109855714D02*
X124664819Y-109950952D01*
X124664819Y-109950952D02*
X124664819Y-110236666D01*
X124664819Y-110236666D02*
X124617200Y-110331904D01*
X124617200Y-110331904D02*
X124569580Y-110379523D01*
X124664819Y-108808095D02*
X124664819Y-109379523D01*
X124664819Y-109093809D02*
X123664819Y-109093809D01*
X123664819Y-109093809D02*
X123807676Y-109189047D01*
X123807676Y-109189047D02*
X123902914Y-109284285D01*
X123902914Y-109284285D02*
X123950533Y-109379523D01*
X170333333Y-74954819D02*
X170000000Y-74478628D01*
X169761905Y-74954819D02*
X169761905Y-73954819D01*
X169761905Y-73954819D02*
X170142857Y-73954819D01*
X170142857Y-73954819D02*
X170238095Y-74002438D01*
X170238095Y-74002438D02*
X170285714Y-74050057D01*
X170285714Y-74050057D02*
X170333333Y-74145295D01*
X170333333Y-74145295D02*
X170333333Y-74288152D01*
X170333333Y-74288152D02*
X170285714Y-74383390D01*
X170285714Y-74383390D02*
X170238095Y-74431009D01*
X170238095Y-74431009D02*
X170142857Y-74478628D01*
X170142857Y-74478628D02*
X169761905Y-74478628D01*
X171238095Y-73954819D02*
X170761905Y-73954819D01*
X170761905Y-73954819D02*
X170714286Y-74431009D01*
X170714286Y-74431009D02*
X170761905Y-74383390D01*
X170761905Y-74383390D02*
X170857143Y-74335771D01*
X170857143Y-74335771D02*
X171095238Y-74335771D01*
X171095238Y-74335771D02*
X171190476Y-74383390D01*
X171190476Y-74383390D02*
X171238095Y-74431009D01*
X171238095Y-74431009D02*
X171285714Y-74526247D01*
X171285714Y-74526247D02*
X171285714Y-74764342D01*
X171285714Y-74764342D02*
X171238095Y-74859580D01*
X171238095Y-74859580D02*
X171190476Y-74907200D01*
X171190476Y-74907200D02*
X171095238Y-74954819D01*
X171095238Y-74954819D02*
X170857143Y-74954819D01*
X170857143Y-74954819D02*
X170761905Y-74907200D01*
X170761905Y-74907200D02*
X170714286Y-74859580D01*
X130144580Y-113722857D02*
X130192200Y-113770476D01*
X130192200Y-113770476D02*
X130239819Y-113913333D01*
X130239819Y-113913333D02*
X130239819Y-114008571D01*
X130239819Y-114008571D02*
X130192200Y-114151428D01*
X130192200Y-114151428D02*
X130096961Y-114246666D01*
X130096961Y-114246666D02*
X130001723Y-114294285D01*
X130001723Y-114294285D02*
X129811247Y-114341904D01*
X129811247Y-114341904D02*
X129668390Y-114341904D01*
X129668390Y-114341904D02*
X129477914Y-114294285D01*
X129477914Y-114294285D02*
X129382676Y-114246666D01*
X129382676Y-114246666D02*
X129287438Y-114151428D01*
X129287438Y-114151428D02*
X129239819Y-114008571D01*
X129239819Y-114008571D02*
X129239819Y-113913333D01*
X129239819Y-113913333D02*
X129287438Y-113770476D01*
X129287438Y-113770476D02*
X129335057Y-113722857D01*
X129335057Y-113341904D02*
X129287438Y-113294285D01*
X129287438Y-113294285D02*
X129239819Y-113199047D01*
X129239819Y-113199047D02*
X129239819Y-112960952D01*
X129239819Y-112960952D02*
X129287438Y-112865714D01*
X129287438Y-112865714D02*
X129335057Y-112818095D01*
X129335057Y-112818095D02*
X129430295Y-112770476D01*
X129430295Y-112770476D02*
X129525533Y-112770476D01*
X129525533Y-112770476D02*
X129668390Y-112818095D01*
X129668390Y-112818095D02*
X130239819Y-113389523D01*
X130239819Y-113389523D02*
X130239819Y-112770476D01*
X129239819Y-111913333D02*
X129239819Y-112103809D01*
X129239819Y-112103809D02*
X129287438Y-112199047D01*
X129287438Y-112199047D02*
X129335057Y-112246666D01*
X129335057Y-112246666D02*
X129477914Y-112341904D01*
X129477914Y-112341904D02*
X129668390Y-112389523D01*
X129668390Y-112389523D02*
X130049342Y-112389523D01*
X130049342Y-112389523D02*
X130144580Y-112341904D01*
X130144580Y-112341904D02*
X130192200Y-112294285D01*
X130192200Y-112294285D02*
X130239819Y-112199047D01*
X130239819Y-112199047D02*
X130239819Y-112008571D01*
X130239819Y-112008571D02*
X130192200Y-111913333D01*
X130192200Y-111913333D02*
X130144580Y-111865714D01*
X130144580Y-111865714D02*
X130049342Y-111818095D01*
X130049342Y-111818095D02*
X129811247Y-111818095D01*
X129811247Y-111818095D02*
X129716009Y-111865714D01*
X129716009Y-111865714D02*
X129668390Y-111913333D01*
X129668390Y-111913333D02*
X129620771Y-112008571D01*
X129620771Y-112008571D02*
X129620771Y-112199047D01*
X129620771Y-112199047D02*
X129668390Y-112294285D01*
X129668390Y-112294285D02*
X129716009Y-112341904D01*
X129716009Y-112341904D02*
X129811247Y-112389523D01*
X164333333Y-74954819D02*
X164000000Y-74478628D01*
X163761905Y-74954819D02*
X163761905Y-73954819D01*
X163761905Y-73954819D02*
X164142857Y-73954819D01*
X164142857Y-73954819D02*
X164238095Y-74002438D01*
X164238095Y-74002438D02*
X164285714Y-74050057D01*
X164285714Y-74050057D02*
X164333333Y-74145295D01*
X164333333Y-74145295D02*
X164333333Y-74288152D01*
X164333333Y-74288152D02*
X164285714Y-74383390D01*
X164285714Y-74383390D02*
X164238095Y-74431009D01*
X164238095Y-74431009D02*
X164142857Y-74478628D01*
X164142857Y-74478628D02*
X163761905Y-74478628D01*
X164714286Y-74050057D02*
X164761905Y-74002438D01*
X164761905Y-74002438D02*
X164857143Y-73954819D01*
X164857143Y-73954819D02*
X165095238Y-73954819D01*
X165095238Y-73954819D02*
X165190476Y-74002438D01*
X165190476Y-74002438D02*
X165238095Y-74050057D01*
X165238095Y-74050057D02*
X165285714Y-74145295D01*
X165285714Y-74145295D02*
X165285714Y-74240533D01*
X165285714Y-74240533D02*
X165238095Y-74383390D01*
X165238095Y-74383390D02*
X164666667Y-74954819D01*
X164666667Y-74954819D02*
X165285714Y-74954819D01*
X157067142Y-98429580D02*
X157019523Y-98477200D01*
X157019523Y-98477200D02*
X156876666Y-98524819D01*
X156876666Y-98524819D02*
X156781428Y-98524819D01*
X156781428Y-98524819D02*
X156638571Y-98477200D01*
X156638571Y-98477200D02*
X156543333Y-98381961D01*
X156543333Y-98381961D02*
X156495714Y-98286723D01*
X156495714Y-98286723D02*
X156448095Y-98096247D01*
X156448095Y-98096247D02*
X156448095Y-97953390D01*
X156448095Y-97953390D02*
X156495714Y-97762914D01*
X156495714Y-97762914D02*
X156543333Y-97667676D01*
X156543333Y-97667676D02*
X156638571Y-97572438D01*
X156638571Y-97572438D02*
X156781428Y-97524819D01*
X156781428Y-97524819D02*
X156876666Y-97524819D01*
X156876666Y-97524819D02*
X157019523Y-97572438D01*
X157019523Y-97572438D02*
X157067142Y-97620057D01*
X158019523Y-98524819D02*
X157448095Y-98524819D01*
X157733809Y-98524819D02*
X157733809Y-97524819D01*
X157733809Y-97524819D02*
X157638571Y-97667676D01*
X157638571Y-97667676D02*
X157543333Y-97762914D01*
X157543333Y-97762914D02*
X157448095Y-97810533D01*
X158876666Y-97524819D02*
X158686190Y-97524819D01*
X158686190Y-97524819D02*
X158590952Y-97572438D01*
X158590952Y-97572438D02*
X158543333Y-97620057D01*
X158543333Y-97620057D02*
X158448095Y-97762914D01*
X158448095Y-97762914D02*
X158400476Y-97953390D01*
X158400476Y-97953390D02*
X158400476Y-98334342D01*
X158400476Y-98334342D02*
X158448095Y-98429580D01*
X158448095Y-98429580D02*
X158495714Y-98477200D01*
X158495714Y-98477200D02*
X158590952Y-98524819D01*
X158590952Y-98524819D02*
X158781428Y-98524819D01*
X158781428Y-98524819D02*
X158876666Y-98477200D01*
X158876666Y-98477200D02*
X158924285Y-98429580D01*
X158924285Y-98429580D02*
X158971904Y-98334342D01*
X158971904Y-98334342D02*
X158971904Y-98096247D01*
X158971904Y-98096247D02*
X158924285Y-98001009D01*
X158924285Y-98001009D02*
X158876666Y-97953390D01*
X158876666Y-97953390D02*
X158781428Y-97905771D01*
X158781428Y-97905771D02*
X158590952Y-97905771D01*
X158590952Y-97905771D02*
X158495714Y-97953390D01*
X158495714Y-97953390D02*
X158448095Y-98001009D01*
X158448095Y-98001009D02*
X158400476Y-98096247D01*
X175233809Y-88548628D02*
X175233809Y-89024819D01*
X174900476Y-88024819D02*
X175233809Y-88548628D01*
X175233809Y-88548628D02*
X175567142Y-88024819D01*
X175852857Y-88120057D02*
X175900476Y-88072438D01*
X175900476Y-88072438D02*
X175995714Y-88024819D01*
X175995714Y-88024819D02*
X176233809Y-88024819D01*
X176233809Y-88024819D02*
X176329047Y-88072438D01*
X176329047Y-88072438D02*
X176376666Y-88120057D01*
X176376666Y-88120057D02*
X176424285Y-88215295D01*
X176424285Y-88215295D02*
X176424285Y-88310533D01*
X176424285Y-88310533D02*
X176376666Y-88453390D01*
X176376666Y-88453390D02*
X175805238Y-89024819D01*
X175805238Y-89024819D02*
X176424285Y-89024819D01*
X130577142Y-83004580D02*
X130529523Y-83052200D01*
X130529523Y-83052200D02*
X130386666Y-83099819D01*
X130386666Y-83099819D02*
X130291428Y-83099819D01*
X130291428Y-83099819D02*
X130148571Y-83052200D01*
X130148571Y-83052200D02*
X130053333Y-82956961D01*
X130053333Y-82956961D02*
X130005714Y-82861723D01*
X130005714Y-82861723D02*
X129958095Y-82671247D01*
X129958095Y-82671247D02*
X129958095Y-82528390D01*
X129958095Y-82528390D02*
X130005714Y-82337914D01*
X130005714Y-82337914D02*
X130053333Y-82242676D01*
X130053333Y-82242676D02*
X130148571Y-82147438D01*
X130148571Y-82147438D02*
X130291428Y-82099819D01*
X130291428Y-82099819D02*
X130386666Y-82099819D01*
X130386666Y-82099819D02*
X130529523Y-82147438D01*
X130529523Y-82147438D02*
X130577142Y-82195057D01*
X131434285Y-82433152D02*
X131434285Y-83099819D01*
X131196190Y-82052200D02*
X130958095Y-82766485D01*
X130958095Y-82766485D02*
X131577142Y-82766485D01*
X131862857Y-82099819D02*
X132529523Y-82099819D01*
X132529523Y-82099819D02*
X132100952Y-83099819D01*
X164333333Y-77454819D02*
X164000000Y-76978628D01*
X163761905Y-77454819D02*
X163761905Y-76454819D01*
X163761905Y-76454819D02*
X164142857Y-76454819D01*
X164142857Y-76454819D02*
X164238095Y-76502438D01*
X164238095Y-76502438D02*
X164285714Y-76550057D01*
X164285714Y-76550057D02*
X164333333Y-76645295D01*
X164333333Y-76645295D02*
X164333333Y-76788152D01*
X164333333Y-76788152D02*
X164285714Y-76883390D01*
X164285714Y-76883390D02*
X164238095Y-76931009D01*
X164238095Y-76931009D02*
X164142857Y-76978628D01*
X164142857Y-76978628D02*
X163761905Y-76978628D01*
X164666667Y-76454819D02*
X165285714Y-76454819D01*
X165285714Y-76454819D02*
X164952381Y-76835771D01*
X164952381Y-76835771D02*
X165095238Y-76835771D01*
X165095238Y-76835771D02*
X165190476Y-76883390D01*
X165190476Y-76883390D02*
X165238095Y-76931009D01*
X165238095Y-76931009D02*
X165285714Y-77026247D01*
X165285714Y-77026247D02*
X165285714Y-77264342D01*
X165285714Y-77264342D02*
X165238095Y-77359580D01*
X165238095Y-77359580D02*
X165190476Y-77407200D01*
X165190476Y-77407200D02*
X165095238Y-77454819D01*
X165095238Y-77454819D02*
X164809524Y-77454819D01*
X164809524Y-77454819D02*
X164714286Y-77407200D01*
X164714286Y-77407200D02*
X164666667Y-77359580D01*
X147553333Y-122929580D02*
X147505714Y-122977200D01*
X147505714Y-122977200D02*
X147362857Y-123024819D01*
X147362857Y-123024819D02*
X147267619Y-123024819D01*
X147267619Y-123024819D02*
X147124762Y-122977200D01*
X147124762Y-122977200D02*
X147029524Y-122881961D01*
X147029524Y-122881961D02*
X146981905Y-122786723D01*
X146981905Y-122786723D02*
X146934286Y-122596247D01*
X146934286Y-122596247D02*
X146934286Y-122453390D01*
X146934286Y-122453390D02*
X146981905Y-122262914D01*
X146981905Y-122262914D02*
X147029524Y-122167676D01*
X147029524Y-122167676D02*
X147124762Y-122072438D01*
X147124762Y-122072438D02*
X147267619Y-122024819D01*
X147267619Y-122024819D02*
X147362857Y-122024819D01*
X147362857Y-122024819D02*
X147505714Y-122072438D01*
X147505714Y-122072438D02*
X147553333Y-122120057D01*
X148029524Y-123024819D02*
X148220000Y-123024819D01*
X148220000Y-123024819D02*
X148315238Y-122977200D01*
X148315238Y-122977200D02*
X148362857Y-122929580D01*
X148362857Y-122929580D02*
X148458095Y-122786723D01*
X148458095Y-122786723D02*
X148505714Y-122596247D01*
X148505714Y-122596247D02*
X148505714Y-122215295D01*
X148505714Y-122215295D02*
X148458095Y-122120057D01*
X148458095Y-122120057D02*
X148410476Y-122072438D01*
X148410476Y-122072438D02*
X148315238Y-122024819D01*
X148315238Y-122024819D02*
X148124762Y-122024819D01*
X148124762Y-122024819D02*
X148029524Y-122072438D01*
X148029524Y-122072438D02*
X147981905Y-122120057D01*
X147981905Y-122120057D02*
X147934286Y-122215295D01*
X147934286Y-122215295D02*
X147934286Y-122453390D01*
X147934286Y-122453390D02*
X147981905Y-122548628D01*
X147981905Y-122548628D02*
X148029524Y-122596247D01*
X148029524Y-122596247D02*
X148124762Y-122643866D01*
X148124762Y-122643866D02*
X148315238Y-122643866D01*
X148315238Y-122643866D02*
X148410476Y-122596247D01*
X148410476Y-122596247D02*
X148458095Y-122548628D01*
X148458095Y-122548628D02*
X148505714Y-122453390D01*
X138067142Y-128284580D02*
X138019523Y-128332200D01*
X138019523Y-128332200D02*
X137876666Y-128379819D01*
X137876666Y-128379819D02*
X137781428Y-128379819D01*
X137781428Y-128379819D02*
X137638571Y-128332200D01*
X137638571Y-128332200D02*
X137543333Y-128236961D01*
X137543333Y-128236961D02*
X137495714Y-128141723D01*
X137495714Y-128141723D02*
X137448095Y-127951247D01*
X137448095Y-127951247D02*
X137448095Y-127808390D01*
X137448095Y-127808390D02*
X137495714Y-127617914D01*
X137495714Y-127617914D02*
X137543333Y-127522676D01*
X137543333Y-127522676D02*
X137638571Y-127427438D01*
X137638571Y-127427438D02*
X137781428Y-127379819D01*
X137781428Y-127379819D02*
X137876666Y-127379819D01*
X137876666Y-127379819D02*
X138019523Y-127427438D01*
X138019523Y-127427438D02*
X138067142Y-127475057D01*
X138448095Y-127475057D02*
X138495714Y-127427438D01*
X138495714Y-127427438D02*
X138590952Y-127379819D01*
X138590952Y-127379819D02*
X138829047Y-127379819D01*
X138829047Y-127379819D02*
X138924285Y-127427438D01*
X138924285Y-127427438D02*
X138971904Y-127475057D01*
X138971904Y-127475057D02*
X139019523Y-127570295D01*
X139019523Y-127570295D02*
X139019523Y-127665533D01*
X139019523Y-127665533D02*
X138971904Y-127808390D01*
X138971904Y-127808390D02*
X138400476Y-128379819D01*
X138400476Y-128379819D02*
X139019523Y-128379819D01*
X139495714Y-128379819D02*
X139686190Y-128379819D01*
X139686190Y-128379819D02*
X139781428Y-128332200D01*
X139781428Y-128332200D02*
X139829047Y-128284580D01*
X139829047Y-128284580D02*
X139924285Y-128141723D01*
X139924285Y-128141723D02*
X139971904Y-127951247D01*
X139971904Y-127951247D02*
X139971904Y-127570295D01*
X139971904Y-127570295D02*
X139924285Y-127475057D01*
X139924285Y-127475057D02*
X139876666Y-127427438D01*
X139876666Y-127427438D02*
X139781428Y-127379819D01*
X139781428Y-127379819D02*
X139590952Y-127379819D01*
X139590952Y-127379819D02*
X139495714Y-127427438D01*
X139495714Y-127427438D02*
X139448095Y-127475057D01*
X139448095Y-127475057D02*
X139400476Y-127570295D01*
X139400476Y-127570295D02*
X139400476Y-127808390D01*
X139400476Y-127808390D02*
X139448095Y-127903628D01*
X139448095Y-127903628D02*
X139495714Y-127951247D01*
X139495714Y-127951247D02*
X139590952Y-127998866D01*
X139590952Y-127998866D02*
X139781428Y-127998866D01*
X139781428Y-127998866D02*
X139876666Y-127951247D01*
X139876666Y-127951247D02*
X139924285Y-127903628D01*
X139924285Y-127903628D02*
X139971904Y-127808390D01*
X147814285Y-92629819D02*
X148385713Y-92629819D01*
X148099999Y-93629819D02*
X148099999Y-92629819D01*
X149052380Y-93106009D02*
X148719047Y-93106009D01*
X148719047Y-93629819D02*
X148719047Y-92629819D01*
X148719047Y-92629819D02*
X149195237Y-92629819D01*
X149338095Y-93725057D02*
X150099999Y-93725057D01*
X150909523Y-93534580D02*
X150861904Y-93582200D01*
X150861904Y-93582200D02*
X150719047Y-93629819D01*
X150719047Y-93629819D02*
X150623809Y-93629819D01*
X150623809Y-93629819D02*
X150480952Y-93582200D01*
X150480952Y-93582200D02*
X150385714Y-93486961D01*
X150385714Y-93486961D02*
X150338095Y-93391723D01*
X150338095Y-93391723D02*
X150290476Y-93201247D01*
X150290476Y-93201247D02*
X150290476Y-93058390D01*
X150290476Y-93058390D02*
X150338095Y-92867914D01*
X150338095Y-92867914D02*
X150385714Y-92772676D01*
X150385714Y-92772676D02*
X150480952Y-92677438D01*
X150480952Y-92677438D02*
X150623809Y-92629819D01*
X150623809Y-92629819D02*
X150719047Y-92629819D01*
X150719047Y-92629819D02*
X150861904Y-92677438D01*
X150861904Y-92677438D02*
X150909523Y-92725057D01*
X151766666Y-93629819D02*
X151766666Y-93106009D01*
X151766666Y-93106009D02*
X151719047Y-93010771D01*
X151719047Y-93010771D02*
X151623809Y-92963152D01*
X151623809Y-92963152D02*
X151433333Y-92963152D01*
X151433333Y-92963152D02*
X151338095Y-93010771D01*
X151766666Y-93582200D02*
X151671428Y-93629819D01*
X151671428Y-93629819D02*
X151433333Y-93629819D01*
X151433333Y-93629819D02*
X151338095Y-93582200D01*
X151338095Y-93582200D02*
X151290476Y-93486961D01*
X151290476Y-93486961D02*
X151290476Y-93391723D01*
X151290476Y-93391723D02*
X151338095Y-93296485D01*
X151338095Y-93296485D02*
X151433333Y-93248866D01*
X151433333Y-93248866D02*
X151671428Y-93248866D01*
X151671428Y-93248866D02*
X151766666Y-93201247D01*
X152242857Y-93629819D02*
X152242857Y-92963152D01*
X152242857Y-93153628D02*
X152290476Y-93058390D01*
X152290476Y-93058390D02*
X152338095Y-93010771D01*
X152338095Y-93010771D02*
X152433333Y-92963152D01*
X152433333Y-92963152D02*
X152528571Y-92963152D01*
X153290476Y-93629819D02*
X153290476Y-92629819D01*
X153290476Y-93582200D02*
X153195238Y-93629819D01*
X153195238Y-93629819D02*
X153004762Y-93629819D01*
X153004762Y-93629819D02*
X152909524Y-93582200D01*
X152909524Y-93582200D02*
X152861905Y-93534580D01*
X152861905Y-93534580D02*
X152814286Y-93439342D01*
X152814286Y-93439342D02*
X152814286Y-93153628D01*
X152814286Y-93153628D02*
X152861905Y-93058390D01*
X152861905Y-93058390D02*
X152909524Y-93010771D01*
X152909524Y-93010771D02*
X153004762Y-92963152D01*
X153004762Y-92963152D02*
X153195238Y-92963152D01*
X153195238Y-92963152D02*
X153290476Y-93010771D01*
X154290476Y-93629819D02*
X153719048Y-93629819D01*
X154004762Y-93629819D02*
X154004762Y-92629819D01*
X154004762Y-92629819D02*
X153909524Y-92772676D01*
X153909524Y-92772676D02*
X153814286Y-92867914D01*
X153814286Y-92867914D02*
X153719048Y-92915533D01*
X131814819Y-128712857D02*
X131338628Y-129046190D01*
X131814819Y-129284285D02*
X130814819Y-129284285D01*
X130814819Y-129284285D02*
X130814819Y-128903333D01*
X130814819Y-128903333D02*
X130862438Y-128808095D01*
X130862438Y-128808095D02*
X130910057Y-128760476D01*
X130910057Y-128760476D02*
X131005295Y-128712857D01*
X131005295Y-128712857D02*
X131148152Y-128712857D01*
X131148152Y-128712857D02*
X131243390Y-128760476D01*
X131243390Y-128760476D02*
X131291009Y-128808095D01*
X131291009Y-128808095D02*
X131338628Y-128903333D01*
X131338628Y-128903333D02*
X131338628Y-129284285D01*
X131814819Y-127760476D02*
X131814819Y-128331904D01*
X131814819Y-128046190D02*
X130814819Y-128046190D01*
X130814819Y-128046190D02*
X130957676Y-128141428D01*
X130957676Y-128141428D02*
X131052914Y-128236666D01*
X131052914Y-128236666D02*
X131100533Y-128331904D01*
X130814819Y-127141428D02*
X130814819Y-127046190D01*
X130814819Y-127046190D02*
X130862438Y-126950952D01*
X130862438Y-126950952D02*
X130910057Y-126903333D01*
X130910057Y-126903333D02*
X131005295Y-126855714D01*
X131005295Y-126855714D02*
X131195771Y-126808095D01*
X131195771Y-126808095D02*
X131433866Y-126808095D01*
X131433866Y-126808095D02*
X131624342Y-126855714D01*
X131624342Y-126855714D02*
X131719580Y-126903333D01*
X131719580Y-126903333D02*
X131767200Y-126950952D01*
X131767200Y-126950952D02*
X131814819Y-127046190D01*
X131814819Y-127046190D02*
X131814819Y-127141428D01*
X131814819Y-127141428D02*
X131767200Y-127236666D01*
X131767200Y-127236666D02*
X131719580Y-127284285D01*
X131719580Y-127284285D02*
X131624342Y-127331904D01*
X131624342Y-127331904D02*
X131433866Y-127379523D01*
X131433866Y-127379523D02*
X131195771Y-127379523D01*
X131195771Y-127379523D02*
X131005295Y-127331904D01*
X131005295Y-127331904D02*
X130910057Y-127284285D01*
X130910057Y-127284285D02*
X130862438Y-127236666D01*
X130862438Y-127236666D02*
X130814819Y-127141428D01*
X124569580Y-107712857D02*
X124617200Y-107760476D01*
X124617200Y-107760476D02*
X124664819Y-107903333D01*
X124664819Y-107903333D02*
X124664819Y-107998571D01*
X124664819Y-107998571D02*
X124617200Y-108141428D01*
X124617200Y-108141428D02*
X124521961Y-108236666D01*
X124521961Y-108236666D02*
X124426723Y-108284285D01*
X124426723Y-108284285D02*
X124236247Y-108331904D01*
X124236247Y-108331904D02*
X124093390Y-108331904D01*
X124093390Y-108331904D02*
X123902914Y-108284285D01*
X123902914Y-108284285D02*
X123807676Y-108236666D01*
X123807676Y-108236666D02*
X123712438Y-108141428D01*
X123712438Y-108141428D02*
X123664819Y-107998571D01*
X123664819Y-107998571D02*
X123664819Y-107903333D01*
X123664819Y-107903333D02*
X123712438Y-107760476D01*
X123712438Y-107760476D02*
X123760057Y-107712857D01*
X123664819Y-107379523D02*
X123664819Y-106760476D01*
X123664819Y-106760476D02*
X124045771Y-107093809D01*
X124045771Y-107093809D02*
X124045771Y-106950952D01*
X124045771Y-106950952D02*
X124093390Y-106855714D01*
X124093390Y-106855714D02*
X124141009Y-106808095D01*
X124141009Y-106808095D02*
X124236247Y-106760476D01*
X124236247Y-106760476D02*
X124474342Y-106760476D01*
X124474342Y-106760476D02*
X124569580Y-106808095D01*
X124569580Y-106808095D02*
X124617200Y-106855714D01*
X124617200Y-106855714D02*
X124664819Y-106950952D01*
X124664819Y-106950952D02*
X124664819Y-107236666D01*
X124664819Y-107236666D02*
X124617200Y-107331904D01*
X124617200Y-107331904D02*
X124569580Y-107379523D01*
X123664819Y-106141428D02*
X123664819Y-106046190D01*
X123664819Y-106046190D02*
X123712438Y-105950952D01*
X123712438Y-105950952D02*
X123760057Y-105903333D01*
X123760057Y-105903333D02*
X123855295Y-105855714D01*
X123855295Y-105855714D02*
X124045771Y-105808095D01*
X124045771Y-105808095D02*
X124283866Y-105808095D01*
X124283866Y-105808095D02*
X124474342Y-105855714D01*
X124474342Y-105855714D02*
X124569580Y-105903333D01*
X124569580Y-105903333D02*
X124617200Y-105950952D01*
X124617200Y-105950952D02*
X124664819Y-106046190D01*
X124664819Y-106046190D02*
X124664819Y-106141428D01*
X124664819Y-106141428D02*
X124617200Y-106236666D01*
X124617200Y-106236666D02*
X124569580Y-106284285D01*
X124569580Y-106284285D02*
X124474342Y-106331904D01*
X124474342Y-106331904D02*
X124283866Y-106379523D01*
X124283866Y-106379523D02*
X124045771Y-106379523D01*
X124045771Y-106379523D02*
X123855295Y-106331904D01*
X123855295Y-106331904D02*
X123760057Y-106284285D01*
X123760057Y-106284285D02*
X123712438Y-106236666D01*
X123712438Y-106236666D02*
X123664819Y-106141428D01*
X130144580Y-110722857D02*
X130192200Y-110770476D01*
X130192200Y-110770476D02*
X130239819Y-110913333D01*
X130239819Y-110913333D02*
X130239819Y-111008571D01*
X130239819Y-111008571D02*
X130192200Y-111151428D01*
X130192200Y-111151428D02*
X130096961Y-111246666D01*
X130096961Y-111246666D02*
X130001723Y-111294285D01*
X130001723Y-111294285D02*
X129811247Y-111341904D01*
X129811247Y-111341904D02*
X129668390Y-111341904D01*
X129668390Y-111341904D02*
X129477914Y-111294285D01*
X129477914Y-111294285D02*
X129382676Y-111246666D01*
X129382676Y-111246666D02*
X129287438Y-111151428D01*
X129287438Y-111151428D02*
X129239819Y-111008571D01*
X129239819Y-111008571D02*
X129239819Y-110913333D01*
X129239819Y-110913333D02*
X129287438Y-110770476D01*
X129287438Y-110770476D02*
X129335057Y-110722857D01*
X129335057Y-110341904D02*
X129287438Y-110294285D01*
X129287438Y-110294285D02*
X129239819Y-110199047D01*
X129239819Y-110199047D02*
X129239819Y-109960952D01*
X129239819Y-109960952D02*
X129287438Y-109865714D01*
X129287438Y-109865714D02*
X129335057Y-109818095D01*
X129335057Y-109818095D02*
X129430295Y-109770476D01*
X129430295Y-109770476D02*
X129525533Y-109770476D01*
X129525533Y-109770476D02*
X129668390Y-109818095D01*
X129668390Y-109818095D02*
X130239819Y-110389523D01*
X130239819Y-110389523D02*
X130239819Y-109770476D01*
X129239819Y-108865714D02*
X129239819Y-109341904D01*
X129239819Y-109341904D02*
X129716009Y-109389523D01*
X129716009Y-109389523D02*
X129668390Y-109341904D01*
X129668390Y-109341904D02*
X129620771Y-109246666D01*
X129620771Y-109246666D02*
X129620771Y-109008571D01*
X129620771Y-109008571D02*
X129668390Y-108913333D01*
X129668390Y-108913333D02*
X129716009Y-108865714D01*
X129716009Y-108865714D02*
X129811247Y-108818095D01*
X129811247Y-108818095D02*
X130049342Y-108818095D01*
X130049342Y-108818095D02*
X130144580Y-108865714D01*
X130144580Y-108865714D02*
X130192200Y-108913333D01*
X130192200Y-108913333D02*
X130239819Y-109008571D01*
X130239819Y-109008571D02*
X130239819Y-109246666D01*
X130239819Y-109246666D02*
X130192200Y-109341904D01*
X130192200Y-109341904D02*
X130144580Y-109389523D01*
X160359580Y-122680357D02*
X160407200Y-122727976D01*
X160407200Y-122727976D02*
X160454819Y-122870833D01*
X160454819Y-122870833D02*
X160454819Y-122966071D01*
X160454819Y-122966071D02*
X160407200Y-123108928D01*
X160407200Y-123108928D02*
X160311961Y-123204166D01*
X160311961Y-123204166D02*
X160216723Y-123251785D01*
X160216723Y-123251785D02*
X160026247Y-123299404D01*
X160026247Y-123299404D02*
X159883390Y-123299404D01*
X159883390Y-123299404D02*
X159692914Y-123251785D01*
X159692914Y-123251785D02*
X159597676Y-123204166D01*
X159597676Y-123204166D02*
X159502438Y-123108928D01*
X159502438Y-123108928D02*
X159454819Y-122966071D01*
X159454819Y-122966071D02*
X159454819Y-122870833D01*
X159454819Y-122870833D02*
X159502438Y-122727976D01*
X159502438Y-122727976D02*
X159550057Y-122680357D01*
X159788152Y-121823214D02*
X160454819Y-121823214D01*
X159407200Y-122061309D02*
X160121485Y-122299404D01*
X160121485Y-122299404D02*
X160121485Y-121680357D01*
X160454819Y-120775595D02*
X160454819Y-121347023D01*
X160454819Y-121061309D02*
X159454819Y-121061309D01*
X159454819Y-121061309D02*
X159597676Y-121156547D01*
X159597676Y-121156547D02*
X159692914Y-121251785D01*
X159692914Y-121251785D02*
X159740533Y-121347023D01*
X133577142Y-83004580D02*
X133529523Y-83052200D01*
X133529523Y-83052200D02*
X133386666Y-83099819D01*
X133386666Y-83099819D02*
X133291428Y-83099819D01*
X133291428Y-83099819D02*
X133148571Y-83052200D01*
X133148571Y-83052200D02*
X133053333Y-82956961D01*
X133053333Y-82956961D02*
X133005714Y-82861723D01*
X133005714Y-82861723D02*
X132958095Y-82671247D01*
X132958095Y-82671247D02*
X132958095Y-82528390D01*
X132958095Y-82528390D02*
X133005714Y-82337914D01*
X133005714Y-82337914D02*
X133053333Y-82242676D01*
X133053333Y-82242676D02*
X133148571Y-82147438D01*
X133148571Y-82147438D02*
X133291428Y-82099819D01*
X133291428Y-82099819D02*
X133386666Y-82099819D01*
X133386666Y-82099819D02*
X133529523Y-82147438D01*
X133529523Y-82147438D02*
X133577142Y-82195057D01*
X134434285Y-82433152D02*
X134434285Y-83099819D01*
X134196190Y-82052200D02*
X133958095Y-82766485D01*
X133958095Y-82766485D02*
X134577142Y-82766485D01*
X135386666Y-82099819D02*
X135196190Y-82099819D01*
X135196190Y-82099819D02*
X135100952Y-82147438D01*
X135100952Y-82147438D02*
X135053333Y-82195057D01*
X135053333Y-82195057D02*
X134958095Y-82337914D01*
X134958095Y-82337914D02*
X134910476Y-82528390D01*
X134910476Y-82528390D02*
X134910476Y-82909342D01*
X134910476Y-82909342D02*
X134958095Y-83004580D01*
X134958095Y-83004580D02*
X135005714Y-83052200D01*
X135005714Y-83052200D02*
X135100952Y-83099819D01*
X135100952Y-83099819D02*
X135291428Y-83099819D01*
X135291428Y-83099819D02*
X135386666Y-83052200D01*
X135386666Y-83052200D02*
X135434285Y-83004580D01*
X135434285Y-83004580D02*
X135481904Y-82909342D01*
X135481904Y-82909342D02*
X135481904Y-82671247D01*
X135481904Y-82671247D02*
X135434285Y-82576009D01*
X135434285Y-82576009D02*
X135386666Y-82528390D01*
X135386666Y-82528390D02*
X135291428Y-82480771D01*
X135291428Y-82480771D02*
X135100952Y-82480771D01*
X135100952Y-82480771D02*
X135005714Y-82528390D01*
X135005714Y-82528390D02*
X134958095Y-82576009D01*
X134958095Y-82576009D02*
X134910476Y-82671247D01*
X144067142Y-128429580D02*
X144019523Y-128477200D01*
X144019523Y-128477200D02*
X143876666Y-128524819D01*
X143876666Y-128524819D02*
X143781428Y-128524819D01*
X143781428Y-128524819D02*
X143638571Y-128477200D01*
X143638571Y-128477200D02*
X143543333Y-128381961D01*
X143543333Y-128381961D02*
X143495714Y-128286723D01*
X143495714Y-128286723D02*
X143448095Y-128096247D01*
X143448095Y-128096247D02*
X143448095Y-127953390D01*
X143448095Y-127953390D02*
X143495714Y-127762914D01*
X143495714Y-127762914D02*
X143543333Y-127667676D01*
X143543333Y-127667676D02*
X143638571Y-127572438D01*
X143638571Y-127572438D02*
X143781428Y-127524819D01*
X143781428Y-127524819D02*
X143876666Y-127524819D01*
X143876666Y-127524819D02*
X144019523Y-127572438D01*
X144019523Y-127572438D02*
X144067142Y-127620057D01*
X144448095Y-127620057D02*
X144495714Y-127572438D01*
X144495714Y-127572438D02*
X144590952Y-127524819D01*
X144590952Y-127524819D02*
X144829047Y-127524819D01*
X144829047Y-127524819D02*
X144924285Y-127572438D01*
X144924285Y-127572438D02*
X144971904Y-127620057D01*
X144971904Y-127620057D02*
X145019523Y-127715295D01*
X145019523Y-127715295D02*
X145019523Y-127810533D01*
X145019523Y-127810533D02*
X144971904Y-127953390D01*
X144971904Y-127953390D02*
X144400476Y-128524819D01*
X144400476Y-128524819D02*
X145019523Y-128524819D01*
X145638571Y-127524819D02*
X145733809Y-127524819D01*
X145733809Y-127524819D02*
X145829047Y-127572438D01*
X145829047Y-127572438D02*
X145876666Y-127620057D01*
X145876666Y-127620057D02*
X145924285Y-127715295D01*
X145924285Y-127715295D02*
X145971904Y-127905771D01*
X145971904Y-127905771D02*
X145971904Y-128143866D01*
X145971904Y-128143866D02*
X145924285Y-128334342D01*
X145924285Y-128334342D02*
X145876666Y-128429580D01*
X145876666Y-128429580D02*
X145829047Y-128477200D01*
X145829047Y-128477200D02*
X145733809Y-128524819D01*
X145733809Y-128524819D02*
X145638571Y-128524819D01*
X145638571Y-128524819D02*
X145543333Y-128477200D01*
X145543333Y-128477200D02*
X145495714Y-128429580D01*
X145495714Y-128429580D02*
X145448095Y-128334342D01*
X145448095Y-128334342D02*
X145400476Y-128143866D01*
X145400476Y-128143866D02*
X145400476Y-127905771D01*
X145400476Y-127905771D02*
X145448095Y-127715295D01*
X145448095Y-127715295D02*
X145495714Y-127620057D01*
X145495714Y-127620057D02*
X145543333Y-127572438D01*
X145543333Y-127572438D02*
X145638571Y-127524819D01*
X144543333Y-122929580D02*
X144495714Y-122977200D01*
X144495714Y-122977200D02*
X144352857Y-123024819D01*
X144352857Y-123024819D02*
X144257619Y-123024819D01*
X144257619Y-123024819D02*
X144114762Y-122977200D01*
X144114762Y-122977200D02*
X144019524Y-122881961D01*
X144019524Y-122881961D02*
X143971905Y-122786723D01*
X143971905Y-122786723D02*
X143924286Y-122596247D01*
X143924286Y-122596247D02*
X143924286Y-122453390D01*
X143924286Y-122453390D02*
X143971905Y-122262914D01*
X143971905Y-122262914D02*
X144019524Y-122167676D01*
X144019524Y-122167676D02*
X144114762Y-122072438D01*
X144114762Y-122072438D02*
X144257619Y-122024819D01*
X144257619Y-122024819D02*
X144352857Y-122024819D01*
X144352857Y-122024819D02*
X144495714Y-122072438D01*
X144495714Y-122072438D02*
X144543333Y-122120057D01*
X145114762Y-122453390D02*
X145019524Y-122405771D01*
X145019524Y-122405771D02*
X144971905Y-122358152D01*
X144971905Y-122358152D02*
X144924286Y-122262914D01*
X144924286Y-122262914D02*
X144924286Y-122215295D01*
X144924286Y-122215295D02*
X144971905Y-122120057D01*
X144971905Y-122120057D02*
X145019524Y-122072438D01*
X145019524Y-122072438D02*
X145114762Y-122024819D01*
X145114762Y-122024819D02*
X145305238Y-122024819D01*
X145305238Y-122024819D02*
X145400476Y-122072438D01*
X145400476Y-122072438D02*
X145448095Y-122120057D01*
X145448095Y-122120057D02*
X145495714Y-122215295D01*
X145495714Y-122215295D02*
X145495714Y-122262914D01*
X145495714Y-122262914D02*
X145448095Y-122358152D01*
X145448095Y-122358152D02*
X145400476Y-122405771D01*
X145400476Y-122405771D02*
X145305238Y-122453390D01*
X145305238Y-122453390D02*
X145114762Y-122453390D01*
X145114762Y-122453390D02*
X145019524Y-122501009D01*
X145019524Y-122501009D02*
X144971905Y-122548628D01*
X144971905Y-122548628D02*
X144924286Y-122643866D01*
X144924286Y-122643866D02*
X144924286Y-122834342D01*
X144924286Y-122834342D02*
X144971905Y-122929580D01*
X144971905Y-122929580D02*
X145019524Y-122977200D01*
X145019524Y-122977200D02*
X145114762Y-123024819D01*
X145114762Y-123024819D02*
X145305238Y-123024819D01*
X145305238Y-123024819D02*
X145400476Y-122977200D01*
X145400476Y-122977200D02*
X145448095Y-122929580D01*
X145448095Y-122929580D02*
X145495714Y-122834342D01*
X145495714Y-122834342D02*
X145495714Y-122643866D01*
X145495714Y-122643866D02*
X145448095Y-122548628D01*
X145448095Y-122548628D02*
X145400476Y-122501009D01*
X145400476Y-122501009D02*
X145305238Y-122453390D01*
X170333333Y-79954819D02*
X170000000Y-79478628D01*
X169761905Y-79954819D02*
X169761905Y-78954819D01*
X169761905Y-78954819D02*
X170142857Y-78954819D01*
X170142857Y-78954819D02*
X170238095Y-79002438D01*
X170238095Y-79002438D02*
X170285714Y-79050057D01*
X170285714Y-79050057D02*
X170333333Y-79145295D01*
X170333333Y-79145295D02*
X170333333Y-79288152D01*
X170333333Y-79288152D02*
X170285714Y-79383390D01*
X170285714Y-79383390D02*
X170238095Y-79431009D01*
X170238095Y-79431009D02*
X170142857Y-79478628D01*
X170142857Y-79478628D02*
X169761905Y-79478628D01*
X171190476Y-78954819D02*
X171000000Y-78954819D01*
X171000000Y-78954819D02*
X170904762Y-79002438D01*
X170904762Y-79002438D02*
X170857143Y-79050057D01*
X170857143Y-79050057D02*
X170761905Y-79192914D01*
X170761905Y-79192914D02*
X170714286Y-79383390D01*
X170714286Y-79383390D02*
X170714286Y-79764342D01*
X170714286Y-79764342D02*
X170761905Y-79859580D01*
X170761905Y-79859580D02*
X170809524Y-79907200D01*
X170809524Y-79907200D02*
X170904762Y-79954819D01*
X170904762Y-79954819D02*
X171095238Y-79954819D01*
X171095238Y-79954819D02*
X171190476Y-79907200D01*
X171190476Y-79907200D02*
X171238095Y-79859580D01*
X171238095Y-79859580D02*
X171285714Y-79764342D01*
X171285714Y-79764342D02*
X171285714Y-79526247D01*
X171285714Y-79526247D02*
X171238095Y-79431009D01*
X171238095Y-79431009D02*
X171190476Y-79383390D01*
X171190476Y-79383390D02*
X171095238Y-79335771D01*
X171095238Y-79335771D02*
X170904762Y-79335771D01*
X170904762Y-79335771D02*
X170809524Y-79383390D01*
X170809524Y-79383390D02*
X170761905Y-79431009D01*
X170761905Y-79431009D02*
X170714286Y-79526247D01*
D11*
%TO.C,C24*%
X155975000Y-125868752D02*
X155975000Y-125346248D01*
X157445000Y-125868752D02*
X157445000Y-125346248D01*
%TO.C,C34*%
X140765000Y-82701248D02*
X140765000Y-83223752D01*
X142235000Y-82701248D02*
X142235000Y-83223752D01*
%TO.C,C14*%
X139701248Y-92765000D02*
X140223752Y-92765000D01*
X139701248Y-94235000D02*
X140223752Y-94235000D01*
%TO.C,R9*%
X128975000Y-123342936D02*
X128975000Y-123797064D01*
X130445000Y-123342936D02*
X130445000Y-123797064D01*
%TO.C,C21*%
X146945000Y-125868752D02*
X146945000Y-125346248D01*
X148415000Y-125868752D02*
X148415000Y-125346248D01*
%TO.C,C7*%
X140975000Y-120293752D02*
X140975000Y-119771248D01*
X142445000Y-120293752D02*
X142445000Y-119771248D01*
%TO.C,C15*%
X160975000Y-116331252D02*
X160975000Y-115808748D01*
X162445000Y-116331252D02*
X162445000Y-115808748D01*
%TO.C,C28*%
X131986248Y-118335000D02*
X132508752Y-118335000D01*
X131986248Y-119805000D02*
X132508752Y-119805000D01*
%TO.C,C12*%
X132475000Y-123868752D02*
X132475000Y-123346248D01*
X133945000Y-123868752D02*
X133945000Y-123346248D01*
%TO.C,J2*%
X132010000Y-90310000D02*
X133830000Y-90310000D01*
X132010000Y-103830000D02*
X133830000Y-103830000D01*
X133830000Y-90310000D02*
X133830000Y-93270000D01*
X133830000Y-93870000D02*
X133830000Y-103830000D01*
X134300000Y-93910000D02*
X133830000Y-93570000D01*
X134300000Y-93230000D01*
X134300000Y-93910000D01*
G36*
X134300000Y-93910000D02*
G01*
X133830000Y-93570000D01*
X134300000Y-93230000D01*
X134300000Y-93910000D01*
G37*
%TO.C,C10*%
X149975000Y-120293752D02*
X149975000Y-119771248D01*
X151445000Y-120293752D02*
X151445000Y-119771248D01*
%TO.C,C22*%
X149955000Y-125868752D02*
X149955000Y-125346248D01*
X151425000Y-125868752D02*
X151425000Y-125346248D01*
%TO.C,C40*%
X172765000Y-121776248D02*
X172765000Y-122298752D01*
X174235000Y-121776248D02*
X174235000Y-122298752D01*
%TO.C,C19*%
X140925000Y-125868752D02*
X140925000Y-125346248D01*
X142395000Y-125868752D02*
X142395000Y-125346248D01*
%TO.C,C33*%
X126411248Y-115335000D02*
X126933752Y-115335000D01*
X126411248Y-116805000D02*
X126933752Y-116805000D01*
%TO.C,C35*%
X126486248Y-118335000D02*
X127008752Y-118335000D01*
X126486248Y-119805000D02*
X127008752Y-119805000D01*
%TO.C,C43*%
X160975000Y-97798752D02*
X160975000Y-97276248D01*
X162445000Y-97798752D02*
X162445000Y-97276248D01*
%TO.C,C37*%
X153975000Y-95271248D02*
X153975000Y-95793752D01*
X155445000Y-95271248D02*
X155445000Y-95793752D01*
%TO.C,R4*%
X167727064Y-76265000D02*
X167272936Y-76265000D01*
X167727064Y-77735000D02*
X167272936Y-77735000D01*
%TO.C,C38*%
X163911248Y-91835000D02*
X164433752Y-91835000D01*
X163911248Y-93305000D02*
X164433752Y-93305000D01*
%TO.C,C18*%
X131911248Y-106335000D02*
X132433752Y-106335000D01*
X131911248Y-107805000D02*
X132433752Y-107805000D01*
%TO.C,C39*%
X163986248Y-83835000D02*
X164508752Y-83835000D01*
X163986248Y-85305000D02*
X164508752Y-85305000D01*
%TO.C,C11*%
X152975000Y-120293752D02*
X152975000Y-119771248D01*
X154445000Y-120293752D02*
X154445000Y-119771248D01*
%TO.C,C27*%
X131986248Y-115325000D02*
X132508752Y-115325000D01*
X131986248Y-116795000D02*
X132508752Y-116795000D01*
%TO.C,C32*%
X126411248Y-112335000D02*
X126933752Y-112335000D01*
X126411248Y-113805000D02*
X126933752Y-113805000D01*
%TO.C,U1*%
X140600000Y-99960000D02*
X140600000Y-100485000D01*
X140600000Y-114180000D02*
X140600000Y-113655000D01*
X141125000Y-99960000D02*
X140600000Y-99960000D01*
X141125000Y-114180000D02*
X140600000Y-114180000D01*
X154295000Y-99960000D02*
X154820000Y-99960000D01*
X154295000Y-114180000D02*
X154820000Y-114180000D01*
X154820000Y-99960000D02*
X154820000Y-100485000D01*
X154820000Y-114180000D02*
X154820000Y-113655000D01*
X140010000Y-100485000D02*
X139670000Y-100015000D01*
X140350000Y-100015000D01*
X140010000Y-100485000D01*
G36*
X140010000Y-100485000D02*
G01*
X139670000Y-100015000D01*
X140350000Y-100015000D01*
X140010000Y-100485000D01*
G37*
%TO.C,R1*%
X158975000Y-88797064D02*
X158975000Y-88342936D01*
X160445000Y-88797064D02*
X160445000Y-88342936D01*
%TO.C,IMX1*%
X165600000Y-98505000D02*
X165600000Y-97680000D01*
X165600000Y-113635000D02*
X163800000Y-113635000D01*
X165600000Y-114460000D02*
X165600000Y-113635000D01*
X169570000Y-95525000D02*
X170110000Y-95525000D01*
X170110000Y-94500000D02*
X171220000Y-94500000D01*
X170110000Y-95525000D02*
X170110000Y-94500000D01*
X170110000Y-116615000D02*
X169570000Y-116615000D01*
X170110000Y-117640000D02*
X170110000Y-116615000D01*
X171220000Y-94500000D02*
X171220000Y-117640000D01*
X171220000Y-117640000D02*
X170110000Y-117640000D01*
%TO.C,C13*%
X132475000Y-128331252D02*
X132475000Y-127808748D01*
X133945000Y-128331252D02*
X133945000Y-127808748D01*
%TO.C,C17*%
X155975000Y-120368752D02*
X155975000Y-119846248D01*
X157445000Y-120368752D02*
X157445000Y-119846248D01*
%TO.C,C23*%
X152965000Y-125868752D02*
X152965000Y-125346248D01*
X154435000Y-125868752D02*
X154435000Y-125346248D01*
%TO.C,Y4*%
X170260000Y-121690000D02*
X164740000Y-121690000D01*
X170260000Y-126310000D02*
X170260000Y-121690000D01*
%TO.C,C31*%
X126411248Y-109325000D02*
X126933752Y-109325000D01*
X126411248Y-110795000D02*
X126933752Y-110795000D01*
%TO.C,R5*%
X167727064Y-73765000D02*
X167272936Y-73765000D01*
X167727064Y-75235000D02*
X167272936Y-75235000D01*
%TO.C,C26*%
X131986248Y-112315000D02*
X132508752Y-112315000D01*
X131986248Y-113785000D02*
X132508752Y-113785000D01*
%TO.C,R2*%
X161727064Y-73765000D02*
X161272936Y-73765000D01*
X161727064Y-75235000D02*
X161272936Y-75235000D01*
%TO.C,C16*%
X156975000Y-95308748D02*
X156975000Y-95831252D01*
X158445000Y-95308748D02*
X158445000Y-95831252D01*
%TO.C,Y2*%
X164080000Y-87620000D02*
X163520000Y-87620000D01*
X164080000Y-89520000D02*
X163520000Y-89520000D01*
X165200000Y-86810000D02*
X166300000Y-86810000D01*
X165200000Y-88025000D02*
X164080000Y-87620000D01*
X165200000Y-89115000D02*
X164080000Y-89520000D01*
X165200000Y-90330000D02*
X165200000Y-86810000D01*
X166300000Y-90330000D02*
X165200000Y-90330000D01*
%TO.C,C47*%
X130475000Y-85346248D02*
X130475000Y-85868752D01*
X131945000Y-85346248D02*
X131945000Y-85868752D01*
%TO.C,R3*%
X161727064Y-76265000D02*
X161272936Y-76265000D01*
X161727064Y-77735000D02*
X161272936Y-77735000D01*
%TO.C,C9*%
X146975000Y-120293752D02*
X146975000Y-119771248D01*
X148445000Y-120293752D02*
X148445000Y-119771248D01*
%TO.C,C29*%
X137975000Y-125723752D02*
X137975000Y-125201248D01*
X139445000Y-125723752D02*
X139445000Y-125201248D01*
%TO.C,TF_Card1*%
X144640000Y-87625000D02*
X144640000Y-81325000D01*
X144640000Y-91335000D02*
X144640000Y-89525000D01*
X144750000Y-91335000D02*
X144640000Y-91335000D01*
X157510000Y-86925000D02*
X157510000Y-81325000D01*
X157510000Y-90175000D02*
X157510000Y-91335000D01*
X157510000Y-91335000D02*
X146250000Y-91335000D01*
%TO.C,R10*%
X128975000Y-127842936D02*
X128975000Y-128297064D01*
X130445000Y-127842936D02*
X130445000Y-128297064D01*
%TO.C,C30*%
X126411248Y-106315000D02*
X126933752Y-106315000D01*
X126411248Y-107785000D02*
X126933752Y-107785000D01*
%TO.C,C25*%
X131986248Y-109305000D02*
X132508752Y-109305000D01*
X131986248Y-110775000D02*
X132508752Y-110775000D01*
%TO.C,C41*%
X161265000Y-121776248D02*
X161265000Y-122298752D01*
X162735000Y-121776248D02*
X162735000Y-122298752D01*
%TO.C,C46*%
X133485000Y-85346248D02*
X133485000Y-85868752D01*
X134955000Y-85346248D02*
X134955000Y-85868752D01*
%TO.C,C20*%
X143935000Y-125868752D02*
X143935000Y-125346248D01*
X145405000Y-125868752D02*
X145405000Y-125346248D01*
%TO.C,C8*%
X143975000Y-120293752D02*
X143975000Y-119771248D01*
X145445000Y-120293752D02*
X145445000Y-119771248D01*
%TO.C,R6*%
X167727064Y-78765000D02*
X167272936Y-78765000D01*
X167727064Y-80235000D02*
X167272936Y-80235000D01*
%TD*%
M02*
