%TF.GenerationSoftware,KiCad,Pcbnew,9.0.4*%
%TF.CreationDate,2025-10-12T18:43:42-04:00*%
%TF.ProjectId,Camera_PCB,43616d65-7261-45f5-9043-422e6b696361,rev?*%
%TF.SameCoordinates,Original*%
%TF.FileFunction,Plated,1,6,PTH,Drill*%
%TF.FilePolarity,Positive*%
%FSLAX46Y46*%
G04 Gerber Fmt 4.6, Leading zero omitted, Abs format (unit mm)*
G04 Created by KiCad (PCBNEW 9.0.4) date 2025-10-12 18:43:42*
%MOMM*%
%LPD*%
G01*
G04 APERTURE LIST*
%TA.AperFunction,ViaDrill*%
%ADD10C,0.300000*%
%TD*%
%TA.AperFunction,ComponentDrill*%
%ADD11C,0.500000*%
%TD*%
%TA.AperFunction,ComponentDrill*%
%ADD12C,0.920000*%
%TD*%
%TA.AperFunction,ComponentDrill*%
%ADD13C,2.300000*%
%TD*%
G04 APERTURE END LIST*
D10*
X133500000Y-121000000D03*
X135000000Y-125500000D03*
X136000000Y-121500000D03*
X136000000Y-124000000D03*
X138000000Y-99500000D03*
X138000000Y-101500000D03*
X138000000Y-109000000D03*
X138000000Y-112000000D03*
X142000000Y-97500000D03*
X142000000Y-105000000D03*
X142000000Y-113500000D03*
X142500000Y-103500000D03*
X142565267Y-104224067D03*
X143500000Y-82000000D03*
X143500000Y-84000000D03*
X147500000Y-112500000D03*
X148500000Y-84000000D03*
X149000000Y-83000000D03*
X149500000Y-97500000D03*
X149500000Y-102500000D03*
X150000000Y-83000000D03*
X150000000Y-94000000D03*
X150500000Y-97500000D03*
X150500000Y-101500000D03*
X151000000Y-82000000D03*
X151000000Y-84500000D03*
X151819500Y-97000000D03*
X152596836Y-118096836D03*
X153000000Y-82500000D03*
X153500000Y-105500000D03*
X153500000Y-109000000D03*
X154000000Y-111000000D03*
X154000000Y-116500000D03*
X154000000Y-117500000D03*
X155500000Y-84500000D03*
X155500000Y-117000000D03*
X157000000Y-111500000D03*
X157500000Y-110000000D03*
X159500000Y-91500000D03*
X159500000Y-97500000D03*
X162000000Y-104000000D03*
X162000000Y-106000000D03*
X162000000Y-107000000D03*
X162000000Y-109000000D03*
X162000000Y-110500000D03*
X162000000Y-112000000D03*
X162500000Y-100000000D03*
X162500000Y-101000000D03*
D11*
%TO.C,Y2*%
X162960000Y-87620000D03*
X162960000Y-89520000D03*
D12*
%TO.C,J2*%
X132710000Y-93570000D03*
X132710000Y-96070000D03*
X132710000Y-98070000D03*
X132710000Y-100570000D03*
D13*
X130000000Y-90500000D03*
X130000000Y-103640000D03*
M02*
