%TF.GenerationSoftware,KiCad,Pcbnew,9.0.4*%
%TF.CreationDate,2025-10-12T20:17:52-04:00*%
%TF.ProjectId,Camera_PCB,43616d65-7261-45f5-9043-422e6b696361,rev?*%
%TF.SameCoordinates,Original*%
%TF.FileFunction,Paste,Top*%
%TF.FilePolarity,Positive*%
%FSLAX46Y46*%
G04 Gerber Fmt 4.6, Leading zero omitted, Abs format (unit mm)*
G04 Created by KiCad (PCBNEW 9.0.4) date 2025-10-12 20:17:52*
%MOMM*%
%LPD*%
G01*
G04 APERTURE LIST*
G04 Aperture macros list*
%AMRoundRect*
0 Rectangle with rounded corners*
0 $1 Rounding radius*
0 $2 $3 $4 $5 $6 $7 $8 $9 X,Y pos of 4 corners*
0 Add a 4 corners polygon primitive as box body*
4,1,4,$2,$3,$4,$5,$6,$7,$8,$9,$2,$3,0*
0 Add four circle primitives for the rounded corners*
1,1,$1+$1,$2,$3*
1,1,$1+$1,$4,$5*
1,1,$1+$1,$6,$7*
1,1,$1+$1,$8,$9*
0 Add four rect primitives between the rounded corners*
20,1,$1+$1,$2,$3,$4,$5,0*
20,1,$1+$1,$4,$5,$6,$7,0*
20,1,$1+$1,$6,$7,$8,$9,0*
20,1,$1+$1,$8,$9,$2,$3,0*%
G04 Aperture macros list end*
%ADD10RoundRect,0.250000X0.475000X-0.337500X0.475000X0.337500X-0.475000X0.337500X-0.475000X-0.337500X0*%
%ADD11RoundRect,0.250000X-0.475000X0.337500X-0.475000X-0.337500X0.475000X-0.337500X0.475000X0.337500X0*%
%ADD12RoundRect,0.250000X-0.337500X-0.475000X0.337500X-0.475000X0.337500X0.475000X-0.337500X0.475000X0*%
%ADD13RoundRect,0.250000X-0.450000X0.350000X-0.450000X-0.350000X0.450000X-0.350000X0.450000X0.350000X0*%
%ADD14RoundRect,0.250000X0.350000X0.450000X-0.350000X0.450000X-0.350000X-0.450000X0.350000X-0.450000X0*%
%ADD15RoundRect,0.062500X-0.675000X-0.062500X0.675000X-0.062500X0.675000X0.062500X-0.675000X0.062500X0*%
%ADD16RoundRect,0.062500X-0.062500X-0.675000X0.062500X-0.675000X0.062500X0.675000X-0.062500X0.675000X0*%
%ADD17RoundRect,0.250000X0.450000X-0.350000X0.450000X0.350000X-0.450000X0.350000X-0.450000X-0.350000X0*%
%ADD18R,2.000000X0.610000*%
%ADD19R,3.600000X2.680000*%
%ADD20RoundRect,0.250000X0.800000X0.650000X-0.800000X0.650000X-0.800000X-0.650000X0.800000X-0.650000X0*%
%ADD21RoundRect,0.249999X3.750001X-1.250001X3.750001X1.250001X-3.750001X1.250001X-3.750001X-1.250001X0*%
%ADD22R,0.700000X1.750000*%
%ADD23R,1.450000X1.000000*%
%ADD24R,1.000000X1.550000*%
%ADD25R,0.800000X1.500000*%
%ADD26R,1.300000X1.500000*%
%ADD27R,1.500000X1.500000*%
%ADD28R,0.800000X1.400000*%
G04 APERTURE END LIST*
D10*
%TO.C,C24*%
X156710000Y-126645000D03*
X156710000Y-124570000D03*
%TD*%
D11*
%TO.C,C34*%
X141500000Y-81925000D03*
X141500000Y-84000000D03*
%TD*%
D12*
%TO.C,C14*%
X138925000Y-93500000D03*
X141000000Y-93500000D03*
%TD*%
D13*
%TO.C,R9*%
X129710000Y-122570000D03*
X129710000Y-124570000D03*
%TD*%
D10*
%TO.C,C21*%
X147680000Y-126645000D03*
X147680000Y-124570000D03*
%TD*%
%TO.C,C7*%
X141710000Y-121070000D03*
X141710000Y-118995000D03*
%TD*%
%TO.C,C15*%
X161710000Y-117107500D03*
X161710000Y-115032500D03*
%TD*%
D12*
%TO.C,C28*%
X131210000Y-119070000D03*
X133285000Y-119070000D03*
%TD*%
D10*
%TO.C,C12*%
X133210000Y-124645000D03*
X133210000Y-122570000D03*
%TD*%
%TO.C,C10*%
X150710000Y-121070000D03*
X150710000Y-118995000D03*
%TD*%
%TO.C,C22*%
X150690000Y-126645000D03*
X150690000Y-124570000D03*
%TD*%
D11*
%TO.C,C40*%
X173500000Y-121000000D03*
X173500000Y-123075000D03*
%TD*%
D10*
%TO.C,C19*%
X141660000Y-126645000D03*
X141660000Y-124570000D03*
%TD*%
D12*
%TO.C,C33*%
X125635000Y-116070000D03*
X127710000Y-116070000D03*
%TD*%
%TO.C,C35*%
X125710000Y-119070000D03*
X127785000Y-119070000D03*
%TD*%
D10*
%TO.C,C43*%
X161710000Y-98575000D03*
X161710000Y-96500000D03*
%TD*%
D11*
%TO.C,C37*%
X154710000Y-94495000D03*
X154710000Y-96570000D03*
%TD*%
D14*
%TO.C,R4*%
X168500000Y-77000000D03*
X166500000Y-77000000D03*
%TD*%
D12*
%TO.C,C38*%
X163135000Y-92570000D03*
X165210000Y-92570000D03*
%TD*%
%TO.C,C18*%
X131135000Y-107070000D03*
X133210000Y-107070000D03*
%TD*%
%TO.C,C39*%
X163210000Y-84570000D03*
X165285000Y-84570000D03*
%TD*%
D10*
%TO.C,C11*%
X153710000Y-121070000D03*
X153710000Y-118995000D03*
%TD*%
D12*
%TO.C,C27*%
X131210000Y-116060000D03*
X133285000Y-116060000D03*
%TD*%
%TO.C,C32*%
X125635000Y-113070000D03*
X127710000Y-113070000D03*
%TD*%
D15*
%TO.C,U1*%
X140047500Y-100870000D03*
X140047500Y-101270000D03*
X140047500Y-101670000D03*
X140047500Y-102070000D03*
X140047500Y-102470000D03*
X140047500Y-102870000D03*
X140047500Y-103270000D03*
X140047500Y-103670000D03*
X140047500Y-104070000D03*
X140047500Y-104470000D03*
X140047500Y-104870000D03*
X140047500Y-105270000D03*
X140047500Y-105670000D03*
X140047500Y-106070000D03*
X140047500Y-106470000D03*
X140047500Y-106870000D03*
X140047500Y-107270000D03*
X140047500Y-107670000D03*
X140047500Y-108070000D03*
X140047500Y-108470000D03*
X140047500Y-108870000D03*
X140047500Y-109270000D03*
X140047500Y-109670000D03*
X140047500Y-110070000D03*
X140047500Y-110470000D03*
X140047500Y-110870000D03*
X140047500Y-111270000D03*
X140047500Y-111670000D03*
X140047500Y-112070000D03*
X140047500Y-112470000D03*
X140047500Y-112870000D03*
X140047500Y-113270000D03*
D16*
X141510000Y-114732500D03*
X141910000Y-114732500D03*
X142310000Y-114732500D03*
X142710000Y-114732500D03*
X143110000Y-114732500D03*
X143510000Y-114732500D03*
X143910000Y-114732500D03*
X144310000Y-114732500D03*
X144710000Y-114732500D03*
X145110000Y-114732500D03*
X145510000Y-114732500D03*
X145910000Y-114732500D03*
X146310000Y-114732500D03*
X146710000Y-114732500D03*
X147110000Y-114732500D03*
X147510000Y-114732500D03*
X147910000Y-114732500D03*
X148310000Y-114732500D03*
X148710000Y-114732500D03*
X149110000Y-114732500D03*
X149510000Y-114732500D03*
X149910000Y-114732500D03*
X150310000Y-114732500D03*
X150710000Y-114732500D03*
X151110000Y-114732500D03*
X151510000Y-114732500D03*
X151910000Y-114732500D03*
X152310000Y-114732500D03*
X152710000Y-114732500D03*
X153110000Y-114732500D03*
X153510000Y-114732500D03*
X153910000Y-114732500D03*
D15*
X155372500Y-113270000D03*
X155372500Y-112870000D03*
X155372500Y-112470000D03*
X155372500Y-112070000D03*
X155372500Y-111670000D03*
X155372500Y-111270000D03*
X155372500Y-110870000D03*
X155372500Y-110470000D03*
X155372500Y-110070000D03*
X155372500Y-109670000D03*
X155372500Y-109270000D03*
X155372500Y-108870000D03*
X155372500Y-108470000D03*
X155372500Y-108070000D03*
X155372500Y-107670000D03*
X155372500Y-107270000D03*
X155372500Y-106870000D03*
X155372500Y-106470000D03*
X155372500Y-106070000D03*
X155372500Y-105670000D03*
X155372500Y-105270000D03*
X155372500Y-104870000D03*
X155372500Y-104470000D03*
X155372500Y-104070000D03*
X155372500Y-103670000D03*
X155372500Y-103270000D03*
X155372500Y-102870000D03*
X155372500Y-102470000D03*
X155372500Y-102070000D03*
X155372500Y-101670000D03*
X155372500Y-101270000D03*
X155372500Y-100870000D03*
D16*
X153910000Y-99407500D03*
X153510000Y-99407500D03*
X153110000Y-99407500D03*
X152710000Y-99407500D03*
X152310000Y-99407500D03*
X151910000Y-99407500D03*
X151510000Y-99407500D03*
X151110000Y-99407500D03*
X150710000Y-99407500D03*
X150310000Y-99407500D03*
X149910000Y-99407500D03*
X149510000Y-99407500D03*
X149110000Y-99407500D03*
X148710000Y-99407500D03*
X148310000Y-99407500D03*
X147910000Y-99407500D03*
X147510000Y-99407500D03*
X147110000Y-99407500D03*
X146710000Y-99407500D03*
X146310000Y-99407500D03*
X145910000Y-99407500D03*
X145510000Y-99407500D03*
X145110000Y-99407500D03*
X144710000Y-99407500D03*
X144310000Y-99407500D03*
X143910000Y-99407500D03*
X143510000Y-99407500D03*
X143110000Y-99407500D03*
X142710000Y-99407500D03*
X142310000Y-99407500D03*
X141910000Y-99407500D03*
X141510000Y-99407500D03*
%TD*%
D17*
%TO.C,R1*%
X159710000Y-89570000D03*
X159710000Y-87570000D03*
%TD*%
D18*
%TO.C,IMX1*%
X164710000Y-113070000D03*
X164710000Y-112070000D03*
X164710000Y-111070000D03*
X164710000Y-110070000D03*
X164710000Y-109070000D03*
X164710000Y-108070000D03*
X164710000Y-107070000D03*
X164710000Y-106070000D03*
X164710000Y-105070000D03*
X164710000Y-104070000D03*
X164710000Y-103070000D03*
X164710000Y-102070000D03*
X164710000Y-101070000D03*
X164710000Y-100070000D03*
X164710000Y-99070000D03*
D19*
X167510000Y-116060000D03*
X167510000Y-96080000D03*
%TD*%
D10*
%TO.C,C13*%
X133210000Y-129107500D03*
X133210000Y-127032500D03*
%TD*%
%TO.C,C17*%
X156710000Y-121145000D03*
X156710000Y-119070000D03*
%TD*%
%TO.C,C23*%
X153700000Y-126645000D03*
X153700000Y-124570000D03*
%TD*%
D20*
%TO.C,Y4*%
X168950000Y-122850000D03*
X166050000Y-122850000D03*
X166050000Y-125150000D03*
X168950000Y-125150000D03*
%TD*%
D12*
%TO.C,C31*%
X125635000Y-110060000D03*
X127710000Y-110060000D03*
%TD*%
D14*
%TO.C,R5*%
X168500000Y-74500000D03*
X166500000Y-74500000D03*
%TD*%
D12*
%TO.C,C26*%
X131210000Y-113050000D03*
X133285000Y-113050000D03*
%TD*%
D14*
%TO.C,R2*%
X162500000Y-74500000D03*
X160500000Y-74500000D03*
%TD*%
D11*
%TO.C,C16*%
X157710000Y-94532500D03*
X157710000Y-96607500D03*
%TD*%
D21*
%TO.C,Y2*%
X169960000Y-88570000D03*
%TD*%
D11*
%TO.C,C47*%
X131210000Y-84570000D03*
X131210000Y-86645000D03*
%TD*%
D14*
%TO.C,R3*%
X162500000Y-77000000D03*
X160500000Y-77000000D03*
%TD*%
D10*
%TO.C,C9*%
X147710000Y-121070000D03*
X147710000Y-118995000D03*
%TD*%
%TO.C,C29*%
X138710000Y-126500000D03*
X138710000Y-124425000D03*
%TD*%
D22*
%TO.C,TF_Card1*%
X147900000Y-80200000D03*
X149000000Y-80200000D03*
X150100000Y-80200000D03*
X151200000Y-80200000D03*
X152300000Y-80200000D03*
X153400000Y-80200000D03*
X154500000Y-80200000D03*
X155600000Y-80200000D03*
D23*
X156725000Y-89425000D03*
D24*
X145500000Y-91000000D03*
D25*
X157050000Y-87925000D03*
D26*
X156800000Y-80325000D03*
D27*
X145450000Y-80325000D03*
D28*
X145100000Y-88575000D03*
%TD*%
D13*
%TO.C,R10*%
X129710000Y-127070000D03*
X129710000Y-129070000D03*
%TD*%
D12*
%TO.C,C30*%
X125635000Y-107050000D03*
X127710000Y-107050000D03*
%TD*%
%TO.C,C25*%
X131210000Y-110040000D03*
X133285000Y-110040000D03*
%TD*%
D11*
%TO.C,C41*%
X162000000Y-121000000D03*
X162000000Y-123075000D03*
%TD*%
%TO.C,C46*%
X134220000Y-84570000D03*
X134220000Y-86645000D03*
%TD*%
D10*
%TO.C,C20*%
X144670000Y-126645000D03*
X144670000Y-124570000D03*
%TD*%
%TO.C,C8*%
X144710000Y-121070000D03*
X144710000Y-118995000D03*
%TD*%
D14*
%TO.C,R6*%
X168500000Y-79500000D03*
X166500000Y-79500000D03*
%TD*%
M02*
