%TF.GenerationSoftware,KiCad,Pcbnew,9.0.6*%
%TF.CreationDate,2025-11-10T09:58:37-05:00*%
%TF.ProjectId,CameraPCB,43616d65-7261-4504-9342-2e6b69636164,rev?*%
%TF.SameCoordinates,Original*%
%TF.FileFunction,Soldermask,Bot*%
%TF.FilePolarity,Negative*%
%FSLAX46Y46*%
G04 Gerber Fmt 4.6, Leading zero omitted, Abs format (unit mm)*
G04 Created by KiCad (PCBNEW 9.0.6) date 2025-11-10 09:58:37*
%MOMM*%
%LPD*%
G01*
G04 APERTURE LIST*
G04 Aperture macros list*
%AMRoundRect*
0 Rectangle with rounded corners*
0 $1 Rounding radius*
0 $2 $3 $4 $5 $6 $7 $8 $9 X,Y pos of 4 corners*
0 Add a 4 corners polygon primitive as box body*
4,1,4,$2,$3,$4,$5,$6,$7,$8,$9,$2,$3,0*
0 Add four circle primitives for the rounded corners*
1,1,$1+$1,$2,$3*
1,1,$1+$1,$4,$5*
1,1,$1+$1,$6,$7*
1,1,$1+$1,$8,$9*
0 Add four rect primitives between the rounded corners*
20,1,$1+$1,$2,$3,$4,$5,0*
20,1,$1+$1,$4,$5,$6,$7,0*
20,1,$1+$1,$6,$7,$8,$9,0*
20,1,$1+$1,$8,$9,$2,$3,0*%
G04 Aperture macros list end*
%ADD10C,0.010000*%
%ADD11C,2.200000*%
%ADD12O,2.900000X1.200000*%
%ADD13R,1.700000X1.700000*%
%ADD14C,1.700000*%
%ADD15O,1.100000X1.700000*%
%ADD16RoundRect,0.250000X0.337500X0.475000X-0.337500X0.475000X-0.337500X-0.475000X0.337500X-0.475000X0*%
%ADD17RoundRect,0.137500X0.137500X0.662500X-0.137500X0.662500X-0.137500X-0.662500X0.137500X-0.662500X0*%
%ADD18RoundRect,0.237500X0.237500X-0.250000X0.237500X0.250000X-0.237500X0.250000X-0.237500X-0.250000X0*%
%ADD19RoundRect,0.237500X-0.237500X0.300000X-0.237500X-0.300000X0.237500X-0.300000X0.237500X0.300000X0*%
%ADD20RoundRect,0.102000X-0.600000X-0.500000X0.600000X-0.500000X0.600000X0.500000X-0.600000X0.500000X0*%
%ADD21C,1.500000*%
%ADD22R,1.000000X1.500000*%
%ADD23RoundRect,0.237500X0.237500X-0.300000X0.237500X0.300000X-0.237500X0.300000X-0.237500X-0.300000X0*%
%ADD24RoundRect,0.237500X0.250000X0.237500X-0.250000X0.237500X-0.250000X-0.237500X0.250000X-0.237500X0*%
%ADD25RoundRect,0.250000X-0.475000X0.337500X-0.475000X-0.337500X0.475000X-0.337500X0.475000X0.337500X0*%
%ADD26RoundRect,0.237500X-0.300000X-0.237500X0.300000X-0.237500X0.300000X0.237500X-0.300000X0.237500X0*%
%ADD27RoundRect,0.250000X0.475000X-0.337500X0.475000X0.337500X-0.475000X0.337500X-0.475000X-0.337500X0*%
%ADD28RoundRect,0.102000X-0.600000X-0.300000X0.600000X-0.300000X0.600000X0.300000X-0.600000X0.300000X0*%
%ADD29RoundRect,0.237500X0.300000X0.237500X-0.300000X0.237500X-0.300000X-0.237500X0.300000X-0.237500X0*%
%ADD30RoundRect,0.237500X-0.237500X0.250000X-0.237500X-0.250000X0.237500X-0.250000X0.237500X0.250000X0*%
%ADD31R,1.500000X1.000000*%
%ADD32RoundRect,0.250000X-0.312500X-0.625000X0.312500X-0.625000X0.312500X0.625000X-0.312500X0.625000X0*%
%ADD33RoundRect,0.250001X0.849999X-0.499999X0.849999X0.499999X-0.849999X0.499999X-0.849999X-0.499999X0*%
%ADD34RoundRect,0.237500X-0.250000X-0.237500X0.250000X-0.237500X0.250000X0.237500X-0.250000X0.237500X0*%
%ADD35RoundRect,0.250000X-0.337500X-0.475000X0.337500X-0.475000X0.337500X0.475000X-0.337500X0.475000X0*%
%ADD36RoundRect,0.250001X-0.849999X0.499999X-0.849999X-0.499999X0.849999X-0.499999X0.849999X0.499999X0*%
%ADD37RoundRect,0.250001X0.499999X0.849999X-0.499999X0.849999X-0.499999X-0.849999X0.499999X-0.849999X0*%
%ADD38RoundRect,0.050000X-0.375000X-0.050000X0.375000X-0.050000X0.375000X0.050000X-0.375000X0.050000X0*%
%ADD39RoundRect,0.050000X-0.050000X-0.375000X0.050000X-0.375000X0.050000X0.375000X-0.050000X0.375000X0*%
%ADD40R,4.200000X4.200000*%
G04 APERTURE END LIST*
%TO.C,JP6*%
G36*
X149983476Y-74062500D02*
G01*
X150283476Y-74062500D01*
X150283476Y-72562500D01*
X149983476Y-72562500D01*
X149983476Y-74062500D01*
G37*
D10*
%TO.C,U4*%
X136363476Y-72605000D02*
X136483476Y-72605000D01*
X136483476Y-71830000D01*
X136823476Y-71830000D01*
X136823476Y-72605000D01*
X136943476Y-72605000D01*
X136943476Y-71830000D01*
X137283476Y-71830000D01*
X137283476Y-72605000D01*
X137403476Y-72605000D01*
X137403476Y-71830000D01*
X137743476Y-71830000D01*
X137743476Y-76370000D01*
X137403476Y-76370000D01*
X137403476Y-75595000D01*
X137283476Y-75595000D01*
X137283476Y-76370000D01*
X136943476Y-76370000D01*
X136943476Y-75595000D01*
X136823476Y-75595000D01*
X136823476Y-76370000D01*
X136483476Y-76370000D01*
X136483476Y-75595000D01*
X136363476Y-75595000D01*
X136363476Y-76370000D01*
X136023476Y-76370000D01*
X136023476Y-71830000D01*
X136363476Y-71830000D01*
X136363476Y-72605000D01*
G36*
X136363476Y-72605000D02*
G01*
X136483476Y-72605000D01*
X136483476Y-71830000D01*
X136823476Y-71830000D01*
X136823476Y-72605000D01*
X136943476Y-72605000D01*
X136943476Y-71830000D01*
X137283476Y-71830000D01*
X137283476Y-72605000D01*
X137403476Y-72605000D01*
X137403476Y-71830000D01*
X137743476Y-71830000D01*
X137743476Y-76370000D01*
X137403476Y-76370000D01*
X137403476Y-75595000D01*
X137283476Y-75595000D01*
X137283476Y-76370000D01*
X136943476Y-76370000D01*
X136943476Y-75595000D01*
X136823476Y-75595000D01*
X136823476Y-76370000D01*
X136483476Y-76370000D01*
X136483476Y-75595000D01*
X136363476Y-75595000D01*
X136363476Y-76370000D01*
X136023476Y-76370000D01*
X136023476Y-71830000D01*
X136363476Y-71830000D01*
X136363476Y-72605000D01*
G37*
X135683476Y-72411000D02*
X135693476Y-72412000D01*
X135703476Y-72414000D01*
X135712476Y-72416000D01*
X135722476Y-72419000D01*
X135731476Y-72423000D01*
X135740476Y-72426000D01*
X135749476Y-72431000D01*
X135758476Y-72435000D01*
X135766476Y-72441000D01*
X135775476Y-72446000D01*
X135783476Y-72452000D01*
X135790476Y-72459000D01*
X135797476Y-72466000D01*
X135804476Y-72473000D01*
X135811476Y-72480000D01*
X135817476Y-72488000D01*
X135822476Y-72497000D01*
X135828476Y-72505000D01*
X135832476Y-72514000D01*
X135837476Y-72523000D01*
X135840476Y-72532000D01*
X135844476Y-72541000D01*
X135847476Y-72551000D01*
X135849476Y-72560000D01*
X135851476Y-72570000D01*
X135852476Y-72580000D01*
X135853476Y-72590000D01*
X135853476Y-72600000D01*
X135853476Y-72610000D01*
X135852476Y-72620000D01*
X135851476Y-72630000D01*
X135849476Y-72640000D01*
X135847476Y-72649000D01*
X135844476Y-72659000D01*
X135840476Y-72668000D01*
X135837476Y-72677000D01*
X135832476Y-72686000D01*
X135828476Y-72695000D01*
X135822476Y-72703000D01*
X135817476Y-72712000D01*
X135811476Y-72720000D01*
X135804476Y-72727000D01*
X135797476Y-72734000D01*
X135790476Y-72741000D01*
X135783476Y-72748000D01*
X135775476Y-72754000D01*
X135766476Y-72759000D01*
X135758476Y-72765000D01*
X135749476Y-72769000D01*
X135740476Y-72774000D01*
X135731476Y-72777000D01*
X135722476Y-72781000D01*
X135712476Y-72784000D01*
X135703476Y-72786000D01*
X135693476Y-72788000D01*
X135683476Y-72789000D01*
X135673476Y-72790000D01*
X135663476Y-72790000D01*
X135303476Y-72790000D01*
X135293476Y-72790000D01*
X135283476Y-72789000D01*
X135273476Y-72788000D01*
X135263476Y-72786000D01*
X135254476Y-72784000D01*
X135244476Y-72781000D01*
X135235476Y-72777000D01*
X135226476Y-72774000D01*
X135217476Y-72769000D01*
X135208476Y-72765000D01*
X135200476Y-72759000D01*
X135191476Y-72754000D01*
X135183476Y-72748000D01*
X135176476Y-72741000D01*
X135169476Y-72734000D01*
X135162476Y-72727000D01*
X135155476Y-72720000D01*
X135149476Y-72712000D01*
X135144476Y-72703000D01*
X135138476Y-72695000D01*
X135134476Y-72686000D01*
X135129476Y-72677000D01*
X135126476Y-72668000D01*
X135122476Y-72659000D01*
X135119476Y-72649000D01*
X135117476Y-72640000D01*
X135115476Y-72630000D01*
X135114476Y-72620000D01*
X135113476Y-72610000D01*
X135113476Y-72600000D01*
X135113476Y-72590000D01*
X135114476Y-72580000D01*
X135115476Y-72570000D01*
X135117476Y-72560000D01*
X135119476Y-72551000D01*
X135122476Y-72541000D01*
X135126476Y-72532000D01*
X135129476Y-72523000D01*
X135134476Y-72514000D01*
X135138476Y-72505000D01*
X135144476Y-72497000D01*
X135149476Y-72488000D01*
X135155476Y-72480000D01*
X135162476Y-72473000D01*
X135169476Y-72466000D01*
X135176476Y-72459000D01*
X135183476Y-72452000D01*
X135191476Y-72446000D01*
X135200476Y-72441000D01*
X135208476Y-72435000D01*
X135217476Y-72431000D01*
X135226476Y-72426000D01*
X135235476Y-72423000D01*
X135244476Y-72419000D01*
X135254476Y-72416000D01*
X135263476Y-72414000D01*
X135273476Y-72412000D01*
X135283476Y-72411000D01*
X135293476Y-72410000D01*
X135303476Y-72410000D01*
X135663476Y-72410000D01*
X135673476Y-72410000D01*
X135683476Y-72411000D01*
G36*
X135683476Y-72411000D02*
G01*
X135693476Y-72412000D01*
X135703476Y-72414000D01*
X135712476Y-72416000D01*
X135722476Y-72419000D01*
X135731476Y-72423000D01*
X135740476Y-72426000D01*
X135749476Y-72431000D01*
X135758476Y-72435000D01*
X135766476Y-72441000D01*
X135775476Y-72446000D01*
X135783476Y-72452000D01*
X135790476Y-72459000D01*
X135797476Y-72466000D01*
X135804476Y-72473000D01*
X135811476Y-72480000D01*
X135817476Y-72488000D01*
X135822476Y-72497000D01*
X135828476Y-72505000D01*
X135832476Y-72514000D01*
X135837476Y-72523000D01*
X135840476Y-72532000D01*
X135844476Y-72541000D01*
X135847476Y-72551000D01*
X135849476Y-72560000D01*
X135851476Y-72570000D01*
X135852476Y-72580000D01*
X135853476Y-72590000D01*
X135853476Y-72600000D01*
X135853476Y-72610000D01*
X135852476Y-72620000D01*
X135851476Y-72630000D01*
X135849476Y-72640000D01*
X135847476Y-72649000D01*
X135844476Y-72659000D01*
X135840476Y-72668000D01*
X135837476Y-72677000D01*
X135832476Y-72686000D01*
X135828476Y-72695000D01*
X135822476Y-72703000D01*
X135817476Y-72712000D01*
X135811476Y-72720000D01*
X135804476Y-72727000D01*
X135797476Y-72734000D01*
X135790476Y-72741000D01*
X135783476Y-72748000D01*
X135775476Y-72754000D01*
X135766476Y-72759000D01*
X135758476Y-72765000D01*
X135749476Y-72769000D01*
X135740476Y-72774000D01*
X135731476Y-72777000D01*
X135722476Y-72781000D01*
X135712476Y-72784000D01*
X135703476Y-72786000D01*
X135693476Y-72788000D01*
X135683476Y-72789000D01*
X135673476Y-72790000D01*
X135663476Y-72790000D01*
X135303476Y-72790000D01*
X135293476Y-72790000D01*
X135283476Y-72789000D01*
X135273476Y-72788000D01*
X135263476Y-72786000D01*
X135254476Y-72784000D01*
X135244476Y-72781000D01*
X135235476Y-72777000D01*
X135226476Y-72774000D01*
X135217476Y-72769000D01*
X135208476Y-72765000D01*
X135200476Y-72759000D01*
X135191476Y-72754000D01*
X135183476Y-72748000D01*
X135176476Y-72741000D01*
X135169476Y-72734000D01*
X135162476Y-72727000D01*
X135155476Y-72720000D01*
X135149476Y-72712000D01*
X135144476Y-72703000D01*
X135138476Y-72695000D01*
X135134476Y-72686000D01*
X135129476Y-72677000D01*
X135126476Y-72668000D01*
X135122476Y-72659000D01*
X135119476Y-72649000D01*
X135117476Y-72640000D01*
X135115476Y-72630000D01*
X135114476Y-72620000D01*
X135113476Y-72610000D01*
X135113476Y-72600000D01*
X135113476Y-72590000D01*
X135114476Y-72580000D01*
X135115476Y-72570000D01*
X135117476Y-72560000D01*
X135119476Y-72551000D01*
X135122476Y-72541000D01*
X135126476Y-72532000D01*
X135129476Y-72523000D01*
X135134476Y-72514000D01*
X135138476Y-72505000D01*
X135144476Y-72497000D01*
X135149476Y-72488000D01*
X135155476Y-72480000D01*
X135162476Y-72473000D01*
X135169476Y-72466000D01*
X135176476Y-72459000D01*
X135183476Y-72452000D01*
X135191476Y-72446000D01*
X135200476Y-72441000D01*
X135208476Y-72435000D01*
X135217476Y-72431000D01*
X135226476Y-72426000D01*
X135235476Y-72423000D01*
X135244476Y-72419000D01*
X135254476Y-72416000D01*
X135263476Y-72414000D01*
X135273476Y-72412000D01*
X135283476Y-72411000D01*
X135293476Y-72410000D01*
X135303476Y-72410000D01*
X135663476Y-72410000D01*
X135673476Y-72410000D01*
X135683476Y-72411000D01*
G37*
X135683476Y-72911000D02*
X135693476Y-72912000D01*
X135703476Y-72914000D01*
X135712476Y-72916000D01*
X135722476Y-72919000D01*
X135731476Y-72923000D01*
X135740476Y-72926000D01*
X135749476Y-72931000D01*
X135758476Y-72935000D01*
X135766476Y-72941000D01*
X135775476Y-72946000D01*
X135783476Y-72952000D01*
X135790476Y-72959000D01*
X135797476Y-72966000D01*
X135804476Y-72973000D01*
X135811476Y-72980000D01*
X135817476Y-72988000D01*
X135822476Y-72997000D01*
X135828476Y-73005000D01*
X135832476Y-73014000D01*
X135837476Y-73023000D01*
X135840476Y-73032000D01*
X135844476Y-73041000D01*
X135847476Y-73051000D01*
X135849476Y-73060000D01*
X135851476Y-73070000D01*
X135852476Y-73080000D01*
X135853476Y-73090000D01*
X135853476Y-73100000D01*
X135853476Y-73110000D01*
X135852476Y-73120000D01*
X135851476Y-73130000D01*
X135849476Y-73140000D01*
X135847476Y-73149000D01*
X135844476Y-73159000D01*
X135840476Y-73168000D01*
X135837476Y-73177000D01*
X135832476Y-73186000D01*
X135828476Y-73195000D01*
X135822476Y-73203000D01*
X135817476Y-73212000D01*
X135811476Y-73220000D01*
X135804476Y-73227000D01*
X135797476Y-73234000D01*
X135790476Y-73241000D01*
X135783476Y-73248000D01*
X135775476Y-73254000D01*
X135766476Y-73259000D01*
X135758476Y-73265000D01*
X135749476Y-73269000D01*
X135740476Y-73274000D01*
X135731476Y-73277000D01*
X135722476Y-73281000D01*
X135712476Y-73284000D01*
X135703476Y-73286000D01*
X135693476Y-73288000D01*
X135683476Y-73289000D01*
X135673476Y-73290000D01*
X135663476Y-73290000D01*
X135303476Y-73290000D01*
X135293476Y-73290000D01*
X135283476Y-73289000D01*
X135273476Y-73288000D01*
X135263476Y-73286000D01*
X135254476Y-73284000D01*
X135244476Y-73281000D01*
X135235476Y-73277000D01*
X135226476Y-73274000D01*
X135217476Y-73269000D01*
X135208476Y-73265000D01*
X135200476Y-73259000D01*
X135191476Y-73254000D01*
X135183476Y-73248000D01*
X135176476Y-73241000D01*
X135169476Y-73234000D01*
X135162476Y-73227000D01*
X135155476Y-73220000D01*
X135149476Y-73212000D01*
X135144476Y-73203000D01*
X135138476Y-73195000D01*
X135134476Y-73186000D01*
X135129476Y-73177000D01*
X135126476Y-73168000D01*
X135122476Y-73159000D01*
X135119476Y-73149000D01*
X135117476Y-73140000D01*
X135115476Y-73130000D01*
X135114476Y-73120000D01*
X135113476Y-73110000D01*
X135113476Y-73100000D01*
X135113476Y-73090000D01*
X135114476Y-73080000D01*
X135115476Y-73070000D01*
X135117476Y-73060000D01*
X135119476Y-73051000D01*
X135122476Y-73041000D01*
X135126476Y-73032000D01*
X135129476Y-73023000D01*
X135134476Y-73014000D01*
X135138476Y-73005000D01*
X135144476Y-72997000D01*
X135149476Y-72988000D01*
X135155476Y-72980000D01*
X135162476Y-72973000D01*
X135169476Y-72966000D01*
X135176476Y-72959000D01*
X135183476Y-72952000D01*
X135191476Y-72946000D01*
X135200476Y-72941000D01*
X135208476Y-72935000D01*
X135217476Y-72931000D01*
X135226476Y-72926000D01*
X135235476Y-72923000D01*
X135244476Y-72919000D01*
X135254476Y-72916000D01*
X135263476Y-72914000D01*
X135273476Y-72912000D01*
X135283476Y-72911000D01*
X135293476Y-72910000D01*
X135303476Y-72910000D01*
X135663476Y-72910000D01*
X135673476Y-72910000D01*
X135683476Y-72911000D01*
G36*
X135683476Y-72911000D02*
G01*
X135693476Y-72912000D01*
X135703476Y-72914000D01*
X135712476Y-72916000D01*
X135722476Y-72919000D01*
X135731476Y-72923000D01*
X135740476Y-72926000D01*
X135749476Y-72931000D01*
X135758476Y-72935000D01*
X135766476Y-72941000D01*
X135775476Y-72946000D01*
X135783476Y-72952000D01*
X135790476Y-72959000D01*
X135797476Y-72966000D01*
X135804476Y-72973000D01*
X135811476Y-72980000D01*
X135817476Y-72988000D01*
X135822476Y-72997000D01*
X135828476Y-73005000D01*
X135832476Y-73014000D01*
X135837476Y-73023000D01*
X135840476Y-73032000D01*
X135844476Y-73041000D01*
X135847476Y-73051000D01*
X135849476Y-73060000D01*
X135851476Y-73070000D01*
X135852476Y-73080000D01*
X135853476Y-73090000D01*
X135853476Y-73100000D01*
X135853476Y-73110000D01*
X135852476Y-73120000D01*
X135851476Y-73130000D01*
X135849476Y-73140000D01*
X135847476Y-73149000D01*
X135844476Y-73159000D01*
X135840476Y-73168000D01*
X135837476Y-73177000D01*
X135832476Y-73186000D01*
X135828476Y-73195000D01*
X135822476Y-73203000D01*
X135817476Y-73212000D01*
X135811476Y-73220000D01*
X135804476Y-73227000D01*
X135797476Y-73234000D01*
X135790476Y-73241000D01*
X135783476Y-73248000D01*
X135775476Y-73254000D01*
X135766476Y-73259000D01*
X135758476Y-73265000D01*
X135749476Y-73269000D01*
X135740476Y-73274000D01*
X135731476Y-73277000D01*
X135722476Y-73281000D01*
X135712476Y-73284000D01*
X135703476Y-73286000D01*
X135693476Y-73288000D01*
X135683476Y-73289000D01*
X135673476Y-73290000D01*
X135663476Y-73290000D01*
X135303476Y-73290000D01*
X135293476Y-73290000D01*
X135283476Y-73289000D01*
X135273476Y-73288000D01*
X135263476Y-73286000D01*
X135254476Y-73284000D01*
X135244476Y-73281000D01*
X135235476Y-73277000D01*
X135226476Y-73274000D01*
X135217476Y-73269000D01*
X135208476Y-73265000D01*
X135200476Y-73259000D01*
X135191476Y-73254000D01*
X135183476Y-73248000D01*
X135176476Y-73241000D01*
X135169476Y-73234000D01*
X135162476Y-73227000D01*
X135155476Y-73220000D01*
X135149476Y-73212000D01*
X135144476Y-73203000D01*
X135138476Y-73195000D01*
X135134476Y-73186000D01*
X135129476Y-73177000D01*
X135126476Y-73168000D01*
X135122476Y-73159000D01*
X135119476Y-73149000D01*
X135117476Y-73140000D01*
X135115476Y-73130000D01*
X135114476Y-73120000D01*
X135113476Y-73110000D01*
X135113476Y-73100000D01*
X135113476Y-73090000D01*
X135114476Y-73080000D01*
X135115476Y-73070000D01*
X135117476Y-73060000D01*
X135119476Y-73051000D01*
X135122476Y-73041000D01*
X135126476Y-73032000D01*
X135129476Y-73023000D01*
X135134476Y-73014000D01*
X135138476Y-73005000D01*
X135144476Y-72997000D01*
X135149476Y-72988000D01*
X135155476Y-72980000D01*
X135162476Y-72973000D01*
X135169476Y-72966000D01*
X135176476Y-72959000D01*
X135183476Y-72952000D01*
X135191476Y-72946000D01*
X135200476Y-72941000D01*
X135208476Y-72935000D01*
X135217476Y-72931000D01*
X135226476Y-72926000D01*
X135235476Y-72923000D01*
X135244476Y-72919000D01*
X135254476Y-72916000D01*
X135263476Y-72914000D01*
X135273476Y-72912000D01*
X135283476Y-72911000D01*
X135293476Y-72910000D01*
X135303476Y-72910000D01*
X135663476Y-72910000D01*
X135673476Y-72910000D01*
X135683476Y-72911000D01*
G37*
X135683476Y-73411000D02*
X135693476Y-73412000D01*
X135703476Y-73414000D01*
X135712476Y-73416000D01*
X135722476Y-73419000D01*
X135731476Y-73423000D01*
X135740476Y-73426000D01*
X135749476Y-73431000D01*
X135758476Y-73435000D01*
X135766476Y-73441000D01*
X135775476Y-73446000D01*
X135783476Y-73452000D01*
X135790476Y-73459000D01*
X135797476Y-73466000D01*
X135804476Y-73473000D01*
X135811476Y-73480000D01*
X135817476Y-73488000D01*
X135822476Y-73497000D01*
X135828476Y-73505000D01*
X135832476Y-73514000D01*
X135837476Y-73523000D01*
X135840476Y-73532000D01*
X135844476Y-73541000D01*
X135847476Y-73551000D01*
X135849476Y-73560000D01*
X135851476Y-73570000D01*
X135852476Y-73580000D01*
X135853476Y-73590000D01*
X135853476Y-73600000D01*
X135853476Y-73610000D01*
X135852476Y-73620000D01*
X135851476Y-73630000D01*
X135849476Y-73640000D01*
X135847476Y-73649000D01*
X135844476Y-73659000D01*
X135840476Y-73668000D01*
X135837476Y-73677000D01*
X135832476Y-73686000D01*
X135828476Y-73695000D01*
X135822476Y-73703000D01*
X135817476Y-73712000D01*
X135811476Y-73720000D01*
X135804476Y-73727000D01*
X135797476Y-73734000D01*
X135790476Y-73741000D01*
X135783476Y-73748000D01*
X135775476Y-73754000D01*
X135766476Y-73759000D01*
X135758476Y-73765000D01*
X135749476Y-73769000D01*
X135740476Y-73774000D01*
X135731476Y-73777000D01*
X135722476Y-73781000D01*
X135712476Y-73784000D01*
X135703476Y-73786000D01*
X135693476Y-73788000D01*
X135683476Y-73789000D01*
X135673476Y-73790000D01*
X135663476Y-73790000D01*
X135303476Y-73790000D01*
X135293476Y-73790000D01*
X135283476Y-73789000D01*
X135273476Y-73788000D01*
X135263476Y-73786000D01*
X135254476Y-73784000D01*
X135244476Y-73781000D01*
X135235476Y-73777000D01*
X135226476Y-73774000D01*
X135217476Y-73769000D01*
X135208476Y-73765000D01*
X135200476Y-73759000D01*
X135191476Y-73754000D01*
X135183476Y-73748000D01*
X135176476Y-73741000D01*
X135169476Y-73734000D01*
X135162476Y-73727000D01*
X135155476Y-73720000D01*
X135149476Y-73712000D01*
X135144476Y-73703000D01*
X135138476Y-73695000D01*
X135134476Y-73686000D01*
X135129476Y-73677000D01*
X135126476Y-73668000D01*
X135122476Y-73659000D01*
X135119476Y-73649000D01*
X135117476Y-73640000D01*
X135115476Y-73630000D01*
X135114476Y-73620000D01*
X135113476Y-73610000D01*
X135113476Y-73600000D01*
X135113476Y-73590000D01*
X135114476Y-73580000D01*
X135115476Y-73570000D01*
X135117476Y-73560000D01*
X135119476Y-73551000D01*
X135122476Y-73541000D01*
X135126476Y-73532000D01*
X135129476Y-73523000D01*
X135134476Y-73514000D01*
X135138476Y-73505000D01*
X135144476Y-73497000D01*
X135149476Y-73488000D01*
X135155476Y-73480000D01*
X135162476Y-73473000D01*
X135169476Y-73466000D01*
X135176476Y-73459000D01*
X135183476Y-73452000D01*
X135191476Y-73446000D01*
X135200476Y-73441000D01*
X135208476Y-73435000D01*
X135217476Y-73431000D01*
X135226476Y-73426000D01*
X135235476Y-73423000D01*
X135244476Y-73419000D01*
X135254476Y-73416000D01*
X135263476Y-73414000D01*
X135273476Y-73412000D01*
X135283476Y-73411000D01*
X135293476Y-73410000D01*
X135303476Y-73410000D01*
X135663476Y-73410000D01*
X135673476Y-73410000D01*
X135683476Y-73411000D01*
G36*
X135683476Y-73411000D02*
G01*
X135693476Y-73412000D01*
X135703476Y-73414000D01*
X135712476Y-73416000D01*
X135722476Y-73419000D01*
X135731476Y-73423000D01*
X135740476Y-73426000D01*
X135749476Y-73431000D01*
X135758476Y-73435000D01*
X135766476Y-73441000D01*
X135775476Y-73446000D01*
X135783476Y-73452000D01*
X135790476Y-73459000D01*
X135797476Y-73466000D01*
X135804476Y-73473000D01*
X135811476Y-73480000D01*
X135817476Y-73488000D01*
X135822476Y-73497000D01*
X135828476Y-73505000D01*
X135832476Y-73514000D01*
X135837476Y-73523000D01*
X135840476Y-73532000D01*
X135844476Y-73541000D01*
X135847476Y-73551000D01*
X135849476Y-73560000D01*
X135851476Y-73570000D01*
X135852476Y-73580000D01*
X135853476Y-73590000D01*
X135853476Y-73600000D01*
X135853476Y-73610000D01*
X135852476Y-73620000D01*
X135851476Y-73630000D01*
X135849476Y-73640000D01*
X135847476Y-73649000D01*
X135844476Y-73659000D01*
X135840476Y-73668000D01*
X135837476Y-73677000D01*
X135832476Y-73686000D01*
X135828476Y-73695000D01*
X135822476Y-73703000D01*
X135817476Y-73712000D01*
X135811476Y-73720000D01*
X135804476Y-73727000D01*
X135797476Y-73734000D01*
X135790476Y-73741000D01*
X135783476Y-73748000D01*
X135775476Y-73754000D01*
X135766476Y-73759000D01*
X135758476Y-73765000D01*
X135749476Y-73769000D01*
X135740476Y-73774000D01*
X135731476Y-73777000D01*
X135722476Y-73781000D01*
X135712476Y-73784000D01*
X135703476Y-73786000D01*
X135693476Y-73788000D01*
X135683476Y-73789000D01*
X135673476Y-73790000D01*
X135663476Y-73790000D01*
X135303476Y-73790000D01*
X135293476Y-73790000D01*
X135283476Y-73789000D01*
X135273476Y-73788000D01*
X135263476Y-73786000D01*
X135254476Y-73784000D01*
X135244476Y-73781000D01*
X135235476Y-73777000D01*
X135226476Y-73774000D01*
X135217476Y-73769000D01*
X135208476Y-73765000D01*
X135200476Y-73759000D01*
X135191476Y-73754000D01*
X135183476Y-73748000D01*
X135176476Y-73741000D01*
X135169476Y-73734000D01*
X135162476Y-73727000D01*
X135155476Y-73720000D01*
X135149476Y-73712000D01*
X135144476Y-73703000D01*
X135138476Y-73695000D01*
X135134476Y-73686000D01*
X135129476Y-73677000D01*
X135126476Y-73668000D01*
X135122476Y-73659000D01*
X135119476Y-73649000D01*
X135117476Y-73640000D01*
X135115476Y-73630000D01*
X135114476Y-73620000D01*
X135113476Y-73610000D01*
X135113476Y-73600000D01*
X135113476Y-73590000D01*
X135114476Y-73580000D01*
X135115476Y-73570000D01*
X135117476Y-73560000D01*
X135119476Y-73551000D01*
X135122476Y-73541000D01*
X135126476Y-73532000D01*
X135129476Y-73523000D01*
X135134476Y-73514000D01*
X135138476Y-73505000D01*
X135144476Y-73497000D01*
X135149476Y-73488000D01*
X135155476Y-73480000D01*
X135162476Y-73473000D01*
X135169476Y-73466000D01*
X135176476Y-73459000D01*
X135183476Y-73452000D01*
X135191476Y-73446000D01*
X135200476Y-73441000D01*
X135208476Y-73435000D01*
X135217476Y-73431000D01*
X135226476Y-73426000D01*
X135235476Y-73423000D01*
X135244476Y-73419000D01*
X135254476Y-73416000D01*
X135263476Y-73414000D01*
X135273476Y-73412000D01*
X135283476Y-73411000D01*
X135293476Y-73410000D01*
X135303476Y-73410000D01*
X135663476Y-73410000D01*
X135673476Y-73410000D01*
X135683476Y-73411000D01*
G37*
X135683476Y-73911000D02*
X135693476Y-73912000D01*
X135703476Y-73914000D01*
X135712476Y-73916000D01*
X135722476Y-73919000D01*
X135731476Y-73923000D01*
X135740476Y-73926000D01*
X135749476Y-73931000D01*
X135758476Y-73935000D01*
X135766476Y-73941000D01*
X135775476Y-73946000D01*
X135783476Y-73952000D01*
X135790476Y-73959000D01*
X135797476Y-73966000D01*
X135804476Y-73973000D01*
X135811476Y-73980000D01*
X135817476Y-73988000D01*
X135822476Y-73997000D01*
X135828476Y-74005000D01*
X135832476Y-74014000D01*
X135837476Y-74023000D01*
X135840476Y-74032000D01*
X135844476Y-74041000D01*
X135847476Y-74051000D01*
X135849476Y-74060000D01*
X135851476Y-74070000D01*
X135852476Y-74080000D01*
X135853476Y-74090000D01*
X135853476Y-74100000D01*
X135853476Y-74110000D01*
X135852476Y-74120000D01*
X135851476Y-74130000D01*
X135849476Y-74140000D01*
X135847476Y-74149000D01*
X135844476Y-74159000D01*
X135840476Y-74168000D01*
X135837476Y-74177000D01*
X135832476Y-74186000D01*
X135828476Y-74195000D01*
X135822476Y-74203000D01*
X135817476Y-74212000D01*
X135811476Y-74220000D01*
X135804476Y-74227000D01*
X135797476Y-74234000D01*
X135790476Y-74241000D01*
X135783476Y-74248000D01*
X135775476Y-74254000D01*
X135766476Y-74259000D01*
X135758476Y-74265000D01*
X135749476Y-74269000D01*
X135740476Y-74274000D01*
X135731476Y-74277000D01*
X135722476Y-74281000D01*
X135712476Y-74284000D01*
X135703476Y-74286000D01*
X135693476Y-74288000D01*
X135683476Y-74289000D01*
X135673476Y-74290000D01*
X135663476Y-74290000D01*
X135303476Y-74290000D01*
X135293476Y-74290000D01*
X135283476Y-74289000D01*
X135273476Y-74288000D01*
X135263476Y-74286000D01*
X135254476Y-74284000D01*
X135244476Y-74281000D01*
X135235476Y-74277000D01*
X135226476Y-74274000D01*
X135217476Y-74269000D01*
X135208476Y-74265000D01*
X135200476Y-74259000D01*
X135191476Y-74254000D01*
X135183476Y-74248000D01*
X135176476Y-74241000D01*
X135169476Y-74234000D01*
X135162476Y-74227000D01*
X135155476Y-74220000D01*
X135149476Y-74212000D01*
X135144476Y-74203000D01*
X135138476Y-74195000D01*
X135134476Y-74186000D01*
X135129476Y-74177000D01*
X135126476Y-74168000D01*
X135122476Y-74159000D01*
X135119476Y-74149000D01*
X135117476Y-74140000D01*
X135115476Y-74130000D01*
X135114476Y-74120000D01*
X135113476Y-74110000D01*
X135113476Y-74100000D01*
X135113476Y-74090000D01*
X135114476Y-74080000D01*
X135115476Y-74070000D01*
X135117476Y-74060000D01*
X135119476Y-74051000D01*
X135122476Y-74041000D01*
X135126476Y-74032000D01*
X135129476Y-74023000D01*
X135134476Y-74014000D01*
X135138476Y-74005000D01*
X135144476Y-73997000D01*
X135149476Y-73988000D01*
X135155476Y-73980000D01*
X135162476Y-73973000D01*
X135169476Y-73966000D01*
X135176476Y-73959000D01*
X135183476Y-73952000D01*
X135191476Y-73946000D01*
X135200476Y-73941000D01*
X135208476Y-73935000D01*
X135217476Y-73931000D01*
X135226476Y-73926000D01*
X135235476Y-73923000D01*
X135244476Y-73919000D01*
X135254476Y-73916000D01*
X135263476Y-73914000D01*
X135273476Y-73912000D01*
X135283476Y-73911000D01*
X135293476Y-73910000D01*
X135303476Y-73910000D01*
X135663476Y-73910000D01*
X135673476Y-73910000D01*
X135683476Y-73911000D01*
G36*
X135683476Y-73911000D02*
G01*
X135693476Y-73912000D01*
X135703476Y-73914000D01*
X135712476Y-73916000D01*
X135722476Y-73919000D01*
X135731476Y-73923000D01*
X135740476Y-73926000D01*
X135749476Y-73931000D01*
X135758476Y-73935000D01*
X135766476Y-73941000D01*
X135775476Y-73946000D01*
X135783476Y-73952000D01*
X135790476Y-73959000D01*
X135797476Y-73966000D01*
X135804476Y-73973000D01*
X135811476Y-73980000D01*
X135817476Y-73988000D01*
X135822476Y-73997000D01*
X135828476Y-74005000D01*
X135832476Y-74014000D01*
X135837476Y-74023000D01*
X135840476Y-74032000D01*
X135844476Y-74041000D01*
X135847476Y-74051000D01*
X135849476Y-74060000D01*
X135851476Y-74070000D01*
X135852476Y-74080000D01*
X135853476Y-74090000D01*
X135853476Y-74100000D01*
X135853476Y-74110000D01*
X135852476Y-74120000D01*
X135851476Y-74130000D01*
X135849476Y-74140000D01*
X135847476Y-74149000D01*
X135844476Y-74159000D01*
X135840476Y-74168000D01*
X135837476Y-74177000D01*
X135832476Y-74186000D01*
X135828476Y-74195000D01*
X135822476Y-74203000D01*
X135817476Y-74212000D01*
X135811476Y-74220000D01*
X135804476Y-74227000D01*
X135797476Y-74234000D01*
X135790476Y-74241000D01*
X135783476Y-74248000D01*
X135775476Y-74254000D01*
X135766476Y-74259000D01*
X135758476Y-74265000D01*
X135749476Y-74269000D01*
X135740476Y-74274000D01*
X135731476Y-74277000D01*
X135722476Y-74281000D01*
X135712476Y-74284000D01*
X135703476Y-74286000D01*
X135693476Y-74288000D01*
X135683476Y-74289000D01*
X135673476Y-74290000D01*
X135663476Y-74290000D01*
X135303476Y-74290000D01*
X135293476Y-74290000D01*
X135283476Y-74289000D01*
X135273476Y-74288000D01*
X135263476Y-74286000D01*
X135254476Y-74284000D01*
X135244476Y-74281000D01*
X135235476Y-74277000D01*
X135226476Y-74274000D01*
X135217476Y-74269000D01*
X135208476Y-74265000D01*
X135200476Y-74259000D01*
X135191476Y-74254000D01*
X135183476Y-74248000D01*
X135176476Y-74241000D01*
X135169476Y-74234000D01*
X135162476Y-74227000D01*
X135155476Y-74220000D01*
X135149476Y-74212000D01*
X135144476Y-74203000D01*
X135138476Y-74195000D01*
X135134476Y-74186000D01*
X135129476Y-74177000D01*
X135126476Y-74168000D01*
X135122476Y-74159000D01*
X135119476Y-74149000D01*
X135117476Y-74140000D01*
X135115476Y-74130000D01*
X135114476Y-74120000D01*
X135113476Y-74110000D01*
X135113476Y-74100000D01*
X135113476Y-74090000D01*
X135114476Y-74080000D01*
X135115476Y-74070000D01*
X135117476Y-74060000D01*
X135119476Y-74051000D01*
X135122476Y-74041000D01*
X135126476Y-74032000D01*
X135129476Y-74023000D01*
X135134476Y-74014000D01*
X135138476Y-74005000D01*
X135144476Y-73997000D01*
X135149476Y-73988000D01*
X135155476Y-73980000D01*
X135162476Y-73973000D01*
X135169476Y-73966000D01*
X135176476Y-73959000D01*
X135183476Y-73952000D01*
X135191476Y-73946000D01*
X135200476Y-73941000D01*
X135208476Y-73935000D01*
X135217476Y-73931000D01*
X135226476Y-73926000D01*
X135235476Y-73923000D01*
X135244476Y-73919000D01*
X135254476Y-73916000D01*
X135263476Y-73914000D01*
X135273476Y-73912000D01*
X135283476Y-73911000D01*
X135293476Y-73910000D01*
X135303476Y-73910000D01*
X135663476Y-73910000D01*
X135673476Y-73910000D01*
X135683476Y-73911000D01*
G37*
X135683476Y-74411000D02*
X135693476Y-74412000D01*
X135703476Y-74414000D01*
X135712476Y-74416000D01*
X135722476Y-74419000D01*
X135731476Y-74423000D01*
X135740476Y-74426000D01*
X135749476Y-74431000D01*
X135758476Y-74435000D01*
X135766476Y-74441000D01*
X135775476Y-74446000D01*
X135783476Y-74452000D01*
X135790476Y-74459000D01*
X135797476Y-74466000D01*
X135804476Y-74473000D01*
X135811476Y-74480000D01*
X135817476Y-74488000D01*
X135822476Y-74497000D01*
X135828476Y-74505000D01*
X135832476Y-74514000D01*
X135837476Y-74523000D01*
X135840476Y-74532000D01*
X135844476Y-74541000D01*
X135847476Y-74551000D01*
X135849476Y-74560000D01*
X135851476Y-74570000D01*
X135852476Y-74580000D01*
X135853476Y-74590000D01*
X135853476Y-74600000D01*
X135853476Y-74610000D01*
X135852476Y-74620000D01*
X135851476Y-74630000D01*
X135849476Y-74640000D01*
X135847476Y-74649000D01*
X135844476Y-74659000D01*
X135840476Y-74668000D01*
X135837476Y-74677000D01*
X135832476Y-74686000D01*
X135828476Y-74695000D01*
X135822476Y-74703000D01*
X135817476Y-74712000D01*
X135811476Y-74720000D01*
X135804476Y-74727000D01*
X135797476Y-74734000D01*
X135790476Y-74741000D01*
X135783476Y-74748000D01*
X135775476Y-74754000D01*
X135766476Y-74759000D01*
X135758476Y-74765000D01*
X135749476Y-74769000D01*
X135740476Y-74774000D01*
X135731476Y-74777000D01*
X135722476Y-74781000D01*
X135712476Y-74784000D01*
X135703476Y-74786000D01*
X135693476Y-74788000D01*
X135683476Y-74789000D01*
X135673476Y-74790000D01*
X135663476Y-74790000D01*
X135303476Y-74790000D01*
X135293476Y-74790000D01*
X135283476Y-74789000D01*
X135273476Y-74788000D01*
X135263476Y-74786000D01*
X135254476Y-74784000D01*
X135244476Y-74781000D01*
X135235476Y-74777000D01*
X135226476Y-74774000D01*
X135217476Y-74769000D01*
X135208476Y-74765000D01*
X135200476Y-74759000D01*
X135191476Y-74754000D01*
X135183476Y-74748000D01*
X135176476Y-74741000D01*
X135169476Y-74734000D01*
X135162476Y-74727000D01*
X135155476Y-74720000D01*
X135149476Y-74712000D01*
X135144476Y-74703000D01*
X135138476Y-74695000D01*
X135134476Y-74686000D01*
X135129476Y-74677000D01*
X135126476Y-74668000D01*
X135122476Y-74659000D01*
X135119476Y-74649000D01*
X135117476Y-74640000D01*
X135115476Y-74630000D01*
X135114476Y-74620000D01*
X135113476Y-74610000D01*
X135113476Y-74600000D01*
X135113476Y-74590000D01*
X135114476Y-74580000D01*
X135115476Y-74570000D01*
X135117476Y-74560000D01*
X135119476Y-74551000D01*
X135122476Y-74541000D01*
X135126476Y-74532000D01*
X135129476Y-74523000D01*
X135134476Y-74514000D01*
X135138476Y-74505000D01*
X135144476Y-74497000D01*
X135149476Y-74488000D01*
X135155476Y-74480000D01*
X135162476Y-74473000D01*
X135169476Y-74466000D01*
X135176476Y-74459000D01*
X135183476Y-74452000D01*
X135191476Y-74446000D01*
X135200476Y-74441000D01*
X135208476Y-74435000D01*
X135217476Y-74431000D01*
X135226476Y-74426000D01*
X135235476Y-74423000D01*
X135244476Y-74419000D01*
X135254476Y-74416000D01*
X135263476Y-74414000D01*
X135273476Y-74412000D01*
X135283476Y-74411000D01*
X135293476Y-74410000D01*
X135303476Y-74410000D01*
X135663476Y-74410000D01*
X135673476Y-74410000D01*
X135683476Y-74411000D01*
G36*
X135683476Y-74411000D02*
G01*
X135693476Y-74412000D01*
X135703476Y-74414000D01*
X135712476Y-74416000D01*
X135722476Y-74419000D01*
X135731476Y-74423000D01*
X135740476Y-74426000D01*
X135749476Y-74431000D01*
X135758476Y-74435000D01*
X135766476Y-74441000D01*
X135775476Y-74446000D01*
X135783476Y-74452000D01*
X135790476Y-74459000D01*
X135797476Y-74466000D01*
X135804476Y-74473000D01*
X135811476Y-74480000D01*
X135817476Y-74488000D01*
X135822476Y-74497000D01*
X135828476Y-74505000D01*
X135832476Y-74514000D01*
X135837476Y-74523000D01*
X135840476Y-74532000D01*
X135844476Y-74541000D01*
X135847476Y-74551000D01*
X135849476Y-74560000D01*
X135851476Y-74570000D01*
X135852476Y-74580000D01*
X135853476Y-74590000D01*
X135853476Y-74600000D01*
X135853476Y-74610000D01*
X135852476Y-74620000D01*
X135851476Y-74630000D01*
X135849476Y-74640000D01*
X135847476Y-74649000D01*
X135844476Y-74659000D01*
X135840476Y-74668000D01*
X135837476Y-74677000D01*
X135832476Y-74686000D01*
X135828476Y-74695000D01*
X135822476Y-74703000D01*
X135817476Y-74712000D01*
X135811476Y-74720000D01*
X135804476Y-74727000D01*
X135797476Y-74734000D01*
X135790476Y-74741000D01*
X135783476Y-74748000D01*
X135775476Y-74754000D01*
X135766476Y-74759000D01*
X135758476Y-74765000D01*
X135749476Y-74769000D01*
X135740476Y-74774000D01*
X135731476Y-74777000D01*
X135722476Y-74781000D01*
X135712476Y-74784000D01*
X135703476Y-74786000D01*
X135693476Y-74788000D01*
X135683476Y-74789000D01*
X135673476Y-74790000D01*
X135663476Y-74790000D01*
X135303476Y-74790000D01*
X135293476Y-74790000D01*
X135283476Y-74789000D01*
X135273476Y-74788000D01*
X135263476Y-74786000D01*
X135254476Y-74784000D01*
X135244476Y-74781000D01*
X135235476Y-74777000D01*
X135226476Y-74774000D01*
X135217476Y-74769000D01*
X135208476Y-74765000D01*
X135200476Y-74759000D01*
X135191476Y-74754000D01*
X135183476Y-74748000D01*
X135176476Y-74741000D01*
X135169476Y-74734000D01*
X135162476Y-74727000D01*
X135155476Y-74720000D01*
X135149476Y-74712000D01*
X135144476Y-74703000D01*
X135138476Y-74695000D01*
X135134476Y-74686000D01*
X135129476Y-74677000D01*
X135126476Y-74668000D01*
X135122476Y-74659000D01*
X135119476Y-74649000D01*
X135117476Y-74640000D01*
X135115476Y-74630000D01*
X135114476Y-74620000D01*
X135113476Y-74610000D01*
X135113476Y-74600000D01*
X135113476Y-74590000D01*
X135114476Y-74580000D01*
X135115476Y-74570000D01*
X135117476Y-74560000D01*
X135119476Y-74551000D01*
X135122476Y-74541000D01*
X135126476Y-74532000D01*
X135129476Y-74523000D01*
X135134476Y-74514000D01*
X135138476Y-74505000D01*
X135144476Y-74497000D01*
X135149476Y-74488000D01*
X135155476Y-74480000D01*
X135162476Y-74473000D01*
X135169476Y-74466000D01*
X135176476Y-74459000D01*
X135183476Y-74452000D01*
X135191476Y-74446000D01*
X135200476Y-74441000D01*
X135208476Y-74435000D01*
X135217476Y-74431000D01*
X135226476Y-74426000D01*
X135235476Y-74423000D01*
X135244476Y-74419000D01*
X135254476Y-74416000D01*
X135263476Y-74414000D01*
X135273476Y-74412000D01*
X135283476Y-74411000D01*
X135293476Y-74410000D01*
X135303476Y-74410000D01*
X135663476Y-74410000D01*
X135673476Y-74410000D01*
X135683476Y-74411000D01*
G37*
X135683476Y-74911000D02*
X135693476Y-74912000D01*
X135703476Y-74914000D01*
X135712476Y-74916000D01*
X135722476Y-74919000D01*
X135731476Y-74923000D01*
X135740476Y-74926000D01*
X135749476Y-74931000D01*
X135758476Y-74935000D01*
X135766476Y-74941000D01*
X135775476Y-74946000D01*
X135783476Y-74952000D01*
X135790476Y-74959000D01*
X135797476Y-74966000D01*
X135804476Y-74973000D01*
X135811476Y-74980000D01*
X135817476Y-74988000D01*
X135822476Y-74997000D01*
X135828476Y-75005000D01*
X135832476Y-75014000D01*
X135837476Y-75023000D01*
X135840476Y-75032000D01*
X135844476Y-75041000D01*
X135847476Y-75051000D01*
X135849476Y-75060000D01*
X135851476Y-75070000D01*
X135852476Y-75080000D01*
X135853476Y-75090000D01*
X135853476Y-75100000D01*
X135853476Y-75110000D01*
X135852476Y-75120000D01*
X135851476Y-75130000D01*
X135849476Y-75140000D01*
X135847476Y-75149000D01*
X135844476Y-75159000D01*
X135840476Y-75168000D01*
X135837476Y-75177000D01*
X135832476Y-75186000D01*
X135828476Y-75195000D01*
X135822476Y-75203000D01*
X135817476Y-75212000D01*
X135811476Y-75220000D01*
X135804476Y-75227000D01*
X135797476Y-75234000D01*
X135790476Y-75241000D01*
X135783476Y-75248000D01*
X135775476Y-75254000D01*
X135766476Y-75259000D01*
X135758476Y-75265000D01*
X135749476Y-75269000D01*
X135740476Y-75274000D01*
X135731476Y-75277000D01*
X135722476Y-75281000D01*
X135712476Y-75284000D01*
X135703476Y-75286000D01*
X135693476Y-75288000D01*
X135683476Y-75289000D01*
X135673476Y-75290000D01*
X135663476Y-75290000D01*
X135303476Y-75290000D01*
X135293476Y-75290000D01*
X135283476Y-75289000D01*
X135273476Y-75288000D01*
X135263476Y-75286000D01*
X135254476Y-75284000D01*
X135244476Y-75281000D01*
X135235476Y-75277000D01*
X135226476Y-75274000D01*
X135217476Y-75269000D01*
X135208476Y-75265000D01*
X135200476Y-75259000D01*
X135191476Y-75254000D01*
X135183476Y-75248000D01*
X135176476Y-75241000D01*
X135169476Y-75234000D01*
X135162476Y-75227000D01*
X135155476Y-75220000D01*
X135149476Y-75212000D01*
X135144476Y-75203000D01*
X135138476Y-75195000D01*
X135134476Y-75186000D01*
X135129476Y-75177000D01*
X135126476Y-75168000D01*
X135122476Y-75159000D01*
X135119476Y-75149000D01*
X135117476Y-75140000D01*
X135115476Y-75130000D01*
X135114476Y-75120000D01*
X135113476Y-75110000D01*
X135113476Y-75100000D01*
X135113476Y-75090000D01*
X135114476Y-75080000D01*
X135115476Y-75070000D01*
X135117476Y-75060000D01*
X135119476Y-75051000D01*
X135122476Y-75041000D01*
X135126476Y-75032000D01*
X135129476Y-75023000D01*
X135134476Y-75014000D01*
X135138476Y-75005000D01*
X135144476Y-74997000D01*
X135149476Y-74988000D01*
X135155476Y-74980000D01*
X135162476Y-74973000D01*
X135169476Y-74966000D01*
X135176476Y-74959000D01*
X135183476Y-74952000D01*
X135191476Y-74946000D01*
X135200476Y-74941000D01*
X135208476Y-74935000D01*
X135217476Y-74931000D01*
X135226476Y-74926000D01*
X135235476Y-74923000D01*
X135244476Y-74919000D01*
X135254476Y-74916000D01*
X135263476Y-74914000D01*
X135273476Y-74912000D01*
X135283476Y-74911000D01*
X135293476Y-74910000D01*
X135303476Y-74910000D01*
X135663476Y-74910000D01*
X135673476Y-74910000D01*
X135683476Y-74911000D01*
G36*
X135683476Y-74911000D02*
G01*
X135693476Y-74912000D01*
X135703476Y-74914000D01*
X135712476Y-74916000D01*
X135722476Y-74919000D01*
X135731476Y-74923000D01*
X135740476Y-74926000D01*
X135749476Y-74931000D01*
X135758476Y-74935000D01*
X135766476Y-74941000D01*
X135775476Y-74946000D01*
X135783476Y-74952000D01*
X135790476Y-74959000D01*
X135797476Y-74966000D01*
X135804476Y-74973000D01*
X135811476Y-74980000D01*
X135817476Y-74988000D01*
X135822476Y-74997000D01*
X135828476Y-75005000D01*
X135832476Y-75014000D01*
X135837476Y-75023000D01*
X135840476Y-75032000D01*
X135844476Y-75041000D01*
X135847476Y-75051000D01*
X135849476Y-75060000D01*
X135851476Y-75070000D01*
X135852476Y-75080000D01*
X135853476Y-75090000D01*
X135853476Y-75100000D01*
X135853476Y-75110000D01*
X135852476Y-75120000D01*
X135851476Y-75130000D01*
X135849476Y-75140000D01*
X135847476Y-75149000D01*
X135844476Y-75159000D01*
X135840476Y-75168000D01*
X135837476Y-75177000D01*
X135832476Y-75186000D01*
X135828476Y-75195000D01*
X135822476Y-75203000D01*
X135817476Y-75212000D01*
X135811476Y-75220000D01*
X135804476Y-75227000D01*
X135797476Y-75234000D01*
X135790476Y-75241000D01*
X135783476Y-75248000D01*
X135775476Y-75254000D01*
X135766476Y-75259000D01*
X135758476Y-75265000D01*
X135749476Y-75269000D01*
X135740476Y-75274000D01*
X135731476Y-75277000D01*
X135722476Y-75281000D01*
X135712476Y-75284000D01*
X135703476Y-75286000D01*
X135693476Y-75288000D01*
X135683476Y-75289000D01*
X135673476Y-75290000D01*
X135663476Y-75290000D01*
X135303476Y-75290000D01*
X135293476Y-75290000D01*
X135283476Y-75289000D01*
X135273476Y-75288000D01*
X135263476Y-75286000D01*
X135254476Y-75284000D01*
X135244476Y-75281000D01*
X135235476Y-75277000D01*
X135226476Y-75274000D01*
X135217476Y-75269000D01*
X135208476Y-75265000D01*
X135200476Y-75259000D01*
X135191476Y-75254000D01*
X135183476Y-75248000D01*
X135176476Y-75241000D01*
X135169476Y-75234000D01*
X135162476Y-75227000D01*
X135155476Y-75220000D01*
X135149476Y-75212000D01*
X135144476Y-75203000D01*
X135138476Y-75195000D01*
X135134476Y-75186000D01*
X135129476Y-75177000D01*
X135126476Y-75168000D01*
X135122476Y-75159000D01*
X135119476Y-75149000D01*
X135117476Y-75140000D01*
X135115476Y-75130000D01*
X135114476Y-75120000D01*
X135113476Y-75110000D01*
X135113476Y-75100000D01*
X135113476Y-75090000D01*
X135114476Y-75080000D01*
X135115476Y-75070000D01*
X135117476Y-75060000D01*
X135119476Y-75051000D01*
X135122476Y-75041000D01*
X135126476Y-75032000D01*
X135129476Y-75023000D01*
X135134476Y-75014000D01*
X135138476Y-75005000D01*
X135144476Y-74997000D01*
X135149476Y-74988000D01*
X135155476Y-74980000D01*
X135162476Y-74973000D01*
X135169476Y-74966000D01*
X135176476Y-74959000D01*
X135183476Y-74952000D01*
X135191476Y-74946000D01*
X135200476Y-74941000D01*
X135208476Y-74935000D01*
X135217476Y-74931000D01*
X135226476Y-74926000D01*
X135235476Y-74923000D01*
X135244476Y-74919000D01*
X135254476Y-74916000D01*
X135263476Y-74914000D01*
X135273476Y-74912000D01*
X135283476Y-74911000D01*
X135293476Y-74910000D01*
X135303476Y-74910000D01*
X135663476Y-74910000D01*
X135673476Y-74910000D01*
X135683476Y-74911000D01*
G37*
X135683476Y-75411000D02*
X135693476Y-75412000D01*
X135703476Y-75414000D01*
X135712476Y-75416000D01*
X135722476Y-75419000D01*
X135731476Y-75423000D01*
X135740476Y-75426000D01*
X135749476Y-75431000D01*
X135758476Y-75435000D01*
X135766476Y-75441000D01*
X135775476Y-75446000D01*
X135783476Y-75452000D01*
X135790476Y-75459000D01*
X135797476Y-75466000D01*
X135804476Y-75473000D01*
X135811476Y-75480000D01*
X135817476Y-75488000D01*
X135822476Y-75497000D01*
X135828476Y-75505000D01*
X135832476Y-75514000D01*
X135837476Y-75523000D01*
X135840476Y-75532000D01*
X135844476Y-75541000D01*
X135847476Y-75551000D01*
X135849476Y-75560000D01*
X135851476Y-75570000D01*
X135852476Y-75580000D01*
X135853476Y-75590000D01*
X135853476Y-75600000D01*
X135853476Y-75610000D01*
X135852476Y-75620000D01*
X135851476Y-75630000D01*
X135849476Y-75640000D01*
X135847476Y-75649000D01*
X135844476Y-75659000D01*
X135840476Y-75668000D01*
X135837476Y-75677000D01*
X135832476Y-75686000D01*
X135828476Y-75695000D01*
X135822476Y-75703000D01*
X135817476Y-75712000D01*
X135811476Y-75720000D01*
X135804476Y-75727000D01*
X135797476Y-75734000D01*
X135790476Y-75741000D01*
X135783476Y-75748000D01*
X135775476Y-75754000D01*
X135766476Y-75759000D01*
X135758476Y-75765000D01*
X135749476Y-75769000D01*
X135740476Y-75774000D01*
X135731476Y-75777000D01*
X135722476Y-75781000D01*
X135712476Y-75784000D01*
X135703476Y-75786000D01*
X135693476Y-75788000D01*
X135683476Y-75789000D01*
X135673476Y-75790000D01*
X135663476Y-75790000D01*
X135303476Y-75790000D01*
X135293476Y-75790000D01*
X135283476Y-75789000D01*
X135273476Y-75788000D01*
X135263476Y-75786000D01*
X135254476Y-75784000D01*
X135244476Y-75781000D01*
X135235476Y-75777000D01*
X135226476Y-75774000D01*
X135217476Y-75769000D01*
X135208476Y-75765000D01*
X135200476Y-75759000D01*
X135191476Y-75754000D01*
X135183476Y-75748000D01*
X135176476Y-75741000D01*
X135169476Y-75734000D01*
X135162476Y-75727000D01*
X135155476Y-75720000D01*
X135149476Y-75712000D01*
X135144476Y-75703000D01*
X135138476Y-75695000D01*
X135134476Y-75686000D01*
X135129476Y-75677000D01*
X135126476Y-75668000D01*
X135122476Y-75659000D01*
X135119476Y-75649000D01*
X135117476Y-75640000D01*
X135115476Y-75630000D01*
X135114476Y-75620000D01*
X135113476Y-75610000D01*
X135113476Y-75600000D01*
X135113476Y-75590000D01*
X135114476Y-75580000D01*
X135115476Y-75570000D01*
X135117476Y-75560000D01*
X135119476Y-75551000D01*
X135122476Y-75541000D01*
X135126476Y-75532000D01*
X135129476Y-75523000D01*
X135134476Y-75514000D01*
X135138476Y-75505000D01*
X135144476Y-75497000D01*
X135149476Y-75488000D01*
X135155476Y-75480000D01*
X135162476Y-75473000D01*
X135169476Y-75466000D01*
X135176476Y-75459000D01*
X135183476Y-75452000D01*
X135191476Y-75446000D01*
X135200476Y-75441000D01*
X135208476Y-75435000D01*
X135217476Y-75431000D01*
X135226476Y-75426000D01*
X135235476Y-75423000D01*
X135244476Y-75419000D01*
X135254476Y-75416000D01*
X135263476Y-75414000D01*
X135273476Y-75412000D01*
X135283476Y-75411000D01*
X135293476Y-75410000D01*
X135303476Y-75410000D01*
X135663476Y-75410000D01*
X135673476Y-75410000D01*
X135683476Y-75411000D01*
G36*
X135683476Y-75411000D02*
G01*
X135693476Y-75412000D01*
X135703476Y-75414000D01*
X135712476Y-75416000D01*
X135722476Y-75419000D01*
X135731476Y-75423000D01*
X135740476Y-75426000D01*
X135749476Y-75431000D01*
X135758476Y-75435000D01*
X135766476Y-75441000D01*
X135775476Y-75446000D01*
X135783476Y-75452000D01*
X135790476Y-75459000D01*
X135797476Y-75466000D01*
X135804476Y-75473000D01*
X135811476Y-75480000D01*
X135817476Y-75488000D01*
X135822476Y-75497000D01*
X135828476Y-75505000D01*
X135832476Y-75514000D01*
X135837476Y-75523000D01*
X135840476Y-75532000D01*
X135844476Y-75541000D01*
X135847476Y-75551000D01*
X135849476Y-75560000D01*
X135851476Y-75570000D01*
X135852476Y-75580000D01*
X135853476Y-75590000D01*
X135853476Y-75600000D01*
X135853476Y-75610000D01*
X135852476Y-75620000D01*
X135851476Y-75630000D01*
X135849476Y-75640000D01*
X135847476Y-75649000D01*
X135844476Y-75659000D01*
X135840476Y-75668000D01*
X135837476Y-75677000D01*
X135832476Y-75686000D01*
X135828476Y-75695000D01*
X135822476Y-75703000D01*
X135817476Y-75712000D01*
X135811476Y-75720000D01*
X135804476Y-75727000D01*
X135797476Y-75734000D01*
X135790476Y-75741000D01*
X135783476Y-75748000D01*
X135775476Y-75754000D01*
X135766476Y-75759000D01*
X135758476Y-75765000D01*
X135749476Y-75769000D01*
X135740476Y-75774000D01*
X135731476Y-75777000D01*
X135722476Y-75781000D01*
X135712476Y-75784000D01*
X135703476Y-75786000D01*
X135693476Y-75788000D01*
X135683476Y-75789000D01*
X135673476Y-75790000D01*
X135663476Y-75790000D01*
X135303476Y-75790000D01*
X135293476Y-75790000D01*
X135283476Y-75789000D01*
X135273476Y-75788000D01*
X135263476Y-75786000D01*
X135254476Y-75784000D01*
X135244476Y-75781000D01*
X135235476Y-75777000D01*
X135226476Y-75774000D01*
X135217476Y-75769000D01*
X135208476Y-75765000D01*
X135200476Y-75759000D01*
X135191476Y-75754000D01*
X135183476Y-75748000D01*
X135176476Y-75741000D01*
X135169476Y-75734000D01*
X135162476Y-75727000D01*
X135155476Y-75720000D01*
X135149476Y-75712000D01*
X135144476Y-75703000D01*
X135138476Y-75695000D01*
X135134476Y-75686000D01*
X135129476Y-75677000D01*
X135126476Y-75668000D01*
X135122476Y-75659000D01*
X135119476Y-75649000D01*
X135117476Y-75640000D01*
X135115476Y-75630000D01*
X135114476Y-75620000D01*
X135113476Y-75610000D01*
X135113476Y-75600000D01*
X135113476Y-75590000D01*
X135114476Y-75580000D01*
X135115476Y-75570000D01*
X135117476Y-75560000D01*
X135119476Y-75551000D01*
X135122476Y-75541000D01*
X135126476Y-75532000D01*
X135129476Y-75523000D01*
X135134476Y-75514000D01*
X135138476Y-75505000D01*
X135144476Y-75497000D01*
X135149476Y-75488000D01*
X135155476Y-75480000D01*
X135162476Y-75473000D01*
X135169476Y-75466000D01*
X135176476Y-75459000D01*
X135183476Y-75452000D01*
X135191476Y-75446000D01*
X135200476Y-75441000D01*
X135208476Y-75435000D01*
X135217476Y-75431000D01*
X135226476Y-75426000D01*
X135235476Y-75423000D01*
X135244476Y-75419000D01*
X135254476Y-75416000D01*
X135263476Y-75414000D01*
X135273476Y-75412000D01*
X135283476Y-75411000D01*
X135293476Y-75410000D01*
X135303476Y-75410000D01*
X135663476Y-75410000D01*
X135673476Y-75410000D01*
X135683476Y-75411000D01*
G37*
X138483476Y-72411000D02*
X138493476Y-72412000D01*
X138503476Y-72414000D01*
X138512476Y-72416000D01*
X138522476Y-72419000D01*
X138531476Y-72423000D01*
X138540476Y-72426000D01*
X138549476Y-72431000D01*
X138558476Y-72435000D01*
X138566476Y-72441000D01*
X138575476Y-72446000D01*
X138583476Y-72452000D01*
X138590476Y-72459000D01*
X138597476Y-72466000D01*
X138604476Y-72473000D01*
X138611476Y-72480000D01*
X138617476Y-72488000D01*
X138622476Y-72497000D01*
X138628476Y-72505000D01*
X138632476Y-72514000D01*
X138637476Y-72523000D01*
X138640476Y-72532000D01*
X138644476Y-72541000D01*
X138647476Y-72551000D01*
X138649476Y-72560000D01*
X138651476Y-72570000D01*
X138652476Y-72580000D01*
X138653476Y-72590000D01*
X138653476Y-72600000D01*
X138653476Y-72610000D01*
X138652476Y-72620000D01*
X138651476Y-72630000D01*
X138649476Y-72640000D01*
X138647476Y-72649000D01*
X138644476Y-72659000D01*
X138640476Y-72668000D01*
X138637476Y-72677000D01*
X138632476Y-72686000D01*
X138628476Y-72695000D01*
X138622476Y-72703000D01*
X138617476Y-72712000D01*
X138611476Y-72720000D01*
X138604476Y-72727000D01*
X138597476Y-72734000D01*
X138590476Y-72741000D01*
X138583476Y-72748000D01*
X138575476Y-72754000D01*
X138566476Y-72759000D01*
X138558476Y-72765000D01*
X138549476Y-72769000D01*
X138540476Y-72774000D01*
X138531476Y-72777000D01*
X138522476Y-72781000D01*
X138512476Y-72784000D01*
X138503476Y-72786000D01*
X138493476Y-72788000D01*
X138483476Y-72789000D01*
X138473476Y-72790000D01*
X138463476Y-72790000D01*
X138103476Y-72790000D01*
X138093476Y-72790000D01*
X138083476Y-72789000D01*
X138073476Y-72788000D01*
X138063476Y-72786000D01*
X138054476Y-72784000D01*
X138044476Y-72781000D01*
X138035476Y-72777000D01*
X138026476Y-72774000D01*
X138017476Y-72769000D01*
X138008476Y-72765000D01*
X138000476Y-72759000D01*
X137991476Y-72754000D01*
X137983476Y-72748000D01*
X137976476Y-72741000D01*
X137969476Y-72734000D01*
X137962476Y-72727000D01*
X137955476Y-72720000D01*
X137949476Y-72712000D01*
X137944476Y-72703000D01*
X137938476Y-72695000D01*
X137934476Y-72686000D01*
X137929476Y-72677000D01*
X137926476Y-72668000D01*
X137922476Y-72659000D01*
X137919476Y-72649000D01*
X137917476Y-72640000D01*
X137915476Y-72630000D01*
X137914476Y-72620000D01*
X137913476Y-72610000D01*
X137913476Y-72600000D01*
X137913476Y-72590000D01*
X137914476Y-72580000D01*
X137915476Y-72570000D01*
X137917476Y-72560000D01*
X137919476Y-72551000D01*
X137922476Y-72541000D01*
X137926476Y-72532000D01*
X137929476Y-72523000D01*
X137934476Y-72514000D01*
X137938476Y-72505000D01*
X137944476Y-72497000D01*
X137949476Y-72488000D01*
X137955476Y-72480000D01*
X137962476Y-72473000D01*
X137969476Y-72466000D01*
X137976476Y-72459000D01*
X137983476Y-72452000D01*
X137991476Y-72446000D01*
X138000476Y-72441000D01*
X138008476Y-72435000D01*
X138017476Y-72431000D01*
X138026476Y-72426000D01*
X138035476Y-72423000D01*
X138044476Y-72419000D01*
X138054476Y-72416000D01*
X138063476Y-72414000D01*
X138073476Y-72412000D01*
X138083476Y-72411000D01*
X138093476Y-72410000D01*
X138103476Y-72410000D01*
X138463476Y-72410000D01*
X138473476Y-72410000D01*
X138483476Y-72411000D01*
G36*
X138483476Y-72411000D02*
G01*
X138493476Y-72412000D01*
X138503476Y-72414000D01*
X138512476Y-72416000D01*
X138522476Y-72419000D01*
X138531476Y-72423000D01*
X138540476Y-72426000D01*
X138549476Y-72431000D01*
X138558476Y-72435000D01*
X138566476Y-72441000D01*
X138575476Y-72446000D01*
X138583476Y-72452000D01*
X138590476Y-72459000D01*
X138597476Y-72466000D01*
X138604476Y-72473000D01*
X138611476Y-72480000D01*
X138617476Y-72488000D01*
X138622476Y-72497000D01*
X138628476Y-72505000D01*
X138632476Y-72514000D01*
X138637476Y-72523000D01*
X138640476Y-72532000D01*
X138644476Y-72541000D01*
X138647476Y-72551000D01*
X138649476Y-72560000D01*
X138651476Y-72570000D01*
X138652476Y-72580000D01*
X138653476Y-72590000D01*
X138653476Y-72600000D01*
X138653476Y-72610000D01*
X138652476Y-72620000D01*
X138651476Y-72630000D01*
X138649476Y-72640000D01*
X138647476Y-72649000D01*
X138644476Y-72659000D01*
X138640476Y-72668000D01*
X138637476Y-72677000D01*
X138632476Y-72686000D01*
X138628476Y-72695000D01*
X138622476Y-72703000D01*
X138617476Y-72712000D01*
X138611476Y-72720000D01*
X138604476Y-72727000D01*
X138597476Y-72734000D01*
X138590476Y-72741000D01*
X138583476Y-72748000D01*
X138575476Y-72754000D01*
X138566476Y-72759000D01*
X138558476Y-72765000D01*
X138549476Y-72769000D01*
X138540476Y-72774000D01*
X138531476Y-72777000D01*
X138522476Y-72781000D01*
X138512476Y-72784000D01*
X138503476Y-72786000D01*
X138493476Y-72788000D01*
X138483476Y-72789000D01*
X138473476Y-72790000D01*
X138463476Y-72790000D01*
X138103476Y-72790000D01*
X138093476Y-72790000D01*
X138083476Y-72789000D01*
X138073476Y-72788000D01*
X138063476Y-72786000D01*
X138054476Y-72784000D01*
X138044476Y-72781000D01*
X138035476Y-72777000D01*
X138026476Y-72774000D01*
X138017476Y-72769000D01*
X138008476Y-72765000D01*
X138000476Y-72759000D01*
X137991476Y-72754000D01*
X137983476Y-72748000D01*
X137976476Y-72741000D01*
X137969476Y-72734000D01*
X137962476Y-72727000D01*
X137955476Y-72720000D01*
X137949476Y-72712000D01*
X137944476Y-72703000D01*
X137938476Y-72695000D01*
X137934476Y-72686000D01*
X137929476Y-72677000D01*
X137926476Y-72668000D01*
X137922476Y-72659000D01*
X137919476Y-72649000D01*
X137917476Y-72640000D01*
X137915476Y-72630000D01*
X137914476Y-72620000D01*
X137913476Y-72610000D01*
X137913476Y-72600000D01*
X137913476Y-72590000D01*
X137914476Y-72580000D01*
X137915476Y-72570000D01*
X137917476Y-72560000D01*
X137919476Y-72551000D01*
X137922476Y-72541000D01*
X137926476Y-72532000D01*
X137929476Y-72523000D01*
X137934476Y-72514000D01*
X137938476Y-72505000D01*
X137944476Y-72497000D01*
X137949476Y-72488000D01*
X137955476Y-72480000D01*
X137962476Y-72473000D01*
X137969476Y-72466000D01*
X137976476Y-72459000D01*
X137983476Y-72452000D01*
X137991476Y-72446000D01*
X138000476Y-72441000D01*
X138008476Y-72435000D01*
X138017476Y-72431000D01*
X138026476Y-72426000D01*
X138035476Y-72423000D01*
X138044476Y-72419000D01*
X138054476Y-72416000D01*
X138063476Y-72414000D01*
X138073476Y-72412000D01*
X138083476Y-72411000D01*
X138093476Y-72410000D01*
X138103476Y-72410000D01*
X138463476Y-72410000D01*
X138473476Y-72410000D01*
X138483476Y-72411000D01*
G37*
X138483476Y-72911000D02*
X138493476Y-72912000D01*
X138503476Y-72914000D01*
X138512476Y-72916000D01*
X138522476Y-72919000D01*
X138531476Y-72923000D01*
X138540476Y-72926000D01*
X138549476Y-72931000D01*
X138558476Y-72935000D01*
X138566476Y-72941000D01*
X138575476Y-72946000D01*
X138583476Y-72952000D01*
X138590476Y-72959000D01*
X138597476Y-72966000D01*
X138604476Y-72973000D01*
X138611476Y-72980000D01*
X138617476Y-72988000D01*
X138622476Y-72997000D01*
X138628476Y-73005000D01*
X138632476Y-73014000D01*
X138637476Y-73023000D01*
X138640476Y-73032000D01*
X138644476Y-73041000D01*
X138647476Y-73051000D01*
X138649476Y-73060000D01*
X138651476Y-73070000D01*
X138652476Y-73080000D01*
X138653476Y-73090000D01*
X138653476Y-73100000D01*
X138653476Y-73110000D01*
X138652476Y-73120000D01*
X138651476Y-73130000D01*
X138649476Y-73140000D01*
X138647476Y-73149000D01*
X138644476Y-73159000D01*
X138640476Y-73168000D01*
X138637476Y-73177000D01*
X138632476Y-73186000D01*
X138628476Y-73195000D01*
X138622476Y-73203000D01*
X138617476Y-73212000D01*
X138611476Y-73220000D01*
X138604476Y-73227000D01*
X138597476Y-73234000D01*
X138590476Y-73241000D01*
X138583476Y-73248000D01*
X138575476Y-73254000D01*
X138566476Y-73259000D01*
X138558476Y-73265000D01*
X138549476Y-73269000D01*
X138540476Y-73274000D01*
X138531476Y-73277000D01*
X138522476Y-73281000D01*
X138512476Y-73284000D01*
X138503476Y-73286000D01*
X138493476Y-73288000D01*
X138483476Y-73289000D01*
X138473476Y-73290000D01*
X138463476Y-73290000D01*
X138103476Y-73290000D01*
X138093476Y-73290000D01*
X138083476Y-73289000D01*
X138073476Y-73288000D01*
X138063476Y-73286000D01*
X138054476Y-73284000D01*
X138044476Y-73281000D01*
X138035476Y-73277000D01*
X138026476Y-73274000D01*
X138017476Y-73269000D01*
X138008476Y-73265000D01*
X138000476Y-73259000D01*
X137991476Y-73254000D01*
X137983476Y-73248000D01*
X137976476Y-73241000D01*
X137969476Y-73234000D01*
X137962476Y-73227000D01*
X137955476Y-73220000D01*
X137949476Y-73212000D01*
X137944476Y-73203000D01*
X137938476Y-73195000D01*
X137934476Y-73186000D01*
X137929476Y-73177000D01*
X137926476Y-73168000D01*
X137922476Y-73159000D01*
X137919476Y-73149000D01*
X137917476Y-73140000D01*
X137915476Y-73130000D01*
X137914476Y-73120000D01*
X137913476Y-73110000D01*
X137913476Y-73100000D01*
X137913476Y-73090000D01*
X137914476Y-73080000D01*
X137915476Y-73070000D01*
X137917476Y-73060000D01*
X137919476Y-73051000D01*
X137922476Y-73041000D01*
X137926476Y-73032000D01*
X137929476Y-73023000D01*
X137934476Y-73014000D01*
X137938476Y-73005000D01*
X137944476Y-72997000D01*
X137949476Y-72988000D01*
X137955476Y-72980000D01*
X137962476Y-72973000D01*
X137969476Y-72966000D01*
X137976476Y-72959000D01*
X137983476Y-72952000D01*
X137991476Y-72946000D01*
X138000476Y-72941000D01*
X138008476Y-72935000D01*
X138017476Y-72931000D01*
X138026476Y-72926000D01*
X138035476Y-72923000D01*
X138044476Y-72919000D01*
X138054476Y-72916000D01*
X138063476Y-72914000D01*
X138073476Y-72912000D01*
X138083476Y-72911000D01*
X138093476Y-72910000D01*
X138103476Y-72910000D01*
X138463476Y-72910000D01*
X138473476Y-72910000D01*
X138483476Y-72911000D01*
G36*
X138483476Y-72911000D02*
G01*
X138493476Y-72912000D01*
X138503476Y-72914000D01*
X138512476Y-72916000D01*
X138522476Y-72919000D01*
X138531476Y-72923000D01*
X138540476Y-72926000D01*
X138549476Y-72931000D01*
X138558476Y-72935000D01*
X138566476Y-72941000D01*
X138575476Y-72946000D01*
X138583476Y-72952000D01*
X138590476Y-72959000D01*
X138597476Y-72966000D01*
X138604476Y-72973000D01*
X138611476Y-72980000D01*
X138617476Y-72988000D01*
X138622476Y-72997000D01*
X138628476Y-73005000D01*
X138632476Y-73014000D01*
X138637476Y-73023000D01*
X138640476Y-73032000D01*
X138644476Y-73041000D01*
X138647476Y-73051000D01*
X138649476Y-73060000D01*
X138651476Y-73070000D01*
X138652476Y-73080000D01*
X138653476Y-73090000D01*
X138653476Y-73100000D01*
X138653476Y-73110000D01*
X138652476Y-73120000D01*
X138651476Y-73130000D01*
X138649476Y-73140000D01*
X138647476Y-73149000D01*
X138644476Y-73159000D01*
X138640476Y-73168000D01*
X138637476Y-73177000D01*
X138632476Y-73186000D01*
X138628476Y-73195000D01*
X138622476Y-73203000D01*
X138617476Y-73212000D01*
X138611476Y-73220000D01*
X138604476Y-73227000D01*
X138597476Y-73234000D01*
X138590476Y-73241000D01*
X138583476Y-73248000D01*
X138575476Y-73254000D01*
X138566476Y-73259000D01*
X138558476Y-73265000D01*
X138549476Y-73269000D01*
X138540476Y-73274000D01*
X138531476Y-73277000D01*
X138522476Y-73281000D01*
X138512476Y-73284000D01*
X138503476Y-73286000D01*
X138493476Y-73288000D01*
X138483476Y-73289000D01*
X138473476Y-73290000D01*
X138463476Y-73290000D01*
X138103476Y-73290000D01*
X138093476Y-73290000D01*
X138083476Y-73289000D01*
X138073476Y-73288000D01*
X138063476Y-73286000D01*
X138054476Y-73284000D01*
X138044476Y-73281000D01*
X138035476Y-73277000D01*
X138026476Y-73274000D01*
X138017476Y-73269000D01*
X138008476Y-73265000D01*
X138000476Y-73259000D01*
X137991476Y-73254000D01*
X137983476Y-73248000D01*
X137976476Y-73241000D01*
X137969476Y-73234000D01*
X137962476Y-73227000D01*
X137955476Y-73220000D01*
X137949476Y-73212000D01*
X137944476Y-73203000D01*
X137938476Y-73195000D01*
X137934476Y-73186000D01*
X137929476Y-73177000D01*
X137926476Y-73168000D01*
X137922476Y-73159000D01*
X137919476Y-73149000D01*
X137917476Y-73140000D01*
X137915476Y-73130000D01*
X137914476Y-73120000D01*
X137913476Y-73110000D01*
X137913476Y-73100000D01*
X137913476Y-73090000D01*
X137914476Y-73080000D01*
X137915476Y-73070000D01*
X137917476Y-73060000D01*
X137919476Y-73051000D01*
X137922476Y-73041000D01*
X137926476Y-73032000D01*
X137929476Y-73023000D01*
X137934476Y-73014000D01*
X137938476Y-73005000D01*
X137944476Y-72997000D01*
X137949476Y-72988000D01*
X137955476Y-72980000D01*
X137962476Y-72973000D01*
X137969476Y-72966000D01*
X137976476Y-72959000D01*
X137983476Y-72952000D01*
X137991476Y-72946000D01*
X138000476Y-72941000D01*
X138008476Y-72935000D01*
X138017476Y-72931000D01*
X138026476Y-72926000D01*
X138035476Y-72923000D01*
X138044476Y-72919000D01*
X138054476Y-72916000D01*
X138063476Y-72914000D01*
X138073476Y-72912000D01*
X138083476Y-72911000D01*
X138093476Y-72910000D01*
X138103476Y-72910000D01*
X138463476Y-72910000D01*
X138473476Y-72910000D01*
X138483476Y-72911000D01*
G37*
X138483476Y-73411000D02*
X138493476Y-73412000D01*
X138503476Y-73414000D01*
X138512476Y-73416000D01*
X138522476Y-73419000D01*
X138531476Y-73423000D01*
X138540476Y-73426000D01*
X138549476Y-73431000D01*
X138558476Y-73435000D01*
X138566476Y-73441000D01*
X138575476Y-73446000D01*
X138583476Y-73452000D01*
X138590476Y-73459000D01*
X138597476Y-73466000D01*
X138604476Y-73473000D01*
X138611476Y-73480000D01*
X138617476Y-73488000D01*
X138622476Y-73497000D01*
X138628476Y-73505000D01*
X138632476Y-73514000D01*
X138637476Y-73523000D01*
X138640476Y-73532000D01*
X138644476Y-73541000D01*
X138647476Y-73551000D01*
X138649476Y-73560000D01*
X138651476Y-73570000D01*
X138652476Y-73580000D01*
X138653476Y-73590000D01*
X138653476Y-73600000D01*
X138653476Y-73610000D01*
X138652476Y-73620000D01*
X138651476Y-73630000D01*
X138649476Y-73640000D01*
X138647476Y-73649000D01*
X138644476Y-73659000D01*
X138640476Y-73668000D01*
X138637476Y-73677000D01*
X138632476Y-73686000D01*
X138628476Y-73695000D01*
X138622476Y-73703000D01*
X138617476Y-73712000D01*
X138611476Y-73720000D01*
X138604476Y-73727000D01*
X138597476Y-73734000D01*
X138590476Y-73741000D01*
X138583476Y-73748000D01*
X138575476Y-73754000D01*
X138566476Y-73759000D01*
X138558476Y-73765000D01*
X138549476Y-73769000D01*
X138540476Y-73774000D01*
X138531476Y-73777000D01*
X138522476Y-73781000D01*
X138512476Y-73784000D01*
X138503476Y-73786000D01*
X138493476Y-73788000D01*
X138483476Y-73789000D01*
X138473476Y-73790000D01*
X138463476Y-73790000D01*
X138103476Y-73790000D01*
X138093476Y-73790000D01*
X138083476Y-73789000D01*
X138073476Y-73788000D01*
X138063476Y-73786000D01*
X138054476Y-73784000D01*
X138044476Y-73781000D01*
X138035476Y-73777000D01*
X138026476Y-73774000D01*
X138017476Y-73769000D01*
X138008476Y-73765000D01*
X138000476Y-73759000D01*
X137991476Y-73754000D01*
X137983476Y-73748000D01*
X137976476Y-73741000D01*
X137969476Y-73734000D01*
X137962476Y-73727000D01*
X137955476Y-73720000D01*
X137949476Y-73712000D01*
X137944476Y-73703000D01*
X137938476Y-73695000D01*
X137934476Y-73686000D01*
X137929476Y-73677000D01*
X137926476Y-73668000D01*
X137922476Y-73659000D01*
X137919476Y-73649000D01*
X137917476Y-73640000D01*
X137915476Y-73630000D01*
X137914476Y-73620000D01*
X137913476Y-73610000D01*
X137913476Y-73600000D01*
X137913476Y-73590000D01*
X137914476Y-73580000D01*
X137915476Y-73570000D01*
X137917476Y-73560000D01*
X137919476Y-73551000D01*
X137922476Y-73541000D01*
X137926476Y-73532000D01*
X137929476Y-73523000D01*
X137934476Y-73514000D01*
X137938476Y-73505000D01*
X137944476Y-73497000D01*
X137949476Y-73488000D01*
X137955476Y-73480000D01*
X137962476Y-73473000D01*
X137969476Y-73466000D01*
X137976476Y-73459000D01*
X137983476Y-73452000D01*
X137991476Y-73446000D01*
X138000476Y-73441000D01*
X138008476Y-73435000D01*
X138017476Y-73431000D01*
X138026476Y-73426000D01*
X138035476Y-73423000D01*
X138044476Y-73419000D01*
X138054476Y-73416000D01*
X138063476Y-73414000D01*
X138073476Y-73412000D01*
X138083476Y-73411000D01*
X138093476Y-73410000D01*
X138103476Y-73410000D01*
X138463476Y-73410000D01*
X138473476Y-73410000D01*
X138483476Y-73411000D01*
G36*
X138483476Y-73411000D02*
G01*
X138493476Y-73412000D01*
X138503476Y-73414000D01*
X138512476Y-73416000D01*
X138522476Y-73419000D01*
X138531476Y-73423000D01*
X138540476Y-73426000D01*
X138549476Y-73431000D01*
X138558476Y-73435000D01*
X138566476Y-73441000D01*
X138575476Y-73446000D01*
X138583476Y-73452000D01*
X138590476Y-73459000D01*
X138597476Y-73466000D01*
X138604476Y-73473000D01*
X138611476Y-73480000D01*
X138617476Y-73488000D01*
X138622476Y-73497000D01*
X138628476Y-73505000D01*
X138632476Y-73514000D01*
X138637476Y-73523000D01*
X138640476Y-73532000D01*
X138644476Y-73541000D01*
X138647476Y-73551000D01*
X138649476Y-73560000D01*
X138651476Y-73570000D01*
X138652476Y-73580000D01*
X138653476Y-73590000D01*
X138653476Y-73600000D01*
X138653476Y-73610000D01*
X138652476Y-73620000D01*
X138651476Y-73630000D01*
X138649476Y-73640000D01*
X138647476Y-73649000D01*
X138644476Y-73659000D01*
X138640476Y-73668000D01*
X138637476Y-73677000D01*
X138632476Y-73686000D01*
X138628476Y-73695000D01*
X138622476Y-73703000D01*
X138617476Y-73712000D01*
X138611476Y-73720000D01*
X138604476Y-73727000D01*
X138597476Y-73734000D01*
X138590476Y-73741000D01*
X138583476Y-73748000D01*
X138575476Y-73754000D01*
X138566476Y-73759000D01*
X138558476Y-73765000D01*
X138549476Y-73769000D01*
X138540476Y-73774000D01*
X138531476Y-73777000D01*
X138522476Y-73781000D01*
X138512476Y-73784000D01*
X138503476Y-73786000D01*
X138493476Y-73788000D01*
X138483476Y-73789000D01*
X138473476Y-73790000D01*
X138463476Y-73790000D01*
X138103476Y-73790000D01*
X138093476Y-73790000D01*
X138083476Y-73789000D01*
X138073476Y-73788000D01*
X138063476Y-73786000D01*
X138054476Y-73784000D01*
X138044476Y-73781000D01*
X138035476Y-73777000D01*
X138026476Y-73774000D01*
X138017476Y-73769000D01*
X138008476Y-73765000D01*
X138000476Y-73759000D01*
X137991476Y-73754000D01*
X137983476Y-73748000D01*
X137976476Y-73741000D01*
X137969476Y-73734000D01*
X137962476Y-73727000D01*
X137955476Y-73720000D01*
X137949476Y-73712000D01*
X137944476Y-73703000D01*
X137938476Y-73695000D01*
X137934476Y-73686000D01*
X137929476Y-73677000D01*
X137926476Y-73668000D01*
X137922476Y-73659000D01*
X137919476Y-73649000D01*
X137917476Y-73640000D01*
X137915476Y-73630000D01*
X137914476Y-73620000D01*
X137913476Y-73610000D01*
X137913476Y-73600000D01*
X137913476Y-73590000D01*
X137914476Y-73580000D01*
X137915476Y-73570000D01*
X137917476Y-73560000D01*
X137919476Y-73551000D01*
X137922476Y-73541000D01*
X137926476Y-73532000D01*
X137929476Y-73523000D01*
X137934476Y-73514000D01*
X137938476Y-73505000D01*
X137944476Y-73497000D01*
X137949476Y-73488000D01*
X137955476Y-73480000D01*
X137962476Y-73473000D01*
X137969476Y-73466000D01*
X137976476Y-73459000D01*
X137983476Y-73452000D01*
X137991476Y-73446000D01*
X138000476Y-73441000D01*
X138008476Y-73435000D01*
X138017476Y-73431000D01*
X138026476Y-73426000D01*
X138035476Y-73423000D01*
X138044476Y-73419000D01*
X138054476Y-73416000D01*
X138063476Y-73414000D01*
X138073476Y-73412000D01*
X138083476Y-73411000D01*
X138093476Y-73410000D01*
X138103476Y-73410000D01*
X138463476Y-73410000D01*
X138473476Y-73410000D01*
X138483476Y-73411000D01*
G37*
X138483476Y-73911000D02*
X138493476Y-73912000D01*
X138503476Y-73914000D01*
X138512476Y-73916000D01*
X138522476Y-73919000D01*
X138531476Y-73923000D01*
X138540476Y-73926000D01*
X138549476Y-73931000D01*
X138558476Y-73935000D01*
X138566476Y-73941000D01*
X138575476Y-73946000D01*
X138583476Y-73952000D01*
X138590476Y-73959000D01*
X138597476Y-73966000D01*
X138604476Y-73973000D01*
X138611476Y-73980000D01*
X138617476Y-73988000D01*
X138622476Y-73997000D01*
X138628476Y-74005000D01*
X138632476Y-74014000D01*
X138637476Y-74023000D01*
X138640476Y-74032000D01*
X138644476Y-74041000D01*
X138647476Y-74051000D01*
X138649476Y-74060000D01*
X138651476Y-74070000D01*
X138652476Y-74080000D01*
X138653476Y-74090000D01*
X138653476Y-74100000D01*
X138653476Y-74110000D01*
X138652476Y-74120000D01*
X138651476Y-74130000D01*
X138649476Y-74140000D01*
X138647476Y-74149000D01*
X138644476Y-74159000D01*
X138640476Y-74168000D01*
X138637476Y-74177000D01*
X138632476Y-74186000D01*
X138628476Y-74195000D01*
X138622476Y-74203000D01*
X138617476Y-74212000D01*
X138611476Y-74220000D01*
X138604476Y-74227000D01*
X138597476Y-74234000D01*
X138590476Y-74241000D01*
X138583476Y-74248000D01*
X138575476Y-74254000D01*
X138566476Y-74259000D01*
X138558476Y-74265000D01*
X138549476Y-74269000D01*
X138540476Y-74274000D01*
X138531476Y-74277000D01*
X138522476Y-74281000D01*
X138512476Y-74284000D01*
X138503476Y-74286000D01*
X138493476Y-74288000D01*
X138483476Y-74289000D01*
X138473476Y-74290000D01*
X138463476Y-74290000D01*
X138103476Y-74290000D01*
X138093476Y-74290000D01*
X138083476Y-74289000D01*
X138073476Y-74288000D01*
X138063476Y-74286000D01*
X138054476Y-74284000D01*
X138044476Y-74281000D01*
X138035476Y-74277000D01*
X138026476Y-74274000D01*
X138017476Y-74269000D01*
X138008476Y-74265000D01*
X138000476Y-74259000D01*
X137991476Y-74254000D01*
X137983476Y-74248000D01*
X137976476Y-74241000D01*
X137969476Y-74234000D01*
X137962476Y-74227000D01*
X137955476Y-74220000D01*
X137949476Y-74212000D01*
X137944476Y-74203000D01*
X137938476Y-74195000D01*
X137934476Y-74186000D01*
X137929476Y-74177000D01*
X137926476Y-74168000D01*
X137922476Y-74159000D01*
X137919476Y-74149000D01*
X137917476Y-74140000D01*
X137915476Y-74130000D01*
X137914476Y-74120000D01*
X137913476Y-74110000D01*
X137913476Y-74100000D01*
X137913476Y-74090000D01*
X137914476Y-74080000D01*
X137915476Y-74070000D01*
X137917476Y-74060000D01*
X137919476Y-74051000D01*
X137922476Y-74041000D01*
X137926476Y-74032000D01*
X137929476Y-74023000D01*
X137934476Y-74014000D01*
X137938476Y-74005000D01*
X137944476Y-73997000D01*
X137949476Y-73988000D01*
X137955476Y-73980000D01*
X137962476Y-73973000D01*
X137969476Y-73966000D01*
X137976476Y-73959000D01*
X137983476Y-73952000D01*
X137991476Y-73946000D01*
X138000476Y-73941000D01*
X138008476Y-73935000D01*
X138017476Y-73931000D01*
X138026476Y-73926000D01*
X138035476Y-73923000D01*
X138044476Y-73919000D01*
X138054476Y-73916000D01*
X138063476Y-73914000D01*
X138073476Y-73912000D01*
X138083476Y-73911000D01*
X138093476Y-73910000D01*
X138103476Y-73910000D01*
X138463476Y-73910000D01*
X138473476Y-73910000D01*
X138483476Y-73911000D01*
G36*
X138483476Y-73911000D02*
G01*
X138493476Y-73912000D01*
X138503476Y-73914000D01*
X138512476Y-73916000D01*
X138522476Y-73919000D01*
X138531476Y-73923000D01*
X138540476Y-73926000D01*
X138549476Y-73931000D01*
X138558476Y-73935000D01*
X138566476Y-73941000D01*
X138575476Y-73946000D01*
X138583476Y-73952000D01*
X138590476Y-73959000D01*
X138597476Y-73966000D01*
X138604476Y-73973000D01*
X138611476Y-73980000D01*
X138617476Y-73988000D01*
X138622476Y-73997000D01*
X138628476Y-74005000D01*
X138632476Y-74014000D01*
X138637476Y-74023000D01*
X138640476Y-74032000D01*
X138644476Y-74041000D01*
X138647476Y-74051000D01*
X138649476Y-74060000D01*
X138651476Y-74070000D01*
X138652476Y-74080000D01*
X138653476Y-74090000D01*
X138653476Y-74100000D01*
X138653476Y-74110000D01*
X138652476Y-74120000D01*
X138651476Y-74130000D01*
X138649476Y-74140000D01*
X138647476Y-74149000D01*
X138644476Y-74159000D01*
X138640476Y-74168000D01*
X138637476Y-74177000D01*
X138632476Y-74186000D01*
X138628476Y-74195000D01*
X138622476Y-74203000D01*
X138617476Y-74212000D01*
X138611476Y-74220000D01*
X138604476Y-74227000D01*
X138597476Y-74234000D01*
X138590476Y-74241000D01*
X138583476Y-74248000D01*
X138575476Y-74254000D01*
X138566476Y-74259000D01*
X138558476Y-74265000D01*
X138549476Y-74269000D01*
X138540476Y-74274000D01*
X138531476Y-74277000D01*
X138522476Y-74281000D01*
X138512476Y-74284000D01*
X138503476Y-74286000D01*
X138493476Y-74288000D01*
X138483476Y-74289000D01*
X138473476Y-74290000D01*
X138463476Y-74290000D01*
X138103476Y-74290000D01*
X138093476Y-74290000D01*
X138083476Y-74289000D01*
X138073476Y-74288000D01*
X138063476Y-74286000D01*
X138054476Y-74284000D01*
X138044476Y-74281000D01*
X138035476Y-74277000D01*
X138026476Y-74274000D01*
X138017476Y-74269000D01*
X138008476Y-74265000D01*
X138000476Y-74259000D01*
X137991476Y-74254000D01*
X137983476Y-74248000D01*
X137976476Y-74241000D01*
X137969476Y-74234000D01*
X137962476Y-74227000D01*
X137955476Y-74220000D01*
X137949476Y-74212000D01*
X137944476Y-74203000D01*
X137938476Y-74195000D01*
X137934476Y-74186000D01*
X137929476Y-74177000D01*
X137926476Y-74168000D01*
X137922476Y-74159000D01*
X137919476Y-74149000D01*
X137917476Y-74140000D01*
X137915476Y-74130000D01*
X137914476Y-74120000D01*
X137913476Y-74110000D01*
X137913476Y-74100000D01*
X137913476Y-74090000D01*
X137914476Y-74080000D01*
X137915476Y-74070000D01*
X137917476Y-74060000D01*
X137919476Y-74051000D01*
X137922476Y-74041000D01*
X137926476Y-74032000D01*
X137929476Y-74023000D01*
X137934476Y-74014000D01*
X137938476Y-74005000D01*
X137944476Y-73997000D01*
X137949476Y-73988000D01*
X137955476Y-73980000D01*
X137962476Y-73973000D01*
X137969476Y-73966000D01*
X137976476Y-73959000D01*
X137983476Y-73952000D01*
X137991476Y-73946000D01*
X138000476Y-73941000D01*
X138008476Y-73935000D01*
X138017476Y-73931000D01*
X138026476Y-73926000D01*
X138035476Y-73923000D01*
X138044476Y-73919000D01*
X138054476Y-73916000D01*
X138063476Y-73914000D01*
X138073476Y-73912000D01*
X138083476Y-73911000D01*
X138093476Y-73910000D01*
X138103476Y-73910000D01*
X138463476Y-73910000D01*
X138473476Y-73910000D01*
X138483476Y-73911000D01*
G37*
X138483476Y-74411000D02*
X138493476Y-74412000D01*
X138503476Y-74414000D01*
X138512476Y-74416000D01*
X138522476Y-74419000D01*
X138531476Y-74423000D01*
X138540476Y-74426000D01*
X138549476Y-74431000D01*
X138558476Y-74435000D01*
X138566476Y-74441000D01*
X138575476Y-74446000D01*
X138583476Y-74452000D01*
X138590476Y-74459000D01*
X138597476Y-74466000D01*
X138604476Y-74473000D01*
X138611476Y-74480000D01*
X138617476Y-74488000D01*
X138622476Y-74497000D01*
X138628476Y-74505000D01*
X138632476Y-74514000D01*
X138637476Y-74523000D01*
X138640476Y-74532000D01*
X138644476Y-74541000D01*
X138647476Y-74551000D01*
X138649476Y-74560000D01*
X138651476Y-74570000D01*
X138652476Y-74580000D01*
X138653476Y-74590000D01*
X138653476Y-74600000D01*
X138653476Y-74610000D01*
X138652476Y-74620000D01*
X138651476Y-74630000D01*
X138649476Y-74640000D01*
X138647476Y-74649000D01*
X138644476Y-74659000D01*
X138640476Y-74668000D01*
X138637476Y-74677000D01*
X138632476Y-74686000D01*
X138628476Y-74695000D01*
X138622476Y-74703000D01*
X138617476Y-74712000D01*
X138611476Y-74720000D01*
X138604476Y-74727000D01*
X138597476Y-74734000D01*
X138590476Y-74741000D01*
X138583476Y-74748000D01*
X138575476Y-74754000D01*
X138566476Y-74759000D01*
X138558476Y-74765000D01*
X138549476Y-74769000D01*
X138540476Y-74774000D01*
X138531476Y-74777000D01*
X138522476Y-74781000D01*
X138512476Y-74784000D01*
X138503476Y-74786000D01*
X138493476Y-74788000D01*
X138483476Y-74789000D01*
X138473476Y-74790000D01*
X138463476Y-74790000D01*
X138103476Y-74790000D01*
X138093476Y-74790000D01*
X138083476Y-74789000D01*
X138073476Y-74788000D01*
X138063476Y-74786000D01*
X138054476Y-74784000D01*
X138044476Y-74781000D01*
X138035476Y-74777000D01*
X138026476Y-74774000D01*
X138017476Y-74769000D01*
X138008476Y-74765000D01*
X138000476Y-74759000D01*
X137991476Y-74754000D01*
X137983476Y-74748000D01*
X137976476Y-74741000D01*
X137969476Y-74734000D01*
X137962476Y-74727000D01*
X137955476Y-74720000D01*
X137949476Y-74712000D01*
X137944476Y-74703000D01*
X137938476Y-74695000D01*
X137934476Y-74686000D01*
X137929476Y-74677000D01*
X137926476Y-74668000D01*
X137922476Y-74659000D01*
X137919476Y-74649000D01*
X137917476Y-74640000D01*
X137915476Y-74630000D01*
X137914476Y-74620000D01*
X137913476Y-74610000D01*
X137913476Y-74600000D01*
X137913476Y-74590000D01*
X137914476Y-74580000D01*
X137915476Y-74570000D01*
X137917476Y-74560000D01*
X137919476Y-74551000D01*
X137922476Y-74541000D01*
X137926476Y-74532000D01*
X137929476Y-74523000D01*
X137934476Y-74514000D01*
X137938476Y-74505000D01*
X137944476Y-74497000D01*
X137949476Y-74488000D01*
X137955476Y-74480000D01*
X137962476Y-74473000D01*
X137969476Y-74466000D01*
X137976476Y-74459000D01*
X137983476Y-74452000D01*
X137991476Y-74446000D01*
X138000476Y-74441000D01*
X138008476Y-74435000D01*
X138017476Y-74431000D01*
X138026476Y-74426000D01*
X138035476Y-74423000D01*
X138044476Y-74419000D01*
X138054476Y-74416000D01*
X138063476Y-74414000D01*
X138073476Y-74412000D01*
X138083476Y-74411000D01*
X138093476Y-74410000D01*
X138103476Y-74410000D01*
X138463476Y-74410000D01*
X138473476Y-74410000D01*
X138483476Y-74411000D01*
G36*
X138483476Y-74411000D02*
G01*
X138493476Y-74412000D01*
X138503476Y-74414000D01*
X138512476Y-74416000D01*
X138522476Y-74419000D01*
X138531476Y-74423000D01*
X138540476Y-74426000D01*
X138549476Y-74431000D01*
X138558476Y-74435000D01*
X138566476Y-74441000D01*
X138575476Y-74446000D01*
X138583476Y-74452000D01*
X138590476Y-74459000D01*
X138597476Y-74466000D01*
X138604476Y-74473000D01*
X138611476Y-74480000D01*
X138617476Y-74488000D01*
X138622476Y-74497000D01*
X138628476Y-74505000D01*
X138632476Y-74514000D01*
X138637476Y-74523000D01*
X138640476Y-74532000D01*
X138644476Y-74541000D01*
X138647476Y-74551000D01*
X138649476Y-74560000D01*
X138651476Y-74570000D01*
X138652476Y-74580000D01*
X138653476Y-74590000D01*
X138653476Y-74600000D01*
X138653476Y-74610000D01*
X138652476Y-74620000D01*
X138651476Y-74630000D01*
X138649476Y-74640000D01*
X138647476Y-74649000D01*
X138644476Y-74659000D01*
X138640476Y-74668000D01*
X138637476Y-74677000D01*
X138632476Y-74686000D01*
X138628476Y-74695000D01*
X138622476Y-74703000D01*
X138617476Y-74712000D01*
X138611476Y-74720000D01*
X138604476Y-74727000D01*
X138597476Y-74734000D01*
X138590476Y-74741000D01*
X138583476Y-74748000D01*
X138575476Y-74754000D01*
X138566476Y-74759000D01*
X138558476Y-74765000D01*
X138549476Y-74769000D01*
X138540476Y-74774000D01*
X138531476Y-74777000D01*
X138522476Y-74781000D01*
X138512476Y-74784000D01*
X138503476Y-74786000D01*
X138493476Y-74788000D01*
X138483476Y-74789000D01*
X138473476Y-74790000D01*
X138463476Y-74790000D01*
X138103476Y-74790000D01*
X138093476Y-74790000D01*
X138083476Y-74789000D01*
X138073476Y-74788000D01*
X138063476Y-74786000D01*
X138054476Y-74784000D01*
X138044476Y-74781000D01*
X138035476Y-74777000D01*
X138026476Y-74774000D01*
X138017476Y-74769000D01*
X138008476Y-74765000D01*
X138000476Y-74759000D01*
X137991476Y-74754000D01*
X137983476Y-74748000D01*
X137976476Y-74741000D01*
X137969476Y-74734000D01*
X137962476Y-74727000D01*
X137955476Y-74720000D01*
X137949476Y-74712000D01*
X137944476Y-74703000D01*
X137938476Y-74695000D01*
X137934476Y-74686000D01*
X137929476Y-74677000D01*
X137926476Y-74668000D01*
X137922476Y-74659000D01*
X137919476Y-74649000D01*
X137917476Y-74640000D01*
X137915476Y-74630000D01*
X137914476Y-74620000D01*
X137913476Y-74610000D01*
X137913476Y-74600000D01*
X137913476Y-74590000D01*
X137914476Y-74580000D01*
X137915476Y-74570000D01*
X137917476Y-74560000D01*
X137919476Y-74551000D01*
X137922476Y-74541000D01*
X137926476Y-74532000D01*
X137929476Y-74523000D01*
X137934476Y-74514000D01*
X137938476Y-74505000D01*
X137944476Y-74497000D01*
X137949476Y-74488000D01*
X137955476Y-74480000D01*
X137962476Y-74473000D01*
X137969476Y-74466000D01*
X137976476Y-74459000D01*
X137983476Y-74452000D01*
X137991476Y-74446000D01*
X138000476Y-74441000D01*
X138008476Y-74435000D01*
X138017476Y-74431000D01*
X138026476Y-74426000D01*
X138035476Y-74423000D01*
X138044476Y-74419000D01*
X138054476Y-74416000D01*
X138063476Y-74414000D01*
X138073476Y-74412000D01*
X138083476Y-74411000D01*
X138093476Y-74410000D01*
X138103476Y-74410000D01*
X138463476Y-74410000D01*
X138473476Y-74410000D01*
X138483476Y-74411000D01*
G37*
X138483476Y-74911000D02*
X138493476Y-74912000D01*
X138503476Y-74914000D01*
X138512476Y-74916000D01*
X138522476Y-74919000D01*
X138531476Y-74923000D01*
X138540476Y-74926000D01*
X138549476Y-74931000D01*
X138558476Y-74935000D01*
X138566476Y-74941000D01*
X138575476Y-74946000D01*
X138583476Y-74952000D01*
X138590476Y-74959000D01*
X138597476Y-74966000D01*
X138604476Y-74973000D01*
X138611476Y-74980000D01*
X138617476Y-74988000D01*
X138622476Y-74997000D01*
X138628476Y-75005000D01*
X138632476Y-75014000D01*
X138637476Y-75023000D01*
X138640476Y-75032000D01*
X138644476Y-75041000D01*
X138647476Y-75051000D01*
X138649476Y-75060000D01*
X138651476Y-75070000D01*
X138652476Y-75080000D01*
X138653476Y-75090000D01*
X138653476Y-75100000D01*
X138653476Y-75110000D01*
X138652476Y-75120000D01*
X138651476Y-75130000D01*
X138649476Y-75140000D01*
X138647476Y-75149000D01*
X138644476Y-75159000D01*
X138640476Y-75168000D01*
X138637476Y-75177000D01*
X138632476Y-75186000D01*
X138628476Y-75195000D01*
X138622476Y-75203000D01*
X138617476Y-75212000D01*
X138611476Y-75220000D01*
X138604476Y-75227000D01*
X138597476Y-75234000D01*
X138590476Y-75241000D01*
X138583476Y-75248000D01*
X138575476Y-75254000D01*
X138566476Y-75259000D01*
X138558476Y-75265000D01*
X138549476Y-75269000D01*
X138540476Y-75274000D01*
X138531476Y-75277000D01*
X138522476Y-75281000D01*
X138512476Y-75284000D01*
X138503476Y-75286000D01*
X138493476Y-75288000D01*
X138483476Y-75289000D01*
X138473476Y-75290000D01*
X138463476Y-75290000D01*
X138103476Y-75290000D01*
X138093476Y-75290000D01*
X138083476Y-75289000D01*
X138073476Y-75288000D01*
X138063476Y-75286000D01*
X138054476Y-75284000D01*
X138044476Y-75281000D01*
X138035476Y-75277000D01*
X138026476Y-75274000D01*
X138017476Y-75269000D01*
X138008476Y-75265000D01*
X138000476Y-75259000D01*
X137991476Y-75254000D01*
X137983476Y-75248000D01*
X137976476Y-75241000D01*
X137969476Y-75234000D01*
X137962476Y-75227000D01*
X137955476Y-75220000D01*
X137949476Y-75212000D01*
X137944476Y-75203000D01*
X137938476Y-75195000D01*
X137934476Y-75186000D01*
X137929476Y-75177000D01*
X137926476Y-75168000D01*
X137922476Y-75159000D01*
X137919476Y-75149000D01*
X137917476Y-75140000D01*
X137915476Y-75130000D01*
X137914476Y-75120000D01*
X137913476Y-75110000D01*
X137913476Y-75100000D01*
X137913476Y-75090000D01*
X137914476Y-75080000D01*
X137915476Y-75070000D01*
X137917476Y-75060000D01*
X137919476Y-75051000D01*
X137922476Y-75041000D01*
X137926476Y-75032000D01*
X137929476Y-75023000D01*
X137934476Y-75014000D01*
X137938476Y-75005000D01*
X137944476Y-74997000D01*
X137949476Y-74988000D01*
X137955476Y-74980000D01*
X137962476Y-74973000D01*
X137969476Y-74966000D01*
X137976476Y-74959000D01*
X137983476Y-74952000D01*
X137991476Y-74946000D01*
X138000476Y-74941000D01*
X138008476Y-74935000D01*
X138017476Y-74931000D01*
X138026476Y-74926000D01*
X138035476Y-74923000D01*
X138044476Y-74919000D01*
X138054476Y-74916000D01*
X138063476Y-74914000D01*
X138073476Y-74912000D01*
X138083476Y-74911000D01*
X138093476Y-74910000D01*
X138103476Y-74910000D01*
X138463476Y-74910000D01*
X138473476Y-74910000D01*
X138483476Y-74911000D01*
G36*
X138483476Y-74911000D02*
G01*
X138493476Y-74912000D01*
X138503476Y-74914000D01*
X138512476Y-74916000D01*
X138522476Y-74919000D01*
X138531476Y-74923000D01*
X138540476Y-74926000D01*
X138549476Y-74931000D01*
X138558476Y-74935000D01*
X138566476Y-74941000D01*
X138575476Y-74946000D01*
X138583476Y-74952000D01*
X138590476Y-74959000D01*
X138597476Y-74966000D01*
X138604476Y-74973000D01*
X138611476Y-74980000D01*
X138617476Y-74988000D01*
X138622476Y-74997000D01*
X138628476Y-75005000D01*
X138632476Y-75014000D01*
X138637476Y-75023000D01*
X138640476Y-75032000D01*
X138644476Y-75041000D01*
X138647476Y-75051000D01*
X138649476Y-75060000D01*
X138651476Y-75070000D01*
X138652476Y-75080000D01*
X138653476Y-75090000D01*
X138653476Y-75100000D01*
X138653476Y-75110000D01*
X138652476Y-75120000D01*
X138651476Y-75130000D01*
X138649476Y-75140000D01*
X138647476Y-75149000D01*
X138644476Y-75159000D01*
X138640476Y-75168000D01*
X138637476Y-75177000D01*
X138632476Y-75186000D01*
X138628476Y-75195000D01*
X138622476Y-75203000D01*
X138617476Y-75212000D01*
X138611476Y-75220000D01*
X138604476Y-75227000D01*
X138597476Y-75234000D01*
X138590476Y-75241000D01*
X138583476Y-75248000D01*
X138575476Y-75254000D01*
X138566476Y-75259000D01*
X138558476Y-75265000D01*
X138549476Y-75269000D01*
X138540476Y-75274000D01*
X138531476Y-75277000D01*
X138522476Y-75281000D01*
X138512476Y-75284000D01*
X138503476Y-75286000D01*
X138493476Y-75288000D01*
X138483476Y-75289000D01*
X138473476Y-75290000D01*
X138463476Y-75290000D01*
X138103476Y-75290000D01*
X138093476Y-75290000D01*
X138083476Y-75289000D01*
X138073476Y-75288000D01*
X138063476Y-75286000D01*
X138054476Y-75284000D01*
X138044476Y-75281000D01*
X138035476Y-75277000D01*
X138026476Y-75274000D01*
X138017476Y-75269000D01*
X138008476Y-75265000D01*
X138000476Y-75259000D01*
X137991476Y-75254000D01*
X137983476Y-75248000D01*
X137976476Y-75241000D01*
X137969476Y-75234000D01*
X137962476Y-75227000D01*
X137955476Y-75220000D01*
X137949476Y-75212000D01*
X137944476Y-75203000D01*
X137938476Y-75195000D01*
X137934476Y-75186000D01*
X137929476Y-75177000D01*
X137926476Y-75168000D01*
X137922476Y-75159000D01*
X137919476Y-75149000D01*
X137917476Y-75140000D01*
X137915476Y-75130000D01*
X137914476Y-75120000D01*
X137913476Y-75110000D01*
X137913476Y-75100000D01*
X137913476Y-75090000D01*
X137914476Y-75080000D01*
X137915476Y-75070000D01*
X137917476Y-75060000D01*
X137919476Y-75051000D01*
X137922476Y-75041000D01*
X137926476Y-75032000D01*
X137929476Y-75023000D01*
X137934476Y-75014000D01*
X137938476Y-75005000D01*
X137944476Y-74997000D01*
X137949476Y-74988000D01*
X137955476Y-74980000D01*
X137962476Y-74973000D01*
X137969476Y-74966000D01*
X137976476Y-74959000D01*
X137983476Y-74952000D01*
X137991476Y-74946000D01*
X138000476Y-74941000D01*
X138008476Y-74935000D01*
X138017476Y-74931000D01*
X138026476Y-74926000D01*
X138035476Y-74923000D01*
X138044476Y-74919000D01*
X138054476Y-74916000D01*
X138063476Y-74914000D01*
X138073476Y-74912000D01*
X138083476Y-74911000D01*
X138093476Y-74910000D01*
X138103476Y-74910000D01*
X138463476Y-74910000D01*
X138473476Y-74910000D01*
X138483476Y-74911000D01*
G37*
X138483476Y-75411000D02*
X138493476Y-75412000D01*
X138503476Y-75414000D01*
X138512476Y-75416000D01*
X138522476Y-75419000D01*
X138531476Y-75423000D01*
X138540476Y-75426000D01*
X138549476Y-75431000D01*
X138558476Y-75435000D01*
X138566476Y-75441000D01*
X138575476Y-75446000D01*
X138583476Y-75452000D01*
X138590476Y-75459000D01*
X138597476Y-75466000D01*
X138604476Y-75473000D01*
X138611476Y-75480000D01*
X138617476Y-75488000D01*
X138622476Y-75497000D01*
X138628476Y-75505000D01*
X138632476Y-75514000D01*
X138637476Y-75523000D01*
X138640476Y-75532000D01*
X138644476Y-75541000D01*
X138647476Y-75551000D01*
X138649476Y-75560000D01*
X138651476Y-75570000D01*
X138652476Y-75580000D01*
X138653476Y-75590000D01*
X138653476Y-75600000D01*
X138653476Y-75610000D01*
X138652476Y-75620000D01*
X138651476Y-75630000D01*
X138649476Y-75640000D01*
X138647476Y-75649000D01*
X138644476Y-75659000D01*
X138640476Y-75668000D01*
X138637476Y-75677000D01*
X138632476Y-75686000D01*
X138628476Y-75695000D01*
X138622476Y-75703000D01*
X138617476Y-75712000D01*
X138611476Y-75720000D01*
X138604476Y-75727000D01*
X138597476Y-75734000D01*
X138590476Y-75741000D01*
X138583476Y-75748000D01*
X138575476Y-75754000D01*
X138566476Y-75759000D01*
X138558476Y-75765000D01*
X138549476Y-75769000D01*
X138540476Y-75774000D01*
X138531476Y-75777000D01*
X138522476Y-75781000D01*
X138512476Y-75784000D01*
X138503476Y-75786000D01*
X138493476Y-75788000D01*
X138483476Y-75789000D01*
X138473476Y-75790000D01*
X138463476Y-75790000D01*
X138103476Y-75790000D01*
X138093476Y-75790000D01*
X138083476Y-75789000D01*
X138073476Y-75788000D01*
X138063476Y-75786000D01*
X138054476Y-75784000D01*
X138044476Y-75781000D01*
X138035476Y-75777000D01*
X138026476Y-75774000D01*
X138017476Y-75769000D01*
X138008476Y-75765000D01*
X138000476Y-75759000D01*
X137991476Y-75754000D01*
X137983476Y-75748000D01*
X137976476Y-75741000D01*
X137969476Y-75734000D01*
X137962476Y-75727000D01*
X137955476Y-75720000D01*
X137949476Y-75712000D01*
X137944476Y-75703000D01*
X137938476Y-75695000D01*
X137934476Y-75686000D01*
X137929476Y-75677000D01*
X137926476Y-75668000D01*
X137922476Y-75659000D01*
X137919476Y-75649000D01*
X137917476Y-75640000D01*
X137915476Y-75630000D01*
X137914476Y-75620000D01*
X137913476Y-75610000D01*
X137913476Y-75600000D01*
X137913476Y-75590000D01*
X137914476Y-75580000D01*
X137915476Y-75570000D01*
X137917476Y-75560000D01*
X137919476Y-75551000D01*
X137922476Y-75541000D01*
X137926476Y-75532000D01*
X137929476Y-75523000D01*
X137934476Y-75514000D01*
X137938476Y-75505000D01*
X137944476Y-75497000D01*
X137949476Y-75488000D01*
X137955476Y-75480000D01*
X137962476Y-75473000D01*
X137969476Y-75466000D01*
X137976476Y-75459000D01*
X137983476Y-75452000D01*
X137991476Y-75446000D01*
X138000476Y-75441000D01*
X138008476Y-75435000D01*
X138017476Y-75431000D01*
X138026476Y-75426000D01*
X138035476Y-75423000D01*
X138044476Y-75419000D01*
X138054476Y-75416000D01*
X138063476Y-75414000D01*
X138073476Y-75412000D01*
X138083476Y-75411000D01*
X138093476Y-75410000D01*
X138103476Y-75410000D01*
X138463476Y-75410000D01*
X138473476Y-75410000D01*
X138483476Y-75411000D01*
G36*
X138483476Y-75411000D02*
G01*
X138493476Y-75412000D01*
X138503476Y-75414000D01*
X138512476Y-75416000D01*
X138522476Y-75419000D01*
X138531476Y-75423000D01*
X138540476Y-75426000D01*
X138549476Y-75431000D01*
X138558476Y-75435000D01*
X138566476Y-75441000D01*
X138575476Y-75446000D01*
X138583476Y-75452000D01*
X138590476Y-75459000D01*
X138597476Y-75466000D01*
X138604476Y-75473000D01*
X138611476Y-75480000D01*
X138617476Y-75488000D01*
X138622476Y-75497000D01*
X138628476Y-75505000D01*
X138632476Y-75514000D01*
X138637476Y-75523000D01*
X138640476Y-75532000D01*
X138644476Y-75541000D01*
X138647476Y-75551000D01*
X138649476Y-75560000D01*
X138651476Y-75570000D01*
X138652476Y-75580000D01*
X138653476Y-75590000D01*
X138653476Y-75600000D01*
X138653476Y-75610000D01*
X138652476Y-75620000D01*
X138651476Y-75630000D01*
X138649476Y-75640000D01*
X138647476Y-75649000D01*
X138644476Y-75659000D01*
X138640476Y-75668000D01*
X138637476Y-75677000D01*
X138632476Y-75686000D01*
X138628476Y-75695000D01*
X138622476Y-75703000D01*
X138617476Y-75712000D01*
X138611476Y-75720000D01*
X138604476Y-75727000D01*
X138597476Y-75734000D01*
X138590476Y-75741000D01*
X138583476Y-75748000D01*
X138575476Y-75754000D01*
X138566476Y-75759000D01*
X138558476Y-75765000D01*
X138549476Y-75769000D01*
X138540476Y-75774000D01*
X138531476Y-75777000D01*
X138522476Y-75781000D01*
X138512476Y-75784000D01*
X138503476Y-75786000D01*
X138493476Y-75788000D01*
X138483476Y-75789000D01*
X138473476Y-75790000D01*
X138463476Y-75790000D01*
X138103476Y-75790000D01*
X138093476Y-75790000D01*
X138083476Y-75789000D01*
X138073476Y-75788000D01*
X138063476Y-75786000D01*
X138054476Y-75784000D01*
X138044476Y-75781000D01*
X138035476Y-75777000D01*
X138026476Y-75774000D01*
X138017476Y-75769000D01*
X138008476Y-75765000D01*
X138000476Y-75759000D01*
X137991476Y-75754000D01*
X137983476Y-75748000D01*
X137976476Y-75741000D01*
X137969476Y-75734000D01*
X137962476Y-75727000D01*
X137955476Y-75720000D01*
X137949476Y-75712000D01*
X137944476Y-75703000D01*
X137938476Y-75695000D01*
X137934476Y-75686000D01*
X137929476Y-75677000D01*
X137926476Y-75668000D01*
X137922476Y-75659000D01*
X137919476Y-75649000D01*
X137917476Y-75640000D01*
X137915476Y-75630000D01*
X137914476Y-75620000D01*
X137913476Y-75610000D01*
X137913476Y-75600000D01*
X137913476Y-75590000D01*
X137914476Y-75580000D01*
X137915476Y-75570000D01*
X137917476Y-75560000D01*
X137919476Y-75551000D01*
X137922476Y-75541000D01*
X137926476Y-75532000D01*
X137929476Y-75523000D01*
X137934476Y-75514000D01*
X137938476Y-75505000D01*
X137944476Y-75497000D01*
X137949476Y-75488000D01*
X137955476Y-75480000D01*
X137962476Y-75473000D01*
X137969476Y-75466000D01*
X137976476Y-75459000D01*
X137983476Y-75452000D01*
X137991476Y-75446000D01*
X138000476Y-75441000D01*
X138008476Y-75435000D01*
X138017476Y-75431000D01*
X138026476Y-75426000D01*
X138035476Y-75423000D01*
X138044476Y-75419000D01*
X138054476Y-75416000D01*
X138063476Y-75414000D01*
X138073476Y-75412000D01*
X138083476Y-75411000D01*
X138093476Y-75410000D01*
X138103476Y-75410000D01*
X138463476Y-75410000D01*
X138473476Y-75410000D01*
X138483476Y-75411000D01*
G37*
%TO.C,JP7*%
G36*
X154150000Y-82800000D02*
G01*
X155650000Y-82800000D01*
X155650000Y-83100000D01*
X154150000Y-83100000D01*
X154150000Y-82800000D01*
G37*
%TO.C,JP2*%
G36*
X121200000Y-91412500D02*
G01*
X120900000Y-91412500D01*
X120900000Y-92912500D01*
X121200000Y-92912500D01*
X121200000Y-91412500D01*
G37*
%TO.C,JP5*%
G36*
X174580415Y-77458904D02*
G01*
X174880415Y-77458904D01*
X174880415Y-75958904D01*
X174580415Y-75958904D01*
X174580415Y-77458904D01*
G37*
%TO.C,JP4*%
G36*
X129842500Y-82550000D02*
G01*
X129542500Y-82550000D01*
X129542500Y-84050000D01*
X129842500Y-84050000D01*
X129842500Y-82550000D01*
G37*
%TO.C,JP1*%
G36*
X144350000Y-99250000D02*
G01*
X145850000Y-99250000D01*
X145850000Y-99550000D01*
X144350000Y-99550000D01*
X144350000Y-99250000D01*
G37*
%TO.C,U3*%
X160960415Y-76001404D02*
X161080415Y-76001404D01*
X161080415Y-75226404D01*
X161420415Y-75226404D01*
X161420415Y-76001404D01*
X161540415Y-76001404D01*
X161540415Y-75226404D01*
X161880415Y-75226404D01*
X161880415Y-76001404D01*
X162000415Y-76001404D01*
X162000415Y-75226404D01*
X162340415Y-75226404D01*
X162340415Y-79766404D01*
X162000415Y-79766404D01*
X162000415Y-78991404D01*
X161880415Y-78991404D01*
X161880415Y-79766404D01*
X161540415Y-79766404D01*
X161540415Y-78991404D01*
X161420415Y-78991404D01*
X161420415Y-79766404D01*
X161080415Y-79766404D01*
X161080415Y-78991404D01*
X160960415Y-78991404D01*
X160960415Y-79766404D01*
X160620415Y-79766404D01*
X160620415Y-75226404D01*
X160960415Y-75226404D01*
X160960415Y-76001404D01*
G36*
X160960415Y-76001404D02*
G01*
X161080415Y-76001404D01*
X161080415Y-75226404D01*
X161420415Y-75226404D01*
X161420415Y-76001404D01*
X161540415Y-76001404D01*
X161540415Y-75226404D01*
X161880415Y-75226404D01*
X161880415Y-76001404D01*
X162000415Y-76001404D01*
X162000415Y-75226404D01*
X162340415Y-75226404D01*
X162340415Y-79766404D01*
X162000415Y-79766404D01*
X162000415Y-78991404D01*
X161880415Y-78991404D01*
X161880415Y-79766404D01*
X161540415Y-79766404D01*
X161540415Y-78991404D01*
X161420415Y-78991404D01*
X161420415Y-79766404D01*
X161080415Y-79766404D01*
X161080415Y-78991404D01*
X160960415Y-78991404D01*
X160960415Y-79766404D01*
X160620415Y-79766404D01*
X160620415Y-75226404D01*
X160960415Y-75226404D01*
X160960415Y-76001404D01*
G37*
X160280415Y-75807404D02*
X160290415Y-75808404D01*
X160300415Y-75810404D01*
X160309415Y-75812404D01*
X160319415Y-75815404D01*
X160328415Y-75819404D01*
X160337415Y-75822404D01*
X160346415Y-75827404D01*
X160355415Y-75831404D01*
X160363415Y-75837404D01*
X160372415Y-75842404D01*
X160380415Y-75848404D01*
X160387415Y-75855404D01*
X160394415Y-75862404D01*
X160401415Y-75869404D01*
X160408415Y-75876404D01*
X160414415Y-75884404D01*
X160419415Y-75893404D01*
X160425415Y-75901404D01*
X160429415Y-75910404D01*
X160434415Y-75919404D01*
X160437415Y-75928404D01*
X160441415Y-75937404D01*
X160444415Y-75947404D01*
X160446415Y-75956404D01*
X160448415Y-75966404D01*
X160449415Y-75976404D01*
X160450415Y-75986404D01*
X160450415Y-75996404D01*
X160450415Y-76006404D01*
X160449415Y-76016404D01*
X160448415Y-76026404D01*
X160446415Y-76036404D01*
X160444415Y-76045404D01*
X160441415Y-76055404D01*
X160437415Y-76064404D01*
X160434415Y-76073404D01*
X160429415Y-76082404D01*
X160425415Y-76091404D01*
X160419415Y-76099404D01*
X160414415Y-76108404D01*
X160408415Y-76116404D01*
X160401415Y-76123404D01*
X160394415Y-76130404D01*
X160387415Y-76137404D01*
X160380415Y-76144404D01*
X160372415Y-76150404D01*
X160363415Y-76155404D01*
X160355415Y-76161404D01*
X160346415Y-76165404D01*
X160337415Y-76170404D01*
X160328415Y-76173404D01*
X160319415Y-76177404D01*
X160309415Y-76180404D01*
X160300415Y-76182404D01*
X160290415Y-76184404D01*
X160280415Y-76185404D01*
X160270415Y-76186404D01*
X160260415Y-76186404D01*
X159900415Y-76186404D01*
X159890415Y-76186404D01*
X159880415Y-76185404D01*
X159870415Y-76184404D01*
X159860415Y-76182404D01*
X159851415Y-76180404D01*
X159841415Y-76177404D01*
X159832415Y-76173404D01*
X159823415Y-76170404D01*
X159814415Y-76165404D01*
X159805415Y-76161404D01*
X159797415Y-76155404D01*
X159788415Y-76150404D01*
X159780415Y-76144404D01*
X159773415Y-76137404D01*
X159766415Y-76130404D01*
X159759415Y-76123404D01*
X159752415Y-76116404D01*
X159746415Y-76108404D01*
X159741415Y-76099404D01*
X159735415Y-76091404D01*
X159731415Y-76082404D01*
X159726415Y-76073404D01*
X159723415Y-76064404D01*
X159719415Y-76055404D01*
X159716415Y-76045404D01*
X159714415Y-76036404D01*
X159712415Y-76026404D01*
X159711415Y-76016404D01*
X159710415Y-76006404D01*
X159710415Y-75996404D01*
X159710415Y-75986404D01*
X159711415Y-75976404D01*
X159712415Y-75966404D01*
X159714415Y-75956404D01*
X159716415Y-75947404D01*
X159719415Y-75937404D01*
X159723415Y-75928404D01*
X159726415Y-75919404D01*
X159731415Y-75910404D01*
X159735415Y-75901404D01*
X159741415Y-75893404D01*
X159746415Y-75884404D01*
X159752415Y-75876404D01*
X159759415Y-75869404D01*
X159766415Y-75862404D01*
X159773415Y-75855404D01*
X159780415Y-75848404D01*
X159788415Y-75842404D01*
X159797415Y-75837404D01*
X159805415Y-75831404D01*
X159814415Y-75827404D01*
X159823415Y-75822404D01*
X159832415Y-75819404D01*
X159841415Y-75815404D01*
X159851415Y-75812404D01*
X159860415Y-75810404D01*
X159870415Y-75808404D01*
X159880415Y-75807404D01*
X159890415Y-75806404D01*
X159900415Y-75806404D01*
X160260415Y-75806404D01*
X160270415Y-75806404D01*
X160280415Y-75807404D01*
G36*
X160280415Y-75807404D02*
G01*
X160290415Y-75808404D01*
X160300415Y-75810404D01*
X160309415Y-75812404D01*
X160319415Y-75815404D01*
X160328415Y-75819404D01*
X160337415Y-75822404D01*
X160346415Y-75827404D01*
X160355415Y-75831404D01*
X160363415Y-75837404D01*
X160372415Y-75842404D01*
X160380415Y-75848404D01*
X160387415Y-75855404D01*
X160394415Y-75862404D01*
X160401415Y-75869404D01*
X160408415Y-75876404D01*
X160414415Y-75884404D01*
X160419415Y-75893404D01*
X160425415Y-75901404D01*
X160429415Y-75910404D01*
X160434415Y-75919404D01*
X160437415Y-75928404D01*
X160441415Y-75937404D01*
X160444415Y-75947404D01*
X160446415Y-75956404D01*
X160448415Y-75966404D01*
X160449415Y-75976404D01*
X160450415Y-75986404D01*
X160450415Y-75996404D01*
X160450415Y-76006404D01*
X160449415Y-76016404D01*
X160448415Y-76026404D01*
X160446415Y-76036404D01*
X160444415Y-76045404D01*
X160441415Y-76055404D01*
X160437415Y-76064404D01*
X160434415Y-76073404D01*
X160429415Y-76082404D01*
X160425415Y-76091404D01*
X160419415Y-76099404D01*
X160414415Y-76108404D01*
X160408415Y-76116404D01*
X160401415Y-76123404D01*
X160394415Y-76130404D01*
X160387415Y-76137404D01*
X160380415Y-76144404D01*
X160372415Y-76150404D01*
X160363415Y-76155404D01*
X160355415Y-76161404D01*
X160346415Y-76165404D01*
X160337415Y-76170404D01*
X160328415Y-76173404D01*
X160319415Y-76177404D01*
X160309415Y-76180404D01*
X160300415Y-76182404D01*
X160290415Y-76184404D01*
X160280415Y-76185404D01*
X160270415Y-76186404D01*
X160260415Y-76186404D01*
X159900415Y-76186404D01*
X159890415Y-76186404D01*
X159880415Y-76185404D01*
X159870415Y-76184404D01*
X159860415Y-76182404D01*
X159851415Y-76180404D01*
X159841415Y-76177404D01*
X159832415Y-76173404D01*
X159823415Y-76170404D01*
X159814415Y-76165404D01*
X159805415Y-76161404D01*
X159797415Y-76155404D01*
X159788415Y-76150404D01*
X159780415Y-76144404D01*
X159773415Y-76137404D01*
X159766415Y-76130404D01*
X159759415Y-76123404D01*
X159752415Y-76116404D01*
X159746415Y-76108404D01*
X159741415Y-76099404D01*
X159735415Y-76091404D01*
X159731415Y-76082404D01*
X159726415Y-76073404D01*
X159723415Y-76064404D01*
X159719415Y-76055404D01*
X159716415Y-76045404D01*
X159714415Y-76036404D01*
X159712415Y-76026404D01*
X159711415Y-76016404D01*
X159710415Y-76006404D01*
X159710415Y-75996404D01*
X159710415Y-75986404D01*
X159711415Y-75976404D01*
X159712415Y-75966404D01*
X159714415Y-75956404D01*
X159716415Y-75947404D01*
X159719415Y-75937404D01*
X159723415Y-75928404D01*
X159726415Y-75919404D01*
X159731415Y-75910404D01*
X159735415Y-75901404D01*
X159741415Y-75893404D01*
X159746415Y-75884404D01*
X159752415Y-75876404D01*
X159759415Y-75869404D01*
X159766415Y-75862404D01*
X159773415Y-75855404D01*
X159780415Y-75848404D01*
X159788415Y-75842404D01*
X159797415Y-75837404D01*
X159805415Y-75831404D01*
X159814415Y-75827404D01*
X159823415Y-75822404D01*
X159832415Y-75819404D01*
X159841415Y-75815404D01*
X159851415Y-75812404D01*
X159860415Y-75810404D01*
X159870415Y-75808404D01*
X159880415Y-75807404D01*
X159890415Y-75806404D01*
X159900415Y-75806404D01*
X160260415Y-75806404D01*
X160270415Y-75806404D01*
X160280415Y-75807404D01*
G37*
X160280415Y-76307404D02*
X160290415Y-76308404D01*
X160300415Y-76310404D01*
X160309415Y-76312404D01*
X160319415Y-76315404D01*
X160328415Y-76319404D01*
X160337415Y-76322404D01*
X160346415Y-76327404D01*
X160355415Y-76331404D01*
X160363415Y-76337404D01*
X160372415Y-76342404D01*
X160380415Y-76348404D01*
X160387415Y-76355404D01*
X160394415Y-76362404D01*
X160401415Y-76369404D01*
X160408415Y-76376404D01*
X160414415Y-76384404D01*
X160419415Y-76393404D01*
X160425415Y-76401404D01*
X160429415Y-76410404D01*
X160434415Y-76419404D01*
X160437415Y-76428404D01*
X160441415Y-76437404D01*
X160444415Y-76447404D01*
X160446415Y-76456404D01*
X160448415Y-76466404D01*
X160449415Y-76476404D01*
X160450415Y-76486404D01*
X160450415Y-76496404D01*
X160450415Y-76506404D01*
X160449415Y-76516404D01*
X160448415Y-76526404D01*
X160446415Y-76536404D01*
X160444415Y-76545404D01*
X160441415Y-76555404D01*
X160437415Y-76564404D01*
X160434415Y-76573404D01*
X160429415Y-76582404D01*
X160425415Y-76591404D01*
X160419415Y-76599404D01*
X160414415Y-76608404D01*
X160408415Y-76616404D01*
X160401415Y-76623404D01*
X160394415Y-76630404D01*
X160387415Y-76637404D01*
X160380415Y-76644404D01*
X160372415Y-76650404D01*
X160363415Y-76655404D01*
X160355415Y-76661404D01*
X160346415Y-76665404D01*
X160337415Y-76670404D01*
X160328415Y-76673404D01*
X160319415Y-76677404D01*
X160309415Y-76680404D01*
X160300415Y-76682404D01*
X160290415Y-76684404D01*
X160280415Y-76685404D01*
X160270415Y-76686404D01*
X160260415Y-76686404D01*
X159900415Y-76686404D01*
X159890415Y-76686404D01*
X159880415Y-76685404D01*
X159870415Y-76684404D01*
X159860415Y-76682404D01*
X159851415Y-76680404D01*
X159841415Y-76677404D01*
X159832415Y-76673404D01*
X159823415Y-76670404D01*
X159814415Y-76665404D01*
X159805415Y-76661404D01*
X159797415Y-76655404D01*
X159788415Y-76650404D01*
X159780415Y-76644404D01*
X159773415Y-76637404D01*
X159766415Y-76630404D01*
X159759415Y-76623404D01*
X159752415Y-76616404D01*
X159746415Y-76608404D01*
X159741415Y-76599404D01*
X159735415Y-76591404D01*
X159731415Y-76582404D01*
X159726415Y-76573404D01*
X159723415Y-76564404D01*
X159719415Y-76555404D01*
X159716415Y-76545404D01*
X159714415Y-76536404D01*
X159712415Y-76526404D01*
X159711415Y-76516404D01*
X159710415Y-76506404D01*
X159710415Y-76496404D01*
X159710415Y-76486404D01*
X159711415Y-76476404D01*
X159712415Y-76466404D01*
X159714415Y-76456404D01*
X159716415Y-76447404D01*
X159719415Y-76437404D01*
X159723415Y-76428404D01*
X159726415Y-76419404D01*
X159731415Y-76410404D01*
X159735415Y-76401404D01*
X159741415Y-76393404D01*
X159746415Y-76384404D01*
X159752415Y-76376404D01*
X159759415Y-76369404D01*
X159766415Y-76362404D01*
X159773415Y-76355404D01*
X159780415Y-76348404D01*
X159788415Y-76342404D01*
X159797415Y-76337404D01*
X159805415Y-76331404D01*
X159814415Y-76327404D01*
X159823415Y-76322404D01*
X159832415Y-76319404D01*
X159841415Y-76315404D01*
X159851415Y-76312404D01*
X159860415Y-76310404D01*
X159870415Y-76308404D01*
X159880415Y-76307404D01*
X159890415Y-76306404D01*
X159900415Y-76306404D01*
X160260415Y-76306404D01*
X160270415Y-76306404D01*
X160280415Y-76307404D01*
G36*
X160280415Y-76307404D02*
G01*
X160290415Y-76308404D01*
X160300415Y-76310404D01*
X160309415Y-76312404D01*
X160319415Y-76315404D01*
X160328415Y-76319404D01*
X160337415Y-76322404D01*
X160346415Y-76327404D01*
X160355415Y-76331404D01*
X160363415Y-76337404D01*
X160372415Y-76342404D01*
X160380415Y-76348404D01*
X160387415Y-76355404D01*
X160394415Y-76362404D01*
X160401415Y-76369404D01*
X160408415Y-76376404D01*
X160414415Y-76384404D01*
X160419415Y-76393404D01*
X160425415Y-76401404D01*
X160429415Y-76410404D01*
X160434415Y-76419404D01*
X160437415Y-76428404D01*
X160441415Y-76437404D01*
X160444415Y-76447404D01*
X160446415Y-76456404D01*
X160448415Y-76466404D01*
X160449415Y-76476404D01*
X160450415Y-76486404D01*
X160450415Y-76496404D01*
X160450415Y-76506404D01*
X160449415Y-76516404D01*
X160448415Y-76526404D01*
X160446415Y-76536404D01*
X160444415Y-76545404D01*
X160441415Y-76555404D01*
X160437415Y-76564404D01*
X160434415Y-76573404D01*
X160429415Y-76582404D01*
X160425415Y-76591404D01*
X160419415Y-76599404D01*
X160414415Y-76608404D01*
X160408415Y-76616404D01*
X160401415Y-76623404D01*
X160394415Y-76630404D01*
X160387415Y-76637404D01*
X160380415Y-76644404D01*
X160372415Y-76650404D01*
X160363415Y-76655404D01*
X160355415Y-76661404D01*
X160346415Y-76665404D01*
X160337415Y-76670404D01*
X160328415Y-76673404D01*
X160319415Y-76677404D01*
X160309415Y-76680404D01*
X160300415Y-76682404D01*
X160290415Y-76684404D01*
X160280415Y-76685404D01*
X160270415Y-76686404D01*
X160260415Y-76686404D01*
X159900415Y-76686404D01*
X159890415Y-76686404D01*
X159880415Y-76685404D01*
X159870415Y-76684404D01*
X159860415Y-76682404D01*
X159851415Y-76680404D01*
X159841415Y-76677404D01*
X159832415Y-76673404D01*
X159823415Y-76670404D01*
X159814415Y-76665404D01*
X159805415Y-76661404D01*
X159797415Y-76655404D01*
X159788415Y-76650404D01*
X159780415Y-76644404D01*
X159773415Y-76637404D01*
X159766415Y-76630404D01*
X159759415Y-76623404D01*
X159752415Y-76616404D01*
X159746415Y-76608404D01*
X159741415Y-76599404D01*
X159735415Y-76591404D01*
X159731415Y-76582404D01*
X159726415Y-76573404D01*
X159723415Y-76564404D01*
X159719415Y-76555404D01*
X159716415Y-76545404D01*
X159714415Y-76536404D01*
X159712415Y-76526404D01*
X159711415Y-76516404D01*
X159710415Y-76506404D01*
X159710415Y-76496404D01*
X159710415Y-76486404D01*
X159711415Y-76476404D01*
X159712415Y-76466404D01*
X159714415Y-76456404D01*
X159716415Y-76447404D01*
X159719415Y-76437404D01*
X159723415Y-76428404D01*
X159726415Y-76419404D01*
X159731415Y-76410404D01*
X159735415Y-76401404D01*
X159741415Y-76393404D01*
X159746415Y-76384404D01*
X159752415Y-76376404D01*
X159759415Y-76369404D01*
X159766415Y-76362404D01*
X159773415Y-76355404D01*
X159780415Y-76348404D01*
X159788415Y-76342404D01*
X159797415Y-76337404D01*
X159805415Y-76331404D01*
X159814415Y-76327404D01*
X159823415Y-76322404D01*
X159832415Y-76319404D01*
X159841415Y-76315404D01*
X159851415Y-76312404D01*
X159860415Y-76310404D01*
X159870415Y-76308404D01*
X159880415Y-76307404D01*
X159890415Y-76306404D01*
X159900415Y-76306404D01*
X160260415Y-76306404D01*
X160270415Y-76306404D01*
X160280415Y-76307404D01*
G37*
X160280415Y-76807404D02*
X160290415Y-76808404D01*
X160300415Y-76810404D01*
X160309415Y-76812404D01*
X160319415Y-76815404D01*
X160328415Y-76819404D01*
X160337415Y-76822404D01*
X160346415Y-76827404D01*
X160355415Y-76831404D01*
X160363415Y-76837404D01*
X160372415Y-76842404D01*
X160380415Y-76848404D01*
X160387415Y-76855404D01*
X160394415Y-76862404D01*
X160401415Y-76869404D01*
X160408415Y-76876404D01*
X160414415Y-76884404D01*
X160419415Y-76893404D01*
X160425415Y-76901404D01*
X160429415Y-76910404D01*
X160434415Y-76919404D01*
X160437415Y-76928404D01*
X160441415Y-76937404D01*
X160444415Y-76947404D01*
X160446415Y-76956404D01*
X160448415Y-76966404D01*
X160449415Y-76976404D01*
X160450415Y-76986404D01*
X160450415Y-76996404D01*
X160450415Y-77006404D01*
X160449415Y-77016404D01*
X160448415Y-77026404D01*
X160446415Y-77036404D01*
X160444415Y-77045404D01*
X160441415Y-77055404D01*
X160437415Y-77064404D01*
X160434415Y-77073404D01*
X160429415Y-77082404D01*
X160425415Y-77091404D01*
X160419415Y-77099404D01*
X160414415Y-77108404D01*
X160408415Y-77116404D01*
X160401415Y-77123404D01*
X160394415Y-77130404D01*
X160387415Y-77137404D01*
X160380415Y-77144404D01*
X160372415Y-77150404D01*
X160363415Y-77155404D01*
X160355415Y-77161404D01*
X160346415Y-77165404D01*
X160337415Y-77170404D01*
X160328415Y-77173404D01*
X160319415Y-77177404D01*
X160309415Y-77180404D01*
X160300415Y-77182404D01*
X160290415Y-77184404D01*
X160280415Y-77185404D01*
X160270415Y-77186404D01*
X160260415Y-77186404D01*
X159900415Y-77186404D01*
X159890415Y-77186404D01*
X159880415Y-77185404D01*
X159870415Y-77184404D01*
X159860415Y-77182404D01*
X159851415Y-77180404D01*
X159841415Y-77177404D01*
X159832415Y-77173404D01*
X159823415Y-77170404D01*
X159814415Y-77165404D01*
X159805415Y-77161404D01*
X159797415Y-77155404D01*
X159788415Y-77150404D01*
X159780415Y-77144404D01*
X159773415Y-77137404D01*
X159766415Y-77130404D01*
X159759415Y-77123404D01*
X159752415Y-77116404D01*
X159746415Y-77108404D01*
X159741415Y-77099404D01*
X159735415Y-77091404D01*
X159731415Y-77082404D01*
X159726415Y-77073404D01*
X159723415Y-77064404D01*
X159719415Y-77055404D01*
X159716415Y-77045404D01*
X159714415Y-77036404D01*
X159712415Y-77026404D01*
X159711415Y-77016404D01*
X159710415Y-77006404D01*
X159710415Y-76996404D01*
X159710415Y-76986404D01*
X159711415Y-76976404D01*
X159712415Y-76966404D01*
X159714415Y-76956404D01*
X159716415Y-76947404D01*
X159719415Y-76937404D01*
X159723415Y-76928404D01*
X159726415Y-76919404D01*
X159731415Y-76910404D01*
X159735415Y-76901404D01*
X159741415Y-76893404D01*
X159746415Y-76884404D01*
X159752415Y-76876404D01*
X159759415Y-76869404D01*
X159766415Y-76862404D01*
X159773415Y-76855404D01*
X159780415Y-76848404D01*
X159788415Y-76842404D01*
X159797415Y-76837404D01*
X159805415Y-76831404D01*
X159814415Y-76827404D01*
X159823415Y-76822404D01*
X159832415Y-76819404D01*
X159841415Y-76815404D01*
X159851415Y-76812404D01*
X159860415Y-76810404D01*
X159870415Y-76808404D01*
X159880415Y-76807404D01*
X159890415Y-76806404D01*
X159900415Y-76806404D01*
X160260415Y-76806404D01*
X160270415Y-76806404D01*
X160280415Y-76807404D01*
G36*
X160280415Y-76807404D02*
G01*
X160290415Y-76808404D01*
X160300415Y-76810404D01*
X160309415Y-76812404D01*
X160319415Y-76815404D01*
X160328415Y-76819404D01*
X160337415Y-76822404D01*
X160346415Y-76827404D01*
X160355415Y-76831404D01*
X160363415Y-76837404D01*
X160372415Y-76842404D01*
X160380415Y-76848404D01*
X160387415Y-76855404D01*
X160394415Y-76862404D01*
X160401415Y-76869404D01*
X160408415Y-76876404D01*
X160414415Y-76884404D01*
X160419415Y-76893404D01*
X160425415Y-76901404D01*
X160429415Y-76910404D01*
X160434415Y-76919404D01*
X160437415Y-76928404D01*
X160441415Y-76937404D01*
X160444415Y-76947404D01*
X160446415Y-76956404D01*
X160448415Y-76966404D01*
X160449415Y-76976404D01*
X160450415Y-76986404D01*
X160450415Y-76996404D01*
X160450415Y-77006404D01*
X160449415Y-77016404D01*
X160448415Y-77026404D01*
X160446415Y-77036404D01*
X160444415Y-77045404D01*
X160441415Y-77055404D01*
X160437415Y-77064404D01*
X160434415Y-77073404D01*
X160429415Y-77082404D01*
X160425415Y-77091404D01*
X160419415Y-77099404D01*
X160414415Y-77108404D01*
X160408415Y-77116404D01*
X160401415Y-77123404D01*
X160394415Y-77130404D01*
X160387415Y-77137404D01*
X160380415Y-77144404D01*
X160372415Y-77150404D01*
X160363415Y-77155404D01*
X160355415Y-77161404D01*
X160346415Y-77165404D01*
X160337415Y-77170404D01*
X160328415Y-77173404D01*
X160319415Y-77177404D01*
X160309415Y-77180404D01*
X160300415Y-77182404D01*
X160290415Y-77184404D01*
X160280415Y-77185404D01*
X160270415Y-77186404D01*
X160260415Y-77186404D01*
X159900415Y-77186404D01*
X159890415Y-77186404D01*
X159880415Y-77185404D01*
X159870415Y-77184404D01*
X159860415Y-77182404D01*
X159851415Y-77180404D01*
X159841415Y-77177404D01*
X159832415Y-77173404D01*
X159823415Y-77170404D01*
X159814415Y-77165404D01*
X159805415Y-77161404D01*
X159797415Y-77155404D01*
X159788415Y-77150404D01*
X159780415Y-77144404D01*
X159773415Y-77137404D01*
X159766415Y-77130404D01*
X159759415Y-77123404D01*
X159752415Y-77116404D01*
X159746415Y-77108404D01*
X159741415Y-77099404D01*
X159735415Y-77091404D01*
X159731415Y-77082404D01*
X159726415Y-77073404D01*
X159723415Y-77064404D01*
X159719415Y-77055404D01*
X159716415Y-77045404D01*
X159714415Y-77036404D01*
X159712415Y-77026404D01*
X159711415Y-77016404D01*
X159710415Y-77006404D01*
X159710415Y-76996404D01*
X159710415Y-76986404D01*
X159711415Y-76976404D01*
X159712415Y-76966404D01*
X159714415Y-76956404D01*
X159716415Y-76947404D01*
X159719415Y-76937404D01*
X159723415Y-76928404D01*
X159726415Y-76919404D01*
X159731415Y-76910404D01*
X159735415Y-76901404D01*
X159741415Y-76893404D01*
X159746415Y-76884404D01*
X159752415Y-76876404D01*
X159759415Y-76869404D01*
X159766415Y-76862404D01*
X159773415Y-76855404D01*
X159780415Y-76848404D01*
X159788415Y-76842404D01*
X159797415Y-76837404D01*
X159805415Y-76831404D01*
X159814415Y-76827404D01*
X159823415Y-76822404D01*
X159832415Y-76819404D01*
X159841415Y-76815404D01*
X159851415Y-76812404D01*
X159860415Y-76810404D01*
X159870415Y-76808404D01*
X159880415Y-76807404D01*
X159890415Y-76806404D01*
X159900415Y-76806404D01*
X160260415Y-76806404D01*
X160270415Y-76806404D01*
X160280415Y-76807404D01*
G37*
X160280415Y-77307404D02*
X160290415Y-77308404D01*
X160300415Y-77310404D01*
X160309415Y-77312404D01*
X160319415Y-77315404D01*
X160328415Y-77319404D01*
X160337415Y-77322404D01*
X160346415Y-77327404D01*
X160355415Y-77331404D01*
X160363415Y-77337404D01*
X160372415Y-77342404D01*
X160380415Y-77348404D01*
X160387415Y-77355404D01*
X160394415Y-77362404D01*
X160401415Y-77369404D01*
X160408415Y-77376404D01*
X160414415Y-77384404D01*
X160419415Y-77393404D01*
X160425415Y-77401404D01*
X160429415Y-77410404D01*
X160434415Y-77419404D01*
X160437415Y-77428404D01*
X160441415Y-77437404D01*
X160444415Y-77447404D01*
X160446415Y-77456404D01*
X160448415Y-77466404D01*
X160449415Y-77476404D01*
X160450415Y-77486404D01*
X160450415Y-77496404D01*
X160450415Y-77506404D01*
X160449415Y-77516404D01*
X160448415Y-77526404D01*
X160446415Y-77536404D01*
X160444415Y-77545404D01*
X160441415Y-77555404D01*
X160437415Y-77564404D01*
X160434415Y-77573404D01*
X160429415Y-77582404D01*
X160425415Y-77591404D01*
X160419415Y-77599404D01*
X160414415Y-77608404D01*
X160408415Y-77616404D01*
X160401415Y-77623404D01*
X160394415Y-77630404D01*
X160387415Y-77637404D01*
X160380415Y-77644404D01*
X160372415Y-77650404D01*
X160363415Y-77655404D01*
X160355415Y-77661404D01*
X160346415Y-77665404D01*
X160337415Y-77670404D01*
X160328415Y-77673404D01*
X160319415Y-77677404D01*
X160309415Y-77680404D01*
X160300415Y-77682404D01*
X160290415Y-77684404D01*
X160280415Y-77685404D01*
X160270415Y-77686404D01*
X160260415Y-77686404D01*
X159900415Y-77686404D01*
X159890415Y-77686404D01*
X159880415Y-77685404D01*
X159870415Y-77684404D01*
X159860415Y-77682404D01*
X159851415Y-77680404D01*
X159841415Y-77677404D01*
X159832415Y-77673404D01*
X159823415Y-77670404D01*
X159814415Y-77665404D01*
X159805415Y-77661404D01*
X159797415Y-77655404D01*
X159788415Y-77650404D01*
X159780415Y-77644404D01*
X159773415Y-77637404D01*
X159766415Y-77630404D01*
X159759415Y-77623404D01*
X159752415Y-77616404D01*
X159746415Y-77608404D01*
X159741415Y-77599404D01*
X159735415Y-77591404D01*
X159731415Y-77582404D01*
X159726415Y-77573404D01*
X159723415Y-77564404D01*
X159719415Y-77555404D01*
X159716415Y-77545404D01*
X159714415Y-77536404D01*
X159712415Y-77526404D01*
X159711415Y-77516404D01*
X159710415Y-77506404D01*
X159710415Y-77496404D01*
X159710415Y-77486404D01*
X159711415Y-77476404D01*
X159712415Y-77466404D01*
X159714415Y-77456404D01*
X159716415Y-77447404D01*
X159719415Y-77437404D01*
X159723415Y-77428404D01*
X159726415Y-77419404D01*
X159731415Y-77410404D01*
X159735415Y-77401404D01*
X159741415Y-77393404D01*
X159746415Y-77384404D01*
X159752415Y-77376404D01*
X159759415Y-77369404D01*
X159766415Y-77362404D01*
X159773415Y-77355404D01*
X159780415Y-77348404D01*
X159788415Y-77342404D01*
X159797415Y-77337404D01*
X159805415Y-77331404D01*
X159814415Y-77327404D01*
X159823415Y-77322404D01*
X159832415Y-77319404D01*
X159841415Y-77315404D01*
X159851415Y-77312404D01*
X159860415Y-77310404D01*
X159870415Y-77308404D01*
X159880415Y-77307404D01*
X159890415Y-77306404D01*
X159900415Y-77306404D01*
X160260415Y-77306404D01*
X160270415Y-77306404D01*
X160280415Y-77307404D01*
G36*
X160280415Y-77307404D02*
G01*
X160290415Y-77308404D01*
X160300415Y-77310404D01*
X160309415Y-77312404D01*
X160319415Y-77315404D01*
X160328415Y-77319404D01*
X160337415Y-77322404D01*
X160346415Y-77327404D01*
X160355415Y-77331404D01*
X160363415Y-77337404D01*
X160372415Y-77342404D01*
X160380415Y-77348404D01*
X160387415Y-77355404D01*
X160394415Y-77362404D01*
X160401415Y-77369404D01*
X160408415Y-77376404D01*
X160414415Y-77384404D01*
X160419415Y-77393404D01*
X160425415Y-77401404D01*
X160429415Y-77410404D01*
X160434415Y-77419404D01*
X160437415Y-77428404D01*
X160441415Y-77437404D01*
X160444415Y-77447404D01*
X160446415Y-77456404D01*
X160448415Y-77466404D01*
X160449415Y-77476404D01*
X160450415Y-77486404D01*
X160450415Y-77496404D01*
X160450415Y-77506404D01*
X160449415Y-77516404D01*
X160448415Y-77526404D01*
X160446415Y-77536404D01*
X160444415Y-77545404D01*
X160441415Y-77555404D01*
X160437415Y-77564404D01*
X160434415Y-77573404D01*
X160429415Y-77582404D01*
X160425415Y-77591404D01*
X160419415Y-77599404D01*
X160414415Y-77608404D01*
X160408415Y-77616404D01*
X160401415Y-77623404D01*
X160394415Y-77630404D01*
X160387415Y-77637404D01*
X160380415Y-77644404D01*
X160372415Y-77650404D01*
X160363415Y-77655404D01*
X160355415Y-77661404D01*
X160346415Y-77665404D01*
X160337415Y-77670404D01*
X160328415Y-77673404D01*
X160319415Y-77677404D01*
X160309415Y-77680404D01*
X160300415Y-77682404D01*
X160290415Y-77684404D01*
X160280415Y-77685404D01*
X160270415Y-77686404D01*
X160260415Y-77686404D01*
X159900415Y-77686404D01*
X159890415Y-77686404D01*
X159880415Y-77685404D01*
X159870415Y-77684404D01*
X159860415Y-77682404D01*
X159851415Y-77680404D01*
X159841415Y-77677404D01*
X159832415Y-77673404D01*
X159823415Y-77670404D01*
X159814415Y-77665404D01*
X159805415Y-77661404D01*
X159797415Y-77655404D01*
X159788415Y-77650404D01*
X159780415Y-77644404D01*
X159773415Y-77637404D01*
X159766415Y-77630404D01*
X159759415Y-77623404D01*
X159752415Y-77616404D01*
X159746415Y-77608404D01*
X159741415Y-77599404D01*
X159735415Y-77591404D01*
X159731415Y-77582404D01*
X159726415Y-77573404D01*
X159723415Y-77564404D01*
X159719415Y-77555404D01*
X159716415Y-77545404D01*
X159714415Y-77536404D01*
X159712415Y-77526404D01*
X159711415Y-77516404D01*
X159710415Y-77506404D01*
X159710415Y-77496404D01*
X159710415Y-77486404D01*
X159711415Y-77476404D01*
X159712415Y-77466404D01*
X159714415Y-77456404D01*
X159716415Y-77447404D01*
X159719415Y-77437404D01*
X159723415Y-77428404D01*
X159726415Y-77419404D01*
X159731415Y-77410404D01*
X159735415Y-77401404D01*
X159741415Y-77393404D01*
X159746415Y-77384404D01*
X159752415Y-77376404D01*
X159759415Y-77369404D01*
X159766415Y-77362404D01*
X159773415Y-77355404D01*
X159780415Y-77348404D01*
X159788415Y-77342404D01*
X159797415Y-77337404D01*
X159805415Y-77331404D01*
X159814415Y-77327404D01*
X159823415Y-77322404D01*
X159832415Y-77319404D01*
X159841415Y-77315404D01*
X159851415Y-77312404D01*
X159860415Y-77310404D01*
X159870415Y-77308404D01*
X159880415Y-77307404D01*
X159890415Y-77306404D01*
X159900415Y-77306404D01*
X160260415Y-77306404D01*
X160270415Y-77306404D01*
X160280415Y-77307404D01*
G37*
X160280415Y-77807404D02*
X160290415Y-77808404D01*
X160300415Y-77810404D01*
X160309415Y-77812404D01*
X160319415Y-77815404D01*
X160328415Y-77819404D01*
X160337415Y-77822404D01*
X160346415Y-77827404D01*
X160355415Y-77831404D01*
X160363415Y-77837404D01*
X160372415Y-77842404D01*
X160380415Y-77848404D01*
X160387415Y-77855404D01*
X160394415Y-77862404D01*
X160401415Y-77869404D01*
X160408415Y-77876404D01*
X160414415Y-77884404D01*
X160419415Y-77893404D01*
X160425415Y-77901404D01*
X160429415Y-77910404D01*
X160434415Y-77919404D01*
X160437415Y-77928404D01*
X160441415Y-77937404D01*
X160444415Y-77947404D01*
X160446415Y-77956404D01*
X160448415Y-77966404D01*
X160449415Y-77976404D01*
X160450415Y-77986404D01*
X160450415Y-77996404D01*
X160450415Y-78006404D01*
X160449415Y-78016404D01*
X160448415Y-78026404D01*
X160446415Y-78036404D01*
X160444415Y-78045404D01*
X160441415Y-78055404D01*
X160437415Y-78064404D01*
X160434415Y-78073404D01*
X160429415Y-78082404D01*
X160425415Y-78091404D01*
X160419415Y-78099404D01*
X160414415Y-78108404D01*
X160408415Y-78116404D01*
X160401415Y-78123404D01*
X160394415Y-78130404D01*
X160387415Y-78137404D01*
X160380415Y-78144404D01*
X160372415Y-78150404D01*
X160363415Y-78155404D01*
X160355415Y-78161404D01*
X160346415Y-78165404D01*
X160337415Y-78170404D01*
X160328415Y-78173404D01*
X160319415Y-78177404D01*
X160309415Y-78180404D01*
X160300415Y-78182404D01*
X160290415Y-78184404D01*
X160280415Y-78185404D01*
X160270415Y-78186404D01*
X160260415Y-78186404D01*
X159900415Y-78186404D01*
X159890415Y-78186404D01*
X159880415Y-78185404D01*
X159870415Y-78184404D01*
X159860415Y-78182404D01*
X159851415Y-78180404D01*
X159841415Y-78177404D01*
X159832415Y-78173404D01*
X159823415Y-78170404D01*
X159814415Y-78165404D01*
X159805415Y-78161404D01*
X159797415Y-78155404D01*
X159788415Y-78150404D01*
X159780415Y-78144404D01*
X159773415Y-78137404D01*
X159766415Y-78130404D01*
X159759415Y-78123404D01*
X159752415Y-78116404D01*
X159746415Y-78108404D01*
X159741415Y-78099404D01*
X159735415Y-78091404D01*
X159731415Y-78082404D01*
X159726415Y-78073404D01*
X159723415Y-78064404D01*
X159719415Y-78055404D01*
X159716415Y-78045404D01*
X159714415Y-78036404D01*
X159712415Y-78026404D01*
X159711415Y-78016404D01*
X159710415Y-78006404D01*
X159710415Y-77996404D01*
X159710415Y-77986404D01*
X159711415Y-77976404D01*
X159712415Y-77966404D01*
X159714415Y-77956404D01*
X159716415Y-77947404D01*
X159719415Y-77937404D01*
X159723415Y-77928404D01*
X159726415Y-77919404D01*
X159731415Y-77910404D01*
X159735415Y-77901404D01*
X159741415Y-77893404D01*
X159746415Y-77884404D01*
X159752415Y-77876404D01*
X159759415Y-77869404D01*
X159766415Y-77862404D01*
X159773415Y-77855404D01*
X159780415Y-77848404D01*
X159788415Y-77842404D01*
X159797415Y-77837404D01*
X159805415Y-77831404D01*
X159814415Y-77827404D01*
X159823415Y-77822404D01*
X159832415Y-77819404D01*
X159841415Y-77815404D01*
X159851415Y-77812404D01*
X159860415Y-77810404D01*
X159870415Y-77808404D01*
X159880415Y-77807404D01*
X159890415Y-77806404D01*
X159900415Y-77806404D01*
X160260415Y-77806404D01*
X160270415Y-77806404D01*
X160280415Y-77807404D01*
G36*
X160280415Y-77807404D02*
G01*
X160290415Y-77808404D01*
X160300415Y-77810404D01*
X160309415Y-77812404D01*
X160319415Y-77815404D01*
X160328415Y-77819404D01*
X160337415Y-77822404D01*
X160346415Y-77827404D01*
X160355415Y-77831404D01*
X160363415Y-77837404D01*
X160372415Y-77842404D01*
X160380415Y-77848404D01*
X160387415Y-77855404D01*
X160394415Y-77862404D01*
X160401415Y-77869404D01*
X160408415Y-77876404D01*
X160414415Y-77884404D01*
X160419415Y-77893404D01*
X160425415Y-77901404D01*
X160429415Y-77910404D01*
X160434415Y-77919404D01*
X160437415Y-77928404D01*
X160441415Y-77937404D01*
X160444415Y-77947404D01*
X160446415Y-77956404D01*
X160448415Y-77966404D01*
X160449415Y-77976404D01*
X160450415Y-77986404D01*
X160450415Y-77996404D01*
X160450415Y-78006404D01*
X160449415Y-78016404D01*
X160448415Y-78026404D01*
X160446415Y-78036404D01*
X160444415Y-78045404D01*
X160441415Y-78055404D01*
X160437415Y-78064404D01*
X160434415Y-78073404D01*
X160429415Y-78082404D01*
X160425415Y-78091404D01*
X160419415Y-78099404D01*
X160414415Y-78108404D01*
X160408415Y-78116404D01*
X160401415Y-78123404D01*
X160394415Y-78130404D01*
X160387415Y-78137404D01*
X160380415Y-78144404D01*
X160372415Y-78150404D01*
X160363415Y-78155404D01*
X160355415Y-78161404D01*
X160346415Y-78165404D01*
X160337415Y-78170404D01*
X160328415Y-78173404D01*
X160319415Y-78177404D01*
X160309415Y-78180404D01*
X160300415Y-78182404D01*
X160290415Y-78184404D01*
X160280415Y-78185404D01*
X160270415Y-78186404D01*
X160260415Y-78186404D01*
X159900415Y-78186404D01*
X159890415Y-78186404D01*
X159880415Y-78185404D01*
X159870415Y-78184404D01*
X159860415Y-78182404D01*
X159851415Y-78180404D01*
X159841415Y-78177404D01*
X159832415Y-78173404D01*
X159823415Y-78170404D01*
X159814415Y-78165404D01*
X159805415Y-78161404D01*
X159797415Y-78155404D01*
X159788415Y-78150404D01*
X159780415Y-78144404D01*
X159773415Y-78137404D01*
X159766415Y-78130404D01*
X159759415Y-78123404D01*
X159752415Y-78116404D01*
X159746415Y-78108404D01*
X159741415Y-78099404D01*
X159735415Y-78091404D01*
X159731415Y-78082404D01*
X159726415Y-78073404D01*
X159723415Y-78064404D01*
X159719415Y-78055404D01*
X159716415Y-78045404D01*
X159714415Y-78036404D01*
X159712415Y-78026404D01*
X159711415Y-78016404D01*
X159710415Y-78006404D01*
X159710415Y-77996404D01*
X159710415Y-77986404D01*
X159711415Y-77976404D01*
X159712415Y-77966404D01*
X159714415Y-77956404D01*
X159716415Y-77947404D01*
X159719415Y-77937404D01*
X159723415Y-77928404D01*
X159726415Y-77919404D01*
X159731415Y-77910404D01*
X159735415Y-77901404D01*
X159741415Y-77893404D01*
X159746415Y-77884404D01*
X159752415Y-77876404D01*
X159759415Y-77869404D01*
X159766415Y-77862404D01*
X159773415Y-77855404D01*
X159780415Y-77848404D01*
X159788415Y-77842404D01*
X159797415Y-77837404D01*
X159805415Y-77831404D01*
X159814415Y-77827404D01*
X159823415Y-77822404D01*
X159832415Y-77819404D01*
X159841415Y-77815404D01*
X159851415Y-77812404D01*
X159860415Y-77810404D01*
X159870415Y-77808404D01*
X159880415Y-77807404D01*
X159890415Y-77806404D01*
X159900415Y-77806404D01*
X160260415Y-77806404D01*
X160270415Y-77806404D01*
X160280415Y-77807404D01*
G37*
X160280415Y-78307404D02*
X160290415Y-78308404D01*
X160300415Y-78310404D01*
X160309415Y-78312404D01*
X160319415Y-78315404D01*
X160328415Y-78319404D01*
X160337415Y-78322404D01*
X160346415Y-78327404D01*
X160355415Y-78331404D01*
X160363415Y-78337404D01*
X160372415Y-78342404D01*
X160380415Y-78348404D01*
X160387415Y-78355404D01*
X160394415Y-78362404D01*
X160401415Y-78369404D01*
X160408415Y-78376404D01*
X160414415Y-78384404D01*
X160419415Y-78393404D01*
X160425415Y-78401404D01*
X160429415Y-78410404D01*
X160434415Y-78419404D01*
X160437415Y-78428404D01*
X160441415Y-78437404D01*
X160444415Y-78447404D01*
X160446415Y-78456404D01*
X160448415Y-78466404D01*
X160449415Y-78476404D01*
X160450415Y-78486404D01*
X160450415Y-78496404D01*
X160450415Y-78506404D01*
X160449415Y-78516404D01*
X160448415Y-78526404D01*
X160446415Y-78536404D01*
X160444415Y-78545404D01*
X160441415Y-78555404D01*
X160437415Y-78564404D01*
X160434415Y-78573404D01*
X160429415Y-78582404D01*
X160425415Y-78591404D01*
X160419415Y-78599404D01*
X160414415Y-78608404D01*
X160408415Y-78616404D01*
X160401415Y-78623404D01*
X160394415Y-78630404D01*
X160387415Y-78637404D01*
X160380415Y-78644404D01*
X160372415Y-78650404D01*
X160363415Y-78655404D01*
X160355415Y-78661404D01*
X160346415Y-78665404D01*
X160337415Y-78670404D01*
X160328415Y-78673404D01*
X160319415Y-78677404D01*
X160309415Y-78680404D01*
X160300415Y-78682404D01*
X160290415Y-78684404D01*
X160280415Y-78685404D01*
X160270415Y-78686404D01*
X160260415Y-78686404D01*
X159900415Y-78686404D01*
X159890415Y-78686404D01*
X159880415Y-78685404D01*
X159870415Y-78684404D01*
X159860415Y-78682404D01*
X159851415Y-78680404D01*
X159841415Y-78677404D01*
X159832415Y-78673404D01*
X159823415Y-78670404D01*
X159814415Y-78665404D01*
X159805415Y-78661404D01*
X159797415Y-78655404D01*
X159788415Y-78650404D01*
X159780415Y-78644404D01*
X159773415Y-78637404D01*
X159766415Y-78630404D01*
X159759415Y-78623404D01*
X159752415Y-78616404D01*
X159746415Y-78608404D01*
X159741415Y-78599404D01*
X159735415Y-78591404D01*
X159731415Y-78582404D01*
X159726415Y-78573404D01*
X159723415Y-78564404D01*
X159719415Y-78555404D01*
X159716415Y-78545404D01*
X159714415Y-78536404D01*
X159712415Y-78526404D01*
X159711415Y-78516404D01*
X159710415Y-78506404D01*
X159710415Y-78496404D01*
X159710415Y-78486404D01*
X159711415Y-78476404D01*
X159712415Y-78466404D01*
X159714415Y-78456404D01*
X159716415Y-78447404D01*
X159719415Y-78437404D01*
X159723415Y-78428404D01*
X159726415Y-78419404D01*
X159731415Y-78410404D01*
X159735415Y-78401404D01*
X159741415Y-78393404D01*
X159746415Y-78384404D01*
X159752415Y-78376404D01*
X159759415Y-78369404D01*
X159766415Y-78362404D01*
X159773415Y-78355404D01*
X159780415Y-78348404D01*
X159788415Y-78342404D01*
X159797415Y-78337404D01*
X159805415Y-78331404D01*
X159814415Y-78327404D01*
X159823415Y-78322404D01*
X159832415Y-78319404D01*
X159841415Y-78315404D01*
X159851415Y-78312404D01*
X159860415Y-78310404D01*
X159870415Y-78308404D01*
X159880415Y-78307404D01*
X159890415Y-78306404D01*
X159900415Y-78306404D01*
X160260415Y-78306404D01*
X160270415Y-78306404D01*
X160280415Y-78307404D01*
G36*
X160280415Y-78307404D02*
G01*
X160290415Y-78308404D01*
X160300415Y-78310404D01*
X160309415Y-78312404D01*
X160319415Y-78315404D01*
X160328415Y-78319404D01*
X160337415Y-78322404D01*
X160346415Y-78327404D01*
X160355415Y-78331404D01*
X160363415Y-78337404D01*
X160372415Y-78342404D01*
X160380415Y-78348404D01*
X160387415Y-78355404D01*
X160394415Y-78362404D01*
X160401415Y-78369404D01*
X160408415Y-78376404D01*
X160414415Y-78384404D01*
X160419415Y-78393404D01*
X160425415Y-78401404D01*
X160429415Y-78410404D01*
X160434415Y-78419404D01*
X160437415Y-78428404D01*
X160441415Y-78437404D01*
X160444415Y-78447404D01*
X160446415Y-78456404D01*
X160448415Y-78466404D01*
X160449415Y-78476404D01*
X160450415Y-78486404D01*
X160450415Y-78496404D01*
X160450415Y-78506404D01*
X160449415Y-78516404D01*
X160448415Y-78526404D01*
X160446415Y-78536404D01*
X160444415Y-78545404D01*
X160441415Y-78555404D01*
X160437415Y-78564404D01*
X160434415Y-78573404D01*
X160429415Y-78582404D01*
X160425415Y-78591404D01*
X160419415Y-78599404D01*
X160414415Y-78608404D01*
X160408415Y-78616404D01*
X160401415Y-78623404D01*
X160394415Y-78630404D01*
X160387415Y-78637404D01*
X160380415Y-78644404D01*
X160372415Y-78650404D01*
X160363415Y-78655404D01*
X160355415Y-78661404D01*
X160346415Y-78665404D01*
X160337415Y-78670404D01*
X160328415Y-78673404D01*
X160319415Y-78677404D01*
X160309415Y-78680404D01*
X160300415Y-78682404D01*
X160290415Y-78684404D01*
X160280415Y-78685404D01*
X160270415Y-78686404D01*
X160260415Y-78686404D01*
X159900415Y-78686404D01*
X159890415Y-78686404D01*
X159880415Y-78685404D01*
X159870415Y-78684404D01*
X159860415Y-78682404D01*
X159851415Y-78680404D01*
X159841415Y-78677404D01*
X159832415Y-78673404D01*
X159823415Y-78670404D01*
X159814415Y-78665404D01*
X159805415Y-78661404D01*
X159797415Y-78655404D01*
X159788415Y-78650404D01*
X159780415Y-78644404D01*
X159773415Y-78637404D01*
X159766415Y-78630404D01*
X159759415Y-78623404D01*
X159752415Y-78616404D01*
X159746415Y-78608404D01*
X159741415Y-78599404D01*
X159735415Y-78591404D01*
X159731415Y-78582404D01*
X159726415Y-78573404D01*
X159723415Y-78564404D01*
X159719415Y-78555404D01*
X159716415Y-78545404D01*
X159714415Y-78536404D01*
X159712415Y-78526404D01*
X159711415Y-78516404D01*
X159710415Y-78506404D01*
X159710415Y-78496404D01*
X159710415Y-78486404D01*
X159711415Y-78476404D01*
X159712415Y-78466404D01*
X159714415Y-78456404D01*
X159716415Y-78447404D01*
X159719415Y-78437404D01*
X159723415Y-78428404D01*
X159726415Y-78419404D01*
X159731415Y-78410404D01*
X159735415Y-78401404D01*
X159741415Y-78393404D01*
X159746415Y-78384404D01*
X159752415Y-78376404D01*
X159759415Y-78369404D01*
X159766415Y-78362404D01*
X159773415Y-78355404D01*
X159780415Y-78348404D01*
X159788415Y-78342404D01*
X159797415Y-78337404D01*
X159805415Y-78331404D01*
X159814415Y-78327404D01*
X159823415Y-78322404D01*
X159832415Y-78319404D01*
X159841415Y-78315404D01*
X159851415Y-78312404D01*
X159860415Y-78310404D01*
X159870415Y-78308404D01*
X159880415Y-78307404D01*
X159890415Y-78306404D01*
X159900415Y-78306404D01*
X160260415Y-78306404D01*
X160270415Y-78306404D01*
X160280415Y-78307404D01*
G37*
X160280415Y-78807404D02*
X160290415Y-78808404D01*
X160300415Y-78810404D01*
X160309415Y-78812404D01*
X160319415Y-78815404D01*
X160328415Y-78819404D01*
X160337415Y-78822404D01*
X160346415Y-78827404D01*
X160355415Y-78831404D01*
X160363415Y-78837404D01*
X160372415Y-78842404D01*
X160380415Y-78848404D01*
X160387415Y-78855404D01*
X160394415Y-78862404D01*
X160401415Y-78869404D01*
X160408415Y-78876404D01*
X160414415Y-78884404D01*
X160419415Y-78893404D01*
X160425415Y-78901404D01*
X160429415Y-78910404D01*
X160434415Y-78919404D01*
X160437415Y-78928404D01*
X160441415Y-78937404D01*
X160444415Y-78947404D01*
X160446415Y-78956404D01*
X160448415Y-78966404D01*
X160449415Y-78976404D01*
X160450415Y-78986404D01*
X160450415Y-78996404D01*
X160450415Y-79006404D01*
X160449415Y-79016404D01*
X160448415Y-79026404D01*
X160446415Y-79036404D01*
X160444415Y-79045404D01*
X160441415Y-79055404D01*
X160437415Y-79064404D01*
X160434415Y-79073404D01*
X160429415Y-79082404D01*
X160425415Y-79091404D01*
X160419415Y-79099404D01*
X160414415Y-79108404D01*
X160408415Y-79116404D01*
X160401415Y-79123404D01*
X160394415Y-79130404D01*
X160387415Y-79137404D01*
X160380415Y-79144404D01*
X160372415Y-79150404D01*
X160363415Y-79155404D01*
X160355415Y-79161404D01*
X160346415Y-79165404D01*
X160337415Y-79170404D01*
X160328415Y-79173404D01*
X160319415Y-79177404D01*
X160309415Y-79180404D01*
X160300415Y-79182404D01*
X160290415Y-79184404D01*
X160280415Y-79185404D01*
X160270415Y-79186404D01*
X160260415Y-79186404D01*
X159900415Y-79186404D01*
X159890415Y-79186404D01*
X159880415Y-79185404D01*
X159870415Y-79184404D01*
X159860415Y-79182404D01*
X159851415Y-79180404D01*
X159841415Y-79177404D01*
X159832415Y-79173404D01*
X159823415Y-79170404D01*
X159814415Y-79165404D01*
X159805415Y-79161404D01*
X159797415Y-79155404D01*
X159788415Y-79150404D01*
X159780415Y-79144404D01*
X159773415Y-79137404D01*
X159766415Y-79130404D01*
X159759415Y-79123404D01*
X159752415Y-79116404D01*
X159746415Y-79108404D01*
X159741415Y-79099404D01*
X159735415Y-79091404D01*
X159731415Y-79082404D01*
X159726415Y-79073404D01*
X159723415Y-79064404D01*
X159719415Y-79055404D01*
X159716415Y-79045404D01*
X159714415Y-79036404D01*
X159712415Y-79026404D01*
X159711415Y-79016404D01*
X159710415Y-79006404D01*
X159710415Y-78996404D01*
X159710415Y-78986404D01*
X159711415Y-78976404D01*
X159712415Y-78966404D01*
X159714415Y-78956404D01*
X159716415Y-78947404D01*
X159719415Y-78937404D01*
X159723415Y-78928404D01*
X159726415Y-78919404D01*
X159731415Y-78910404D01*
X159735415Y-78901404D01*
X159741415Y-78893404D01*
X159746415Y-78884404D01*
X159752415Y-78876404D01*
X159759415Y-78869404D01*
X159766415Y-78862404D01*
X159773415Y-78855404D01*
X159780415Y-78848404D01*
X159788415Y-78842404D01*
X159797415Y-78837404D01*
X159805415Y-78831404D01*
X159814415Y-78827404D01*
X159823415Y-78822404D01*
X159832415Y-78819404D01*
X159841415Y-78815404D01*
X159851415Y-78812404D01*
X159860415Y-78810404D01*
X159870415Y-78808404D01*
X159880415Y-78807404D01*
X159890415Y-78806404D01*
X159900415Y-78806404D01*
X160260415Y-78806404D01*
X160270415Y-78806404D01*
X160280415Y-78807404D01*
G36*
X160280415Y-78807404D02*
G01*
X160290415Y-78808404D01*
X160300415Y-78810404D01*
X160309415Y-78812404D01*
X160319415Y-78815404D01*
X160328415Y-78819404D01*
X160337415Y-78822404D01*
X160346415Y-78827404D01*
X160355415Y-78831404D01*
X160363415Y-78837404D01*
X160372415Y-78842404D01*
X160380415Y-78848404D01*
X160387415Y-78855404D01*
X160394415Y-78862404D01*
X160401415Y-78869404D01*
X160408415Y-78876404D01*
X160414415Y-78884404D01*
X160419415Y-78893404D01*
X160425415Y-78901404D01*
X160429415Y-78910404D01*
X160434415Y-78919404D01*
X160437415Y-78928404D01*
X160441415Y-78937404D01*
X160444415Y-78947404D01*
X160446415Y-78956404D01*
X160448415Y-78966404D01*
X160449415Y-78976404D01*
X160450415Y-78986404D01*
X160450415Y-78996404D01*
X160450415Y-79006404D01*
X160449415Y-79016404D01*
X160448415Y-79026404D01*
X160446415Y-79036404D01*
X160444415Y-79045404D01*
X160441415Y-79055404D01*
X160437415Y-79064404D01*
X160434415Y-79073404D01*
X160429415Y-79082404D01*
X160425415Y-79091404D01*
X160419415Y-79099404D01*
X160414415Y-79108404D01*
X160408415Y-79116404D01*
X160401415Y-79123404D01*
X160394415Y-79130404D01*
X160387415Y-79137404D01*
X160380415Y-79144404D01*
X160372415Y-79150404D01*
X160363415Y-79155404D01*
X160355415Y-79161404D01*
X160346415Y-79165404D01*
X160337415Y-79170404D01*
X160328415Y-79173404D01*
X160319415Y-79177404D01*
X160309415Y-79180404D01*
X160300415Y-79182404D01*
X160290415Y-79184404D01*
X160280415Y-79185404D01*
X160270415Y-79186404D01*
X160260415Y-79186404D01*
X159900415Y-79186404D01*
X159890415Y-79186404D01*
X159880415Y-79185404D01*
X159870415Y-79184404D01*
X159860415Y-79182404D01*
X159851415Y-79180404D01*
X159841415Y-79177404D01*
X159832415Y-79173404D01*
X159823415Y-79170404D01*
X159814415Y-79165404D01*
X159805415Y-79161404D01*
X159797415Y-79155404D01*
X159788415Y-79150404D01*
X159780415Y-79144404D01*
X159773415Y-79137404D01*
X159766415Y-79130404D01*
X159759415Y-79123404D01*
X159752415Y-79116404D01*
X159746415Y-79108404D01*
X159741415Y-79099404D01*
X159735415Y-79091404D01*
X159731415Y-79082404D01*
X159726415Y-79073404D01*
X159723415Y-79064404D01*
X159719415Y-79055404D01*
X159716415Y-79045404D01*
X159714415Y-79036404D01*
X159712415Y-79026404D01*
X159711415Y-79016404D01*
X159710415Y-79006404D01*
X159710415Y-78996404D01*
X159710415Y-78986404D01*
X159711415Y-78976404D01*
X159712415Y-78966404D01*
X159714415Y-78956404D01*
X159716415Y-78947404D01*
X159719415Y-78937404D01*
X159723415Y-78928404D01*
X159726415Y-78919404D01*
X159731415Y-78910404D01*
X159735415Y-78901404D01*
X159741415Y-78893404D01*
X159746415Y-78884404D01*
X159752415Y-78876404D01*
X159759415Y-78869404D01*
X159766415Y-78862404D01*
X159773415Y-78855404D01*
X159780415Y-78848404D01*
X159788415Y-78842404D01*
X159797415Y-78837404D01*
X159805415Y-78831404D01*
X159814415Y-78827404D01*
X159823415Y-78822404D01*
X159832415Y-78819404D01*
X159841415Y-78815404D01*
X159851415Y-78812404D01*
X159860415Y-78810404D01*
X159870415Y-78808404D01*
X159880415Y-78807404D01*
X159890415Y-78806404D01*
X159900415Y-78806404D01*
X160260415Y-78806404D01*
X160270415Y-78806404D01*
X160280415Y-78807404D01*
G37*
X163080415Y-75807404D02*
X163090415Y-75808404D01*
X163100415Y-75810404D01*
X163109415Y-75812404D01*
X163119415Y-75815404D01*
X163128415Y-75819404D01*
X163137415Y-75822404D01*
X163146415Y-75827404D01*
X163155415Y-75831404D01*
X163163415Y-75837404D01*
X163172415Y-75842404D01*
X163180415Y-75848404D01*
X163187415Y-75855404D01*
X163194415Y-75862404D01*
X163201415Y-75869404D01*
X163208415Y-75876404D01*
X163214415Y-75884404D01*
X163219415Y-75893404D01*
X163225415Y-75901404D01*
X163229415Y-75910404D01*
X163234415Y-75919404D01*
X163237415Y-75928404D01*
X163241415Y-75937404D01*
X163244415Y-75947404D01*
X163246415Y-75956404D01*
X163248415Y-75966404D01*
X163249415Y-75976404D01*
X163250415Y-75986404D01*
X163250415Y-75996404D01*
X163250415Y-76006404D01*
X163249415Y-76016404D01*
X163248415Y-76026404D01*
X163246415Y-76036404D01*
X163244415Y-76045404D01*
X163241415Y-76055404D01*
X163237415Y-76064404D01*
X163234415Y-76073404D01*
X163229415Y-76082404D01*
X163225415Y-76091404D01*
X163219415Y-76099404D01*
X163214415Y-76108404D01*
X163208415Y-76116404D01*
X163201415Y-76123404D01*
X163194415Y-76130404D01*
X163187415Y-76137404D01*
X163180415Y-76144404D01*
X163172415Y-76150404D01*
X163163415Y-76155404D01*
X163155415Y-76161404D01*
X163146415Y-76165404D01*
X163137415Y-76170404D01*
X163128415Y-76173404D01*
X163119415Y-76177404D01*
X163109415Y-76180404D01*
X163100415Y-76182404D01*
X163090415Y-76184404D01*
X163080415Y-76185404D01*
X163070415Y-76186404D01*
X163060415Y-76186404D01*
X162700415Y-76186404D01*
X162690415Y-76186404D01*
X162680415Y-76185404D01*
X162670415Y-76184404D01*
X162660415Y-76182404D01*
X162651415Y-76180404D01*
X162641415Y-76177404D01*
X162632415Y-76173404D01*
X162623415Y-76170404D01*
X162614415Y-76165404D01*
X162605415Y-76161404D01*
X162597415Y-76155404D01*
X162588415Y-76150404D01*
X162580415Y-76144404D01*
X162573415Y-76137404D01*
X162566415Y-76130404D01*
X162559415Y-76123404D01*
X162552415Y-76116404D01*
X162546415Y-76108404D01*
X162541415Y-76099404D01*
X162535415Y-76091404D01*
X162531415Y-76082404D01*
X162526415Y-76073404D01*
X162523415Y-76064404D01*
X162519415Y-76055404D01*
X162516415Y-76045404D01*
X162514415Y-76036404D01*
X162512415Y-76026404D01*
X162511415Y-76016404D01*
X162510415Y-76006404D01*
X162510415Y-75996404D01*
X162510415Y-75986404D01*
X162511415Y-75976404D01*
X162512415Y-75966404D01*
X162514415Y-75956404D01*
X162516415Y-75947404D01*
X162519415Y-75937404D01*
X162523415Y-75928404D01*
X162526415Y-75919404D01*
X162531415Y-75910404D01*
X162535415Y-75901404D01*
X162541415Y-75893404D01*
X162546415Y-75884404D01*
X162552415Y-75876404D01*
X162559415Y-75869404D01*
X162566415Y-75862404D01*
X162573415Y-75855404D01*
X162580415Y-75848404D01*
X162588415Y-75842404D01*
X162597415Y-75837404D01*
X162605415Y-75831404D01*
X162614415Y-75827404D01*
X162623415Y-75822404D01*
X162632415Y-75819404D01*
X162641415Y-75815404D01*
X162651415Y-75812404D01*
X162660415Y-75810404D01*
X162670415Y-75808404D01*
X162680415Y-75807404D01*
X162690415Y-75806404D01*
X162700415Y-75806404D01*
X163060415Y-75806404D01*
X163070415Y-75806404D01*
X163080415Y-75807404D01*
G36*
X163080415Y-75807404D02*
G01*
X163090415Y-75808404D01*
X163100415Y-75810404D01*
X163109415Y-75812404D01*
X163119415Y-75815404D01*
X163128415Y-75819404D01*
X163137415Y-75822404D01*
X163146415Y-75827404D01*
X163155415Y-75831404D01*
X163163415Y-75837404D01*
X163172415Y-75842404D01*
X163180415Y-75848404D01*
X163187415Y-75855404D01*
X163194415Y-75862404D01*
X163201415Y-75869404D01*
X163208415Y-75876404D01*
X163214415Y-75884404D01*
X163219415Y-75893404D01*
X163225415Y-75901404D01*
X163229415Y-75910404D01*
X163234415Y-75919404D01*
X163237415Y-75928404D01*
X163241415Y-75937404D01*
X163244415Y-75947404D01*
X163246415Y-75956404D01*
X163248415Y-75966404D01*
X163249415Y-75976404D01*
X163250415Y-75986404D01*
X163250415Y-75996404D01*
X163250415Y-76006404D01*
X163249415Y-76016404D01*
X163248415Y-76026404D01*
X163246415Y-76036404D01*
X163244415Y-76045404D01*
X163241415Y-76055404D01*
X163237415Y-76064404D01*
X163234415Y-76073404D01*
X163229415Y-76082404D01*
X163225415Y-76091404D01*
X163219415Y-76099404D01*
X163214415Y-76108404D01*
X163208415Y-76116404D01*
X163201415Y-76123404D01*
X163194415Y-76130404D01*
X163187415Y-76137404D01*
X163180415Y-76144404D01*
X163172415Y-76150404D01*
X163163415Y-76155404D01*
X163155415Y-76161404D01*
X163146415Y-76165404D01*
X163137415Y-76170404D01*
X163128415Y-76173404D01*
X163119415Y-76177404D01*
X163109415Y-76180404D01*
X163100415Y-76182404D01*
X163090415Y-76184404D01*
X163080415Y-76185404D01*
X163070415Y-76186404D01*
X163060415Y-76186404D01*
X162700415Y-76186404D01*
X162690415Y-76186404D01*
X162680415Y-76185404D01*
X162670415Y-76184404D01*
X162660415Y-76182404D01*
X162651415Y-76180404D01*
X162641415Y-76177404D01*
X162632415Y-76173404D01*
X162623415Y-76170404D01*
X162614415Y-76165404D01*
X162605415Y-76161404D01*
X162597415Y-76155404D01*
X162588415Y-76150404D01*
X162580415Y-76144404D01*
X162573415Y-76137404D01*
X162566415Y-76130404D01*
X162559415Y-76123404D01*
X162552415Y-76116404D01*
X162546415Y-76108404D01*
X162541415Y-76099404D01*
X162535415Y-76091404D01*
X162531415Y-76082404D01*
X162526415Y-76073404D01*
X162523415Y-76064404D01*
X162519415Y-76055404D01*
X162516415Y-76045404D01*
X162514415Y-76036404D01*
X162512415Y-76026404D01*
X162511415Y-76016404D01*
X162510415Y-76006404D01*
X162510415Y-75996404D01*
X162510415Y-75986404D01*
X162511415Y-75976404D01*
X162512415Y-75966404D01*
X162514415Y-75956404D01*
X162516415Y-75947404D01*
X162519415Y-75937404D01*
X162523415Y-75928404D01*
X162526415Y-75919404D01*
X162531415Y-75910404D01*
X162535415Y-75901404D01*
X162541415Y-75893404D01*
X162546415Y-75884404D01*
X162552415Y-75876404D01*
X162559415Y-75869404D01*
X162566415Y-75862404D01*
X162573415Y-75855404D01*
X162580415Y-75848404D01*
X162588415Y-75842404D01*
X162597415Y-75837404D01*
X162605415Y-75831404D01*
X162614415Y-75827404D01*
X162623415Y-75822404D01*
X162632415Y-75819404D01*
X162641415Y-75815404D01*
X162651415Y-75812404D01*
X162660415Y-75810404D01*
X162670415Y-75808404D01*
X162680415Y-75807404D01*
X162690415Y-75806404D01*
X162700415Y-75806404D01*
X163060415Y-75806404D01*
X163070415Y-75806404D01*
X163080415Y-75807404D01*
G37*
X163080415Y-76307404D02*
X163090415Y-76308404D01*
X163100415Y-76310404D01*
X163109415Y-76312404D01*
X163119415Y-76315404D01*
X163128415Y-76319404D01*
X163137415Y-76322404D01*
X163146415Y-76327404D01*
X163155415Y-76331404D01*
X163163415Y-76337404D01*
X163172415Y-76342404D01*
X163180415Y-76348404D01*
X163187415Y-76355404D01*
X163194415Y-76362404D01*
X163201415Y-76369404D01*
X163208415Y-76376404D01*
X163214415Y-76384404D01*
X163219415Y-76393404D01*
X163225415Y-76401404D01*
X163229415Y-76410404D01*
X163234415Y-76419404D01*
X163237415Y-76428404D01*
X163241415Y-76437404D01*
X163244415Y-76447404D01*
X163246415Y-76456404D01*
X163248415Y-76466404D01*
X163249415Y-76476404D01*
X163250415Y-76486404D01*
X163250415Y-76496404D01*
X163250415Y-76506404D01*
X163249415Y-76516404D01*
X163248415Y-76526404D01*
X163246415Y-76536404D01*
X163244415Y-76545404D01*
X163241415Y-76555404D01*
X163237415Y-76564404D01*
X163234415Y-76573404D01*
X163229415Y-76582404D01*
X163225415Y-76591404D01*
X163219415Y-76599404D01*
X163214415Y-76608404D01*
X163208415Y-76616404D01*
X163201415Y-76623404D01*
X163194415Y-76630404D01*
X163187415Y-76637404D01*
X163180415Y-76644404D01*
X163172415Y-76650404D01*
X163163415Y-76655404D01*
X163155415Y-76661404D01*
X163146415Y-76665404D01*
X163137415Y-76670404D01*
X163128415Y-76673404D01*
X163119415Y-76677404D01*
X163109415Y-76680404D01*
X163100415Y-76682404D01*
X163090415Y-76684404D01*
X163080415Y-76685404D01*
X163070415Y-76686404D01*
X163060415Y-76686404D01*
X162700415Y-76686404D01*
X162690415Y-76686404D01*
X162680415Y-76685404D01*
X162670415Y-76684404D01*
X162660415Y-76682404D01*
X162651415Y-76680404D01*
X162641415Y-76677404D01*
X162632415Y-76673404D01*
X162623415Y-76670404D01*
X162614415Y-76665404D01*
X162605415Y-76661404D01*
X162597415Y-76655404D01*
X162588415Y-76650404D01*
X162580415Y-76644404D01*
X162573415Y-76637404D01*
X162566415Y-76630404D01*
X162559415Y-76623404D01*
X162552415Y-76616404D01*
X162546415Y-76608404D01*
X162541415Y-76599404D01*
X162535415Y-76591404D01*
X162531415Y-76582404D01*
X162526415Y-76573404D01*
X162523415Y-76564404D01*
X162519415Y-76555404D01*
X162516415Y-76545404D01*
X162514415Y-76536404D01*
X162512415Y-76526404D01*
X162511415Y-76516404D01*
X162510415Y-76506404D01*
X162510415Y-76496404D01*
X162510415Y-76486404D01*
X162511415Y-76476404D01*
X162512415Y-76466404D01*
X162514415Y-76456404D01*
X162516415Y-76447404D01*
X162519415Y-76437404D01*
X162523415Y-76428404D01*
X162526415Y-76419404D01*
X162531415Y-76410404D01*
X162535415Y-76401404D01*
X162541415Y-76393404D01*
X162546415Y-76384404D01*
X162552415Y-76376404D01*
X162559415Y-76369404D01*
X162566415Y-76362404D01*
X162573415Y-76355404D01*
X162580415Y-76348404D01*
X162588415Y-76342404D01*
X162597415Y-76337404D01*
X162605415Y-76331404D01*
X162614415Y-76327404D01*
X162623415Y-76322404D01*
X162632415Y-76319404D01*
X162641415Y-76315404D01*
X162651415Y-76312404D01*
X162660415Y-76310404D01*
X162670415Y-76308404D01*
X162680415Y-76307404D01*
X162690415Y-76306404D01*
X162700415Y-76306404D01*
X163060415Y-76306404D01*
X163070415Y-76306404D01*
X163080415Y-76307404D01*
G36*
X163080415Y-76307404D02*
G01*
X163090415Y-76308404D01*
X163100415Y-76310404D01*
X163109415Y-76312404D01*
X163119415Y-76315404D01*
X163128415Y-76319404D01*
X163137415Y-76322404D01*
X163146415Y-76327404D01*
X163155415Y-76331404D01*
X163163415Y-76337404D01*
X163172415Y-76342404D01*
X163180415Y-76348404D01*
X163187415Y-76355404D01*
X163194415Y-76362404D01*
X163201415Y-76369404D01*
X163208415Y-76376404D01*
X163214415Y-76384404D01*
X163219415Y-76393404D01*
X163225415Y-76401404D01*
X163229415Y-76410404D01*
X163234415Y-76419404D01*
X163237415Y-76428404D01*
X163241415Y-76437404D01*
X163244415Y-76447404D01*
X163246415Y-76456404D01*
X163248415Y-76466404D01*
X163249415Y-76476404D01*
X163250415Y-76486404D01*
X163250415Y-76496404D01*
X163250415Y-76506404D01*
X163249415Y-76516404D01*
X163248415Y-76526404D01*
X163246415Y-76536404D01*
X163244415Y-76545404D01*
X163241415Y-76555404D01*
X163237415Y-76564404D01*
X163234415Y-76573404D01*
X163229415Y-76582404D01*
X163225415Y-76591404D01*
X163219415Y-76599404D01*
X163214415Y-76608404D01*
X163208415Y-76616404D01*
X163201415Y-76623404D01*
X163194415Y-76630404D01*
X163187415Y-76637404D01*
X163180415Y-76644404D01*
X163172415Y-76650404D01*
X163163415Y-76655404D01*
X163155415Y-76661404D01*
X163146415Y-76665404D01*
X163137415Y-76670404D01*
X163128415Y-76673404D01*
X163119415Y-76677404D01*
X163109415Y-76680404D01*
X163100415Y-76682404D01*
X163090415Y-76684404D01*
X163080415Y-76685404D01*
X163070415Y-76686404D01*
X163060415Y-76686404D01*
X162700415Y-76686404D01*
X162690415Y-76686404D01*
X162680415Y-76685404D01*
X162670415Y-76684404D01*
X162660415Y-76682404D01*
X162651415Y-76680404D01*
X162641415Y-76677404D01*
X162632415Y-76673404D01*
X162623415Y-76670404D01*
X162614415Y-76665404D01*
X162605415Y-76661404D01*
X162597415Y-76655404D01*
X162588415Y-76650404D01*
X162580415Y-76644404D01*
X162573415Y-76637404D01*
X162566415Y-76630404D01*
X162559415Y-76623404D01*
X162552415Y-76616404D01*
X162546415Y-76608404D01*
X162541415Y-76599404D01*
X162535415Y-76591404D01*
X162531415Y-76582404D01*
X162526415Y-76573404D01*
X162523415Y-76564404D01*
X162519415Y-76555404D01*
X162516415Y-76545404D01*
X162514415Y-76536404D01*
X162512415Y-76526404D01*
X162511415Y-76516404D01*
X162510415Y-76506404D01*
X162510415Y-76496404D01*
X162510415Y-76486404D01*
X162511415Y-76476404D01*
X162512415Y-76466404D01*
X162514415Y-76456404D01*
X162516415Y-76447404D01*
X162519415Y-76437404D01*
X162523415Y-76428404D01*
X162526415Y-76419404D01*
X162531415Y-76410404D01*
X162535415Y-76401404D01*
X162541415Y-76393404D01*
X162546415Y-76384404D01*
X162552415Y-76376404D01*
X162559415Y-76369404D01*
X162566415Y-76362404D01*
X162573415Y-76355404D01*
X162580415Y-76348404D01*
X162588415Y-76342404D01*
X162597415Y-76337404D01*
X162605415Y-76331404D01*
X162614415Y-76327404D01*
X162623415Y-76322404D01*
X162632415Y-76319404D01*
X162641415Y-76315404D01*
X162651415Y-76312404D01*
X162660415Y-76310404D01*
X162670415Y-76308404D01*
X162680415Y-76307404D01*
X162690415Y-76306404D01*
X162700415Y-76306404D01*
X163060415Y-76306404D01*
X163070415Y-76306404D01*
X163080415Y-76307404D01*
G37*
X163080415Y-76807404D02*
X163090415Y-76808404D01*
X163100415Y-76810404D01*
X163109415Y-76812404D01*
X163119415Y-76815404D01*
X163128415Y-76819404D01*
X163137415Y-76822404D01*
X163146415Y-76827404D01*
X163155415Y-76831404D01*
X163163415Y-76837404D01*
X163172415Y-76842404D01*
X163180415Y-76848404D01*
X163187415Y-76855404D01*
X163194415Y-76862404D01*
X163201415Y-76869404D01*
X163208415Y-76876404D01*
X163214415Y-76884404D01*
X163219415Y-76893404D01*
X163225415Y-76901404D01*
X163229415Y-76910404D01*
X163234415Y-76919404D01*
X163237415Y-76928404D01*
X163241415Y-76937404D01*
X163244415Y-76947404D01*
X163246415Y-76956404D01*
X163248415Y-76966404D01*
X163249415Y-76976404D01*
X163250415Y-76986404D01*
X163250415Y-76996404D01*
X163250415Y-77006404D01*
X163249415Y-77016404D01*
X163248415Y-77026404D01*
X163246415Y-77036404D01*
X163244415Y-77045404D01*
X163241415Y-77055404D01*
X163237415Y-77064404D01*
X163234415Y-77073404D01*
X163229415Y-77082404D01*
X163225415Y-77091404D01*
X163219415Y-77099404D01*
X163214415Y-77108404D01*
X163208415Y-77116404D01*
X163201415Y-77123404D01*
X163194415Y-77130404D01*
X163187415Y-77137404D01*
X163180415Y-77144404D01*
X163172415Y-77150404D01*
X163163415Y-77155404D01*
X163155415Y-77161404D01*
X163146415Y-77165404D01*
X163137415Y-77170404D01*
X163128415Y-77173404D01*
X163119415Y-77177404D01*
X163109415Y-77180404D01*
X163100415Y-77182404D01*
X163090415Y-77184404D01*
X163080415Y-77185404D01*
X163070415Y-77186404D01*
X163060415Y-77186404D01*
X162700415Y-77186404D01*
X162690415Y-77186404D01*
X162680415Y-77185404D01*
X162670415Y-77184404D01*
X162660415Y-77182404D01*
X162651415Y-77180404D01*
X162641415Y-77177404D01*
X162632415Y-77173404D01*
X162623415Y-77170404D01*
X162614415Y-77165404D01*
X162605415Y-77161404D01*
X162597415Y-77155404D01*
X162588415Y-77150404D01*
X162580415Y-77144404D01*
X162573415Y-77137404D01*
X162566415Y-77130404D01*
X162559415Y-77123404D01*
X162552415Y-77116404D01*
X162546415Y-77108404D01*
X162541415Y-77099404D01*
X162535415Y-77091404D01*
X162531415Y-77082404D01*
X162526415Y-77073404D01*
X162523415Y-77064404D01*
X162519415Y-77055404D01*
X162516415Y-77045404D01*
X162514415Y-77036404D01*
X162512415Y-77026404D01*
X162511415Y-77016404D01*
X162510415Y-77006404D01*
X162510415Y-76996404D01*
X162510415Y-76986404D01*
X162511415Y-76976404D01*
X162512415Y-76966404D01*
X162514415Y-76956404D01*
X162516415Y-76947404D01*
X162519415Y-76937404D01*
X162523415Y-76928404D01*
X162526415Y-76919404D01*
X162531415Y-76910404D01*
X162535415Y-76901404D01*
X162541415Y-76893404D01*
X162546415Y-76884404D01*
X162552415Y-76876404D01*
X162559415Y-76869404D01*
X162566415Y-76862404D01*
X162573415Y-76855404D01*
X162580415Y-76848404D01*
X162588415Y-76842404D01*
X162597415Y-76837404D01*
X162605415Y-76831404D01*
X162614415Y-76827404D01*
X162623415Y-76822404D01*
X162632415Y-76819404D01*
X162641415Y-76815404D01*
X162651415Y-76812404D01*
X162660415Y-76810404D01*
X162670415Y-76808404D01*
X162680415Y-76807404D01*
X162690415Y-76806404D01*
X162700415Y-76806404D01*
X163060415Y-76806404D01*
X163070415Y-76806404D01*
X163080415Y-76807404D01*
G36*
X163080415Y-76807404D02*
G01*
X163090415Y-76808404D01*
X163100415Y-76810404D01*
X163109415Y-76812404D01*
X163119415Y-76815404D01*
X163128415Y-76819404D01*
X163137415Y-76822404D01*
X163146415Y-76827404D01*
X163155415Y-76831404D01*
X163163415Y-76837404D01*
X163172415Y-76842404D01*
X163180415Y-76848404D01*
X163187415Y-76855404D01*
X163194415Y-76862404D01*
X163201415Y-76869404D01*
X163208415Y-76876404D01*
X163214415Y-76884404D01*
X163219415Y-76893404D01*
X163225415Y-76901404D01*
X163229415Y-76910404D01*
X163234415Y-76919404D01*
X163237415Y-76928404D01*
X163241415Y-76937404D01*
X163244415Y-76947404D01*
X163246415Y-76956404D01*
X163248415Y-76966404D01*
X163249415Y-76976404D01*
X163250415Y-76986404D01*
X163250415Y-76996404D01*
X163250415Y-77006404D01*
X163249415Y-77016404D01*
X163248415Y-77026404D01*
X163246415Y-77036404D01*
X163244415Y-77045404D01*
X163241415Y-77055404D01*
X163237415Y-77064404D01*
X163234415Y-77073404D01*
X163229415Y-77082404D01*
X163225415Y-77091404D01*
X163219415Y-77099404D01*
X163214415Y-77108404D01*
X163208415Y-77116404D01*
X163201415Y-77123404D01*
X163194415Y-77130404D01*
X163187415Y-77137404D01*
X163180415Y-77144404D01*
X163172415Y-77150404D01*
X163163415Y-77155404D01*
X163155415Y-77161404D01*
X163146415Y-77165404D01*
X163137415Y-77170404D01*
X163128415Y-77173404D01*
X163119415Y-77177404D01*
X163109415Y-77180404D01*
X163100415Y-77182404D01*
X163090415Y-77184404D01*
X163080415Y-77185404D01*
X163070415Y-77186404D01*
X163060415Y-77186404D01*
X162700415Y-77186404D01*
X162690415Y-77186404D01*
X162680415Y-77185404D01*
X162670415Y-77184404D01*
X162660415Y-77182404D01*
X162651415Y-77180404D01*
X162641415Y-77177404D01*
X162632415Y-77173404D01*
X162623415Y-77170404D01*
X162614415Y-77165404D01*
X162605415Y-77161404D01*
X162597415Y-77155404D01*
X162588415Y-77150404D01*
X162580415Y-77144404D01*
X162573415Y-77137404D01*
X162566415Y-77130404D01*
X162559415Y-77123404D01*
X162552415Y-77116404D01*
X162546415Y-77108404D01*
X162541415Y-77099404D01*
X162535415Y-77091404D01*
X162531415Y-77082404D01*
X162526415Y-77073404D01*
X162523415Y-77064404D01*
X162519415Y-77055404D01*
X162516415Y-77045404D01*
X162514415Y-77036404D01*
X162512415Y-77026404D01*
X162511415Y-77016404D01*
X162510415Y-77006404D01*
X162510415Y-76996404D01*
X162510415Y-76986404D01*
X162511415Y-76976404D01*
X162512415Y-76966404D01*
X162514415Y-76956404D01*
X162516415Y-76947404D01*
X162519415Y-76937404D01*
X162523415Y-76928404D01*
X162526415Y-76919404D01*
X162531415Y-76910404D01*
X162535415Y-76901404D01*
X162541415Y-76893404D01*
X162546415Y-76884404D01*
X162552415Y-76876404D01*
X162559415Y-76869404D01*
X162566415Y-76862404D01*
X162573415Y-76855404D01*
X162580415Y-76848404D01*
X162588415Y-76842404D01*
X162597415Y-76837404D01*
X162605415Y-76831404D01*
X162614415Y-76827404D01*
X162623415Y-76822404D01*
X162632415Y-76819404D01*
X162641415Y-76815404D01*
X162651415Y-76812404D01*
X162660415Y-76810404D01*
X162670415Y-76808404D01*
X162680415Y-76807404D01*
X162690415Y-76806404D01*
X162700415Y-76806404D01*
X163060415Y-76806404D01*
X163070415Y-76806404D01*
X163080415Y-76807404D01*
G37*
X163080415Y-77307404D02*
X163090415Y-77308404D01*
X163100415Y-77310404D01*
X163109415Y-77312404D01*
X163119415Y-77315404D01*
X163128415Y-77319404D01*
X163137415Y-77322404D01*
X163146415Y-77327404D01*
X163155415Y-77331404D01*
X163163415Y-77337404D01*
X163172415Y-77342404D01*
X163180415Y-77348404D01*
X163187415Y-77355404D01*
X163194415Y-77362404D01*
X163201415Y-77369404D01*
X163208415Y-77376404D01*
X163214415Y-77384404D01*
X163219415Y-77393404D01*
X163225415Y-77401404D01*
X163229415Y-77410404D01*
X163234415Y-77419404D01*
X163237415Y-77428404D01*
X163241415Y-77437404D01*
X163244415Y-77447404D01*
X163246415Y-77456404D01*
X163248415Y-77466404D01*
X163249415Y-77476404D01*
X163250415Y-77486404D01*
X163250415Y-77496404D01*
X163250415Y-77506404D01*
X163249415Y-77516404D01*
X163248415Y-77526404D01*
X163246415Y-77536404D01*
X163244415Y-77545404D01*
X163241415Y-77555404D01*
X163237415Y-77564404D01*
X163234415Y-77573404D01*
X163229415Y-77582404D01*
X163225415Y-77591404D01*
X163219415Y-77599404D01*
X163214415Y-77608404D01*
X163208415Y-77616404D01*
X163201415Y-77623404D01*
X163194415Y-77630404D01*
X163187415Y-77637404D01*
X163180415Y-77644404D01*
X163172415Y-77650404D01*
X163163415Y-77655404D01*
X163155415Y-77661404D01*
X163146415Y-77665404D01*
X163137415Y-77670404D01*
X163128415Y-77673404D01*
X163119415Y-77677404D01*
X163109415Y-77680404D01*
X163100415Y-77682404D01*
X163090415Y-77684404D01*
X163080415Y-77685404D01*
X163070415Y-77686404D01*
X163060415Y-77686404D01*
X162700415Y-77686404D01*
X162690415Y-77686404D01*
X162680415Y-77685404D01*
X162670415Y-77684404D01*
X162660415Y-77682404D01*
X162651415Y-77680404D01*
X162641415Y-77677404D01*
X162632415Y-77673404D01*
X162623415Y-77670404D01*
X162614415Y-77665404D01*
X162605415Y-77661404D01*
X162597415Y-77655404D01*
X162588415Y-77650404D01*
X162580415Y-77644404D01*
X162573415Y-77637404D01*
X162566415Y-77630404D01*
X162559415Y-77623404D01*
X162552415Y-77616404D01*
X162546415Y-77608404D01*
X162541415Y-77599404D01*
X162535415Y-77591404D01*
X162531415Y-77582404D01*
X162526415Y-77573404D01*
X162523415Y-77564404D01*
X162519415Y-77555404D01*
X162516415Y-77545404D01*
X162514415Y-77536404D01*
X162512415Y-77526404D01*
X162511415Y-77516404D01*
X162510415Y-77506404D01*
X162510415Y-77496404D01*
X162510415Y-77486404D01*
X162511415Y-77476404D01*
X162512415Y-77466404D01*
X162514415Y-77456404D01*
X162516415Y-77447404D01*
X162519415Y-77437404D01*
X162523415Y-77428404D01*
X162526415Y-77419404D01*
X162531415Y-77410404D01*
X162535415Y-77401404D01*
X162541415Y-77393404D01*
X162546415Y-77384404D01*
X162552415Y-77376404D01*
X162559415Y-77369404D01*
X162566415Y-77362404D01*
X162573415Y-77355404D01*
X162580415Y-77348404D01*
X162588415Y-77342404D01*
X162597415Y-77337404D01*
X162605415Y-77331404D01*
X162614415Y-77327404D01*
X162623415Y-77322404D01*
X162632415Y-77319404D01*
X162641415Y-77315404D01*
X162651415Y-77312404D01*
X162660415Y-77310404D01*
X162670415Y-77308404D01*
X162680415Y-77307404D01*
X162690415Y-77306404D01*
X162700415Y-77306404D01*
X163060415Y-77306404D01*
X163070415Y-77306404D01*
X163080415Y-77307404D01*
G36*
X163080415Y-77307404D02*
G01*
X163090415Y-77308404D01*
X163100415Y-77310404D01*
X163109415Y-77312404D01*
X163119415Y-77315404D01*
X163128415Y-77319404D01*
X163137415Y-77322404D01*
X163146415Y-77327404D01*
X163155415Y-77331404D01*
X163163415Y-77337404D01*
X163172415Y-77342404D01*
X163180415Y-77348404D01*
X163187415Y-77355404D01*
X163194415Y-77362404D01*
X163201415Y-77369404D01*
X163208415Y-77376404D01*
X163214415Y-77384404D01*
X163219415Y-77393404D01*
X163225415Y-77401404D01*
X163229415Y-77410404D01*
X163234415Y-77419404D01*
X163237415Y-77428404D01*
X163241415Y-77437404D01*
X163244415Y-77447404D01*
X163246415Y-77456404D01*
X163248415Y-77466404D01*
X163249415Y-77476404D01*
X163250415Y-77486404D01*
X163250415Y-77496404D01*
X163250415Y-77506404D01*
X163249415Y-77516404D01*
X163248415Y-77526404D01*
X163246415Y-77536404D01*
X163244415Y-77545404D01*
X163241415Y-77555404D01*
X163237415Y-77564404D01*
X163234415Y-77573404D01*
X163229415Y-77582404D01*
X163225415Y-77591404D01*
X163219415Y-77599404D01*
X163214415Y-77608404D01*
X163208415Y-77616404D01*
X163201415Y-77623404D01*
X163194415Y-77630404D01*
X163187415Y-77637404D01*
X163180415Y-77644404D01*
X163172415Y-77650404D01*
X163163415Y-77655404D01*
X163155415Y-77661404D01*
X163146415Y-77665404D01*
X163137415Y-77670404D01*
X163128415Y-77673404D01*
X163119415Y-77677404D01*
X163109415Y-77680404D01*
X163100415Y-77682404D01*
X163090415Y-77684404D01*
X163080415Y-77685404D01*
X163070415Y-77686404D01*
X163060415Y-77686404D01*
X162700415Y-77686404D01*
X162690415Y-77686404D01*
X162680415Y-77685404D01*
X162670415Y-77684404D01*
X162660415Y-77682404D01*
X162651415Y-77680404D01*
X162641415Y-77677404D01*
X162632415Y-77673404D01*
X162623415Y-77670404D01*
X162614415Y-77665404D01*
X162605415Y-77661404D01*
X162597415Y-77655404D01*
X162588415Y-77650404D01*
X162580415Y-77644404D01*
X162573415Y-77637404D01*
X162566415Y-77630404D01*
X162559415Y-77623404D01*
X162552415Y-77616404D01*
X162546415Y-77608404D01*
X162541415Y-77599404D01*
X162535415Y-77591404D01*
X162531415Y-77582404D01*
X162526415Y-77573404D01*
X162523415Y-77564404D01*
X162519415Y-77555404D01*
X162516415Y-77545404D01*
X162514415Y-77536404D01*
X162512415Y-77526404D01*
X162511415Y-77516404D01*
X162510415Y-77506404D01*
X162510415Y-77496404D01*
X162510415Y-77486404D01*
X162511415Y-77476404D01*
X162512415Y-77466404D01*
X162514415Y-77456404D01*
X162516415Y-77447404D01*
X162519415Y-77437404D01*
X162523415Y-77428404D01*
X162526415Y-77419404D01*
X162531415Y-77410404D01*
X162535415Y-77401404D01*
X162541415Y-77393404D01*
X162546415Y-77384404D01*
X162552415Y-77376404D01*
X162559415Y-77369404D01*
X162566415Y-77362404D01*
X162573415Y-77355404D01*
X162580415Y-77348404D01*
X162588415Y-77342404D01*
X162597415Y-77337404D01*
X162605415Y-77331404D01*
X162614415Y-77327404D01*
X162623415Y-77322404D01*
X162632415Y-77319404D01*
X162641415Y-77315404D01*
X162651415Y-77312404D01*
X162660415Y-77310404D01*
X162670415Y-77308404D01*
X162680415Y-77307404D01*
X162690415Y-77306404D01*
X162700415Y-77306404D01*
X163060415Y-77306404D01*
X163070415Y-77306404D01*
X163080415Y-77307404D01*
G37*
X163080415Y-77807404D02*
X163090415Y-77808404D01*
X163100415Y-77810404D01*
X163109415Y-77812404D01*
X163119415Y-77815404D01*
X163128415Y-77819404D01*
X163137415Y-77822404D01*
X163146415Y-77827404D01*
X163155415Y-77831404D01*
X163163415Y-77837404D01*
X163172415Y-77842404D01*
X163180415Y-77848404D01*
X163187415Y-77855404D01*
X163194415Y-77862404D01*
X163201415Y-77869404D01*
X163208415Y-77876404D01*
X163214415Y-77884404D01*
X163219415Y-77893404D01*
X163225415Y-77901404D01*
X163229415Y-77910404D01*
X163234415Y-77919404D01*
X163237415Y-77928404D01*
X163241415Y-77937404D01*
X163244415Y-77947404D01*
X163246415Y-77956404D01*
X163248415Y-77966404D01*
X163249415Y-77976404D01*
X163250415Y-77986404D01*
X163250415Y-77996404D01*
X163250415Y-78006404D01*
X163249415Y-78016404D01*
X163248415Y-78026404D01*
X163246415Y-78036404D01*
X163244415Y-78045404D01*
X163241415Y-78055404D01*
X163237415Y-78064404D01*
X163234415Y-78073404D01*
X163229415Y-78082404D01*
X163225415Y-78091404D01*
X163219415Y-78099404D01*
X163214415Y-78108404D01*
X163208415Y-78116404D01*
X163201415Y-78123404D01*
X163194415Y-78130404D01*
X163187415Y-78137404D01*
X163180415Y-78144404D01*
X163172415Y-78150404D01*
X163163415Y-78155404D01*
X163155415Y-78161404D01*
X163146415Y-78165404D01*
X163137415Y-78170404D01*
X163128415Y-78173404D01*
X163119415Y-78177404D01*
X163109415Y-78180404D01*
X163100415Y-78182404D01*
X163090415Y-78184404D01*
X163080415Y-78185404D01*
X163070415Y-78186404D01*
X163060415Y-78186404D01*
X162700415Y-78186404D01*
X162690415Y-78186404D01*
X162680415Y-78185404D01*
X162670415Y-78184404D01*
X162660415Y-78182404D01*
X162651415Y-78180404D01*
X162641415Y-78177404D01*
X162632415Y-78173404D01*
X162623415Y-78170404D01*
X162614415Y-78165404D01*
X162605415Y-78161404D01*
X162597415Y-78155404D01*
X162588415Y-78150404D01*
X162580415Y-78144404D01*
X162573415Y-78137404D01*
X162566415Y-78130404D01*
X162559415Y-78123404D01*
X162552415Y-78116404D01*
X162546415Y-78108404D01*
X162541415Y-78099404D01*
X162535415Y-78091404D01*
X162531415Y-78082404D01*
X162526415Y-78073404D01*
X162523415Y-78064404D01*
X162519415Y-78055404D01*
X162516415Y-78045404D01*
X162514415Y-78036404D01*
X162512415Y-78026404D01*
X162511415Y-78016404D01*
X162510415Y-78006404D01*
X162510415Y-77996404D01*
X162510415Y-77986404D01*
X162511415Y-77976404D01*
X162512415Y-77966404D01*
X162514415Y-77956404D01*
X162516415Y-77947404D01*
X162519415Y-77937404D01*
X162523415Y-77928404D01*
X162526415Y-77919404D01*
X162531415Y-77910404D01*
X162535415Y-77901404D01*
X162541415Y-77893404D01*
X162546415Y-77884404D01*
X162552415Y-77876404D01*
X162559415Y-77869404D01*
X162566415Y-77862404D01*
X162573415Y-77855404D01*
X162580415Y-77848404D01*
X162588415Y-77842404D01*
X162597415Y-77837404D01*
X162605415Y-77831404D01*
X162614415Y-77827404D01*
X162623415Y-77822404D01*
X162632415Y-77819404D01*
X162641415Y-77815404D01*
X162651415Y-77812404D01*
X162660415Y-77810404D01*
X162670415Y-77808404D01*
X162680415Y-77807404D01*
X162690415Y-77806404D01*
X162700415Y-77806404D01*
X163060415Y-77806404D01*
X163070415Y-77806404D01*
X163080415Y-77807404D01*
G36*
X163080415Y-77807404D02*
G01*
X163090415Y-77808404D01*
X163100415Y-77810404D01*
X163109415Y-77812404D01*
X163119415Y-77815404D01*
X163128415Y-77819404D01*
X163137415Y-77822404D01*
X163146415Y-77827404D01*
X163155415Y-77831404D01*
X163163415Y-77837404D01*
X163172415Y-77842404D01*
X163180415Y-77848404D01*
X163187415Y-77855404D01*
X163194415Y-77862404D01*
X163201415Y-77869404D01*
X163208415Y-77876404D01*
X163214415Y-77884404D01*
X163219415Y-77893404D01*
X163225415Y-77901404D01*
X163229415Y-77910404D01*
X163234415Y-77919404D01*
X163237415Y-77928404D01*
X163241415Y-77937404D01*
X163244415Y-77947404D01*
X163246415Y-77956404D01*
X163248415Y-77966404D01*
X163249415Y-77976404D01*
X163250415Y-77986404D01*
X163250415Y-77996404D01*
X163250415Y-78006404D01*
X163249415Y-78016404D01*
X163248415Y-78026404D01*
X163246415Y-78036404D01*
X163244415Y-78045404D01*
X163241415Y-78055404D01*
X163237415Y-78064404D01*
X163234415Y-78073404D01*
X163229415Y-78082404D01*
X163225415Y-78091404D01*
X163219415Y-78099404D01*
X163214415Y-78108404D01*
X163208415Y-78116404D01*
X163201415Y-78123404D01*
X163194415Y-78130404D01*
X163187415Y-78137404D01*
X163180415Y-78144404D01*
X163172415Y-78150404D01*
X163163415Y-78155404D01*
X163155415Y-78161404D01*
X163146415Y-78165404D01*
X163137415Y-78170404D01*
X163128415Y-78173404D01*
X163119415Y-78177404D01*
X163109415Y-78180404D01*
X163100415Y-78182404D01*
X163090415Y-78184404D01*
X163080415Y-78185404D01*
X163070415Y-78186404D01*
X163060415Y-78186404D01*
X162700415Y-78186404D01*
X162690415Y-78186404D01*
X162680415Y-78185404D01*
X162670415Y-78184404D01*
X162660415Y-78182404D01*
X162651415Y-78180404D01*
X162641415Y-78177404D01*
X162632415Y-78173404D01*
X162623415Y-78170404D01*
X162614415Y-78165404D01*
X162605415Y-78161404D01*
X162597415Y-78155404D01*
X162588415Y-78150404D01*
X162580415Y-78144404D01*
X162573415Y-78137404D01*
X162566415Y-78130404D01*
X162559415Y-78123404D01*
X162552415Y-78116404D01*
X162546415Y-78108404D01*
X162541415Y-78099404D01*
X162535415Y-78091404D01*
X162531415Y-78082404D01*
X162526415Y-78073404D01*
X162523415Y-78064404D01*
X162519415Y-78055404D01*
X162516415Y-78045404D01*
X162514415Y-78036404D01*
X162512415Y-78026404D01*
X162511415Y-78016404D01*
X162510415Y-78006404D01*
X162510415Y-77996404D01*
X162510415Y-77986404D01*
X162511415Y-77976404D01*
X162512415Y-77966404D01*
X162514415Y-77956404D01*
X162516415Y-77947404D01*
X162519415Y-77937404D01*
X162523415Y-77928404D01*
X162526415Y-77919404D01*
X162531415Y-77910404D01*
X162535415Y-77901404D01*
X162541415Y-77893404D01*
X162546415Y-77884404D01*
X162552415Y-77876404D01*
X162559415Y-77869404D01*
X162566415Y-77862404D01*
X162573415Y-77855404D01*
X162580415Y-77848404D01*
X162588415Y-77842404D01*
X162597415Y-77837404D01*
X162605415Y-77831404D01*
X162614415Y-77827404D01*
X162623415Y-77822404D01*
X162632415Y-77819404D01*
X162641415Y-77815404D01*
X162651415Y-77812404D01*
X162660415Y-77810404D01*
X162670415Y-77808404D01*
X162680415Y-77807404D01*
X162690415Y-77806404D01*
X162700415Y-77806404D01*
X163060415Y-77806404D01*
X163070415Y-77806404D01*
X163080415Y-77807404D01*
G37*
X163080415Y-78307404D02*
X163090415Y-78308404D01*
X163100415Y-78310404D01*
X163109415Y-78312404D01*
X163119415Y-78315404D01*
X163128415Y-78319404D01*
X163137415Y-78322404D01*
X163146415Y-78327404D01*
X163155415Y-78331404D01*
X163163415Y-78337404D01*
X163172415Y-78342404D01*
X163180415Y-78348404D01*
X163187415Y-78355404D01*
X163194415Y-78362404D01*
X163201415Y-78369404D01*
X163208415Y-78376404D01*
X163214415Y-78384404D01*
X163219415Y-78393404D01*
X163225415Y-78401404D01*
X163229415Y-78410404D01*
X163234415Y-78419404D01*
X163237415Y-78428404D01*
X163241415Y-78437404D01*
X163244415Y-78447404D01*
X163246415Y-78456404D01*
X163248415Y-78466404D01*
X163249415Y-78476404D01*
X163250415Y-78486404D01*
X163250415Y-78496404D01*
X163250415Y-78506404D01*
X163249415Y-78516404D01*
X163248415Y-78526404D01*
X163246415Y-78536404D01*
X163244415Y-78545404D01*
X163241415Y-78555404D01*
X163237415Y-78564404D01*
X163234415Y-78573404D01*
X163229415Y-78582404D01*
X163225415Y-78591404D01*
X163219415Y-78599404D01*
X163214415Y-78608404D01*
X163208415Y-78616404D01*
X163201415Y-78623404D01*
X163194415Y-78630404D01*
X163187415Y-78637404D01*
X163180415Y-78644404D01*
X163172415Y-78650404D01*
X163163415Y-78655404D01*
X163155415Y-78661404D01*
X163146415Y-78665404D01*
X163137415Y-78670404D01*
X163128415Y-78673404D01*
X163119415Y-78677404D01*
X163109415Y-78680404D01*
X163100415Y-78682404D01*
X163090415Y-78684404D01*
X163080415Y-78685404D01*
X163070415Y-78686404D01*
X163060415Y-78686404D01*
X162700415Y-78686404D01*
X162690415Y-78686404D01*
X162680415Y-78685404D01*
X162670415Y-78684404D01*
X162660415Y-78682404D01*
X162651415Y-78680404D01*
X162641415Y-78677404D01*
X162632415Y-78673404D01*
X162623415Y-78670404D01*
X162614415Y-78665404D01*
X162605415Y-78661404D01*
X162597415Y-78655404D01*
X162588415Y-78650404D01*
X162580415Y-78644404D01*
X162573415Y-78637404D01*
X162566415Y-78630404D01*
X162559415Y-78623404D01*
X162552415Y-78616404D01*
X162546415Y-78608404D01*
X162541415Y-78599404D01*
X162535415Y-78591404D01*
X162531415Y-78582404D01*
X162526415Y-78573404D01*
X162523415Y-78564404D01*
X162519415Y-78555404D01*
X162516415Y-78545404D01*
X162514415Y-78536404D01*
X162512415Y-78526404D01*
X162511415Y-78516404D01*
X162510415Y-78506404D01*
X162510415Y-78496404D01*
X162510415Y-78486404D01*
X162511415Y-78476404D01*
X162512415Y-78466404D01*
X162514415Y-78456404D01*
X162516415Y-78447404D01*
X162519415Y-78437404D01*
X162523415Y-78428404D01*
X162526415Y-78419404D01*
X162531415Y-78410404D01*
X162535415Y-78401404D01*
X162541415Y-78393404D01*
X162546415Y-78384404D01*
X162552415Y-78376404D01*
X162559415Y-78369404D01*
X162566415Y-78362404D01*
X162573415Y-78355404D01*
X162580415Y-78348404D01*
X162588415Y-78342404D01*
X162597415Y-78337404D01*
X162605415Y-78331404D01*
X162614415Y-78327404D01*
X162623415Y-78322404D01*
X162632415Y-78319404D01*
X162641415Y-78315404D01*
X162651415Y-78312404D01*
X162660415Y-78310404D01*
X162670415Y-78308404D01*
X162680415Y-78307404D01*
X162690415Y-78306404D01*
X162700415Y-78306404D01*
X163060415Y-78306404D01*
X163070415Y-78306404D01*
X163080415Y-78307404D01*
G36*
X163080415Y-78307404D02*
G01*
X163090415Y-78308404D01*
X163100415Y-78310404D01*
X163109415Y-78312404D01*
X163119415Y-78315404D01*
X163128415Y-78319404D01*
X163137415Y-78322404D01*
X163146415Y-78327404D01*
X163155415Y-78331404D01*
X163163415Y-78337404D01*
X163172415Y-78342404D01*
X163180415Y-78348404D01*
X163187415Y-78355404D01*
X163194415Y-78362404D01*
X163201415Y-78369404D01*
X163208415Y-78376404D01*
X163214415Y-78384404D01*
X163219415Y-78393404D01*
X163225415Y-78401404D01*
X163229415Y-78410404D01*
X163234415Y-78419404D01*
X163237415Y-78428404D01*
X163241415Y-78437404D01*
X163244415Y-78447404D01*
X163246415Y-78456404D01*
X163248415Y-78466404D01*
X163249415Y-78476404D01*
X163250415Y-78486404D01*
X163250415Y-78496404D01*
X163250415Y-78506404D01*
X163249415Y-78516404D01*
X163248415Y-78526404D01*
X163246415Y-78536404D01*
X163244415Y-78545404D01*
X163241415Y-78555404D01*
X163237415Y-78564404D01*
X163234415Y-78573404D01*
X163229415Y-78582404D01*
X163225415Y-78591404D01*
X163219415Y-78599404D01*
X163214415Y-78608404D01*
X163208415Y-78616404D01*
X163201415Y-78623404D01*
X163194415Y-78630404D01*
X163187415Y-78637404D01*
X163180415Y-78644404D01*
X163172415Y-78650404D01*
X163163415Y-78655404D01*
X163155415Y-78661404D01*
X163146415Y-78665404D01*
X163137415Y-78670404D01*
X163128415Y-78673404D01*
X163119415Y-78677404D01*
X163109415Y-78680404D01*
X163100415Y-78682404D01*
X163090415Y-78684404D01*
X163080415Y-78685404D01*
X163070415Y-78686404D01*
X163060415Y-78686404D01*
X162700415Y-78686404D01*
X162690415Y-78686404D01*
X162680415Y-78685404D01*
X162670415Y-78684404D01*
X162660415Y-78682404D01*
X162651415Y-78680404D01*
X162641415Y-78677404D01*
X162632415Y-78673404D01*
X162623415Y-78670404D01*
X162614415Y-78665404D01*
X162605415Y-78661404D01*
X162597415Y-78655404D01*
X162588415Y-78650404D01*
X162580415Y-78644404D01*
X162573415Y-78637404D01*
X162566415Y-78630404D01*
X162559415Y-78623404D01*
X162552415Y-78616404D01*
X162546415Y-78608404D01*
X162541415Y-78599404D01*
X162535415Y-78591404D01*
X162531415Y-78582404D01*
X162526415Y-78573404D01*
X162523415Y-78564404D01*
X162519415Y-78555404D01*
X162516415Y-78545404D01*
X162514415Y-78536404D01*
X162512415Y-78526404D01*
X162511415Y-78516404D01*
X162510415Y-78506404D01*
X162510415Y-78496404D01*
X162510415Y-78486404D01*
X162511415Y-78476404D01*
X162512415Y-78466404D01*
X162514415Y-78456404D01*
X162516415Y-78447404D01*
X162519415Y-78437404D01*
X162523415Y-78428404D01*
X162526415Y-78419404D01*
X162531415Y-78410404D01*
X162535415Y-78401404D01*
X162541415Y-78393404D01*
X162546415Y-78384404D01*
X162552415Y-78376404D01*
X162559415Y-78369404D01*
X162566415Y-78362404D01*
X162573415Y-78355404D01*
X162580415Y-78348404D01*
X162588415Y-78342404D01*
X162597415Y-78337404D01*
X162605415Y-78331404D01*
X162614415Y-78327404D01*
X162623415Y-78322404D01*
X162632415Y-78319404D01*
X162641415Y-78315404D01*
X162651415Y-78312404D01*
X162660415Y-78310404D01*
X162670415Y-78308404D01*
X162680415Y-78307404D01*
X162690415Y-78306404D01*
X162700415Y-78306404D01*
X163060415Y-78306404D01*
X163070415Y-78306404D01*
X163080415Y-78307404D01*
G37*
X163080415Y-78807404D02*
X163090415Y-78808404D01*
X163100415Y-78810404D01*
X163109415Y-78812404D01*
X163119415Y-78815404D01*
X163128415Y-78819404D01*
X163137415Y-78822404D01*
X163146415Y-78827404D01*
X163155415Y-78831404D01*
X163163415Y-78837404D01*
X163172415Y-78842404D01*
X163180415Y-78848404D01*
X163187415Y-78855404D01*
X163194415Y-78862404D01*
X163201415Y-78869404D01*
X163208415Y-78876404D01*
X163214415Y-78884404D01*
X163219415Y-78893404D01*
X163225415Y-78901404D01*
X163229415Y-78910404D01*
X163234415Y-78919404D01*
X163237415Y-78928404D01*
X163241415Y-78937404D01*
X163244415Y-78947404D01*
X163246415Y-78956404D01*
X163248415Y-78966404D01*
X163249415Y-78976404D01*
X163250415Y-78986404D01*
X163250415Y-78996404D01*
X163250415Y-79006404D01*
X163249415Y-79016404D01*
X163248415Y-79026404D01*
X163246415Y-79036404D01*
X163244415Y-79045404D01*
X163241415Y-79055404D01*
X163237415Y-79064404D01*
X163234415Y-79073404D01*
X163229415Y-79082404D01*
X163225415Y-79091404D01*
X163219415Y-79099404D01*
X163214415Y-79108404D01*
X163208415Y-79116404D01*
X163201415Y-79123404D01*
X163194415Y-79130404D01*
X163187415Y-79137404D01*
X163180415Y-79144404D01*
X163172415Y-79150404D01*
X163163415Y-79155404D01*
X163155415Y-79161404D01*
X163146415Y-79165404D01*
X163137415Y-79170404D01*
X163128415Y-79173404D01*
X163119415Y-79177404D01*
X163109415Y-79180404D01*
X163100415Y-79182404D01*
X163090415Y-79184404D01*
X163080415Y-79185404D01*
X163070415Y-79186404D01*
X163060415Y-79186404D01*
X162700415Y-79186404D01*
X162690415Y-79186404D01*
X162680415Y-79185404D01*
X162670415Y-79184404D01*
X162660415Y-79182404D01*
X162651415Y-79180404D01*
X162641415Y-79177404D01*
X162632415Y-79173404D01*
X162623415Y-79170404D01*
X162614415Y-79165404D01*
X162605415Y-79161404D01*
X162597415Y-79155404D01*
X162588415Y-79150404D01*
X162580415Y-79144404D01*
X162573415Y-79137404D01*
X162566415Y-79130404D01*
X162559415Y-79123404D01*
X162552415Y-79116404D01*
X162546415Y-79108404D01*
X162541415Y-79099404D01*
X162535415Y-79091404D01*
X162531415Y-79082404D01*
X162526415Y-79073404D01*
X162523415Y-79064404D01*
X162519415Y-79055404D01*
X162516415Y-79045404D01*
X162514415Y-79036404D01*
X162512415Y-79026404D01*
X162511415Y-79016404D01*
X162510415Y-79006404D01*
X162510415Y-78996404D01*
X162510415Y-78986404D01*
X162511415Y-78976404D01*
X162512415Y-78966404D01*
X162514415Y-78956404D01*
X162516415Y-78947404D01*
X162519415Y-78937404D01*
X162523415Y-78928404D01*
X162526415Y-78919404D01*
X162531415Y-78910404D01*
X162535415Y-78901404D01*
X162541415Y-78893404D01*
X162546415Y-78884404D01*
X162552415Y-78876404D01*
X162559415Y-78869404D01*
X162566415Y-78862404D01*
X162573415Y-78855404D01*
X162580415Y-78848404D01*
X162588415Y-78842404D01*
X162597415Y-78837404D01*
X162605415Y-78831404D01*
X162614415Y-78827404D01*
X162623415Y-78822404D01*
X162632415Y-78819404D01*
X162641415Y-78815404D01*
X162651415Y-78812404D01*
X162660415Y-78810404D01*
X162670415Y-78808404D01*
X162680415Y-78807404D01*
X162690415Y-78806404D01*
X162700415Y-78806404D01*
X163060415Y-78806404D01*
X163070415Y-78806404D01*
X163080415Y-78807404D01*
G36*
X163080415Y-78807404D02*
G01*
X163090415Y-78808404D01*
X163100415Y-78810404D01*
X163109415Y-78812404D01*
X163119415Y-78815404D01*
X163128415Y-78819404D01*
X163137415Y-78822404D01*
X163146415Y-78827404D01*
X163155415Y-78831404D01*
X163163415Y-78837404D01*
X163172415Y-78842404D01*
X163180415Y-78848404D01*
X163187415Y-78855404D01*
X163194415Y-78862404D01*
X163201415Y-78869404D01*
X163208415Y-78876404D01*
X163214415Y-78884404D01*
X163219415Y-78893404D01*
X163225415Y-78901404D01*
X163229415Y-78910404D01*
X163234415Y-78919404D01*
X163237415Y-78928404D01*
X163241415Y-78937404D01*
X163244415Y-78947404D01*
X163246415Y-78956404D01*
X163248415Y-78966404D01*
X163249415Y-78976404D01*
X163250415Y-78986404D01*
X163250415Y-78996404D01*
X163250415Y-79006404D01*
X163249415Y-79016404D01*
X163248415Y-79026404D01*
X163246415Y-79036404D01*
X163244415Y-79045404D01*
X163241415Y-79055404D01*
X163237415Y-79064404D01*
X163234415Y-79073404D01*
X163229415Y-79082404D01*
X163225415Y-79091404D01*
X163219415Y-79099404D01*
X163214415Y-79108404D01*
X163208415Y-79116404D01*
X163201415Y-79123404D01*
X163194415Y-79130404D01*
X163187415Y-79137404D01*
X163180415Y-79144404D01*
X163172415Y-79150404D01*
X163163415Y-79155404D01*
X163155415Y-79161404D01*
X163146415Y-79165404D01*
X163137415Y-79170404D01*
X163128415Y-79173404D01*
X163119415Y-79177404D01*
X163109415Y-79180404D01*
X163100415Y-79182404D01*
X163090415Y-79184404D01*
X163080415Y-79185404D01*
X163070415Y-79186404D01*
X163060415Y-79186404D01*
X162700415Y-79186404D01*
X162690415Y-79186404D01*
X162680415Y-79185404D01*
X162670415Y-79184404D01*
X162660415Y-79182404D01*
X162651415Y-79180404D01*
X162641415Y-79177404D01*
X162632415Y-79173404D01*
X162623415Y-79170404D01*
X162614415Y-79165404D01*
X162605415Y-79161404D01*
X162597415Y-79155404D01*
X162588415Y-79150404D01*
X162580415Y-79144404D01*
X162573415Y-79137404D01*
X162566415Y-79130404D01*
X162559415Y-79123404D01*
X162552415Y-79116404D01*
X162546415Y-79108404D01*
X162541415Y-79099404D01*
X162535415Y-79091404D01*
X162531415Y-79082404D01*
X162526415Y-79073404D01*
X162523415Y-79064404D01*
X162519415Y-79055404D01*
X162516415Y-79045404D01*
X162514415Y-79036404D01*
X162512415Y-79026404D01*
X162511415Y-79016404D01*
X162510415Y-79006404D01*
X162510415Y-78996404D01*
X162510415Y-78986404D01*
X162511415Y-78976404D01*
X162512415Y-78966404D01*
X162514415Y-78956404D01*
X162516415Y-78947404D01*
X162519415Y-78937404D01*
X162523415Y-78928404D01*
X162526415Y-78919404D01*
X162531415Y-78910404D01*
X162535415Y-78901404D01*
X162541415Y-78893404D01*
X162546415Y-78884404D01*
X162552415Y-78876404D01*
X162559415Y-78869404D01*
X162566415Y-78862404D01*
X162573415Y-78855404D01*
X162580415Y-78848404D01*
X162588415Y-78842404D01*
X162597415Y-78837404D01*
X162605415Y-78831404D01*
X162614415Y-78827404D01*
X162623415Y-78822404D01*
X162632415Y-78819404D01*
X162641415Y-78815404D01*
X162651415Y-78812404D01*
X162660415Y-78810404D01*
X162670415Y-78808404D01*
X162680415Y-78807404D01*
X162690415Y-78806404D01*
X162700415Y-78806404D01*
X163060415Y-78806404D01*
X163070415Y-78806404D01*
X163080415Y-78807404D01*
G37*
%TO.C,JP3*%
G36*
X117400000Y-99512500D02*
G01*
X118900000Y-99512500D01*
X118900000Y-99812500D01*
X117400000Y-99812500D01*
X117400000Y-99512500D01*
G37*
%TD*%
D11*
%TO.C,H4*%
X176600000Y-115000000D03*
%TD*%
%TO.C,H1*%
X176600000Y-68000000D03*
%TD*%
D12*
%TO.C,J2*%
X124050000Y-72100000D03*
X124050000Y-84900000D03*
%TD*%
D13*
%TO.C,J5*%
X130315000Y-65950800D03*
D14*
X127775000Y-65950800D03*
X125235000Y-65950800D03*
%TD*%
D15*
%TO.C,J6*%
X160320000Y-70500000D03*
X160320000Y-66700000D03*
X151680000Y-70500000D03*
X151680000Y-66700000D03*
%TD*%
D11*
%TO.C,H3*%
X119000000Y-115000000D03*
%TD*%
%TO.C,H2*%
X119000000Y-68000000D03*
%TD*%
D13*
%TO.C,J4*%
X139180000Y-65950800D03*
D14*
X136640000Y-65950800D03*
X134100000Y-65950800D03*
%TD*%
D16*
%TO.C,C61*%
X140287500Y-97000000D03*
X138212500Y-97000000D03*
%TD*%
D17*
%TO.C,L1*%
X162205415Y-81996404D03*
X160755415Y-81996404D03*
%TD*%
D18*
%TO.C,R5*%
X168500000Y-86012500D03*
X168500000Y-84187500D03*
%TD*%
D19*
%TO.C,C78*%
X149300000Y-86000000D03*
X149300000Y-87725000D03*
%TD*%
D20*
%TO.C,Y4*%
X155550000Y-100100000D03*
X157250000Y-100100000D03*
X157250000Y-101400000D03*
X155550000Y-101400000D03*
%TD*%
D21*
%TO.C,TP4*%
X132600000Y-81200000D03*
%TD*%
%TO.C,TP22*%
X149883476Y-76312500D03*
%TD*%
D22*
%TO.C,JP6*%
X149483476Y-73312500D03*
X150783476Y-73312500D03*
%TD*%
D23*
%TO.C,C45*%
X136750000Y-93225000D03*
X136750000Y-91500000D03*
%TD*%
D24*
%TO.C,R9*%
X161925000Y-105100000D03*
X160100000Y-105100000D03*
%TD*%
D25*
%TO.C,C36*%
X133250000Y-104062500D03*
X133250000Y-106137500D03*
%TD*%
%TO.C,C66*%
X147133476Y-74275000D03*
X147133476Y-76350000D03*
%TD*%
D26*
%TO.C,C41*%
X155537500Y-103000000D03*
X157262500Y-103000000D03*
%TD*%
D27*
%TO.C,C35*%
X136562500Y-111150000D03*
X136562500Y-109075000D03*
%TD*%
D28*
%TO.C,Y2*%
X164550000Y-90050000D03*
X170850000Y-90050000D03*
X170850000Y-90950000D03*
X164550000Y-90950000D03*
%TD*%
D25*
%TO.C,C72*%
X167730415Y-77671404D03*
X167730415Y-79746404D03*
%TD*%
D26*
%TO.C,C2*%
X163117915Y-73208904D03*
X164842915Y-73208904D03*
%TD*%
D25*
%TO.C,C54*%
X118350000Y-94862500D03*
X118350000Y-96937500D03*
%TD*%
D16*
%TO.C,C19*%
X152387500Y-101250000D03*
X150312500Y-101250000D03*
%TD*%
D25*
%TO.C,C3*%
X157480415Y-77671404D03*
X157480415Y-79746404D03*
%TD*%
%TO.C,C43*%
X127850000Y-89462500D03*
X127850000Y-91537500D03*
%TD*%
D21*
%TO.C,TP10*%
X155400000Y-86000000D03*
%TD*%
D19*
%TO.C,C14*%
X152300000Y-89975000D03*
X152300000Y-91700000D03*
%TD*%
D25*
%TO.C,C63*%
X123750000Y-89462500D03*
X123750000Y-91537500D03*
%TD*%
D21*
%TO.C,TP6*%
X144000000Y-96500000D03*
%TD*%
D25*
%TO.C,C65*%
X145133476Y-74275000D03*
X145133476Y-76350000D03*
%TD*%
D21*
%TO.C,TP20*%
X131442500Y-113400000D03*
%TD*%
D29*
%TO.C,C5*%
X136912500Y-103950000D03*
X135187500Y-103950000D03*
%TD*%
D21*
%TO.C,TP8*%
X142442500Y-98650000D03*
%TD*%
D30*
%TO.C,R15*%
X140550000Y-92887500D03*
X140550000Y-94712500D03*
%TD*%
D21*
%TO.C,TP23*%
X144383476Y-67850000D03*
%TD*%
D27*
%TO.C,C58*%
X137762500Y-102287500D03*
X137762500Y-100212500D03*
%TD*%
D21*
%TO.C,TP24*%
X168980415Y-71246404D03*
%TD*%
D27*
%TO.C,C44*%
X138650000Y-91237500D03*
X138650000Y-89162500D03*
%TD*%
D26*
%TO.C,C38*%
X164587500Y-88250000D03*
X166312500Y-88250000D03*
%TD*%
D25*
%TO.C,C70*%
X169730415Y-77671404D03*
X169730415Y-79746404D03*
%TD*%
D27*
%TO.C,C50*%
X139792500Y-102287500D03*
X139792500Y-100212500D03*
%TD*%
D19*
%TO.C,C77*%
X159900000Y-101837500D03*
X159900000Y-103562500D03*
%TD*%
D31*
%TO.C,JP7*%
X154900000Y-82300000D03*
X154900000Y-83600000D03*
%TD*%
D19*
%TO.C,C55*%
X128050000Y-94037500D03*
X128050000Y-95762500D03*
%TD*%
D25*
%TO.C,C68*%
X165730415Y-77671404D03*
X165730415Y-79746404D03*
%TD*%
D21*
%TO.C,TP16*%
X122942500Y-109400000D03*
%TD*%
D32*
%TO.C,R14*%
X131400000Y-111012500D03*
X134325000Y-111012500D03*
%TD*%
D21*
%TO.C,TP15*%
X164200000Y-102500000D03*
%TD*%
D33*
%TO.C,L9*%
X132250000Y-91050000D03*
X132250000Y-85550000D03*
%TD*%
D21*
%TO.C,TP31*%
X156000000Y-88900000D03*
%TD*%
%TO.C,TP5*%
X156000000Y-72400000D03*
%TD*%
D29*
%TO.C,C20*%
X151962500Y-98000000D03*
X150237500Y-98000000D03*
%TD*%
D24*
%TO.C,R26*%
X145295976Y-71812500D03*
X143470976Y-71812500D03*
%TD*%
D26*
%TO.C,C40*%
X155537500Y-98500000D03*
X157262500Y-98500000D03*
%TD*%
D22*
%TO.C,JP2*%
X121700000Y-92162500D03*
X120400000Y-92162500D03*
%TD*%
D30*
%TO.C,R1*%
X162450000Y-89587500D03*
X162450000Y-91412500D03*
%TD*%
D24*
%TO.C,R24*%
X169892915Y-75208904D03*
X168067915Y-75208904D03*
%TD*%
D18*
%TO.C,R6*%
X165500000Y-86012500D03*
X165500000Y-84187500D03*
%TD*%
D21*
%TO.C,TP32*%
X144200000Y-109600000D03*
%TD*%
%TO.C,TP14*%
X156700000Y-107200000D03*
%TD*%
D29*
%TO.C,C21*%
X151962500Y-99500000D03*
X150237500Y-99500000D03*
%TD*%
D34*
%TO.C,R22*%
X120780000Y-107150000D03*
X122605000Y-107150000D03*
%TD*%
D26*
%TO.C,C39*%
X164587500Y-92500000D03*
X166312500Y-92500000D03*
%TD*%
D23*
%TO.C,C48*%
X138950000Y-94662500D03*
X138950000Y-92937500D03*
%TD*%
D25*
%TO.C,C53*%
X141133476Y-74275000D03*
X141133476Y-76350000D03*
%TD*%
D29*
%TO.C,C57*%
X135112500Y-92900000D03*
X133387500Y-92900000D03*
%TD*%
%TO.C,C24*%
X151962500Y-96500000D03*
X150237500Y-96500000D03*
%TD*%
D30*
%TO.C,R30*%
X147800000Y-85950000D03*
X147800000Y-87775000D03*
%TD*%
D18*
%TO.C,R27*%
X141883476Y-71725000D03*
X141883476Y-69900000D03*
%TD*%
D25*
%TO.C,C62*%
X125800000Y-89462500D03*
X125800000Y-91537500D03*
%TD*%
D19*
%TO.C,C79*%
X150800000Y-86000000D03*
X150800000Y-87725000D03*
%TD*%
D22*
%TO.C,JP5*%
X174080415Y-76708904D03*
X175380415Y-76708904D03*
%TD*%
D25*
%TO.C,C69*%
X171730415Y-77671404D03*
X171730415Y-79746404D03*
%TD*%
%TO.C,C51*%
X132883476Y-74275000D03*
X132883476Y-76350000D03*
%TD*%
D27*
%TO.C,C71*%
X171730415Y-75746404D03*
X171730415Y-73671404D03*
%TD*%
D16*
%TO.C,C56*%
X134887500Y-83500000D03*
X132812500Y-83500000D03*
%TD*%
D18*
%TO.C,R2*%
X171500000Y-86012500D03*
X171500000Y-84187500D03*
%TD*%
D35*
%TO.C,C74*%
X120555000Y-103450000D03*
X122630000Y-103450000D03*
%TD*%
D21*
%TO.C,TP19*%
X142500000Y-89500000D03*
%TD*%
D22*
%TO.C,JP4*%
X130342500Y-83300000D03*
X129042500Y-83300000D03*
%TD*%
D16*
%TO.C,C6*%
X128900000Y-111312500D03*
X126825000Y-111312500D03*
%TD*%
D30*
%TO.C,R18*%
X157000000Y-82487500D03*
X157000000Y-84312500D03*
%TD*%
D17*
%TO.C,L2*%
X137608476Y-78600000D03*
X136158476Y-78600000D03*
%TD*%
D36*
%TO.C,L5*%
X128892500Y-103750000D03*
X128892500Y-109250000D03*
%TD*%
D19*
%TO.C,C49*%
X142150000Y-92937500D03*
X142150000Y-94662500D03*
%TD*%
D27*
%TO.C,C42*%
X127750000Y-101437500D03*
X127750000Y-99362500D03*
%TD*%
D31*
%TO.C,JP1*%
X145100000Y-98750000D03*
X145100000Y-100050000D03*
%TD*%
D21*
%TO.C,TP2*%
X142000000Y-103500000D03*
%TD*%
D37*
%TO.C,L8*%
X126100000Y-97000000D03*
X120600000Y-97000000D03*
%TD*%
D21*
%TO.C,TP21*%
X174480415Y-79708904D03*
%TD*%
D31*
%TO.C,JP3*%
X118150000Y-99012500D03*
X118150000Y-100312500D03*
%TD*%
D19*
%TO.C,C15*%
X159800000Y-93937500D03*
X159800000Y-95662500D03*
%TD*%
D26*
%TO.C,C80*%
X158637500Y-84300000D03*
X160362500Y-84300000D03*
%TD*%
D18*
%TO.C,R4*%
X167000000Y-86012500D03*
X167000000Y-84187500D03*
%TD*%
D35*
%TO.C,C73*%
X120525000Y-101412500D03*
X122600000Y-101412500D03*
%TD*%
D38*
%TO.C,U1*%
X130000000Y-100300000D03*
X130000000Y-99900000D03*
X130000000Y-99500000D03*
X130000000Y-99100000D03*
X130000000Y-98700000D03*
X130000000Y-98300000D03*
X130000000Y-97900000D03*
X130000000Y-97500000D03*
X130000000Y-97100000D03*
X130000000Y-96700000D03*
X130000000Y-96300000D03*
X130000000Y-95900000D03*
D39*
X130750000Y-95150000D03*
X131150000Y-95150000D03*
X131550000Y-95150000D03*
X131950000Y-95150000D03*
X132350000Y-95150000D03*
X132750000Y-95150000D03*
X133150000Y-95150000D03*
X133550000Y-95150000D03*
X133950000Y-95150000D03*
X134350000Y-95150000D03*
X134750000Y-95150000D03*
X135150000Y-95150000D03*
D38*
X135900000Y-95900000D03*
X135900000Y-96300000D03*
X135900000Y-96700000D03*
X135900000Y-97100000D03*
X135900000Y-97500000D03*
X135900000Y-97900000D03*
X135900000Y-98300000D03*
X135900000Y-98700000D03*
X135900000Y-99100000D03*
X135900000Y-99500000D03*
X135900000Y-99900000D03*
X135900000Y-100300000D03*
D39*
X135150000Y-101050000D03*
X134750000Y-101050000D03*
X134350000Y-101050000D03*
X133950000Y-101050000D03*
X133550000Y-101050000D03*
X133150000Y-101050000D03*
X132750000Y-101050000D03*
X132350000Y-101050000D03*
X131950000Y-101050000D03*
X131550000Y-101050000D03*
X131150000Y-101050000D03*
X130750000Y-101050000D03*
D40*
X132950000Y-98100000D03*
%TD*%
D26*
%TO.C,C52*%
X138520976Y-69812500D03*
X140245976Y-69812500D03*
%TD*%
D34*
%TO.C,R10*%
X160100000Y-106600000D03*
X161925000Y-106600000D03*
%TD*%
D25*
%TO.C,C64*%
X143133476Y-74275000D03*
X143133476Y-76350000D03*
%TD*%
D34*
%TO.C,R23*%
X120780000Y-105650000D03*
X122605000Y-105650000D03*
%TD*%
%TO.C,R11*%
X162187500Y-100100000D03*
X164012500Y-100100000D03*
%TD*%
D18*
%TO.C,R25*%
X166480415Y-75121404D03*
X166480415Y-73296404D03*
%TD*%
D21*
%TO.C,TP3*%
X118100000Y-90200000D03*
%TD*%
D18*
%TO.C,R3*%
X170000000Y-86012500D03*
X170000000Y-84187500D03*
%TD*%
D27*
%TO.C,C67*%
X147133476Y-72350000D03*
X147133476Y-70275000D03*
%TD*%
D21*
%TO.C,TP7*%
X121192500Y-89150000D03*
%TD*%
M02*
