%TF.GenerationSoftware,KiCad,Pcbnew,9.0.6*%
%TF.CreationDate,2025-11-11T20:17:46-05:00*%
%TF.ProjectId,CameraPCB,43616d65-7261-4504-9342-2e6b69636164,rev?*%
%TF.SameCoordinates,Original*%
%TF.FileFunction,Legend,Top*%
%TF.FilePolarity,Positive*%
%FSLAX46Y46*%
G04 Gerber Fmt 4.6, Leading zero omitted, Abs format (unit mm)*
G04 Created by KiCad (PCBNEW 9.0.6) date 2025-11-11 20:17:46*
%MOMM*%
%LPD*%
G01*
G04 APERTURE LIST*
%ADD10C,0.127000*%
%ADD11C,0.200000*%
%ADD12C,0.120000*%
%ADD13C,0.100000*%
G04 APERTURE END LIST*
D10*
X127283911Y-70432408D02*
X127900768Y-70432408D01*
X127900768Y-70432408D02*
X127973340Y-70396122D01*
X127973340Y-70396122D02*
X128009626Y-70359837D01*
X128009626Y-70359837D02*
X128045911Y-70287265D01*
X128045911Y-70287265D02*
X128045911Y-70142122D01*
X128045911Y-70142122D02*
X128009626Y-70069551D01*
X128009626Y-70069551D02*
X127973340Y-70033265D01*
X127973340Y-70033265D02*
X127900768Y-69996979D01*
X127900768Y-69996979D02*
X127283911Y-69996979D01*
X127356483Y-69670408D02*
X127320197Y-69634122D01*
X127320197Y-69634122D02*
X127283911Y-69561551D01*
X127283911Y-69561551D02*
X127283911Y-69380122D01*
X127283911Y-69380122D02*
X127320197Y-69307551D01*
X127320197Y-69307551D02*
X127356483Y-69271265D01*
X127356483Y-69271265D02*
X127429054Y-69234979D01*
X127429054Y-69234979D02*
X127501626Y-69234979D01*
X127501626Y-69234979D02*
X127610483Y-69271265D01*
X127610483Y-69271265D02*
X128045911Y-69706693D01*
X128045911Y-69706693D02*
X128045911Y-69234979D01*
X127283911Y-69017265D02*
X127283911Y-68581837D01*
X128045911Y-68799551D02*
X127283911Y-68799551D01*
X127283911Y-68400408D02*
X128045911Y-67892408D01*
X127283911Y-67892408D02*
X128045911Y-68400408D01*
X136383911Y-70432408D02*
X137000768Y-70432408D01*
X137000768Y-70432408D02*
X137073340Y-70396122D01*
X137073340Y-70396122D02*
X137109626Y-70359837D01*
X137109626Y-70359837D02*
X137145911Y-70287265D01*
X137145911Y-70287265D02*
X137145911Y-70142122D01*
X137145911Y-70142122D02*
X137109626Y-70069551D01*
X137109626Y-70069551D02*
X137073340Y-70033265D01*
X137073340Y-70033265D02*
X137000768Y-69996979D01*
X137000768Y-69996979D02*
X136383911Y-69996979D01*
X136383911Y-69488979D02*
X136383911Y-69416408D01*
X136383911Y-69416408D02*
X136420197Y-69343836D01*
X136420197Y-69343836D02*
X136456483Y-69307551D01*
X136456483Y-69307551D02*
X136529054Y-69271265D01*
X136529054Y-69271265D02*
X136674197Y-69234979D01*
X136674197Y-69234979D02*
X136855626Y-69234979D01*
X136855626Y-69234979D02*
X137000768Y-69271265D01*
X137000768Y-69271265D02*
X137073340Y-69307551D01*
X137073340Y-69307551D02*
X137109626Y-69343836D01*
X137109626Y-69343836D02*
X137145911Y-69416408D01*
X137145911Y-69416408D02*
X137145911Y-69488979D01*
X137145911Y-69488979D02*
X137109626Y-69561551D01*
X137109626Y-69561551D02*
X137073340Y-69597836D01*
X137073340Y-69597836D02*
X137000768Y-69634122D01*
X137000768Y-69634122D02*
X136855626Y-69670408D01*
X136855626Y-69670408D02*
X136674197Y-69670408D01*
X136674197Y-69670408D02*
X136529054Y-69634122D01*
X136529054Y-69634122D02*
X136456483Y-69597836D01*
X136456483Y-69597836D02*
X136420197Y-69561551D01*
X136420197Y-69561551D02*
X136383911Y-69488979D01*
X136383911Y-69017265D02*
X136383911Y-68581837D01*
X137145911Y-68799551D02*
X136383911Y-68799551D01*
X136383911Y-68400408D02*
X137145911Y-67892408D01*
X136383911Y-67892408D02*
X137145911Y-68400408D01*
X133720197Y-69525266D02*
X133683911Y-69597838D01*
X133683911Y-69597838D02*
X133683911Y-69706695D01*
X133683911Y-69706695D02*
X133720197Y-69815552D01*
X133720197Y-69815552D02*
X133792768Y-69888123D01*
X133792768Y-69888123D02*
X133865340Y-69924409D01*
X133865340Y-69924409D02*
X134010483Y-69960695D01*
X134010483Y-69960695D02*
X134119340Y-69960695D01*
X134119340Y-69960695D02*
X134264483Y-69924409D01*
X134264483Y-69924409D02*
X134337054Y-69888123D01*
X134337054Y-69888123D02*
X134409626Y-69815552D01*
X134409626Y-69815552D02*
X134445911Y-69706695D01*
X134445911Y-69706695D02*
X134445911Y-69634123D01*
X134445911Y-69634123D02*
X134409626Y-69525266D01*
X134409626Y-69525266D02*
X134373340Y-69488980D01*
X134373340Y-69488980D02*
X134119340Y-69488980D01*
X134119340Y-69488980D02*
X134119340Y-69634123D01*
X134445911Y-69162409D02*
X133683911Y-69162409D01*
X133683911Y-69162409D02*
X134445911Y-68726980D01*
X134445911Y-68726980D02*
X133683911Y-68726980D01*
X134445911Y-68364123D02*
X133683911Y-68364123D01*
X133683911Y-68364123D02*
X133683911Y-68182694D01*
X133683911Y-68182694D02*
X133720197Y-68073837D01*
X133720197Y-68073837D02*
X133792768Y-68001266D01*
X133792768Y-68001266D02*
X133865340Y-67964980D01*
X133865340Y-67964980D02*
X134010483Y-67928694D01*
X134010483Y-67928694D02*
X134119340Y-67928694D01*
X134119340Y-67928694D02*
X134264483Y-67964980D01*
X134264483Y-67964980D02*
X134337054Y-68001266D01*
X134337054Y-68001266D02*
X134409626Y-68073837D01*
X134409626Y-68073837D02*
X134445911Y-68182694D01*
X134445911Y-68182694D02*
X134445911Y-68364123D01*
X124920197Y-69525266D02*
X124883911Y-69597838D01*
X124883911Y-69597838D02*
X124883911Y-69706695D01*
X124883911Y-69706695D02*
X124920197Y-69815552D01*
X124920197Y-69815552D02*
X124992768Y-69888123D01*
X124992768Y-69888123D02*
X125065340Y-69924409D01*
X125065340Y-69924409D02*
X125210483Y-69960695D01*
X125210483Y-69960695D02*
X125319340Y-69960695D01*
X125319340Y-69960695D02*
X125464483Y-69924409D01*
X125464483Y-69924409D02*
X125537054Y-69888123D01*
X125537054Y-69888123D02*
X125609626Y-69815552D01*
X125609626Y-69815552D02*
X125645911Y-69706695D01*
X125645911Y-69706695D02*
X125645911Y-69634123D01*
X125645911Y-69634123D02*
X125609626Y-69525266D01*
X125609626Y-69525266D02*
X125573340Y-69488980D01*
X125573340Y-69488980D02*
X125319340Y-69488980D01*
X125319340Y-69488980D02*
X125319340Y-69634123D01*
X125645911Y-69162409D02*
X124883911Y-69162409D01*
X124883911Y-69162409D02*
X125645911Y-68726980D01*
X125645911Y-68726980D02*
X124883911Y-68726980D01*
X125645911Y-68364123D02*
X124883911Y-68364123D01*
X124883911Y-68364123D02*
X124883911Y-68182694D01*
X124883911Y-68182694D02*
X124920197Y-68073837D01*
X124920197Y-68073837D02*
X124992768Y-68001266D01*
X124992768Y-68001266D02*
X125065340Y-67964980D01*
X125065340Y-67964980D02*
X125210483Y-67928694D01*
X125210483Y-67928694D02*
X125319340Y-67928694D01*
X125319340Y-67928694D02*
X125464483Y-67964980D01*
X125464483Y-67964980D02*
X125537054Y-68001266D01*
X125537054Y-68001266D02*
X125609626Y-68073837D01*
X125609626Y-68073837D02*
X125645911Y-68182694D01*
X125645911Y-68182694D02*
X125645911Y-68364123D01*
D11*
X116161904Y-106037387D02*
X116161904Y-105037387D01*
X116161904Y-105037387D02*
X116542856Y-105037387D01*
X116542856Y-105037387D02*
X116638094Y-105085006D01*
X116638094Y-105085006D02*
X116685713Y-105132625D01*
X116685713Y-105132625D02*
X116733332Y-105227863D01*
X116733332Y-105227863D02*
X116733332Y-105370720D01*
X116733332Y-105370720D02*
X116685713Y-105465958D01*
X116685713Y-105465958D02*
X116638094Y-105513577D01*
X116638094Y-105513577D02*
X116542856Y-105561196D01*
X116542856Y-105561196D02*
X116161904Y-105561196D01*
X117590475Y-105370720D02*
X117590475Y-106037387D01*
X117161904Y-105370720D02*
X117161904Y-105894529D01*
X117161904Y-105894529D02*
X117209523Y-105989768D01*
X117209523Y-105989768D02*
X117304761Y-106037387D01*
X117304761Y-106037387D02*
X117447618Y-106037387D01*
X117447618Y-106037387D02*
X117542856Y-105989768D01*
X117542856Y-105989768D02*
X117590475Y-105942148D01*
X118066666Y-106037387D02*
X118066666Y-105370720D01*
X118066666Y-105561196D02*
X118114285Y-105465958D01*
X118114285Y-105465958D02*
X118161904Y-105418339D01*
X118161904Y-105418339D02*
X118257142Y-105370720D01*
X118257142Y-105370720D02*
X118352380Y-105370720D01*
X119114285Y-106037387D02*
X119114285Y-105037387D01*
X119114285Y-105989768D02*
X119019047Y-106037387D01*
X119019047Y-106037387D02*
X118828571Y-106037387D01*
X118828571Y-106037387D02*
X118733333Y-105989768D01*
X118733333Y-105989768D02*
X118685714Y-105942148D01*
X118685714Y-105942148D02*
X118638095Y-105846910D01*
X118638095Y-105846910D02*
X118638095Y-105561196D01*
X118638095Y-105561196D02*
X118685714Y-105465958D01*
X118685714Y-105465958D02*
X118733333Y-105418339D01*
X118733333Y-105418339D02*
X118828571Y-105370720D01*
X118828571Y-105370720D02*
X119019047Y-105370720D01*
X119019047Y-105370720D02*
X119114285Y-105418339D01*
X120019047Y-105370720D02*
X120019047Y-106037387D01*
X119590476Y-105370720D02*
X119590476Y-105894529D01*
X119590476Y-105894529D02*
X119638095Y-105989768D01*
X119638095Y-105989768D02*
X119733333Y-106037387D01*
X119733333Y-106037387D02*
X119876190Y-106037387D01*
X119876190Y-106037387D02*
X119971428Y-105989768D01*
X119971428Y-105989768D02*
X120019047Y-105942148D01*
X120876190Y-105989768D02*
X120780952Y-106037387D01*
X120780952Y-106037387D02*
X120590476Y-106037387D01*
X120590476Y-106037387D02*
X120495238Y-105989768D01*
X120495238Y-105989768D02*
X120447619Y-105894529D01*
X120447619Y-105894529D02*
X120447619Y-105513577D01*
X120447619Y-105513577D02*
X120495238Y-105418339D01*
X120495238Y-105418339D02*
X120590476Y-105370720D01*
X120590476Y-105370720D02*
X120780952Y-105370720D01*
X120780952Y-105370720D02*
X120876190Y-105418339D01*
X120876190Y-105418339D02*
X120923809Y-105513577D01*
X120923809Y-105513577D02*
X120923809Y-105608815D01*
X120923809Y-105608815D02*
X120447619Y-105704053D01*
X122114286Y-105513577D02*
X122447619Y-105513577D01*
X122590476Y-106037387D02*
X122114286Y-106037387D01*
X122114286Y-106037387D02*
X122114286Y-105037387D01*
X122114286Y-105037387D02*
X122590476Y-105037387D01*
X123590476Y-105942148D02*
X123542857Y-105989768D01*
X123542857Y-105989768D02*
X123400000Y-106037387D01*
X123400000Y-106037387D02*
X123304762Y-106037387D01*
X123304762Y-106037387D02*
X123161905Y-105989768D01*
X123161905Y-105989768D02*
X123066667Y-105894529D01*
X123066667Y-105894529D02*
X123019048Y-105799291D01*
X123019048Y-105799291D02*
X122971429Y-105608815D01*
X122971429Y-105608815D02*
X122971429Y-105465958D01*
X122971429Y-105465958D02*
X123019048Y-105275482D01*
X123019048Y-105275482D02*
X123066667Y-105180244D01*
X123066667Y-105180244D02*
X123161905Y-105085006D01*
X123161905Y-105085006D02*
X123304762Y-105037387D01*
X123304762Y-105037387D02*
X123400000Y-105037387D01*
X123400000Y-105037387D02*
X123542857Y-105085006D01*
X123542857Y-105085006D02*
X123590476Y-105132625D01*
X124019048Y-105513577D02*
X124352381Y-105513577D01*
X124495238Y-106037387D02*
X124019048Y-106037387D01*
X124019048Y-106037387D02*
X124019048Y-105037387D01*
X124019048Y-105037387D02*
X124495238Y-105037387D01*
X125638096Y-105989768D02*
X125780953Y-106037387D01*
X125780953Y-106037387D02*
X126019048Y-106037387D01*
X126019048Y-106037387D02*
X126114286Y-105989768D01*
X126114286Y-105989768D02*
X126161905Y-105942148D01*
X126161905Y-105942148D02*
X126209524Y-105846910D01*
X126209524Y-105846910D02*
X126209524Y-105751672D01*
X126209524Y-105751672D02*
X126161905Y-105656434D01*
X126161905Y-105656434D02*
X126114286Y-105608815D01*
X126114286Y-105608815D02*
X126019048Y-105561196D01*
X126019048Y-105561196D02*
X125828572Y-105513577D01*
X125828572Y-105513577D02*
X125733334Y-105465958D01*
X125733334Y-105465958D02*
X125685715Y-105418339D01*
X125685715Y-105418339D02*
X125638096Y-105323101D01*
X125638096Y-105323101D02*
X125638096Y-105227863D01*
X125638096Y-105227863D02*
X125685715Y-105132625D01*
X125685715Y-105132625D02*
X125733334Y-105085006D01*
X125733334Y-105085006D02*
X125828572Y-105037387D01*
X125828572Y-105037387D02*
X126066667Y-105037387D01*
X126066667Y-105037387D02*
X126209524Y-105085006D01*
X127019048Y-105989768D02*
X126923810Y-106037387D01*
X126923810Y-106037387D02*
X126733334Y-106037387D01*
X126733334Y-106037387D02*
X126638096Y-105989768D01*
X126638096Y-105989768D02*
X126590477Y-105894529D01*
X126590477Y-105894529D02*
X126590477Y-105513577D01*
X126590477Y-105513577D02*
X126638096Y-105418339D01*
X126638096Y-105418339D02*
X126733334Y-105370720D01*
X126733334Y-105370720D02*
X126923810Y-105370720D01*
X126923810Y-105370720D02*
X127019048Y-105418339D01*
X127019048Y-105418339D02*
X127066667Y-105513577D01*
X127066667Y-105513577D02*
X127066667Y-105608815D01*
X127066667Y-105608815D02*
X126590477Y-105704053D01*
X127495239Y-105370720D02*
X127495239Y-106037387D01*
X127495239Y-105465958D02*
X127542858Y-105418339D01*
X127542858Y-105418339D02*
X127638096Y-105370720D01*
X127638096Y-105370720D02*
X127780953Y-105370720D01*
X127780953Y-105370720D02*
X127876191Y-105418339D01*
X127876191Y-105418339D02*
X127923810Y-105513577D01*
X127923810Y-105513577D02*
X127923810Y-106037387D01*
X128400001Y-106037387D02*
X128400001Y-105370720D01*
X128400001Y-105037387D02*
X128352382Y-105085006D01*
X128352382Y-105085006D02*
X128400001Y-105132625D01*
X128400001Y-105132625D02*
X128447620Y-105085006D01*
X128447620Y-105085006D02*
X128400001Y-105037387D01*
X128400001Y-105037387D02*
X128400001Y-105132625D01*
X129019048Y-106037387D02*
X128923810Y-105989768D01*
X128923810Y-105989768D02*
X128876191Y-105942148D01*
X128876191Y-105942148D02*
X128828572Y-105846910D01*
X128828572Y-105846910D02*
X128828572Y-105561196D01*
X128828572Y-105561196D02*
X128876191Y-105465958D01*
X128876191Y-105465958D02*
X128923810Y-105418339D01*
X128923810Y-105418339D02*
X129019048Y-105370720D01*
X129019048Y-105370720D02*
X129161905Y-105370720D01*
X129161905Y-105370720D02*
X129257143Y-105418339D01*
X129257143Y-105418339D02*
X129304762Y-105465958D01*
X129304762Y-105465958D02*
X129352381Y-105561196D01*
X129352381Y-105561196D02*
X129352381Y-105846910D01*
X129352381Y-105846910D02*
X129304762Y-105942148D01*
X129304762Y-105942148D02*
X129257143Y-105989768D01*
X129257143Y-105989768D02*
X129161905Y-106037387D01*
X129161905Y-106037387D02*
X129019048Y-106037387D01*
X129780953Y-106037387D02*
X129780953Y-105370720D01*
X129780953Y-105561196D02*
X129828572Y-105465958D01*
X129828572Y-105465958D02*
X129876191Y-105418339D01*
X129876191Y-105418339D02*
X129971429Y-105370720D01*
X129971429Y-105370720D02*
X130066667Y-105370720D01*
X131161906Y-106037387D02*
X131161906Y-105037387D01*
X131161906Y-105037387D02*
X131400001Y-105037387D01*
X131400001Y-105037387D02*
X131542858Y-105085006D01*
X131542858Y-105085006D02*
X131638096Y-105180244D01*
X131638096Y-105180244D02*
X131685715Y-105275482D01*
X131685715Y-105275482D02*
X131733334Y-105465958D01*
X131733334Y-105465958D02*
X131733334Y-105608815D01*
X131733334Y-105608815D02*
X131685715Y-105799291D01*
X131685715Y-105799291D02*
X131638096Y-105894529D01*
X131638096Y-105894529D02*
X131542858Y-105989768D01*
X131542858Y-105989768D02*
X131400001Y-106037387D01*
X131400001Y-106037387D02*
X131161906Y-106037387D01*
X132542858Y-105989768D02*
X132447620Y-106037387D01*
X132447620Y-106037387D02*
X132257144Y-106037387D01*
X132257144Y-106037387D02*
X132161906Y-105989768D01*
X132161906Y-105989768D02*
X132114287Y-105894529D01*
X132114287Y-105894529D02*
X132114287Y-105513577D01*
X132114287Y-105513577D02*
X132161906Y-105418339D01*
X132161906Y-105418339D02*
X132257144Y-105370720D01*
X132257144Y-105370720D02*
X132447620Y-105370720D01*
X132447620Y-105370720D02*
X132542858Y-105418339D01*
X132542858Y-105418339D02*
X132590477Y-105513577D01*
X132590477Y-105513577D02*
X132590477Y-105608815D01*
X132590477Y-105608815D02*
X132114287Y-105704053D01*
X132971430Y-105989768D02*
X133066668Y-106037387D01*
X133066668Y-106037387D02*
X133257144Y-106037387D01*
X133257144Y-106037387D02*
X133352382Y-105989768D01*
X133352382Y-105989768D02*
X133400001Y-105894529D01*
X133400001Y-105894529D02*
X133400001Y-105846910D01*
X133400001Y-105846910D02*
X133352382Y-105751672D01*
X133352382Y-105751672D02*
X133257144Y-105704053D01*
X133257144Y-105704053D02*
X133114287Y-105704053D01*
X133114287Y-105704053D02*
X133019049Y-105656434D01*
X133019049Y-105656434D02*
X132971430Y-105561196D01*
X132971430Y-105561196D02*
X132971430Y-105513577D01*
X132971430Y-105513577D02*
X133019049Y-105418339D01*
X133019049Y-105418339D02*
X133114287Y-105370720D01*
X133114287Y-105370720D02*
X133257144Y-105370720D01*
X133257144Y-105370720D02*
X133352382Y-105418339D01*
X133828573Y-106037387D02*
X133828573Y-105370720D01*
X133828573Y-105037387D02*
X133780954Y-105085006D01*
X133780954Y-105085006D02*
X133828573Y-105132625D01*
X133828573Y-105132625D02*
X133876192Y-105085006D01*
X133876192Y-105085006D02*
X133828573Y-105037387D01*
X133828573Y-105037387D02*
X133828573Y-105132625D01*
X134733334Y-105370720D02*
X134733334Y-106180244D01*
X134733334Y-106180244D02*
X134685715Y-106275482D01*
X134685715Y-106275482D02*
X134638096Y-106323101D01*
X134638096Y-106323101D02*
X134542858Y-106370720D01*
X134542858Y-106370720D02*
X134400001Y-106370720D01*
X134400001Y-106370720D02*
X134304763Y-106323101D01*
X134733334Y-105989768D02*
X134638096Y-106037387D01*
X134638096Y-106037387D02*
X134447620Y-106037387D01*
X134447620Y-106037387D02*
X134352382Y-105989768D01*
X134352382Y-105989768D02*
X134304763Y-105942148D01*
X134304763Y-105942148D02*
X134257144Y-105846910D01*
X134257144Y-105846910D02*
X134257144Y-105561196D01*
X134257144Y-105561196D02*
X134304763Y-105465958D01*
X134304763Y-105465958D02*
X134352382Y-105418339D01*
X134352382Y-105418339D02*
X134447620Y-105370720D01*
X134447620Y-105370720D02*
X134638096Y-105370720D01*
X134638096Y-105370720D02*
X134733334Y-105418339D01*
X135209525Y-105370720D02*
X135209525Y-106037387D01*
X135209525Y-105465958D02*
X135257144Y-105418339D01*
X135257144Y-105418339D02*
X135352382Y-105370720D01*
X135352382Y-105370720D02*
X135495239Y-105370720D01*
X135495239Y-105370720D02*
X135590477Y-105418339D01*
X135590477Y-105418339D02*
X135638096Y-105513577D01*
X135638096Y-105513577D02*
X135638096Y-106037387D01*
X118138094Y-106694950D02*
X118042856Y-106647331D01*
X118042856Y-106647331D02*
X117899999Y-106647331D01*
X117899999Y-106647331D02*
X117757142Y-106694950D01*
X117757142Y-106694950D02*
X117661904Y-106790188D01*
X117661904Y-106790188D02*
X117614285Y-106885426D01*
X117614285Y-106885426D02*
X117566666Y-107075902D01*
X117566666Y-107075902D02*
X117566666Y-107218759D01*
X117566666Y-107218759D02*
X117614285Y-107409235D01*
X117614285Y-107409235D02*
X117661904Y-107504473D01*
X117661904Y-107504473D02*
X117757142Y-107599712D01*
X117757142Y-107599712D02*
X117899999Y-107647331D01*
X117899999Y-107647331D02*
X117995237Y-107647331D01*
X117995237Y-107647331D02*
X118138094Y-107599712D01*
X118138094Y-107599712D02*
X118185713Y-107552092D01*
X118185713Y-107552092D02*
X118185713Y-107218759D01*
X118185713Y-107218759D02*
X117995237Y-107218759D01*
X118614285Y-107647331D02*
X118614285Y-106980664D01*
X118614285Y-107171140D02*
X118661904Y-107075902D01*
X118661904Y-107075902D02*
X118709523Y-107028283D01*
X118709523Y-107028283D02*
X118804761Y-106980664D01*
X118804761Y-106980664D02*
X118899999Y-106980664D01*
X119376190Y-107647331D02*
X119280952Y-107599712D01*
X119280952Y-107599712D02*
X119233333Y-107552092D01*
X119233333Y-107552092D02*
X119185714Y-107456854D01*
X119185714Y-107456854D02*
X119185714Y-107171140D01*
X119185714Y-107171140D02*
X119233333Y-107075902D01*
X119233333Y-107075902D02*
X119280952Y-107028283D01*
X119280952Y-107028283D02*
X119376190Y-106980664D01*
X119376190Y-106980664D02*
X119519047Y-106980664D01*
X119519047Y-106980664D02*
X119614285Y-107028283D01*
X119614285Y-107028283D02*
X119661904Y-107075902D01*
X119661904Y-107075902D02*
X119709523Y-107171140D01*
X119709523Y-107171140D02*
X119709523Y-107456854D01*
X119709523Y-107456854D02*
X119661904Y-107552092D01*
X119661904Y-107552092D02*
X119614285Y-107599712D01*
X119614285Y-107599712D02*
X119519047Y-107647331D01*
X119519047Y-107647331D02*
X119376190Y-107647331D01*
X120566666Y-106980664D02*
X120566666Y-107647331D01*
X120138095Y-106980664D02*
X120138095Y-107504473D01*
X120138095Y-107504473D02*
X120185714Y-107599712D01*
X120185714Y-107599712D02*
X120280952Y-107647331D01*
X120280952Y-107647331D02*
X120423809Y-107647331D01*
X120423809Y-107647331D02*
X120519047Y-107599712D01*
X120519047Y-107599712D02*
X120566666Y-107552092D01*
X121042857Y-106980664D02*
X121042857Y-107980664D01*
X121042857Y-107028283D02*
X121138095Y-106980664D01*
X121138095Y-106980664D02*
X121328571Y-106980664D01*
X121328571Y-106980664D02*
X121423809Y-107028283D01*
X121423809Y-107028283D02*
X121471428Y-107075902D01*
X121471428Y-107075902D02*
X121519047Y-107171140D01*
X121519047Y-107171140D02*
X121519047Y-107456854D01*
X121519047Y-107456854D02*
X121471428Y-107552092D01*
X121471428Y-107552092D02*
X121423809Y-107599712D01*
X121423809Y-107599712D02*
X121328571Y-107647331D01*
X121328571Y-107647331D02*
X121138095Y-107647331D01*
X121138095Y-107647331D02*
X121042857Y-107599712D01*
X122661905Y-106742569D02*
X122709524Y-106694950D01*
X122709524Y-106694950D02*
X122804762Y-106647331D01*
X122804762Y-106647331D02*
X123042857Y-106647331D01*
X123042857Y-106647331D02*
X123138095Y-106694950D01*
X123138095Y-106694950D02*
X123185714Y-106742569D01*
X123185714Y-106742569D02*
X123233333Y-106837807D01*
X123233333Y-106837807D02*
X123233333Y-106933045D01*
X123233333Y-106933045D02*
X123185714Y-107075902D01*
X123185714Y-107075902D02*
X122614286Y-107647331D01*
X122614286Y-107647331D02*
X123233333Y-107647331D01*
X124138095Y-106647331D02*
X123661905Y-106647331D01*
X123661905Y-106647331D02*
X123614286Y-107123521D01*
X123614286Y-107123521D02*
X123661905Y-107075902D01*
X123661905Y-107075902D02*
X123757143Y-107028283D01*
X123757143Y-107028283D02*
X123995238Y-107028283D01*
X123995238Y-107028283D02*
X124090476Y-107075902D01*
X124090476Y-107075902D02*
X124138095Y-107123521D01*
X124138095Y-107123521D02*
X124185714Y-107218759D01*
X124185714Y-107218759D02*
X124185714Y-107456854D01*
X124185714Y-107456854D02*
X124138095Y-107552092D01*
X124138095Y-107552092D02*
X124090476Y-107599712D01*
X124090476Y-107599712D02*
X123995238Y-107647331D01*
X123995238Y-107647331D02*
X123757143Y-107647331D01*
X123757143Y-107647331D02*
X123661905Y-107599712D01*
X123661905Y-107599712D02*
X123614286Y-107552092D01*
X124661905Y-107599712D02*
X124661905Y-107647331D01*
X124661905Y-107647331D02*
X124614286Y-107742569D01*
X124614286Y-107742569D02*
X124566667Y-107790188D01*
X125804762Y-107599712D02*
X125947619Y-107647331D01*
X125947619Y-107647331D02*
X126185714Y-107647331D01*
X126185714Y-107647331D02*
X126280952Y-107599712D01*
X126280952Y-107599712D02*
X126328571Y-107552092D01*
X126328571Y-107552092D02*
X126376190Y-107456854D01*
X126376190Y-107456854D02*
X126376190Y-107361616D01*
X126376190Y-107361616D02*
X126328571Y-107266378D01*
X126328571Y-107266378D02*
X126280952Y-107218759D01*
X126280952Y-107218759D02*
X126185714Y-107171140D01*
X126185714Y-107171140D02*
X125995238Y-107123521D01*
X125995238Y-107123521D02*
X125900000Y-107075902D01*
X125900000Y-107075902D02*
X125852381Y-107028283D01*
X125852381Y-107028283D02*
X125804762Y-106933045D01*
X125804762Y-106933045D02*
X125804762Y-106837807D01*
X125804762Y-106837807D02*
X125852381Y-106742569D01*
X125852381Y-106742569D02*
X125900000Y-106694950D01*
X125900000Y-106694950D02*
X125995238Y-106647331D01*
X125995238Y-106647331D02*
X126233333Y-106647331D01*
X126233333Y-106647331D02*
X126376190Y-106694950D01*
X127185714Y-107599712D02*
X127090476Y-107647331D01*
X127090476Y-107647331D02*
X126900000Y-107647331D01*
X126900000Y-107647331D02*
X126804762Y-107599712D01*
X126804762Y-107599712D02*
X126757143Y-107504473D01*
X126757143Y-107504473D02*
X126757143Y-107123521D01*
X126757143Y-107123521D02*
X126804762Y-107028283D01*
X126804762Y-107028283D02*
X126900000Y-106980664D01*
X126900000Y-106980664D02*
X127090476Y-106980664D01*
X127090476Y-106980664D02*
X127185714Y-107028283D01*
X127185714Y-107028283D02*
X127233333Y-107123521D01*
X127233333Y-107123521D02*
X127233333Y-107218759D01*
X127233333Y-107218759D02*
X126757143Y-107313997D01*
X127661905Y-107647331D02*
X127661905Y-106980664D01*
X127661905Y-107075902D02*
X127709524Y-107028283D01*
X127709524Y-107028283D02*
X127804762Y-106980664D01*
X127804762Y-106980664D02*
X127947619Y-106980664D01*
X127947619Y-106980664D02*
X128042857Y-107028283D01*
X128042857Y-107028283D02*
X128090476Y-107123521D01*
X128090476Y-107123521D02*
X128090476Y-107647331D01*
X128090476Y-107123521D02*
X128138095Y-107028283D01*
X128138095Y-107028283D02*
X128233333Y-106980664D01*
X128233333Y-106980664D02*
X128376190Y-106980664D01*
X128376190Y-106980664D02*
X128471429Y-107028283D01*
X128471429Y-107028283D02*
X128519048Y-107123521D01*
X128519048Y-107123521D02*
X128519048Y-107647331D01*
X128995238Y-107647331D02*
X128995238Y-106980664D01*
X128995238Y-106647331D02*
X128947619Y-106694950D01*
X128947619Y-106694950D02*
X128995238Y-106742569D01*
X128995238Y-106742569D02*
X129042857Y-106694950D01*
X129042857Y-106694950D02*
X128995238Y-106647331D01*
X128995238Y-106647331D02*
X128995238Y-106742569D01*
X129471428Y-107266378D02*
X130233333Y-107266378D01*
X130566666Y-106647331D02*
X131138094Y-106647331D01*
X130852380Y-107647331D02*
X130852380Y-106647331D01*
X131471428Y-107647331D02*
X131471428Y-106980664D01*
X131471428Y-107171140D02*
X131519047Y-107075902D01*
X131519047Y-107075902D02*
X131566666Y-107028283D01*
X131566666Y-107028283D02*
X131661904Y-106980664D01*
X131661904Y-106980664D02*
X131757142Y-106980664D01*
X132519047Y-106980664D02*
X132519047Y-107647331D01*
X132090476Y-106980664D02*
X132090476Y-107504473D01*
X132090476Y-107504473D02*
X132138095Y-107599712D01*
X132138095Y-107599712D02*
X132233333Y-107647331D01*
X132233333Y-107647331D02*
X132376190Y-107647331D01*
X132376190Y-107647331D02*
X132471428Y-107599712D01*
X132471428Y-107599712D02*
X132519047Y-107552092D01*
X133423809Y-107599712D02*
X133328571Y-107647331D01*
X133328571Y-107647331D02*
X133138095Y-107647331D01*
X133138095Y-107647331D02*
X133042857Y-107599712D01*
X133042857Y-107599712D02*
X132995238Y-107552092D01*
X132995238Y-107552092D02*
X132947619Y-107456854D01*
X132947619Y-107456854D02*
X132947619Y-107171140D01*
X132947619Y-107171140D02*
X132995238Y-107075902D01*
X132995238Y-107075902D02*
X133042857Y-107028283D01*
X133042857Y-107028283D02*
X133138095Y-106980664D01*
X133138095Y-106980664D02*
X133328571Y-106980664D01*
X133328571Y-106980664D02*
X133423809Y-107028283D01*
X133852381Y-107647331D02*
X133852381Y-106647331D01*
X133947619Y-107266378D02*
X134233333Y-107647331D01*
X134233333Y-106980664D02*
X133852381Y-107361616D01*
X118328570Y-108733465D02*
X118471427Y-108781084D01*
X118471427Y-108781084D02*
X118519046Y-108828703D01*
X118519046Y-108828703D02*
X118566665Y-108923941D01*
X118566665Y-108923941D02*
X118566665Y-109066798D01*
X118566665Y-109066798D02*
X118519046Y-109162036D01*
X118519046Y-109162036D02*
X118471427Y-109209656D01*
X118471427Y-109209656D02*
X118376189Y-109257275D01*
X118376189Y-109257275D02*
X117995237Y-109257275D01*
X117995237Y-109257275D02*
X117995237Y-108257275D01*
X117995237Y-108257275D02*
X118328570Y-108257275D01*
X118328570Y-108257275D02*
X118423808Y-108304894D01*
X118423808Y-108304894D02*
X118471427Y-108352513D01*
X118471427Y-108352513D02*
X118519046Y-108447751D01*
X118519046Y-108447751D02*
X118519046Y-108542989D01*
X118519046Y-108542989D02*
X118471427Y-108638227D01*
X118471427Y-108638227D02*
X118423808Y-108685846D01*
X118423808Y-108685846D02*
X118328570Y-108733465D01*
X118328570Y-108733465D02*
X117995237Y-108733465D01*
X119423808Y-109257275D02*
X119423808Y-108733465D01*
X119423808Y-108733465D02*
X119376189Y-108638227D01*
X119376189Y-108638227D02*
X119280951Y-108590608D01*
X119280951Y-108590608D02*
X119090475Y-108590608D01*
X119090475Y-108590608D02*
X118995237Y-108638227D01*
X119423808Y-109209656D02*
X119328570Y-109257275D01*
X119328570Y-109257275D02*
X119090475Y-109257275D01*
X119090475Y-109257275D02*
X118995237Y-109209656D01*
X118995237Y-109209656D02*
X118947618Y-109114417D01*
X118947618Y-109114417D02*
X118947618Y-109019179D01*
X118947618Y-109019179D02*
X118995237Y-108923941D01*
X118995237Y-108923941D02*
X119090475Y-108876322D01*
X119090475Y-108876322D02*
X119328570Y-108876322D01*
X119328570Y-108876322D02*
X119423808Y-108828703D01*
X120328570Y-109209656D02*
X120233332Y-109257275D01*
X120233332Y-109257275D02*
X120042856Y-109257275D01*
X120042856Y-109257275D02*
X119947618Y-109209656D01*
X119947618Y-109209656D02*
X119899999Y-109162036D01*
X119899999Y-109162036D02*
X119852380Y-109066798D01*
X119852380Y-109066798D02*
X119852380Y-108781084D01*
X119852380Y-108781084D02*
X119899999Y-108685846D01*
X119899999Y-108685846D02*
X119947618Y-108638227D01*
X119947618Y-108638227D02*
X120042856Y-108590608D01*
X120042856Y-108590608D02*
X120233332Y-108590608D01*
X120233332Y-108590608D02*
X120328570Y-108638227D01*
X120757142Y-109257275D02*
X120757142Y-108257275D01*
X120852380Y-108876322D02*
X121138094Y-109257275D01*
X121138094Y-108590608D02*
X120757142Y-108971560D01*
X121995237Y-108590608D02*
X121995237Y-109257275D01*
X121566666Y-108590608D02*
X121566666Y-109114417D01*
X121566666Y-109114417D02*
X121614285Y-109209656D01*
X121614285Y-109209656D02*
X121709523Y-109257275D01*
X121709523Y-109257275D02*
X121852380Y-109257275D01*
X121852380Y-109257275D02*
X121947618Y-109209656D01*
X121947618Y-109209656D02*
X121995237Y-109162036D01*
X122471428Y-108590608D02*
X122471428Y-109590608D01*
X122471428Y-108638227D02*
X122566666Y-108590608D01*
X122566666Y-108590608D02*
X122757142Y-108590608D01*
X122757142Y-108590608D02*
X122852380Y-108638227D01*
X122852380Y-108638227D02*
X122899999Y-108685846D01*
X122899999Y-108685846D02*
X122947618Y-108781084D01*
X122947618Y-108781084D02*
X122947618Y-109066798D01*
X122947618Y-109066798D02*
X122899999Y-109162036D01*
X122899999Y-109162036D02*
X122852380Y-109209656D01*
X122852380Y-109209656D02*
X122757142Y-109257275D01*
X122757142Y-109257275D02*
X122566666Y-109257275D01*
X122566666Y-109257275D02*
X122471428Y-109209656D01*
X124709523Y-109162036D02*
X124661904Y-109209656D01*
X124661904Y-109209656D02*
X124519047Y-109257275D01*
X124519047Y-109257275D02*
X124423809Y-109257275D01*
X124423809Y-109257275D02*
X124280952Y-109209656D01*
X124280952Y-109209656D02*
X124185714Y-109114417D01*
X124185714Y-109114417D02*
X124138095Y-109019179D01*
X124138095Y-109019179D02*
X124090476Y-108828703D01*
X124090476Y-108828703D02*
X124090476Y-108685846D01*
X124090476Y-108685846D02*
X124138095Y-108495370D01*
X124138095Y-108495370D02*
X124185714Y-108400132D01*
X124185714Y-108400132D02*
X124280952Y-108304894D01*
X124280952Y-108304894D02*
X124423809Y-108257275D01*
X124423809Y-108257275D02*
X124519047Y-108257275D01*
X124519047Y-108257275D02*
X124661904Y-108304894D01*
X124661904Y-108304894D02*
X124709523Y-108352513D01*
X125566666Y-109257275D02*
X125566666Y-108733465D01*
X125566666Y-108733465D02*
X125519047Y-108638227D01*
X125519047Y-108638227D02*
X125423809Y-108590608D01*
X125423809Y-108590608D02*
X125233333Y-108590608D01*
X125233333Y-108590608D02*
X125138095Y-108638227D01*
X125566666Y-109209656D02*
X125471428Y-109257275D01*
X125471428Y-109257275D02*
X125233333Y-109257275D01*
X125233333Y-109257275D02*
X125138095Y-109209656D01*
X125138095Y-109209656D02*
X125090476Y-109114417D01*
X125090476Y-109114417D02*
X125090476Y-109019179D01*
X125090476Y-109019179D02*
X125138095Y-108923941D01*
X125138095Y-108923941D02*
X125233333Y-108876322D01*
X125233333Y-108876322D02*
X125471428Y-108876322D01*
X125471428Y-108876322D02*
X125566666Y-108828703D01*
X126042857Y-109257275D02*
X126042857Y-108590608D01*
X126042857Y-108685846D02*
X126090476Y-108638227D01*
X126090476Y-108638227D02*
X126185714Y-108590608D01*
X126185714Y-108590608D02*
X126328571Y-108590608D01*
X126328571Y-108590608D02*
X126423809Y-108638227D01*
X126423809Y-108638227D02*
X126471428Y-108733465D01*
X126471428Y-108733465D02*
X126471428Y-109257275D01*
X126471428Y-108733465D02*
X126519047Y-108638227D01*
X126519047Y-108638227D02*
X126614285Y-108590608D01*
X126614285Y-108590608D02*
X126757142Y-108590608D01*
X126757142Y-108590608D02*
X126852381Y-108638227D01*
X126852381Y-108638227D02*
X126900000Y-108733465D01*
X126900000Y-108733465D02*
X126900000Y-109257275D01*
X127757142Y-109209656D02*
X127661904Y-109257275D01*
X127661904Y-109257275D02*
X127471428Y-109257275D01*
X127471428Y-109257275D02*
X127376190Y-109209656D01*
X127376190Y-109209656D02*
X127328571Y-109114417D01*
X127328571Y-109114417D02*
X127328571Y-108733465D01*
X127328571Y-108733465D02*
X127376190Y-108638227D01*
X127376190Y-108638227D02*
X127471428Y-108590608D01*
X127471428Y-108590608D02*
X127661904Y-108590608D01*
X127661904Y-108590608D02*
X127757142Y-108638227D01*
X127757142Y-108638227D02*
X127804761Y-108733465D01*
X127804761Y-108733465D02*
X127804761Y-108828703D01*
X127804761Y-108828703D02*
X127328571Y-108923941D01*
X128233333Y-109257275D02*
X128233333Y-108590608D01*
X128233333Y-108781084D02*
X128280952Y-108685846D01*
X128280952Y-108685846D02*
X128328571Y-108638227D01*
X128328571Y-108638227D02*
X128423809Y-108590608D01*
X128423809Y-108590608D02*
X128519047Y-108590608D01*
X129280952Y-109257275D02*
X129280952Y-108733465D01*
X129280952Y-108733465D02*
X129233333Y-108638227D01*
X129233333Y-108638227D02*
X129138095Y-108590608D01*
X129138095Y-108590608D02*
X128947619Y-108590608D01*
X128947619Y-108590608D02*
X128852381Y-108638227D01*
X129280952Y-109209656D02*
X129185714Y-109257275D01*
X129185714Y-109257275D02*
X128947619Y-109257275D01*
X128947619Y-109257275D02*
X128852381Y-109209656D01*
X128852381Y-109209656D02*
X128804762Y-109114417D01*
X128804762Y-109114417D02*
X128804762Y-109019179D01*
X128804762Y-109019179D02*
X128852381Y-108923941D01*
X128852381Y-108923941D02*
X128947619Y-108876322D01*
X128947619Y-108876322D02*
X129185714Y-108876322D01*
X129185714Y-108876322D02*
X129280952Y-108828703D01*
X130519048Y-109257275D02*
X130519048Y-108257275D01*
X130519048Y-108257275D02*
X130900000Y-108257275D01*
X130900000Y-108257275D02*
X130995238Y-108304894D01*
X130995238Y-108304894D02*
X131042857Y-108352513D01*
X131042857Y-108352513D02*
X131090476Y-108447751D01*
X131090476Y-108447751D02*
X131090476Y-108590608D01*
X131090476Y-108590608D02*
X131042857Y-108685846D01*
X131042857Y-108685846D02*
X130995238Y-108733465D01*
X130995238Y-108733465D02*
X130900000Y-108781084D01*
X130900000Y-108781084D02*
X130519048Y-108781084D01*
X132090476Y-109162036D02*
X132042857Y-109209656D01*
X132042857Y-109209656D02*
X131900000Y-109257275D01*
X131900000Y-109257275D02*
X131804762Y-109257275D01*
X131804762Y-109257275D02*
X131661905Y-109209656D01*
X131661905Y-109209656D02*
X131566667Y-109114417D01*
X131566667Y-109114417D02*
X131519048Y-109019179D01*
X131519048Y-109019179D02*
X131471429Y-108828703D01*
X131471429Y-108828703D02*
X131471429Y-108685846D01*
X131471429Y-108685846D02*
X131519048Y-108495370D01*
X131519048Y-108495370D02*
X131566667Y-108400132D01*
X131566667Y-108400132D02*
X131661905Y-108304894D01*
X131661905Y-108304894D02*
X131804762Y-108257275D01*
X131804762Y-108257275D02*
X131900000Y-108257275D01*
X131900000Y-108257275D02*
X132042857Y-108304894D01*
X132042857Y-108304894D02*
X132090476Y-108352513D01*
X132852381Y-108733465D02*
X132995238Y-108781084D01*
X132995238Y-108781084D02*
X133042857Y-108828703D01*
X133042857Y-108828703D02*
X133090476Y-108923941D01*
X133090476Y-108923941D02*
X133090476Y-109066798D01*
X133090476Y-109066798D02*
X133042857Y-109162036D01*
X133042857Y-109162036D02*
X132995238Y-109209656D01*
X132995238Y-109209656D02*
X132900000Y-109257275D01*
X132900000Y-109257275D02*
X132519048Y-109257275D01*
X132519048Y-109257275D02*
X132519048Y-108257275D01*
X132519048Y-108257275D02*
X132852381Y-108257275D01*
X132852381Y-108257275D02*
X132947619Y-108304894D01*
X132947619Y-108304894D02*
X132995238Y-108352513D01*
X132995238Y-108352513D02*
X133042857Y-108447751D01*
X133042857Y-108447751D02*
X133042857Y-108542989D01*
X133042857Y-108542989D02*
X132995238Y-108638227D01*
X132995238Y-108638227D02*
X132947619Y-108685846D01*
X132947619Y-108685846D02*
X132852381Y-108733465D01*
X132852381Y-108733465D02*
X132519048Y-108733465D01*
X118542857Y-109867219D02*
X118876190Y-110867219D01*
X118876190Y-110867219D02*
X119209523Y-109867219D01*
X120066666Y-110867219D02*
X119495238Y-110867219D01*
X119780952Y-110867219D02*
X119780952Y-109867219D01*
X119780952Y-109867219D02*
X119685714Y-110010076D01*
X119685714Y-110010076D02*
X119590476Y-110105314D01*
X119590476Y-110105314D02*
X119495238Y-110152933D01*
X120495238Y-110771980D02*
X120542857Y-110819600D01*
X120542857Y-110819600D02*
X120495238Y-110867219D01*
X120495238Y-110867219D02*
X120447619Y-110819600D01*
X120447619Y-110819600D02*
X120495238Y-110771980D01*
X120495238Y-110771980D02*
X120495238Y-110867219D01*
X121161904Y-109867219D02*
X121257142Y-109867219D01*
X121257142Y-109867219D02*
X121352380Y-109914838D01*
X121352380Y-109914838D02*
X121399999Y-109962457D01*
X121399999Y-109962457D02*
X121447618Y-110057695D01*
X121447618Y-110057695D02*
X121495237Y-110248171D01*
X121495237Y-110248171D02*
X121495237Y-110486266D01*
X121495237Y-110486266D02*
X121447618Y-110676742D01*
X121447618Y-110676742D02*
X121399999Y-110771980D01*
X121399999Y-110771980D02*
X121352380Y-110819600D01*
X121352380Y-110819600D02*
X121257142Y-110867219D01*
X121257142Y-110867219D02*
X121161904Y-110867219D01*
X121161904Y-110867219D02*
X121066666Y-110819600D01*
X121066666Y-110819600D02*
X121019047Y-110771980D01*
X121019047Y-110771980D02*
X120971428Y-110676742D01*
X120971428Y-110676742D02*
X120923809Y-110486266D01*
X120923809Y-110486266D02*
X120923809Y-110248171D01*
X120923809Y-110248171D02*
X120971428Y-110057695D01*
X120971428Y-110057695D02*
X121019047Y-109962457D01*
X121019047Y-109962457D02*
X121066666Y-109914838D01*
X121066666Y-109914838D02*
X121161904Y-109867219D01*
X122685714Y-110867219D02*
X122685714Y-109867219D01*
X122685714Y-109867219D02*
X123257142Y-110867219D01*
X123257142Y-110867219D02*
X123257142Y-109867219D01*
X123876190Y-110867219D02*
X123780952Y-110819600D01*
X123780952Y-110819600D02*
X123733333Y-110771980D01*
X123733333Y-110771980D02*
X123685714Y-110676742D01*
X123685714Y-110676742D02*
X123685714Y-110391028D01*
X123685714Y-110391028D02*
X123733333Y-110295790D01*
X123733333Y-110295790D02*
X123780952Y-110248171D01*
X123780952Y-110248171D02*
X123876190Y-110200552D01*
X123876190Y-110200552D02*
X124019047Y-110200552D01*
X124019047Y-110200552D02*
X124114285Y-110248171D01*
X124114285Y-110248171D02*
X124161904Y-110295790D01*
X124161904Y-110295790D02*
X124209523Y-110391028D01*
X124209523Y-110391028D02*
X124209523Y-110676742D01*
X124209523Y-110676742D02*
X124161904Y-110771980D01*
X124161904Y-110771980D02*
X124114285Y-110819600D01*
X124114285Y-110819600D02*
X124019047Y-110867219D01*
X124019047Y-110867219D02*
X123876190Y-110867219D01*
X124542857Y-110200552D02*
X124780952Y-110867219D01*
X124780952Y-110867219D02*
X125019047Y-110200552D01*
X125400000Y-110486266D02*
X126161905Y-110486266D01*
X127161904Y-110867219D02*
X126590476Y-110867219D01*
X126876190Y-110867219D02*
X126876190Y-109867219D01*
X126876190Y-109867219D02*
X126780952Y-110010076D01*
X126780952Y-110010076D02*
X126685714Y-110105314D01*
X126685714Y-110105314D02*
X126590476Y-110152933D01*
X127780952Y-109867219D02*
X127876190Y-109867219D01*
X127876190Y-109867219D02*
X127971428Y-109914838D01*
X127971428Y-109914838D02*
X128019047Y-109962457D01*
X128019047Y-109962457D02*
X128066666Y-110057695D01*
X128066666Y-110057695D02*
X128114285Y-110248171D01*
X128114285Y-110248171D02*
X128114285Y-110486266D01*
X128114285Y-110486266D02*
X128066666Y-110676742D01*
X128066666Y-110676742D02*
X128019047Y-110771980D01*
X128019047Y-110771980D02*
X127971428Y-110819600D01*
X127971428Y-110819600D02*
X127876190Y-110867219D01*
X127876190Y-110867219D02*
X127780952Y-110867219D01*
X127780952Y-110867219D02*
X127685714Y-110819600D01*
X127685714Y-110819600D02*
X127638095Y-110771980D01*
X127638095Y-110771980D02*
X127590476Y-110676742D01*
X127590476Y-110676742D02*
X127542857Y-110486266D01*
X127542857Y-110486266D02*
X127542857Y-110248171D01*
X127542857Y-110248171D02*
X127590476Y-110057695D01*
X127590476Y-110057695D02*
X127638095Y-109962457D01*
X127638095Y-109962457D02*
X127685714Y-109914838D01*
X127685714Y-109914838D02*
X127780952Y-109867219D01*
X128542857Y-110486266D02*
X129304762Y-110486266D01*
X129733333Y-109962457D02*
X129780952Y-109914838D01*
X129780952Y-109914838D02*
X129876190Y-109867219D01*
X129876190Y-109867219D02*
X130114285Y-109867219D01*
X130114285Y-109867219D02*
X130209523Y-109914838D01*
X130209523Y-109914838D02*
X130257142Y-109962457D01*
X130257142Y-109962457D02*
X130304761Y-110057695D01*
X130304761Y-110057695D02*
X130304761Y-110152933D01*
X130304761Y-110152933D02*
X130257142Y-110295790D01*
X130257142Y-110295790D02*
X129685714Y-110867219D01*
X129685714Y-110867219D02*
X130304761Y-110867219D01*
X130923809Y-109867219D02*
X131019047Y-109867219D01*
X131019047Y-109867219D02*
X131114285Y-109914838D01*
X131114285Y-109914838D02*
X131161904Y-109962457D01*
X131161904Y-109962457D02*
X131209523Y-110057695D01*
X131209523Y-110057695D02*
X131257142Y-110248171D01*
X131257142Y-110248171D02*
X131257142Y-110486266D01*
X131257142Y-110486266D02*
X131209523Y-110676742D01*
X131209523Y-110676742D02*
X131161904Y-110771980D01*
X131161904Y-110771980D02*
X131114285Y-110819600D01*
X131114285Y-110819600D02*
X131019047Y-110867219D01*
X131019047Y-110867219D02*
X130923809Y-110867219D01*
X130923809Y-110867219D02*
X130828571Y-110819600D01*
X130828571Y-110819600D02*
X130780952Y-110771980D01*
X130780952Y-110771980D02*
X130733333Y-110676742D01*
X130733333Y-110676742D02*
X130685714Y-110486266D01*
X130685714Y-110486266D02*
X130685714Y-110248171D01*
X130685714Y-110248171D02*
X130733333Y-110057695D01*
X130733333Y-110057695D02*
X130780952Y-109962457D01*
X130780952Y-109962457D02*
X130828571Y-109914838D01*
X130828571Y-109914838D02*
X130923809Y-109867219D01*
X131638095Y-109962457D02*
X131685714Y-109914838D01*
X131685714Y-109914838D02*
X131780952Y-109867219D01*
X131780952Y-109867219D02*
X132019047Y-109867219D01*
X132019047Y-109867219D02*
X132114285Y-109914838D01*
X132114285Y-109914838D02*
X132161904Y-109962457D01*
X132161904Y-109962457D02*
X132209523Y-110057695D01*
X132209523Y-110057695D02*
X132209523Y-110152933D01*
X132209523Y-110152933D02*
X132161904Y-110295790D01*
X132161904Y-110295790D02*
X131590476Y-110867219D01*
X131590476Y-110867219D02*
X132209523Y-110867219D01*
X133114285Y-109867219D02*
X132638095Y-109867219D01*
X132638095Y-109867219D02*
X132590476Y-110343409D01*
X132590476Y-110343409D02*
X132638095Y-110295790D01*
X132638095Y-110295790D02*
X132733333Y-110248171D01*
X132733333Y-110248171D02*
X132971428Y-110248171D01*
X132971428Y-110248171D02*
X133066666Y-110295790D01*
X133066666Y-110295790D02*
X133114285Y-110343409D01*
X133114285Y-110343409D02*
X133161904Y-110438647D01*
X133161904Y-110438647D02*
X133161904Y-110676742D01*
X133161904Y-110676742D02*
X133114285Y-110771980D01*
X133114285Y-110771980D02*
X133066666Y-110819600D01*
X133066666Y-110819600D02*
X132971428Y-110867219D01*
X132971428Y-110867219D02*
X132733333Y-110867219D01*
X132733333Y-110867219D02*
X132638095Y-110819600D01*
X132638095Y-110819600D02*
X132590476Y-110771980D01*
D10*
X138683911Y-70613837D02*
X139300768Y-70613837D01*
X139300768Y-70613837D02*
X139373340Y-70577551D01*
X139373340Y-70577551D02*
X139409626Y-70541266D01*
X139409626Y-70541266D02*
X139445911Y-70468694D01*
X139445911Y-70468694D02*
X139445911Y-70323551D01*
X139445911Y-70323551D02*
X139409626Y-70250980D01*
X139409626Y-70250980D02*
X139373340Y-70214694D01*
X139373340Y-70214694D02*
X139300768Y-70178408D01*
X139300768Y-70178408D02*
X138683911Y-70178408D01*
X138683911Y-69670408D02*
X138683911Y-69597837D01*
X138683911Y-69597837D02*
X138720197Y-69525265D01*
X138720197Y-69525265D02*
X138756483Y-69488980D01*
X138756483Y-69488980D02*
X138829054Y-69452694D01*
X138829054Y-69452694D02*
X138974197Y-69416408D01*
X138974197Y-69416408D02*
X139155626Y-69416408D01*
X139155626Y-69416408D02*
X139300768Y-69452694D01*
X139300768Y-69452694D02*
X139373340Y-69488980D01*
X139373340Y-69488980D02*
X139409626Y-69525265D01*
X139409626Y-69525265D02*
X139445911Y-69597837D01*
X139445911Y-69597837D02*
X139445911Y-69670408D01*
X139445911Y-69670408D02*
X139409626Y-69742980D01*
X139409626Y-69742980D02*
X139373340Y-69779265D01*
X139373340Y-69779265D02*
X139300768Y-69815551D01*
X139300768Y-69815551D02*
X139155626Y-69851837D01*
X139155626Y-69851837D02*
X138974197Y-69851837D01*
X138974197Y-69851837D02*
X138829054Y-69815551D01*
X138829054Y-69815551D02*
X138756483Y-69779265D01*
X138756483Y-69779265D02*
X138720197Y-69742980D01*
X138720197Y-69742980D02*
X138683911Y-69670408D01*
X139445911Y-68654408D02*
X139083054Y-68908408D01*
X139445911Y-69089837D02*
X138683911Y-69089837D01*
X138683911Y-69089837D02*
X138683911Y-68799551D01*
X138683911Y-68799551D02*
X138720197Y-68726980D01*
X138720197Y-68726980D02*
X138756483Y-68690694D01*
X138756483Y-68690694D02*
X138829054Y-68654408D01*
X138829054Y-68654408D02*
X138937911Y-68654408D01*
X138937911Y-68654408D02*
X139010483Y-68690694D01*
X139010483Y-68690694D02*
X139046768Y-68726980D01*
X139046768Y-68726980D02*
X139083054Y-68799551D01*
X139083054Y-68799551D02*
X139083054Y-69089837D01*
X138683911Y-68400408D02*
X139445911Y-67892408D01*
X138683911Y-67892408D02*
X139445911Y-68400408D01*
X129883911Y-70613837D02*
X130500768Y-70613837D01*
X130500768Y-70613837D02*
X130573340Y-70577551D01*
X130573340Y-70577551D02*
X130609626Y-70541266D01*
X130609626Y-70541266D02*
X130645911Y-70468694D01*
X130645911Y-70468694D02*
X130645911Y-70323551D01*
X130645911Y-70323551D02*
X130609626Y-70250980D01*
X130609626Y-70250980D02*
X130573340Y-70214694D01*
X130573340Y-70214694D02*
X130500768Y-70178408D01*
X130500768Y-70178408D02*
X129883911Y-70178408D01*
X129956483Y-69851837D02*
X129920197Y-69815551D01*
X129920197Y-69815551D02*
X129883911Y-69742980D01*
X129883911Y-69742980D02*
X129883911Y-69561551D01*
X129883911Y-69561551D02*
X129920197Y-69488980D01*
X129920197Y-69488980D02*
X129956483Y-69452694D01*
X129956483Y-69452694D02*
X130029054Y-69416408D01*
X130029054Y-69416408D02*
X130101626Y-69416408D01*
X130101626Y-69416408D02*
X130210483Y-69452694D01*
X130210483Y-69452694D02*
X130645911Y-69888122D01*
X130645911Y-69888122D02*
X130645911Y-69416408D01*
X130645911Y-68654408D02*
X130283054Y-68908408D01*
X130645911Y-69089837D02*
X129883911Y-69089837D01*
X129883911Y-69089837D02*
X129883911Y-68799551D01*
X129883911Y-68799551D02*
X129920197Y-68726980D01*
X129920197Y-68726980D02*
X129956483Y-68690694D01*
X129956483Y-68690694D02*
X130029054Y-68654408D01*
X130029054Y-68654408D02*
X130137911Y-68654408D01*
X130137911Y-68654408D02*
X130210483Y-68690694D01*
X130210483Y-68690694D02*
X130246768Y-68726980D01*
X130246768Y-68726980D02*
X130283054Y-68799551D01*
X130283054Y-68799551D02*
X130283054Y-69089837D01*
X129883911Y-68400408D02*
X130645911Y-67892408D01*
X129883911Y-67892408D02*
X130645911Y-68400408D01*
X140510143Y-99343340D02*
X140473857Y-99379626D01*
X140473857Y-99379626D02*
X140365000Y-99415911D01*
X140365000Y-99415911D02*
X140292428Y-99415911D01*
X140292428Y-99415911D02*
X140183571Y-99379626D01*
X140183571Y-99379626D02*
X140111000Y-99307054D01*
X140111000Y-99307054D02*
X140074714Y-99234483D01*
X140074714Y-99234483D02*
X140038428Y-99089340D01*
X140038428Y-99089340D02*
X140038428Y-98980483D01*
X140038428Y-98980483D02*
X140074714Y-98835340D01*
X140074714Y-98835340D02*
X140111000Y-98762768D01*
X140111000Y-98762768D02*
X140183571Y-98690197D01*
X140183571Y-98690197D02*
X140292428Y-98653911D01*
X140292428Y-98653911D02*
X140365000Y-98653911D01*
X140365000Y-98653911D02*
X140473857Y-98690197D01*
X140473857Y-98690197D02*
X140510143Y-98726483D01*
X140800428Y-98726483D02*
X140836714Y-98690197D01*
X140836714Y-98690197D02*
X140909286Y-98653911D01*
X140909286Y-98653911D02*
X141090714Y-98653911D01*
X141090714Y-98653911D02*
X141163286Y-98690197D01*
X141163286Y-98690197D02*
X141199571Y-98726483D01*
X141199571Y-98726483D02*
X141235857Y-98799054D01*
X141235857Y-98799054D02*
X141235857Y-98871626D01*
X141235857Y-98871626D02*
X141199571Y-98980483D01*
X141199571Y-98980483D02*
X140764143Y-99415911D01*
X140764143Y-99415911D02*
X141235857Y-99415911D01*
X141598714Y-99415911D02*
X141743857Y-99415911D01*
X141743857Y-99415911D02*
X141816428Y-99379626D01*
X141816428Y-99379626D02*
X141852714Y-99343340D01*
X141852714Y-99343340D02*
X141925285Y-99234483D01*
X141925285Y-99234483D02*
X141961571Y-99089340D01*
X141961571Y-99089340D02*
X141961571Y-98799054D01*
X141961571Y-98799054D02*
X141925285Y-98726483D01*
X141925285Y-98726483D02*
X141889000Y-98690197D01*
X141889000Y-98690197D02*
X141816428Y-98653911D01*
X141816428Y-98653911D02*
X141671285Y-98653911D01*
X141671285Y-98653911D02*
X141598714Y-98690197D01*
X141598714Y-98690197D02*
X141562428Y-98726483D01*
X141562428Y-98726483D02*
X141526142Y-98799054D01*
X141526142Y-98799054D02*
X141526142Y-98980483D01*
X141526142Y-98980483D02*
X141562428Y-99053054D01*
X141562428Y-99053054D02*
X141598714Y-99089340D01*
X141598714Y-99089340D02*
X141671285Y-99125626D01*
X141671285Y-99125626D02*
X141816428Y-99125626D01*
X141816428Y-99125626D02*
X141889000Y-99089340D01*
X141889000Y-99089340D02*
X141925285Y-99053054D01*
X141925285Y-99053054D02*
X141961571Y-98980483D01*
X154510143Y-73545911D02*
X154256143Y-73183054D01*
X154074714Y-73545911D02*
X154074714Y-72783911D01*
X154074714Y-72783911D02*
X154365000Y-72783911D01*
X154365000Y-72783911D02*
X154437571Y-72820197D01*
X154437571Y-72820197D02*
X154473857Y-72856483D01*
X154473857Y-72856483D02*
X154510143Y-72929054D01*
X154510143Y-72929054D02*
X154510143Y-73037911D01*
X154510143Y-73037911D02*
X154473857Y-73110483D01*
X154473857Y-73110483D02*
X154437571Y-73146768D01*
X154437571Y-73146768D02*
X154365000Y-73183054D01*
X154365000Y-73183054D02*
X154074714Y-73183054D01*
X155235857Y-73545911D02*
X154800428Y-73545911D01*
X155018143Y-73545911D02*
X155018143Y-72783911D01*
X155018143Y-72783911D02*
X154945571Y-72892768D01*
X154945571Y-72892768D02*
X154873000Y-72965340D01*
X154873000Y-72965340D02*
X154800428Y-73001626D01*
X155489857Y-72783911D02*
X155997857Y-72783911D01*
X155997857Y-72783911D02*
X155671285Y-73545911D01*
X154610143Y-74845911D02*
X154356143Y-74483054D01*
X154174714Y-74845911D02*
X154174714Y-74083911D01*
X154174714Y-74083911D02*
X154465000Y-74083911D01*
X154465000Y-74083911D02*
X154537571Y-74120197D01*
X154537571Y-74120197D02*
X154573857Y-74156483D01*
X154573857Y-74156483D02*
X154610143Y-74229054D01*
X154610143Y-74229054D02*
X154610143Y-74337911D01*
X154610143Y-74337911D02*
X154573857Y-74410483D01*
X154573857Y-74410483D02*
X154537571Y-74446768D01*
X154537571Y-74446768D02*
X154465000Y-74483054D01*
X154465000Y-74483054D02*
X154174714Y-74483054D01*
X155335857Y-74845911D02*
X154900428Y-74845911D01*
X155118143Y-74845911D02*
X155118143Y-74083911D01*
X155118143Y-74083911D02*
X155045571Y-74192768D01*
X155045571Y-74192768D02*
X154973000Y-74265340D01*
X154973000Y-74265340D02*
X154900428Y-74301626D01*
X155989000Y-74083911D02*
X155843857Y-74083911D01*
X155843857Y-74083911D02*
X155771285Y-74120197D01*
X155771285Y-74120197D02*
X155735000Y-74156483D01*
X155735000Y-74156483D02*
X155662428Y-74265340D01*
X155662428Y-74265340D02*
X155626142Y-74410483D01*
X155626142Y-74410483D02*
X155626142Y-74700768D01*
X155626142Y-74700768D02*
X155662428Y-74773340D01*
X155662428Y-74773340D02*
X155698714Y-74809626D01*
X155698714Y-74809626D02*
X155771285Y-74845911D01*
X155771285Y-74845911D02*
X155916428Y-74845911D01*
X155916428Y-74845911D02*
X155989000Y-74809626D01*
X155989000Y-74809626D02*
X156025285Y-74773340D01*
X156025285Y-74773340D02*
X156061571Y-74700768D01*
X156061571Y-74700768D02*
X156061571Y-74519340D01*
X156061571Y-74519340D02*
X156025285Y-74446768D01*
X156025285Y-74446768D02*
X155989000Y-74410483D01*
X155989000Y-74410483D02*
X155916428Y-74374197D01*
X155916428Y-74374197D02*
X155771285Y-74374197D01*
X155771285Y-74374197D02*
X155698714Y-74410483D01*
X155698714Y-74410483D02*
X155662428Y-74446768D01*
X155662428Y-74446768D02*
X155626142Y-74519340D01*
X165610143Y-106423340D02*
X165573857Y-106459626D01*
X165573857Y-106459626D02*
X165465000Y-106495911D01*
X165465000Y-106495911D02*
X165392428Y-106495911D01*
X165392428Y-106495911D02*
X165283571Y-106459626D01*
X165283571Y-106459626D02*
X165211000Y-106387054D01*
X165211000Y-106387054D02*
X165174714Y-106314483D01*
X165174714Y-106314483D02*
X165138428Y-106169340D01*
X165138428Y-106169340D02*
X165138428Y-106060483D01*
X165138428Y-106060483D02*
X165174714Y-105915340D01*
X165174714Y-105915340D02*
X165211000Y-105842768D01*
X165211000Y-105842768D02*
X165283571Y-105770197D01*
X165283571Y-105770197D02*
X165392428Y-105733911D01*
X165392428Y-105733911D02*
X165465000Y-105733911D01*
X165465000Y-105733911D02*
X165573857Y-105770197D01*
X165573857Y-105770197D02*
X165610143Y-105806483D01*
X166335857Y-106495911D02*
X165900428Y-106495911D01*
X166118143Y-106495911D02*
X166118143Y-105733911D01*
X166118143Y-105733911D02*
X166045571Y-105842768D01*
X166045571Y-105842768D02*
X165973000Y-105915340D01*
X165973000Y-105915340D02*
X165900428Y-105951626D01*
X167061571Y-106495911D02*
X166626142Y-106495911D01*
X166843857Y-106495911D02*
X166843857Y-105733911D01*
X166843857Y-105733911D02*
X166771285Y-105842768D01*
X166771285Y-105842768D02*
X166698714Y-105915340D01*
X166698714Y-105915340D02*
X166626142Y-105951626D01*
X151938429Y-78035911D02*
X152373858Y-78035911D01*
X152156143Y-78797911D02*
X152156143Y-78035911D01*
X152627857Y-78797911D02*
X152627857Y-78035911D01*
X152627857Y-78035911D02*
X152918143Y-78035911D01*
X152918143Y-78035911D02*
X152990714Y-78072197D01*
X152990714Y-78072197D02*
X153027000Y-78108483D01*
X153027000Y-78108483D02*
X153063286Y-78181054D01*
X153063286Y-78181054D02*
X153063286Y-78289911D01*
X153063286Y-78289911D02*
X153027000Y-78362483D01*
X153027000Y-78362483D02*
X152990714Y-78398768D01*
X152990714Y-78398768D02*
X152918143Y-78435054D01*
X152918143Y-78435054D02*
X152627857Y-78435054D01*
X153426143Y-78797911D02*
X153571286Y-78797911D01*
X153571286Y-78797911D02*
X153643857Y-78761626D01*
X153643857Y-78761626D02*
X153680143Y-78725340D01*
X153680143Y-78725340D02*
X153752714Y-78616483D01*
X153752714Y-78616483D02*
X153789000Y-78471340D01*
X153789000Y-78471340D02*
X153789000Y-78181054D01*
X153789000Y-78181054D02*
X153752714Y-78108483D01*
X153752714Y-78108483D02*
X153716429Y-78072197D01*
X153716429Y-78072197D02*
X153643857Y-78035911D01*
X153643857Y-78035911D02*
X153498714Y-78035911D01*
X153498714Y-78035911D02*
X153426143Y-78072197D01*
X153426143Y-78072197D02*
X153389857Y-78108483D01*
X153389857Y-78108483D02*
X153353571Y-78181054D01*
X153353571Y-78181054D02*
X153353571Y-78362483D01*
X153353571Y-78362483D02*
X153389857Y-78435054D01*
X153389857Y-78435054D02*
X153426143Y-78471340D01*
X153426143Y-78471340D02*
X153498714Y-78507626D01*
X153498714Y-78507626D02*
X153643857Y-78507626D01*
X153643857Y-78507626D02*
X153716429Y-78471340D01*
X153716429Y-78471340D02*
X153752714Y-78435054D01*
X153752714Y-78435054D02*
X153789000Y-78362483D01*
X151140142Y-82195911D02*
X151140142Y-81433911D01*
X151140142Y-81433911D02*
X151430428Y-81433911D01*
X151430428Y-81433911D02*
X151502999Y-81470197D01*
X151502999Y-81470197D02*
X151539285Y-81506483D01*
X151539285Y-81506483D02*
X151575571Y-81579054D01*
X151575571Y-81579054D02*
X151575571Y-81687911D01*
X151575571Y-81687911D02*
X151539285Y-81760483D01*
X151539285Y-81760483D02*
X151502999Y-81796768D01*
X151502999Y-81796768D02*
X151430428Y-81833054D01*
X151430428Y-81833054D02*
X151140142Y-81833054D01*
X152301285Y-81470197D02*
X152228714Y-81433911D01*
X152228714Y-81433911D02*
X152119856Y-81433911D01*
X152119856Y-81433911D02*
X152010999Y-81470197D01*
X152010999Y-81470197D02*
X151938428Y-81542768D01*
X151938428Y-81542768D02*
X151902142Y-81615340D01*
X151902142Y-81615340D02*
X151865856Y-81760483D01*
X151865856Y-81760483D02*
X151865856Y-81869340D01*
X151865856Y-81869340D02*
X151902142Y-82014483D01*
X151902142Y-82014483D02*
X151938428Y-82087054D01*
X151938428Y-82087054D02*
X152010999Y-82159626D01*
X152010999Y-82159626D02*
X152119856Y-82195911D01*
X152119856Y-82195911D02*
X152192428Y-82195911D01*
X152192428Y-82195911D02*
X152301285Y-82159626D01*
X152301285Y-82159626D02*
X152337571Y-82123340D01*
X152337571Y-82123340D02*
X152337571Y-81869340D01*
X152337571Y-81869340D02*
X152192428Y-81869340D01*
X152809285Y-81433911D02*
X152954428Y-81433911D01*
X152954428Y-81433911D02*
X153026999Y-81470197D01*
X153026999Y-81470197D02*
X153099571Y-81542768D01*
X153099571Y-81542768D02*
X153135856Y-81687911D01*
X153135856Y-81687911D02*
X153135856Y-81941911D01*
X153135856Y-81941911D02*
X153099571Y-82087054D01*
X153099571Y-82087054D02*
X153026999Y-82159626D01*
X153026999Y-82159626D02*
X152954428Y-82195911D01*
X152954428Y-82195911D02*
X152809285Y-82195911D01*
X152809285Y-82195911D02*
X152736714Y-82159626D01*
X152736714Y-82159626D02*
X152664142Y-82087054D01*
X152664142Y-82087054D02*
X152627856Y-81941911D01*
X152627856Y-81941911D02*
X152627856Y-81687911D01*
X152627856Y-81687911D02*
X152664142Y-81542768D01*
X152664142Y-81542768D02*
X152736714Y-81470197D01*
X152736714Y-81470197D02*
X152809285Y-81433911D01*
X153607571Y-81433911D02*
X153752714Y-81433911D01*
X153752714Y-81433911D02*
X153825285Y-81470197D01*
X153825285Y-81470197D02*
X153897857Y-81542768D01*
X153897857Y-81542768D02*
X153934142Y-81687911D01*
X153934142Y-81687911D02*
X153934142Y-81941911D01*
X153934142Y-81941911D02*
X153897857Y-82087054D01*
X153897857Y-82087054D02*
X153825285Y-82159626D01*
X153825285Y-82159626D02*
X153752714Y-82195911D01*
X153752714Y-82195911D02*
X153607571Y-82195911D01*
X153607571Y-82195911D02*
X153535000Y-82159626D01*
X153535000Y-82159626D02*
X153462428Y-82087054D01*
X153462428Y-82087054D02*
X153426142Y-81941911D01*
X153426142Y-81941911D02*
X153426142Y-81687911D01*
X153426142Y-81687911D02*
X153462428Y-81542768D01*
X153462428Y-81542768D02*
X153535000Y-81470197D01*
X153535000Y-81470197D02*
X153607571Y-81433911D01*
X154260714Y-82195911D02*
X154260714Y-81433911D01*
X154260714Y-81433911D02*
X154442143Y-81433911D01*
X154442143Y-81433911D02*
X154551000Y-81470197D01*
X154551000Y-81470197D02*
X154623571Y-81542768D01*
X154623571Y-81542768D02*
X154659857Y-81615340D01*
X154659857Y-81615340D02*
X154696143Y-81760483D01*
X154696143Y-81760483D02*
X154696143Y-81869340D01*
X154696143Y-81869340D02*
X154659857Y-82014483D01*
X154659857Y-82014483D02*
X154623571Y-82087054D01*
X154623571Y-82087054D02*
X154551000Y-82159626D01*
X154551000Y-82159626D02*
X154442143Y-82195911D01*
X154442143Y-82195911D02*
X154260714Y-82195911D01*
X168145911Y-82989856D02*
X167783054Y-83243856D01*
X168145911Y-83425285D02*
X167383911Y-83425285D01*
X167383911Y-83425285D02*
X167383911Y-83134999D01*
X167383911Y-83134999D02*
X167420197Y-83062428D01*
X167420197Y-83062428D02*
X167456483Y-83026142D01*
X167456483Y-83026142D02*
X167529054Y-82989856D01*
X167529054Y-82989856D02*
X167637911Y-82989856D01*
X167637911Y-82989856D02*
X167710483Y-83026142D01*
X167710483Y-83026142D02*
X167746768Y-83062428D01*
X167746768Y-83062428D02*
X167783054Y-83134999D01*
X167783054Y-83134999D02*
X167783054Y-83425285D01*
X168145911Y-82264142D02*
X168145911Y-82699571D01*
X168145911Y-82481856D02*
X167383911Y-82481856D01*
X167383911Y-82481856D02*
X167492768Y-82554428D01*
X167492768Y-82554428D02*
X167565340Y-82626999D01*
X167565340Y-82626999D02*
X167601626Y-82699571D01*
X167456483Y-81973857D02*
X167420197Y-81937571D01*
X167420197Y-81937571D02*
X167383911Y-81865000D01*
X167383911Y-81865000D02*
X167383911Y-81683571D01*
X167383911Y-81683571D02*
X167420197Y-81611000D01*
X167420197Y-81611000D02*
X167456483Y-81574714D01*
X167456483Y-81574714D02*
X167529054Y-81538428D01*
X167529054Y-81538428D02*
X167601626Y-81538428D01*
X167601626Y-81538428D02*
X167710483Y-81574714D01*
X167710483Y-81574714D02*
X168145911Y-82010142D01*
X168145911Y-82010142D02*
X168145911Y-81538428D01*
X156273340Y-113239856D02*
X156309626Y-113276142D01*
X156309626Y-113276142D02*
X156345911Y-113384999D01*
X156345911Y-113384999D02*
X156345911Y-113457571D01*
X156345911Y-113457571D02*
X156309626Y-113566428D01*
X156309626Y-113566428D02*
X156237054Y-113638999D01*
X156237054Y-113638999D02*
X156164483Y-113675285D01*
X156164483Y-113675285D02*
X156019340Y-113711571D01*
X156019340Y-113711571D02*
X155910483Y-113711571D01*
X155910483Y-113711571D02*
X155765340Y-113675285D01*
X155765340Y-113675285D02*
X155692768Y-113638999D01*
X155692768Y-113638999D02*
X155620197Y-113566428D01*
X155620197Y-113566428D02*
X155583911Y-113457571D01*
X155583911Y-113457571D02*
X155583911Y-113384999D01*
X155583911Y-113384999D02*
X155620197Y-113276142D01*
X155620197Y-113276142D02*
X155656483Y-113239856D01*
X155656483Y-112949571D02*
X155620197Y-112913285D01*
X155620197Y-112913285D02*
X155583911Y-112840714D01*
X155583911Y-112840714D02*
X155583911Y-112659285D01*
X155583911Y-112659285D02*
X155620197Y-112586714D01*
X155620197Y-112586714D02*
X155656483Y-112550428D01*
X155656483Y-112550428D02*
X155729054Y-112514142D01*
X155729054Y-112514142D02*
X155801626Y-112514142D01*
X155801626Y-112514142D02*
X155910483Y-112550428D01*
X155910483Y-112550428D02*
X156345911Y-112985856D01*
X156345911Y-112985856D02*
X156345911Y-112514142D01*
X155583911Y-112260142D02*
X155583911Y-111788428D01*
X155583911Y-111788428D02*
X155874197Y-112042428D01*
X155874197Y-112042428D02*
X155874197Y-111933571D01*
X155874197Y-111933571D02*
X155910483Y-111861000D01*
X155910483Y-111861000D02*
X155946768Y-111824714D01*
X155946768Y-111824714D02*
X156019340Y-111788428D01*
X156019340Y-111788428D02*
X156200768Y-111788428D01*
X156200768Y-111788428D02*
X156273340Y-111824714D01*
X156273340Y-111824714D02*
X156309626Y-111861000D01*
X156309626Y-111861000D02*
X156345911Y-111933571D01*
X156345911Y-111933571D02*
X156345911Y-112151285D01*
X156345911Y-112151285D02*
X156309626Y-112223857D01*
X156309626Y-112223857D02*
X156273340Y-112260142D01*
X169175572Y-106935911D02*
X169611001Y-106935911D01*
X169393286Y-107697911D02*
X169393286Y-106935911D01*
X169865000Y-107697911D02*
X169865000Y-106935911D01*
X169865000Y-106935911D02*
X170155286Y-106935911D01*
X170155286Y-106935911D02*
X170227857Y-106972197D01*
X170227857Y-106972197D02*
X170264143Y-107008483D01*
X170264143Y-107008483D02*
X170300429Y-107081054D01*
X170300429Y-107081054D02*
X170300429Y-107189911D01*
X170300429Y-107189911D02*
X170264143Y-107262483D01*
X170264143Y-107262483D02*
X170227857Y-107298768D01*
X170227857Y-107298768D02*
X170155286Y-107335054D01*
X170155286Y-107335054D02*
X169865000Y-107335054D01*
X170554429Y-106935911D02*
X171026143Y-106935911D01*
X171026143Y-106935911D02*
X170772143Y-107226197D01*
X170772143Y-107226197D02*
X170881000Y-107226197D01*
X170881000Y-107226197D02*
X170953572Y-107262483D01*
X170953572Y-107262483D02*
X170989857Y-107298768D01*
X170989857Y-107298768D02*
X171026143Y-107371340D01*
X171026143Y-107371340D02*
X171026143Y-107552768D01*
X171026143Y-107552768D02*
X170989857Y-107625340D01*
X170989857Y-107625340D02*
X170953572Y-107661626D01*
X170953572Y-107661626D02*
X170881000Y-107697911D01*
X170881000Y-107697911D02*
X170663286Y-107697911D01*
X170663286Y-107697911D02*
X170590714Y-107661626D01*
X170590714Y-107661626D02*
X170554429Y-107625340D01*
X171497857Y-106935911D02*
X171570428Y-106935911D01*
X171570428Y-106935911D02*
X171643000Y-106972197D01*
X171643000Y-106972197D02*
X171679286Y-107008483D01*
X171679286Y-107008483D02*
X171715571Y-107081054D01*
X171715571Y-107081054D02*
X171751857Y-107226197D01*
X171751857Y-107226197D02*
X171751857Y-107407626D01*
X171751857Y-107407626D02*
X171715571Y-107552768D01*
X171715571Y-107552768D02*
X171679286Y-107625340D01*
X171679286Y-107625340D02*
X171643000Y-107661626D01*
X171643000Y-107661626D02*
X171570428Y-107697911D01*
X171570428Y-107697911D02*
X171497857Y-107697911D01*
X171497857Y-107697911D02*
X171425286Y-107661626D01*
X171425286Y-107661626D02*
X171389000Y-107625340D01*
X171389000Y-107625340D02*
X171352714Y-107552768D01*
X171352714Y-107552768D02*
X171316428Y-107407626D01*
X171316428Y-107407626D02*
X171316428Y-107226197D01*
X171316428Y-107226197D02*
X171352714Y-107081054D01*
X171352714Y-107081054D02*
X171389000Y-107008483D01*
X171389000Y-107008483D02*
X171425286Y-106972197D01*
X171425286Y-106972197D02*
X171497857Y-106935911D01*
X169919428Y-110370197D02*
X169846857Y-110333911D01*
X169846857Y-110333911D02*
X169737999Y-110333911D01*
X169737999Y-110333911D02*
X169629142Y-110370197D01*
X169629142Y-110370197D02*
X169556571Y-110442768D01*
X169556571Y-110442768D02*
X169520285Y-110515340D01*
X169520285Y-110515340D02*
X169483999Y-110660483D01*
X169483999Y-110660483D02*
X169483999Y-110769340D01*
X169483999Y-110769340D02*
X169520285Y-110914483D01*
X169520285Y-110914483D02*
X169556571Y-110987054D01*
X169556571Y-110987054D02*
X169629142Y-111059626D01*
X169629142Y-111059626D02*
X169737999Y-111095911D01*
X169737999Y-111095911D02*
X169810571Y-111095911D01*
X169810571Y-111095911D02*
X169919428Y-111059626D01*
X169919428Y-111059626D02*
X169955714Y-111023340D01*
X169955714Y-111023340D02*
X169955714Y-110769340D01*
X169955714Y-110769340D02*
X169810571Y-110769340D01*
X170282285Y-111095911D02*
X170282285Y-110333911D01*
X170282285Y-110333911D02*
X170717714Y-111095911D01*
X170717714Y-111095911D02*
X170717714Y-110333911D01*
X171080571Y-111095911D02*
X171080571Y-110333911D01*
X171080571Y-110333911D02*
X171262000Y-110333911D01*
X171262000Y-110333911D02*
X171370857Y-110370197D01*
X171370857Y-110370197D02*
X171443428Y-110442768D01*
X171443428Y-110442768D02*
X171479714Y-110515340D01*
X171479714Y-110515340D02*
X171516000Y-110660483D01*
X171516000Y-110660483D02*
X171516000Y-110769340D01*
X171516000Y-110769340D02*
X171479714Y-110914483D01*
X171479714Y-110914483D02*
X171443428Y-110987054D01*
X171443428Y-110987054D02*
X171370857Y-111059626D01*
X171370857Y-111059626D02*
X171262000Y-111095911D01*
X171262000Y-111095911D02*
X171080571Y-111095911D01*
X136760143Y-103773340D02*
X136723857Y-103809626D01*
X136723857Y-103809626D02*
X136615000Y-103845911D01*
X136615000Y-103845911D02*
X136542428Y-103845911D01*
X136542428Y-103845911D02*
X136433571Y-103809626D01*
X136433571Y-103809626D02*
X136361000Y-103737054D01*
X136361000Y-103737054D02*
X136324714Y-103664483D01*
X136324714Y-103664483D02*
X136288428Y-103519340D01*
X136288428Y-103519340D02*
X136288428Y-103410483D01*
X136288428Y-103410483D02*
X136324714Y-103265340D01*
X136324714Y-103265340D02*
X136361000Y-103192768D01*
X136361000Y-103192768D02*
X136433571Y-103120197D01*
X136433571Y-103120197D02*
X136542428Y-103083911D01*
X136542428Y-103083911D02*
X136615000Y-103083911D01*
X136615000Y-103083911D02*
X136723857Y-103120197D01*
X136723857Y-103120197D02*
X136760143Y-103156483D01*
X137050428Y-103156483D02*
X137086714Y-103120197D01*
X137086714Y-103120197D02*
X137159286Y-103083911D01*
X137159286Y-103083911D02*
X137340714Y-103083911D01*
X137340714Y-103083911D02*
X137413286Y-103120197D01*
X137413286Y-103120197D02*
X137449571Y-103156483D01*
X137449571Y-103156483D02*
X137485857Y-103229054D01*
X137485857Y-103229054D02*
X137485857Y-103301626D01*
X137485857Y-103301626D02*
X137449571Y-103410483D01*
X137449571Y-103410483D02*
X137014143Y-103845911D01*
X137014143Y-103845911D02*
X137485857Y-103845911D01*
X138139000Y-103083911D02*
X137993857Y-103083911D01*
X137993857Y-103083911D02*
X137921285Y-103120197D01*
X137921285Y-103120197D02*
X137885000Y-103156483D01*
X137885000Y-103156483D02*
X137812428Y-103265340D01*
X137812428Y-103265340D02*
X137776142Y-103410483D01*
X137776142Y-103410483D02*
X137776142Y-103700768D01*
X137776142Y-103700768D02*
X137812428Y-103773340D01*
X137812428Y-103773340D02*
X137848714Y-103809626D01*
X137848714Y-103809626D02*
X137921285Y-103845911D01*
X137921285Y-103845911D02*
X138066428Y-103845911D01*
X138066428Y-103845911D02*
X138139000Y-103809626D01*
X138139000Y-103809626D02*
X138175285Y-103773340D01*
X138175285Y-103773340D02*
X138211571Y-103700768D01*
X138211571Y-103700768D02*
X138211571Y-103519340D01*
X138211571Y-103519340D02*
X138175285Y-103446768D01*
X138175285Y-103446768D02*
X138139000Y-103410483D01*
X138139000Y-103410483D02*
X138066428Y-103374197D01*
X138066428Y-103374197D02*
X137921285Y-103374197D01*
X137921285Y-103374197D02*
X137848714Y-103410483D01*
X137848714Y-103410483D02*
X137812428Y-103446768D01*
X137812428Y-103446768D02*
X137776142Y-103519340D01*
X165610143Y-104923340D02*
X165573857Y-104959626D01*
X165573857Y-104959626D02*
X165465000Y-104995911D01*
X165465000Y-104995911D02*
X165392428Y-104995911D01*
X165392428Y-104995911D02*
X165283571Y-104959626D01*
X165283571Y-104959626D02*
X165211000Y-104887054D01*
X165211000Y-104887054D02*
X165174714Y-104814483D01*
X165174714Y-104814483D02*
X165138428Y-104669340D01*
X165138428Y-104669340D02*
X165138428Y-104560483D01*
X165138428Y-104560483D02*
X165174714Y-104415340D01*
X165174714Y-104415340D02*
X165211000Y-104342768D01*
X165211000Y-104342768D02*
X165283571Y-104270197D01*
X165283571Y-104270197D02*
X165392428Y-104233911D01*
X165392428Y-104233911D02*
X165465000Y-104233911D01*
X165465000Y-104233911D02*
X165573857Y-104270197D01*
X165573857Y-104270197D02*
X165610143Y-104306483D01*
X166335857Y-104995911D02*
X165900428Y-104995911D01*
X166118143Y-104995911D02*
X166118143Y-104233911D01*
X166118143Y-104233911D02*
X166045571Y-104342768D01*
X166045571Y-104342768D02*
X165973000Y-104415340D01*
X165973000Y-104415340D02*
X165900428Y-104451626D01*
X166807571Y-104233911D02*
X166880142Y-104233911D01*
X166880142Y-104233911D02*
X166952714Y-104270197D01*
X166952714Y-104270197D02*
X166989000Y-104306483D01*
X166989000Y-104306483D02*
X167025285Y-104379054D01*
X167025285Y-104379054D02*
X167061571Y-104524197D01*
X167061571Y-104524197D02*
X167061571Y-104705626D01*
X167061571Y-104705626D02*
X167025285Y-104850768D01*
X167025285Y-104850768D02*
X166989000Y-104923340D01*
X166989000Y-104923340D02*
X166952714Y-104959626D01*
X166952714Y-104959626D02*
X166880142Y-104995911D01*
X166880142Y-104995911D02*
X166807571Y-104995911D01*
X166807571Y-104995911D02*
X166735000Y-104959626D01*
X166735000Y-104959626D02*
X166698714Y-104923340D01*
X166698714Y-104923340D02*
X166662428Y-104850768D01*
X166662428Y-104850768D02*
X166626142Y-104705626D01*
X166626142Y-104705626D02*
X166626142Y-104524197D01*
X166626142Y-104524197D02*
X166662428Y-104379054D01*
X166662428Y-104379054D02*
X166698714Y-104306483D01*
X166698714Y-104306483D02*
X166735000Y-104270197D01*
X166735000Y-104270197D02*
X166807571Y-104233911D01*
X130346000Y-80783911D02*
X130346000Y-81328197D01*
X130346000Y-81328197D02*
X130309715Y-81437054D01*
X130309715Y-81437054D02*
X130237143Y-81509626D01*
X130237143Y-81509626D02*
X130128286Y-81545911D01*
X130128286Y-81545911D02*
X130055715Y-81545911D01*
X130672571Y-80856483D02*
X130708857Y-80820197D01*
X130708857Y-80820197D02*
X130781429Y-80783911D01*
X130781429Y-80783911D02*
X130962857Y-80783911D01*
X130962857Y-80783911D02*
X131035429Y-80820197D01*
X131035429Y-80820197D02*
X131071714Y-80856483D01*
X131071714Y-80856483D02*
X131108000Y-80929054D01*
X131108000Y-80929054D02*
X131108000Y-81001626D01*
X131108000Y-81001626D02*
X131071714Y-81110483D01*
X131071714Y-81110483D02*
X130636286Y-81545911D01*
X130636286Y-81545911D02*
X131108000Y-81545911D01*
X137409626Y-116415999D02*
X137445911Y-116307142D01*
X137445911Y-116307142D02*
X137445911Y-116125713D01*
X137445911Y-116125713D02*
X137409626Y-116053142D01*
X137409626Y-116053142D02*
X137373340Y-116016856D01*
X137373340Y-116016856D02*
X137300768Y-115980570D01*
X137300768Y-115980570D02*
X137228197Y-115980570D01*
X137228197Y-115980570D02*
X137155626Y-116016856D01*
X137155626Y-116016856D02*
X137119340Y-116053142D01*
X137119340Y-116053142D02*
X137083054Y-116125713D01*
X137083054Y-116125713D02*
X137046768Y-116270856D01*
X137046768Y-116270856D02*
X137010483Y-116343427D01*
X137010483Y-116343427D02*
X136974197Y-116379713D01*
X136974197Y-116379713D02*
X136901626Y-116415999D01*
X136901626Y-116415999D02*
X136829054Y-116415999D01*
X136829054Y-116415999D02*
X136756483Y-116379713D01*
X136756483Y-116379713D02*
X136720197Y-116343427D01*
X136720197Y-116343427D02*
X136683911Y-116270856D01*
X136683911Y-116270856D02*
X136683911Y-116089427D01*
X136683911Y-116089427D02*
X136720197Y-115980570D01*
X136683911Y-115726570D02*
X137445911Y-115545142D01*
X137445911Y-115545142D02*
X136901626Y-115399999D01*
X136901626Y-115399999D02*
X137445911Y-115254856D01*
X137445911Y-115254856D02*
X136683911Y-115073428D01*
X136756483Y-114819428D02*
X136720197Y-114783142D01*
X136720197Y-114783142D02*
X136683911Y-114710571D01*
X136683911Y-114710571D02*
X136683911Y-114529142D01*
X136683911Y-114529142D02*
X136720197Y-114456571D01*
X136720197Y-114456571D02*
X136756483Y-114420285D01*
X136756483Y-114420285D02*
X136829054Y-114383999D01*
X136829054Y-114383999D02*
X136901626Y-114383999D01*
X136901626Y-114383999D02*
X137010483Y-114420285D01*
X137010483Y-114420285D02*
X137445911Y-114855713D01*
X137445911Y-114855713D02*
X137445911Y-114383999D01*
X131375572Y-112783911D02*
X131811001Y-112783911D01*
X131593286Y-113545911D02*
X131593286Y-112783911D01*
X132065000Y-113545911D02*
X132065000Y-112783911D01*
X132065000Y-112783911D02*
X132355286Y-112783911D01*
X132355286Y-112783911D02*
X132427857Y-112820197D01*
X132427857Y-112820197D02*
X132464143Y-112856483D01*
X132464143Y-112856483D02*
X132500429Y-112929054D01*
X132500429Y-112929054D02*
X132500429Y-113037911D01*
X132500429Y-113037911D02*
X132464143Y-113110483D01*
X132464143Y-113110483D02*
X132427857Y-113146768D01*
X132427857Y-113146768D02*
X132355286Y-113183054D01*
X132355286Y-113183054D02*
X132065000Y-113183054D01*
X133226143Y-113545911D02*
X132790714Y-113545911D01*
X133008429Y-113545911D02*
X133008429Y-112783911D01*
X133008429Y-112783911D02*
X132935857Y-112892768D01*
X132935857Y-112892768D02*
X132863286Y-112965340D01*
X132863286Y-112965340D02*
X132790714Y-113001626D01*
X133480143Y-112783911D02*
X133951857Y-112783911D01*
X133951857Y-112783911D02*
X133697857Y-113074197D01*
X133697857Y-113074197D02*
X133806714Y-113074197D01*
X133806714Y-113074197D02*
X133879286Y-113110483D01*
X133879286Y-113110483D02*
X133915571Y-113146768D01*
X133915571Y-113146768D02*
X133951857Y-113219340D01*
X133951857Y-113219340D02*
X133951857Y-113400768D01*
X133951857Y-113400768D02*
X133915571Y-113473340D01*
X133915571Y-113473340D02*
X133879286Y-113509626D01*
X133879286Y-113509626D02*
X133806714Y-113545911D01*
X133806714Y-113545911D02*
X133589000Y-113545911D01*
X133589000Y-113545911D02*
X133516428Y-113509626D01*
X133516428Y-113509626D02*
X133480143Y-113473340D01*
X131438428Y-116795911D02*
X131438428Y-116033911D01*
X131438428Y-116033911D02*
X131873857Y-116795911D01*
X131873857Y-116795911D02*
X131873857Y-116033911D01*
X132381857Y-116033911D02*
X132527000Y-116033911D01*
X132527000Y-116033911D02*
X132599571Y-116070197D01*
X132599571Y-116070197D02*
X132672143Y-116142768D01*
X132672143Y-116142768D02*
X132708428Y-116287911D01*
X132708428Y-116287911D02*
X132708428Y-116541911D01*
X132708428Y-116541911D02*
X132672143Y-116687054D01*
X132672143Y-116687054D02*
X132599571Y-116759626D01*
X132599571Y-116759626D02*
X132527000Y-116795911D01*
X132527000Y-116795911D02*
X132381857Y-116795911D01*
X132381857Y-116795911D02*
X132309286Y-116759626D01*
X132309286Y-116759626D02*
X132236714Y-116687054D01*
X132236714Y-116687054D02*
X132200428Y-116541911D01*
X132200428Y-116541911D02*
X132200428Y-116287911D01*
X132200428Y-116287911D02*
X132236714Y-116142768D01*
X132236714Y-116142768D02*
X132309286Y-116070197D01*
X132309286Y-116070197D02*
X132381857Y-116033911D01*
X133035000Y-116396768D02*
X133289000Y-116396768D01*
X133397857Y-116795911D02*
X133035000Y-116795911D01*
X133035000Y-116795911D02*
X133035000Y-116033911D01*
X133035000Y-116033911D02*
X133397857Y-116033911D01*
X161173340Y-76889856D02*
X161209626Y-76926142D01*
X161209626Y-76926142D02*
X161245911Y-77034999D01*
X161245911Y-77034999D02*
X161245911Y-77107571D01*
X161245911Y-77107571D02*
X161209626Y-77216428D01*
X161209626Y-77216428D02*
X161137054Y-77288999D01*
X161137054Y-77288999D02*
X161064483Y-77325285D01*
X161064483Y-77325285D02*
X160919340Y-77361571D01*
X160919340Y-77361571D02*
X160810483Y-77361571D01*
X160810483Y-77361571D02*
X160665340Y-77325285D01*
X160665340Y-77325285D02*
X160592768Y-77288999D01*
X160592768Y-77288999D02*
X160520197Y-77216428D01*
X160520197Y-77216428D02*
X160483911Y-77107571D01*
X160483911Y-77107571D02*
X160483911Y-77034999D01*
X160483911Y-77034999D02*
X160520197Y-76926142D01*
X160520197Y-76926142D02*
X160556483Y-76889856D01*
X160483911Y-76635856D02*
X160483911Y-76164142D01*
X160483911Y-76164142D02*
X160774197Y-76418142D01*
X160774197Y-76418142D02*
X160774197Y-76309285D01*
X160774197Y-76309285D02*
X160810483Y-76236714D01*
X160810483Y-76236714D02*
X160846768Y-76200428D01*
X160846768Y-76200428D02*
X160919340Y-76164142D01*
X160919340Y-76164142D02*
X161100768Y-76164142D01*
X161100768Y-76164142D02*
X161173340Y-76200428D01*
X161173340Y-76200428D02*
X161209626Y-76236714D01*
X161209626Y-76236714D02*
X161245911Y-76309285D01*
X161245911Y-76309285D02*
X161245911Y-76526999D01*
X161245911Y-76526999D02*
X161209626Y-76599571D01*
X161209626Y-76599571D02*
X161173340Y-76635856D01*
X160737911Y-75511000D02*
X161245911Y-75511000D01*
X160447626Y-75692428D02*
X160991911Y-75873857D01*
X160991911Y-75873857D02*
X160991911Y-75402142D01*
X166383911Y-93924427D02*
X166383911Y-93488999D01*
X167145911Y-93706713D02*
X166383911Y-93706713D01*
X167145911Y-93234999D02*
X166383911Y-93234999D01*
X166383911Y-93234999D02*
X166383911Y-92944713D01*
X166383911Y-92944713D02*
X166420197Y-92872142D01*
X166420197Y-92872142D02*
X166456483Y-92835856D01*
X166456483Y-92835856D02*
X166529054Y-92799570D01*
X166529054Y-92799570D02*
X166637911Y-92799570D01*
X166637911Y-92799570D02*
X166710483Y-92835856D01*
X166710483Y-92835856D02*
X166746768Y-92872142D01*
X166746768Y-92872142D02*
X166783054Y-92944713D01*
X166783054Y-92944713D02*
X166783054Y-93234999D01*
X166456483Y-92509285D02*
X166420197Y-92472999D01*
X166420197Y-92472999D02*
X166383911Y-92400428D01*
X166383911Y-92400428D02*
X166383911Y-92218999D01*
X166383911Y-92218999D02*
X166420197Y-92146428D01*
X166420197Y-92146428D02*
X166456483Y-92110142D01*
X166456483Y-92110142D02*
X166529054Y-92073856D01*
X166529054Y-92073856D02*
X166601626Y-92073856D01*
X166601626Y-92073856D02*
X166710483Y-92110142D01*
X166710483Y-92110142D02*
X167145911Y-92545570D01*
X167145911Y-92545570D02*
X167145911Y-92073856D01*
X166383911Y-91384428D02*
X166383911Y-91747285D01*
X166383911Y-91747285D02*
X166746768Y-91783571D01*
X166746768Y-91783571D02*
X166710483Y-91747285D01*
X166710483Y-91747285D02*
X166674197Y-91674714D01*
X166674197Y-91674714D02*
X166674197Y-91493285D01*
X166674197Y-91493285D02*
X166710483Y-91420714D01*
X166710483Y-91420714D02*
X166746768Y-91384428D01*
X166746768Y-91384428D02*
X166819340Y-91348142D01*
X166819340Y-91348142D02*
X167000768Y-91348142D01*
X167000768Y-91348142D02*
X167073340Y-91384428D01*
X167073340Y-91384428D02*
X167109626Y-91420714D01*
X167109626Y-91420714D02*
X167145911Y-91493285D01*
X167145911Y-91493285D02*
X167145911Y-91674714D01*
X167145911Y-91674714D02*
X167109626Y-91747285D01*
X167109626Y-91747285D02*
X167073340Y-91783571D01*
X168173340Y-93588999D02*
X168209626Y-93625285D01*
X168209626Y-93625285D02*
X168245911Y-93734142D01*
X168245911Y-93734142D02*
X168245911Y-93806714D01*
X168245911Y-93806714D02*
X168209626Y-93915571D01*
X168209626Y-93915571D02*
X168137054Y-93988142D01*
X168137054Y-93988142D02*
X168064483Y-94024428D01*
X168064483Y-94024428D02*
X167919340Y-94060714D01*
X167919340Y-94060714D02*
X167810483Y-94060714D01*
X167810483Y-94060714D02*
X167665340Y-94024428D01*
X167665340Y-94024428D02*
X167592768Y-93988142D01*
X167592768Y-93988142D02*
X167520197Y-93915571D01*
X167520197Y-93915571D02*
X167483911Y-93806714D01*
X167483911Y-93806714D02*
X167483911Y-93734142D01*
X167483911Y-93734142D02*
X167520197Y-93625285D01*
X167520197Y-93625285D02*
X167556483Y-93588999D01*
X168209626Y-93298714D02*
X168245911Y-93189857D01*
X168245911Y-93189857D02*
X168245911Y-93008428D01*
X168245911Y-93008428D02*
X168209626Y-92935857D01*
X168209626Y-92935857D02*
X168173340Y-92899571D01*
X168173340Y-92899571D02*
X168100768Y-92863285D01*
X168100768Y-92863285D02*
X168028197Y-92863285D01*
X168028197Y-92863285D02*
X167955626Y-92899571D01*
X167955626Y-92899571D02*
X167919340Y-92935857D01*
X167919340Y-92935857D02*
X167883054Y-93008428D01*
X167883054Y-93008428D02*
X167846768Y-93153571D01*
X167846768Y-93153571D02*
X167810483Y-93226142D01*
X167810483Y-93226142D02*
X167774197Y-93262428D01*
X167774197Y-93262428D02*
X167701626Y-93298714D01*
X167701626Y-93298714D02*
X167629054Y-93298714D01*
X167629054Y-93298714D02*
X167556483Y-93262428D01*
X167556483Y-93262428D02*
X167520197Y-93226142D01*
X167520197Y-93226142D02*
X167483911Y-93153571D01*
X167483911Y-93153571D02*
X167483911Y-92972142D01*
X167483911Y-92972142D02*
X167520197Y-92863285D01*
X168173340Y-92101285D02*
X168209626Y-92137571D01*
X168209626Y-92137571D02*
X168245911Y-92246428D01*
X168245911Y-92246428D02*
X168245911Y-92319000D01*
X168245911Y-92319000D02*
X168209626Y-92427857D01*
X168209626Y-92427857D02*
X168137054Y-92500428D01*
X168137054Y-92500428D02*
X168064483Y-92536714D01*
X168064483Y-92536714D02*
X167919340Y-92573000D01*
X167919340Y-92573000D02*
X167810483Y-92573000D01*
X167810483Y-92573000D02*
X167665340Y-92536714D01*
X167665340Y-92536714D02*
X167592768Y-92500428D01*
X167592768Y-92500428D02*
X167520197Y-92427857D01*
X167520197Y-92427857D02*
X167483911Y-92319000D01*
X167483911Y-92319000D02*
X167483911Y-92246428D01*
X167483911Y-92246428D02*
X167520197Y-92137571D01*
X167520197Y-92137571D02*
X167556483Y-92101285D01*
X168245911Y-91774714D02*
X167483911Y-91774714D01*
X168245911Y-91339285D02*
X167810483Y-91665857D01*
X167483911Y-91339285D02*
X167919340Y-91774714D01*
X118996768Y-96598713D02*
X119033054Y-96489856D01*
X119033054Y-96489856D02*
X119069340Y-96453570D01*
X119069340Y-96453570D02*
X119141911Y-96417284D01*
X119141911Y-96417284D02*
X119250768Y-96417284D01*
X119250768Y-96417284D02*
X119323340Y-96453570D01*
X119323340Y-96453570D02*
X119359626Y-96489856D01*
X119359626Y-96489856D02*
X119395911Y-96562427D01*
X119395911Y-96562427D02*
X119395911Y-96852713D01*
X119395911Y-96852713D02*
X118633911Y-96852713D01*
X118633911Y-96852713D02*
X118633911Y-96598713D01*
X118633911Y-96598713D02*
X118670197Y-96526142D01*
X118670197Y-96526142D02*
X118706483Y-96489856D01*
X118706483Y-96489856D02*
X118779054Y-96453570D01*
X118779054Y-96453570D02*
X118851626Y-96453570D01*
X118851626Y-96453570D02*
X118924197Y-96489856D01*
X118924197Y-96489856D02*
X118960483Y-96526142D01*
X118960483Y-96526142D02*
X118996768Y-96598713D01*
X118996768Y-96598713D02*
X118996768Y-96852713D01*
X118633911Y-96199570D02*
X118633911Y-95764142D01*
X119395911Y-95981856D02*
X118633911Y-95981856D01*
X119395911Y-95110999D02*
X119395911Y-95546428D01*
X119395911Y-95328713D02*
X118633911Y-95328713D01*
X118633911Y-95328713D02*
X118742768Y-95401285D01*
X118742768Y-95401285D02*
X118815340Y-95473856D01*
X118815340Y-95473856D02*
X118851626Y-95546428D01*
X136760143Y-102273340D02*
X136723857Y-102309626D01*
X136723857Y-102309626D02*
X136615000Y-102345911D01*
X136615000Y-102345911D02*
X136542428Y-102345911D01*
X136542428Y-102345911D02*
X136433571Y-102309626D01*
X136433571Y-102309626D02*
X136361000Y-102237054D01*
X136361000Y-102237054D02*
X136324714Y-102164483D01*
X136324714Y-102164483D02*
X136288428Y-102019340D01*
X136288428Y-102019340D02*
X136288428Y-101910483D01*
X136288428Y-101910483D02*
X136324714Y-101765340D01*
X136324714Y-101765340D02*
X136361000Y-101692768D01*
X136361000Y-101692768D02*
X136433571Y-101620197D01*
X136433571Y-101620197D02*
X136542428Y-101583911D01*
X136542428Y-101583911D02*
X136615000Y-101583911D01*
X136615000Y-101583911D02*
X136723857Y-101620197D01*
X136723857Y-101620197D02*
X136760143Y-101656483D01*
X137050428Y-101656483D02*
X137086714Y-101620197D01*
X137086714Y-101620197D02*
X137159286Y-101583911D01*
X137159286Y-101583911D02*
X137340714Y-101583911D01*
X137340714Y-101583911D02*
X137413286Y-101620197D01*
X137413286Y-101620197D02*
X137449571Y-101656483D01*
X137449571Y-101656483D02*
X137485857Y-101729054D01*
X137485857Y-101729054D02*
X137485857Y-101801626D01*
X137485857Y-101801626D02*
X137449571Y-101910483D01*
X137449571Y-101910483D02*
X137014143Y-102345911D01*
X137014143Y-102345911D02*
X137485857Y-102345911D01*
X137739857Y-101583911D02*
X138247857Y-101583911D01*
X138247857Y-101583911D02*
X137921285Y-102345911D01*
X146110143Y-71345911D02*
X145856143Y-70983054D01*
X145674714Y-71345911D02*
X145674714Y-70583911D01*
X145674714Y-70583911D02*
X145965000Y-70583911D01*
X145965000Y-70583911D02*
X146037571Y-70620197D01*
X146037571Y-70620197D02*
X146073857Y-70656483D01*
X146073857Y-70656483D02*
X146110143Y-70729054D01*
X146110143Y-70729054D02*
X146110143Y-70837911D01*
X146110143Y-70837911D02*
X146073857Y-70910483D01*
X146073857Y-70910483D02*
X146037571Y-70946768D01*
X146037571Y-70946768D02*
X145965000Y-70983054D01*
X145965000Y-70983054D02*
X145674714Y-70983054D01*
X146835857Y-71345911D02*
X146400428Y-71345911D01*
X146618143Y-71345911D02*
X146618143Y-70583911D01*
X146618143Y-70583911D02*
X146545571Y-70692768D01*
X146545571Y-70692768D02*
X146473000Y-70765340D01*
X146473000Y-70765340D02*
X146400428Y-70801626D01*
X147198714Y-71345911D02*
X147343857Y-71345911D01*
X147343857Y-71345911D02*
X147416428Y-71309626D01*
X147416428Y-71309626D02*
X147452714Y-71273340D01*
X147452714Y-71273340D02*
X147525285Y-71164483D01*
X147525285Y-71164483D02*
X147561571Y-71019340D01*
X147561571Y-71019340D02*
X147561571Y-70729054D01*
X147561571Y-70729054D02*
X147525285Y-70656483D01*
X147525285Y-70656483D02*
X147489000Y-70620197D01*
X147489000Y-70620197D02*
X147416428Y-70583911D01*
X147416428Y-70583911D02*
X147271285Y-70583911D01*
X147271285Y-70583911D02*
X147198714Y-70620197D01*
X147198714Y-70620197D02*
X147162428Y-70656483D01*
X147162428Y-70656483D02*
X147126142Y-70729054D01*
X147126142Y-70729054D02*
X147126142Y-70910483D01*
X147126142Y-70910483D02*
X147162428Y-70983054D01*
X147162428Y-70983054D02*
X147198714Y-71019340D01*
X147198714Y-71019340D02*
X147271285Y-71055626D01*
X147271285Y-71055626D02*
X147416428Y-71055626D01*
X147416428Y-71055626D02*
X147489000Y-71019340D01*
X147489000Y-71019340D02*
X147525285Y-70983054D01*
X147525285Y-70983054D02*
X147561571Y-70910483D01*
X122146000Y-65534711D02*
X122146000Y-66078997D01*
X122146000Y-66078997D02*
X122109715Y-66187854D01*
X122109715Y-66187854D02*
X122037143Y-66260426D01*
X122037143Y-66260426D02*
X121928286Y-66296711D01*
X121928286Y-66296711D02*
X121855715Y-66296711D01*
X122871714Y-65534711D02*
X122508857Y-65534711D01*
X122508857Y-65534711D02*
X122472571Y-65897568D01*
X122472571Y-65897568D02*
X122508857Y-65861283D01*
X122508857Y-65861283D02*
X122581429Y-65824997D01*
X122581429Y-65824997D02*
X122762857Y-65824997D01*
X122762857Y-65824997D02*
X122835429Y-65861283D01*
X122835429Y-65861283D02*
X122871714Y-65897568D01*
X122871714Y-65897568D02*
X122908000Y-65970140D01*
X122908000Y-65970140D02*
X122908000Y-66151568D01*
X122908000Y-66151568D02*
X122871714Y-66224140D01*
X122871714Y-66224140D02*
X122835429Y-66260426D01*
X122835429Y-66260426D02*
X122762857Y-66296711D01*
X122762857Y-66296711D02*
X122581429Y-66296711D01*
X122581429Y-66296711D02*
X122508857Y-66260426D01*
X122508857Y-66260426D02*
X122472571Y-66224140D01*
X130238429Y-94883911D02*
X130673858Y-94883911D01*
X130456143Y-95645911D02*
X130456143Y-94883911D01*
X130927857Y-95645911D02*
X130927857Y-94883911D01*
X130927857Y-94883911D02*
X131218143Y-94883911D01*
X131218143Y-94883911D02*
X131290714Y-94920197D01*
X131290714Y-94920197D02*
X131327000Y-94956483D01*
X131327000Y-94956483D02*
X131363286Y-95029054D01*
X131363286Y-95029054D02*
X131363286Y-95137911D01*
X131363286Y-95137911D02*
X131327000Y-95210483D01*
X131327000Y-95210483D02*
X131290714Y-95246768D01*
X131290714Y-95246768D02*
X131218143Y-95283054D01*
X131218143Y-95283054D02*
X130927857Y-95283054D01*
X132089000Y-95645911D02*
X131653571Y-95645911D01*
X131871286Y-95645911D02*
X131871286Y-94883911D01*
X131871286Y-94883911D02*
X131798714Y-94992768D01*
X131798714Y-94992768D02*
X131726143Y-95065340D01*
X131726143Y-95065340D02*
X131653571Y-95101626D01*
X130048143Y-98483911D02*
X130302143Y-99245911D01*
X130302143Y-99245911D02*
X130556143Y-98483911D01*
X131064143Y-98846768D02*
X131173000Y-98883054D01*
X131173000Y-98883054D02*
X131209286Y-98919340D01*
X131209286Y-98919340D02*
X131245572Y-98991911D01*
X131245572Y-98991911D02*
X131245572Y-99100768D01*
X131245572Y-99100768D02*
X131209286Y-99173340D01*
X131209286Y-99173340D02*
X131173000Y-99209626D01*
X131173000Y-99209626D02*
X131100429Y-99245911D01*
X131100429Y-99245911D02*
X130810143Y-99245911D01*
X130810143Y-99245911D02*
X130810143Y-98483911D01*
X130810143Y-98483911D02*
X131064143Y-98483911D01*
X131064143Y-98483911D02*
X131136715Y-98520197D01*
X131136715Y-98520197D02*
X131173000Y-98556483D01*
X131173000Y-98556483D02*
X131209286Y-98629054D01*
X131209286Y-98629054D02*
X131209286Y-98701626D01*
X131209286Y-98701626D02*
X131173000Y-98774197D01*
X131173000Y-98774197D02*
X131136715Y-98810483D01*
X131136715Y-98810483D02*
X131064143Y-98846768D01*
X131064143Y-98846768D02*
X130810143Y-98846768D01*
X131535857Y-99028197D02*
X131898715Y-99028197D01*
X131463286Y-99245911D02*
X131717286Y-98483911D01*
X131717286Y-98483911D02*
X131971286Y-99245911D01*
X132116429Y-98483911D02*
X132551858Y-98483911D01*
X132334143Y-99245911D02*
X132334143Y-98483911D01*
X148910143Y-109645911D02*
X148656143Y-109283054D01*
X148474714Y-109645911D02*
X148474714Y-108883911D01*
X148474714Y-108883911D02*
X148765000Y-108883911D01*
X148765000Y-108883911D02*
X148837571Y-108920197D01*
X148837571Y-108920197D02*
X148873857Y-108956483D01*
X148873857Y-108956483D02*
X148910143Y-109029054D01*
X148910143Y-109029054D02*
X148910143Y-109137911D01*
X148910143Y-109137911D02*
X148873857Y-109210483D01*
X148873857Y-109210483D02*
X148837571Y-109246768D01*
X148837571Y-109246768D02*
X148765000Y-109283054D01*
X148765000Y-109283054D02*
X148474714Y-109283054D01*
X149200428Y-108956483D02*
X149236714Y-108920197D01*
X149236714Y-108920197D02*
X149309286Y-108883911D01*
X149309286Y-108883911D02*
X149490714Y-108883911D01*
X149490714Y-108883911D02*
X149563286Y-108920197D01*
X149563286Y-108920197D02*
X149599571Y-108956483D01*
X149599571Y-108956483D02*
X149635857Y-109029054D01*
X149635857Y-109029054D02*
X149635857Y-109101626D01*
X149635857Y-109101626D02*
X149599571Y-109210483D01*
X149599571Y-109210483D02*
X149164143Y-109645911D01*
X149164143Y-109645911D02*
X149635857Y-109645911D01*
X150107571Y-108883911D02*
X150180142Y-108883911D01*
X150180142Y-108883911D02*
X150252714Y-108920197D01*
X150252714Y-108920197D02*
X150289000Y-108956483D01*
X150289000Y-108956483D02*
X150325285Y-109029054D01*
X150325285Y-109029054D02*
X150361571Y-109174197D01*
X150361571Y-109174197D02*
X150361571Y-109355626D01*
X150361571Y-109355626D02*
X150325285Y-109500768D01*
X150325285Y-109500768D02*
X150289000Y-109573340D01*
X150289000Y-109573340D02*
X150252714Y-109609626D01*
X150252714Y-109609626D02*
X150180142Y-109645911D01*
X150180142Y-109645911D02*
X150107571Y-109645911D01*
X150107571Y-109645911D02*
X150035000Y-109609626D01*
X150035000Y-109609626D02*
X149998714Y-109573340D01*
X149998714Y-109573340D02*
X149962428Y-109500768D01*
X149962428Y-109500768D02*
X149926142Y-109355626D01*
X149926142Y-109355626D02*
X149926142Y-109174197D01*
X149926142Y-109174197D02*
X149962428Y-109029054D01*
X149962428Y-109029054D02*
X149998714Y-108956483D01*
X149998714Y-108956483D02*
X150035000Y-108920197D01*
X150035000Y-108920197D02*
X150107571Y-108883911D01*
X134810143Y-75473340D02*
X134773857Y-75509626D01*
X134773857Y-75509626D02*
X134665000Y-75545911D01*
X134665000Y-75545911D02*
X134592428Y-75545911D01*
X134592428Y-75545911D02*
X134483571Y-75509626D01*
X134483571Y-75509626D02*
X134411000Y-75437054D01*
X134411000Y-75437054D02*
X134374714Y-75364483D01*
X134374714Y-75364483D02*
X134338428Y-75219340D01*
X134338428Y-75219340D02*
X134338428Y-75110483D01*
X134338428Y-75110483D02*
X134374714Y-74965340D01*
X134374714Y-74965340D02*
X134411000Y-74892768D01*
X134411000Y-74892768D02*
X134483571Y-74820197D01*
X134483571Y-74820197D02*
X134592428Y-74783911D01*
X134592428Y-74783911D02*
X134665000Y-74783911D01*
X134665000Y-74783911D02*
X134773857Y-74820197D01*
X134773857Y-74820197D02*
X134810143Y-74856483D01*
X135463286Y-75037911D02*
X135463286Y-75545911D01*
X135281857Y-74747626D02*
X135100428Y-75291911D01*
X135100428Y-75291911D02*
X135572143Y-75291911D01*
X136189000Y-74783911D02*
X136043857Y-74783911D01*
X136043857Y-74783911D02*
X135971285Y-74820197D01*
X135971285Y-74820197D02*
X135935000Y-74856483D01*
X135935000Y-74856483D02*
X135862428Y-74965340D01*
X135862428Y-74965340D02*
X135826142Y-75110483D01*
X135826142Y-75110483D02*
X135826142Y-75400768D01*
X135826142Y-75400768D02*
X135862428Y-75473340D01*
X135862428Y-75473340D02*
X135898714Y-75509626D01*
X135898714Y-75509626D02*
X135971285Y-75545911D01*
X135971285Y-75545911D02*
X136116428Y-75545911D01*
X136116428Y-75545911D02*
X136189000Y-75509626D01*
X136189000Y-75509626D02*
X136225285Y-75473340D01*
X136225285Y-75473340D02*
X136261571Y-75400768D01*
X136261571Y-75400768D02*
X136261571Y-75219340D01*
X136261571Y-75219340D02*
X136225285Y-75146768D01*
X136225285Y-75146768D02*
X136189000Y-75110483D01*
X136189000Y-75110483D02*
X136116428Y-75074197D01*
X136116428Y-75074197D02*
X135971285Y-75074197D01*
X135971285Y-75074197D02*
X135898714Y-75110483D01*
X135898714Y-75110483D02*
X135862428Y-75146768D01*
X135862428Y-75146768D02*
X135826142Y-75219340D01*
X146110143Y-72845911D02*
X145856143Y-72483054D01*
X145674714Y-72845911D02*
X145674714Y-72083911D01*
X145674714Y-72083911D02*
X145965000Y-72083911D01*
X145965000Y-72083911D02*
X146037571Y-72120197D01*
X146037571Y-72120197D02*
X146073857Y-72156483D01*
X146073857Y-72156483D02*
X146110143Y-72229054D01*
X146110143Y-72229054D02*
X146110143Y-72337911D01*
X146110143Y-72337911D02*
X146073857Y-72410483D01*
X146073857Y-72410483D02*
X146037571Y-72446768D01*
X146037571Y-72446768D02*
X145965000Y-72483054D01*
X145965000Y-72483054D02*
X145674714Y-72483054D01*
X146400428Y-72156483D02*
X146436714Y-72120197D01*
X146436714Y-72120197D02*
X146509286Y-72083911D01*
X146509286Y-72083911D02*
X146690714Y-72083911D01*
X146690714Y-72083911D02*
X146763286Y-72120197D01*
X146763286Y-72120197D02*
X146799571Y-72156483D01*
X146799571Y-72156483D02*
X146835857Y-72229054D01*
X146835857Y-72229054D02*
X146835857Y-72301626D01*
X146835857Y-72301626D02*
X146799571Y-72410483D01*
X146799571Y-72410483D02*
X146364143Y-72845911D01*
X146364143Y-72845911D02*
X146835857Y-72845911D01*
X147271285Y-72410483D02*
X147198714Y-72374197D01*
X147198714Y-72374197D02*
X147162428Y-72337911D01*
X147162428Y-72337911D02*
X147126142Y-72265340D01*
X147126142Y-72265340D02*
X147126142Y-72229054D01*
X147126142Y-72229054D02*
X147162428Y-72156483D01*
X147162428Y-72156483D02*
X147198714Y-72120197D01*
X147198714Y-72120197D02*
X147271285Y-72083911D01*
X147271285Y-72083911D02*
X147416428Y-72083911D01*
X147416428Y-72083911D02*
X147489000Y-72120197D01*
X147489000Y-72120197D02*
X147525285Y-72156483D01*
X147525285Y-72156483D02*
X147561571Y-72229054D01*
X147561571Y-72229054D02*
X147561571Y-72265340D01*
X147561571Y-72265340D02*
X147525285Y-72337911D01*
X147525285Y-72337911D02*
X147489000Y-72374197D01*
X147489000Y-72374197D02*
X147416428Y-72410483D01*
X147416428Y-72410483D02*
X147271285Y-72410483D01*
X147271285Y-72410483D02*
X147198714Y-72446768D01*
X147198714Y-72446768D02*
X147162428Y-72483054D01*
X147162428Y-72483054D02*
X147126142Y-72555626D01*
X147126142Y-72555626D02*
X147126142Y-72700768D01*
X147126142Y-72700768D02*
X147162428Y-72773340D01*
X147162428Y-72773340D02*
X147198714Y-72809626D01*
X147198714Y-72809626D02*
X147271285Y-72845911D01*
X147271285Y-72845911D02*
X147416428Y-72845911D01*
X147416428Y-72845911D02*
X147489000Y-72809626D01*
X147489000Y-72809626D02*
X147525285Y-72773340D01*
X147525285Y-72773340D02*
X147561571Y-72700768D01*
X147561571Y-72700768D02*
X147561571Y-72555626D01*
X147561571Y-72555626D02*
X147525285Y-72483054D01*
X147525285Y-72483054D02*
X147489000Y-72446768D01*
X147489000Y-72446768D02*
X147416428Y-72410483D01*
X162553340Y-87589856D02*
X162589626Y-87626142D01*
X162589626Y-87626142D02*
X162625911Y-87734999D01*
X162625911Y-87734999D02*
X162625911Y-87807571D01*
X162625911Y-87807571D02*
X162589626Y-87916428D01*
X162589626Y-87916428D02*
X162517054Y-87988999D01*
X162517054Y-87988999D02*
X162444483Y-88025285D01*
X162444483Y-88025285D02*
X162299340Y-88061571D01*
X162299340Y-88061571D02*
X162190483Y-88061571D01*
X162190483Y-88061571D02*
X162045340Y-88025285D01*
X162045340Y-88025285D02*
X161972768Y-87988999D01*
X161972768Y-87988999D02*
X161900197Y-87916428D01*
X161900197Y-87916428D02*
X161863911Y-87807571D01*
X161863911Y-87807571D02*
X161863911Y-87734999D01*
X161863911Y-87734999D02*
X161900197Y-87626142D01*
X161900197Y-87626142D02*
X161936483Y-87589856D01*
X161863911Y-87335856D02*
X161863911Y-86864142D01*
X161863911Y-86864142D02*
X162154197Y-87118142D01*
X162154197Y-87118142D02*
X162154197Y-87009285D01*
X162154197Y-87009285D02*
X162190483Y-86936714D01*
X162190483Y-86936714D02*
X162226768Y-86900428D01*
X162226768Y-86900428D02*
X162299340Y-86864142D01*
X162299340Y-86864142D02*
X162480768Y-86864142D01*
X162480768Y-86864142D02*
X162553340Y-86900428D01*
X162553340Y-86900428D02*
X162589626Y-86936714D01*
X162589626Y-86936714D02*
X162625911Y-87009285D01*
X162625911Y-87009285D02*
X162625911Y-87226999D01*
X162625911Y-87226999D02*
X162589626Y-87299571D01*
X162589626Y-87299571D02*
X162553340Y-87335856D01*
X161863911Y-86610142D02*
X161863911Y-86102142D01*
X161863911Y-86102142D02*
X162625911Y-86428714D01*
X154673340Y-113289856D02*
X154709626Y-113326142D01*
X154709626Y-113326142D02*
X154745911Y-113434999D01*
X154745911Y-113434999D02*
X154745911Y-113507571D01*
X154745911Y-113507571D02*
X154709626Y-113616428D01*
X154709626Y-113616428D02*
X154637054Y-113688999D01*
X154637054Y-113688999D02*
X154564483Y-113725285D01*
X154564483Y-113725285D02*
X154419340Y-113761571D01*
X154419340Y-113761571D02*
X154310483Y-113761571D01*
X154310483Y-113761571D02*
X154165340Y-113725285D01*
X154165340Y-113725285D02*
X154092768Y-113688999D01*
X154092768Y-113688999D02*
X154020197Y-113616428D01*
X154020197Y-113616428D02*
X153983911Y-113507571D01*
X153983911Y-113507571D02*
X153983911Y-113434999D01*
X153983911Y-113434999D02*
X154020197Y-113326142D01*
X154020197Y-113326142D02*
X154056483Y-113289856D01*
X153983911Y-113035856D02*
X153983911Y-112564142D01*
X153983911Y-112564142D02*
X154274197Y-112818142D01*
X154274197Y-112818142D02*
X154274197Y-112709285D01*
X154274197Y-112709285D02*
X154310483Y-112636714D01*
X154310483Y-112636714D02*
X154346768Y-112600428D01*
X154346768Y-112600428D02*
X154419340Y-112564142D01*
X154419340Y-112564142D02*
X154600768Y-112564142D01*
X154600768Y-112564142D02*
X154673340Y-112600428D01*
X154673340Y-112600428D02*
X154709626Y-112636714D01*
X154709626Y-112636714D02*
X154745911Y-112709285D01*
X154745911Y-112709285D02*
X154745911Y-112926999D01*
X154745911Y-112926999D02*
X154709626Y-112999571D01*
X154709626Y-112999571D02*
X154673340Y-113035856D01*
X153983911Y-112310142D02*
X153983911Y-111838428D01*
X153983911Y-111838428D02*
X154274197Y-112092428D01*
X154274197Y-112092428D02*
X154274197Y-111983571D01*
X154274197Y-111983571D02*
X154310483Y-111911000D01*
X154310483Y-111911000D02*
X154346768Y-111874714D01*
X154346768Y-111874714D02*
X154419340Y-111838428D01*
X154419340Y-111838428D02*
X154600768Y-111838428D01*
X154600768Y-111838428D02*
X154673340Y-111874714D01*
X154673340Y-111874714D02*
X154709626Y-111911000D01*
X154709626Y-111911000D02*
X154745911Y-111983571D01*
X154745911Y-111983571D02*
X154745911Y-112201285D01*
X154745911Y-112201285D02*
X154709626Y-112273857D01*
X154709626Y-112273857D02*
X154673340Y-112310142D01*
X164310143Y-109423340D02*
X164273857Y-109459626D01*
X164273857Y-109459626D02*
X164165000Y-109495911D01*
X164165000Y-109495911D02*
X164092428Y-109495911D01*
X164092428Y-109495911D02*
X163983571Y-109459626D01*
X163983571Y-109459626D02*
X163911000Y-109387054D01*
X163911000Y-109387054D02*
X163874714Y-109314483D01*
X163874714Y-109314483D02*
X163838428Y-109169340D01*
X163838428Y-109169340D02*
X163838428Y-109060483D01*
X163838428Y-109060483D02*
X163874714Y-108915340D01*
X163874714Y-108915340D02*
X163911000Y-108842768D01*
X163911000Y-108842768D02*
X163983571Y-108770197D01*
X163983571Y-108770197D02*
X164092428Y-108733911D01*
X164092428Y-108733911D02*
X164165000Y-108733911D01*
X164165000Y-108733911D02*
X164273857Y-108770197D01*
X164273857Y-108770197D02*
X164310143Y-108806483D01*
X164564143Y-108733911D02*
X165072143Y-108733911D01*
X165072143Y-108733911D02*
X164745571Y-109495911D01*
X165689000Y-108733911D02*
X165543857Y-108733911D01*
X165543857Y-108733911D02*
X165471285Y-108770197D01*
X165471285Y-108770197D02*
X165435000Y-108806483D01*
X165435000Y-108806483D02*
X165362428Y-108915340D01*
X165362428Y-108915340D02*
X165326142Y-109060483D01*
X165326142Y-109060483D02*
X165326142Y-109350768D01*
X165326142Y-109350768D02*
X165362428Y-109423340D01*
X165362428Y-109423340D02*
X165398714Y-109459626D01*
X165398714Y-109459626D02*
X165471285Y-109495911D01*
X165471285Y-109495911D02*
X165616428Y-109495911D01*
X165616428Y-109495911D02*
X165689000Y-109459626D01*
X165689000Y-109459626D02*
X165725285Y-109423340D01*
X165725285Y-109423340D02*
X165761571Y-109350768D01*
X165761571Y-109350768D02*
X165761571Y-109169340D01*
X165761571Y-109169340D02*
X165725285Y-109096768D01*
X165725285Y-109096768D02*
X165689000Y-109060483D01*
X165689000Y-109060483D02*
X165616428Y-109024197D01*
X165616428Y-109024197D02*
X165471285Y-109024197D01*
X165471285Y-109024197D02*
X165398714Y-109060483D01*
X165398714Y-109060483D02*
X165362428Y-109096768D01*
X165362428Y-109096768D02*
X165326142Y-109169340D01*
X160975572Y-114135911D02*
X161411001Y-114135911D01*
X161193286Y-114897911D02*
X161193286Y-114135911D01*
X161665000Y-114897911D02*
X161665000Y-114135911D01*
X161665000Y-114135911D02*
X161955286Y-114135911D01*
X161955286Y-114135911D02*
X162027857Y-114172197D01*
X162027857Y-114172197D02*
X162064143Y-114208483D01*
X162064143Y-114208483D02*
X162100429Y-114281054D01*
X162100429Y-114281054D02*
X162100429Y-114389911D01*
X162100429Y-114389911D02*
X162064143Y-114462483D01*
X162064143Y-114462483D02*
X162027857Y-114498768D01*
X162027857Y-114498768D02*
X161955286Y-114535054D01*
X161955286Y-114535054D02*
X161665000Y-114535054D01*
X162826143Y-114897911D02*
X162390714Y-114897911D01*
X162608429Y-114897911D02*
X162608429Y-114135911D01*
X162608429Y-114135911D02*
X162535857Y-114244768D01*
X162535857Y-114244768D02*
X162463286Y-114317340D01*
X162463286Y-114317340D02*
X162390714Y-114353626D01*
X163080143Y-114135911D02*
X163588143Y-114135911D01*
X163588143Y-114135911D02*
X163261571Y-114897911D01*
X160957428Y-118259626D02*
X161066286Y-118295911D01*
X161066286Y-118295911D02*
X161247714Y-118295911D01*
X161247714Y-118295911D02*
X161320286Y-118259626D01*
X161320286Y-118259626D02*
X161356571Y-118223340D01*
X161356571Y-118223340D02*
X161392857Y-118150768D01*
X161392857Y-118150768D02*
X161392857Y-118078197D01*
X161392857Y-118078197D02*
X161356571Y-118005626D01*
X161356571Y-118005626D02*
X161320286Y-117969340D01*
X161320286Y-117969340D02*
X161247714Y-117933054D01*
X161247714Y-117933054D02*
X161102571Y-117896768D01*
X161102571Y-117896768D02*
X161030000Y-117860483D01*
X161030000Y-117860483D02*
X160993714Y-117824197D01*
X160993714Y-117824197D02*
X160957428Y-117751626D01*
X160957428Y-117751626D02*
X160957428Y-117679054D01*
X160957428Y-117679054D02*
X160993714Y-117606483D01*
X160993714Y-117606483D02*
X161030000Y-117570197D01*
X161030000Y-117570197D02*
X161102571Y-117533911D01*
X161102571Y-117533911D02*
X161284000Y-117533911D01*
X161284000Y-117533911D02*
X161392857Y-117570197D01*
X162154857Y-118223340D02*
X162118571Y-118259626D01*
X162118571Y-118259626D02*
X162009714Y-118295911D01*
X162009714Y-118295911D02*
X161937142Y-118295911D01*
X161937142Y-118295911D02*
X161828285Y-118259626D01*
X161828285Y-118259626D02*
X161755714Y-118187054D01*
X161755714Y-118187054D02*
X161719428Y-118114483D01*
X161719428Y-118114483D02*
X161683142Y-117969340D01*
X161683142Y-117969340D02*
X161683142Y-117860483D01*
X161683142Y-117860483D02*
X161719428Y-117715340D01*
X161719428Y-117715340D02*
X161755714Y-117642768D01*
X161755714Y-117642768D02*
X161828285Y-117570197D01*
X161828285Y-117570197D02*
X161937142Y-117533911D01*
X161937142Y-117533911D02*
X162009714Y-117533911D01*
X162009714Y-117533911D02*
X162118571Y-117570197D01*
X162118571Y-117570197D02*
X162154857Y-117606483D01*
X162481428Y-118295911D02*
X162481428Y-117533911D01*
X162916857Y-118295911D02*
X162590285Y-117860483D01*
X162916857Y-117533911D02*
X162481428Y-117969340D01*
X163388571Y-117533911D02*
X163461142Y-117533911D01*
X163461142Y-117533911D02*
X163533714Y-117570197D01*
X163533714Y-117570197D02*
X163570000Y-117606483D01*
X163570000Y-117606483D02*
X163606285Y-117679054D01*
X163606285Y-117679054D02*
X163642571Y-117824197D01*
X163642571Y-117824197D02*
X163642571Y-118005626D01*
X163642571Y-118005626D02*
X163606285Y-118150768D01*
X163606285Y-118150768D02*
X163570000Y-118223340D01*
X163570000Y-118223340D02*
X163533714Y-118259626D01*
X163533714Y-118259626D02*
X163461142Y-118295911D01*
X163461142Y-118295911D02*
X163388571Y-118295911D01*
X163388571Y-118295911D02*
X163316000Y-118259626D01*
X163316000Y-118259626D02*
X163279714Y-118223340D01*
X163279714Y-118223340D02*
X163243428Y-118150768D01*
X163243428Y-118150768D02*
X163207142Y-118005626D01*
X163207142Y-118005626D02*
X163207142Y-117824197D01*
X163207142Y-117824197D02*
X163243428Y-117679054D01*
X163243428Y-117679054D02*
X163279714Y-117606483D01*
X163279714Y-117606483D02*
X163316000Y-117570197D01*
X163316000Y-117570197D02*
X163388571Y-117533911D01*
X138447643Y-109573340D02*
X138411357Y-109609626D01*
X138411357Y-109609626D02*
X138302500Y-109645911D01*
X138302500Y-109645911D02*
X138229928Y-109645911D01*
X138229928Y-109645911D02*
X138121071Y-109609626D01*
X138121071Y-109609626D02*
X138048500Y-109537054D01*
X138048500Y-109537054D02*
X138012214Y-109464483D01*
X138012214Y-109464483D02*
X137975928Y-109319340D01*
X137975928Y-109319340D02*
X137975928Y-109210483D01*
X137975928Y-109210483D02*
X138012214Y-109065340D01*
X138012214Y-109065340D02*
X138048500Y-108992768D01*
X138048500Y-108992768D02*
X138121071Y-108920197D01*
X138121071Y-108920197D02*
X138229928Y-108883911D01*
X138229928Y-108883911D02*
X138302500Y-108883911D01*
X138302500Y-108883911D02*
X138411357Y-108920197D01*
X138411357Y-108920197D02*
X138447643Y-108956483D01*
X139100786Y-108883911D02*
X138955643Y-108883911D01*
X138955643Y-108883911D02*
X138883071Y-108920197D01*
X138883071Y-108920197D02*
X138846786Y-108956483D01*
X138846786Y-108956483D02*
X138774214Y-109065340D01*
X138774214Y-109065340D02*
X138737928Y-109210483D01*
X138737928Y-109210483D02*
X138737928Y-109500768D01*
X138737928Y-109500768D02*
X138774214Y-109573340D01*
X138774214Y-109573340D02*
X138810500Y-109609626D01*
X138810500Y-109609626D02*
X138883071Y-109645911D01*
X138883071Y-109645911D02*
X139028214Y-109645911D01*
X139028214Y-109645911D02*
X139100786Y-109609626D01*
X139100786Y-109609626D02*
X139137071Y-109573340D01*
X139137071Y-109573340D02*
X139173357Y-109500768D01*
X139173357Y-109500768D02*
X139173357Y-109319340D01*
X139173357Y-109319340D02*
X139137071Y-109246768D01*
X139137071Y-109246768D02*
X139100786Y-109210483D01*
X139100786Y-109210483D02*
X139028214Y-109174197D01*
X139028214Y-109174197D02*
X138883071Y-109174197D01*
X138883071Y-109174197D02*
X138810500Y-109210483D01*
X138810500Y-109210483D02*
X138774214Y-109246768D01*
X138774214Y-109246768D02*
X138737928Y-109319340D01*
X139645071Y-108883911D02*
X139717642Y-108883911D01*
X139717642Y-108883911D02*
X139790214Y-108920197D01*
X139790214Y-108920197D02*
X139826500Y-108956483D01*
X139826500Y-108956483D02*
X139862785Y-109029054D01*
X139862785Y-109029054D02*
X139899071Y-109174197D01*
X139899071Y-109174197D02*
X139899071Y-109355626D01*
X139899071Y-109355626D02*
X139862785Y-109500768D01*
X139862785Y-109500768D02*
X139826500Y-109573340D01*
X139826500Y-109573340D02*
X139790214Y-109609626D01*
X139790214Y-109609626D02*
X139717642Y-109645911D01*
X139717642Y-109645911D02*
X139645071Y-109645911D01*
X139645071Y-109645911D02*
X139572500Y-109609626D01*
X139572500Y-109609626D02*
X139536214Y-109573340D01*
X139536214Y-109573340D02*
X139499928Y-109500768D01*
X139499928Y-109500768D02*
X139463642Y-109355626D01*
X139463642Y-109355626D02*
X139463642Y-109174197D01*
X139463642Y-109174197D02*
X139499928Y-109029054D01*
X139499928Y-109029054D02*
X139536214Y-108956483D01*
X139536214Y-108956483D02*
X139572500Y-108920197D01*
X139572500Y-108920197D02*
X139645071Y-108883911D01*
X148773340Y-84189856D02*
X148809626Y-84226142D01*
X148809626Y-84226142D02*
X148845911Y-84334999D01*
X148845911Y-84334999D02*
X148845911Y-84407571D01*
X148845911Y-84407571D02*
X148809626Y-84516428D01*
X148809626Y-84516428D02*
X148737054Y-84588999D01*
X148737054Y-84588999D02*
X148664483Y-84625285D01*
X148664483Y-84625285D02*
X148519340Y-84661571D01*
X148519340Y-84661571D02*
X148410483Y-84661571D01*
X148410483Y-84661571D02*
X148265340Y-84625285D01*
X148265340Y-84625285D02*
X148192768Y-84588999D01*
X148192768Y-84588999D02*
X148120197Y-84516428D01*
X148120197Y-84516428D02*
X148083911Y-84407571D01*
X148083911Y-84407571D02*
X148083911Y-84334999D01*
X148083911Y-84334999D02*
X148120197Y-84226142D01*
X148120197Y-84226142D02*
X148156483Y-84189856D01*
X148845911Y-83464142D02*
X148845911Y-83899571D01*
X148845911Y-83681856D02*
X148083911Y-83681856D01*
X148083911Y-83681856D02*
X148192768Y-83754428D01*
X148192768Y-83754428D02*
X148265340Y-83826999D01*
X148265340Y-83826999D02*
X148301626Y-83899571D01*
X148410483Y-83028714D02*
X148374197Y-83101285D01*
X148374197Y-83101285D02*
X148337911Y-83137571D01*
X148337911Y-83137571D02*
X148265340Y-83173857D01*
X148265340Y-83173857D02*
X148229054Y-83173857D01*
X148229054Y-83173857D02*
X148156483Y-83137571D01*
X148156483Y-83137571D02*
X148120197Y-83101285D01*
X148120197Y-83101285D02*
X148083911Y-83028714D01*
X148083911Y-83028714D02*
X148083911Y-82883571D01*
X148083911Y-82883571D02*
X148120197Y-82811000D01*
X148120197Y-82811000D02*
X148156483Y-82774714D01*
X148156483Y-82774714D02*
X148229054Y-82738428D01*
X148229054Y-82738428D02*
X148265340Y-82738428D01*
X148265340Y-82738428D02*
X148337911Y-82774714D01*
X148337911Y-82774714D02*
X148374197Y-82811000D01*
X148374197Y-82811000D02*
X148410483Y-82883571D01*
X148410483Y-82883571D02*
X148410483Y-83028714D01*
X148410483Y-83028714D02*
X148446768Y-83101285D01*
X148446768Y-83101285D02*
X148483054Y-83137571D01*
X148483054Y-83137571D02*
X148555626Y-83173857D01*
X148555626Y-83173857D02*
X148700768Y-83173857D01*
X148700768Y-83173857D02*
X148773340Y-83137571D01*
X148773340Y-83137571D02*
X148809626Y-83101285D01*
X148809626Y-83101285D02*
X148845911Y-83028714D01*
X148845911Y-83028714D02*
X148845911Y-82883571D01*
X148845911Y-82883571D02*
X148809626Y-82811000D01*
X148809626Y-82811000D02*
X148773340Y-82774714D01*
X148773340Y-82774714D02*
X148700768Y-82738428D01*
X148700768Y-82738428D02*
X148555626Y-82738428D01*
X148555626Y-82738428D02*
X148483054Y-82774714D01*
X148483054Y-82774714D02*
X148446768Y-82811000D01*
X148446768Y-82811000D02*
X148410483Y-82883571D01*
X145510143Y-109573340D02*
X145473857Y-109609626D01*
X145473857Y-109609626D02*
X145365000Y-109645911D01*
X145365000Y-109645911D02*
X145292428Y-109645911D01*
X145292428Y-109645911D02*
X145183571Y-109609626D01*
X145183571Y-109609626D02*
X145111000Y-109537054D01*
X145111000Y-109537054D02*
X145074714Y-109464483D01*
X145074714Y-109464483D02*
X145038428Y-109319340D01*
X145038428Y-109319340D02*
X145038428Y-109210483D01*
X145038428Y-109210483D02*
X145074714Y-109065340D01*
X145074714Y-109065340D02*
X145111000Y-108992768D01*
X145111000Y-108992768D02*
X145183571Y-108920197D01*
X145183571Y-108920197D02*
X145292428Y-108883911D01*
X145292428Y-108883911D02*
X145365000Y-108883911D01*
X145365000Y-108883911D02*
X145473857Y-108920197D01*
X145473857Y-108920197D02*
X145510143Y-108956483D01*
X146199571Y-108883911D02*
X145836714Y-108883911D01*
X145836714Y-108883911D02*
X145800428Y-109246768D01*
X145800428Y-109246768D02*
X145836714Y-109210483D01*
X145836714Y-109210483D02*
X145909286Y-109174197D01*
X145909286Y-109174197D02*
X146090714Y-109174197D01*
X146090714Y-109174197D02*
X146163286Y-109210483D01*
X146163286Y-109210483D02*
X146199571Y-109246768D01*
X146199571Y-109246768D02*
X146235857Y-109319340D01*
X146235857Y-109319340D02*
X146235857Y-109500768D01*
X146235857Y-109500768D02*
X146199571Y-109573340D01*
X146199571Y-109573340D02*
X146163286Y-109609626D01*
X146163286Y-109609626D02*
X146090714Y-109645911D01*
X146090714Y-109645911D02*
X145909286Y-109645911D01*
X145909286Y-109645911D02*
X145836714Y-109609626D01*
X145836714Y-109609626D02*
X145800428Y-109573340D01*
X146598714Y-109645911D02*
X146743857Y-109645911D01*
X146743857Y-109645911D02*
X146816428Y-109609626D01*
X146816428Y-109609626D02*
X146852714Y-109573340D01*
X146852714Y-109573340D02*
X146925285Y-109464483D01*
X146925285Y-109464483D02*
X146961571Y-109319340D01*
X146961571Y-109319340D02*
X146961571Y-109029054D01*
X146961571Y-109029054D02*
X146925285Y-108956483D01*
X146925285Y-108956483D02*
X146889000Y-108920197D01*
X146889000Y-108920197D02*
X146816428Y-108883911D01*
X146816428Y-108883911D02*
X146671285Y-108883911D01*
X146671285Y-108883911D02*
X146598714Y-108920197D01*
X146598714Y-108920197D02*
X146562428Y-108956483D01*
X146562428Y-108956483D02*
X146526142Y-109029054D01*
X146526142Y-109029054D02*
X146526142Y-109210483D01*
X146526142Y-109210483D02*
X146562428Y-109283054D01*
X146562428Y-109283054D02*
X146598714Y-109319340D01*
X146598714Y-109319340D02*
X146671285Y-109355626D01*
X146671285Y-109355626D02*
X146816428Y-109355626D01*
X146816428Y-109355626D02*
X146889000Y-109319340D01*
X146889000Y-109319340D02*
X146925285Y-109283054D01*
X146925285Y-109283054D02*
X146961571Y-109210483D01*
X166595911Y-82989856D02*
X166233054Y-83243856D01*
X166595911Y-83425285D02*
X165833911Y-83425285D01*
X165833911Y-83425285D02*
X165833911Y-83134999D01*
X165833911Y-83134999D02*
X165870197Y-83062428D01*
X165870197Y-83062428D02*
X165906483Y-83026142D01*
X165906483Y-83026142D02*
X165979054Y-82989856D01*
X165979054Y-82989856D02*
X166087911Y-82989856D01*
X166087911Y-82989856D02*
X166160483Y-83026142D01*
X166160483Y-83026142D02*
X166196768Y-83062428D01*
X166196768Y-83062428D02*
X166233054Y-83134999D01*
X166233054Y-83134999D02*
X166233054Y-83425285D01*
X165833911Y-82735856D02*
X165833911Y-82264142D01*
X165833911Y-82264142D02*
X166124197Y-82518142D01*
X166124197Y-82518142D02*
X166124197Y-82409285D01*
X166124197Y-82409285D02*
X166160483Y-82336714D01*
X166160483Y-82336714D02*
X166196768Y-82300428D01*
X166196768Y-82300428D02*
X166269340Y-82264142D01*
X166269340Y-82264142D02*
X166450768Y-82264142D01*
X166450768Y-82264142D02*
X166523340Y-82300428D01*
X166523340Y-82300428D02*
X166559626Y-82336714D01*
X166559626Y-82336714D02*
X166595911Y-82409285D01*
X166595911Y-82409285D02*
X166595911Y-82626999D01*
X166595911Y-82626999D02*
X166559626Y-82699571D01*
X166559626Y-82699571D02*
X166523340Y-82735856D01*
X166595911Y-81538428D02*
X166595911Y-81973857D01*
X166595911Y-81756142D02*
X165833911Y-81756142D01*
X165833911Y-81756142D02*
X165942768Y-81828714D01*
X165942768Y-81828714D02*
X166015340Y-81901285D01*
X166015340Y-81901285D02*
X166051626Y-81973857D01*
X171383911Y-94753999D02*
X171928197Y-94753999D01*
X171928197Y-94753999D02*
X172037054Y-94790284D01*
X172037054Y-94790284D02*
X172109626Y-94862856D01*
X172109626Y-94862856D02*
X172145911Y-94971713D01*
X172145911Y-94971713D02*
X172145911Y-95044284D01*
X172145911Y-93991999D02*
X172145911Y-94427428D01*
X172145911Y-94209713D02*
X171383911Y-94209713D01*
X171383911Y-94209713D02*
X171492768Y-94282285D01*
X171492768Y-94282285D02*
X171565340Y-94354856D01*
X171565340Y-94354856D02*
X171601626Y-94427428D01*
X157773340Y-113589856D02*
X157809626Y-113626142D01*
X157809626Y-113626142D02*
X157845911Y-113734999D01*
X157845911Y-113734999D02*
X157845911Y-113807571D01*
X157845911Y-113807571D02*
X157809626Y-113916428D01*
X157809626Y-113916428D02*
X157737054Y-113988999D01*
X157737054Y-113988999D02*
X157664483Y-114025285D01*
X157664483Y-114025285D02*
X157519340Y-114061571D01*
X157519340Y-114061571D02*
X157410483Y-114061571D01*
X157410483Y-114061571D02*
X157265340Y-114025285D01*
X157265340Y-114025285D02*
X157192768Y-113988999D01*
X157192768Y-113988999D02*
X157120197Y-113916428D01*
X157120197Y-113916428D02*
X157083911Y-113807571D01*
X157083911Y-113807571D02*
X157083911Y-113734999D01*
X157083911Y-113734999D02*
X157120197Y-113626142D01*
X157120197Y-113626142D02*
X157156483Y-113589856D01*
X157083911Y-113335856D02*
X157083911Y-112827856D01*
X157083911Y-112827856D02*
X157845911Y-113154428D01*
X157083911Y-112174714D02*
X157083911Y-112537571D01*
X157083911Y-112537571D02*
X157446768Y-112573857D01*
X157446768Y-112573857D02*
X157410483Y-112537571D01*
X157410483Y-112537571D02*
X157374197Y-112465000D01*
X157374197Y-112465000D02*
X157374197Y-112283571D01*
X157374197Y-112283571D02*
X157410483Y-112211000D01*
X157410483Y-112211000D02*
X157446768Y-112174714D01*
X157446768Y-112174714D02*
X157519340Y-112138428D01*
X157519340Y-112138428D02*
X157700768Y-112138428D01*
X157700768Y-112138428D02*
X157773340Y-112174714D01*
X157773340Y-112174714D02*
X157809626Y-112211000D01*
X157809626Y-112211000D02*
X157845911Y-112283571D01*
X157845911Y-112283571D02*
X157845911Y-112465000D01*
X157845911Y-112465000D02*
X157809626Y-112537571D01*
X157809626Y-112537571D02*
X157773340Y-112573857D01*
X138775572Y-71783911D02*
X139211001Y-71783911D01*
X138993286Y-72545911D02*
X138993286Y-71783911D01*
X139465000Y-72545911D02*
X139465000Y-71783911D01*
X139465000Y-71783911D02*
X139755286Y-71783911D01*
X139755286Y-71783911D02*
X139827857Y-71820197D01*
X139827857Y-71820197D02*
X139864143Y-71856483D01*
X139864143Y-71856483D02*
X139900429Y-71929054D01*
X139900429Y-71929054D02*
X139900429Y-72037911D01*
X139900429Y-72037911D02*
X139864143Y-72110483D01*
X139864143Y-72110483D02*
X139827857Y-72146768D01*
X139827857Y-72146768D02*
X139755286Y-72183054D01*
X139755286Y-72183054D02*
X139465000Y-72183054D01*
X140626143Y-72545911D02*
X140190714Y-72545911D01*
X140408429Y-72545911D02*
X140408429Y-71783911D01*
X140408429Y-71783911D02*
X140335857Y-71892768D01*
X140335857Y-71892768D02*
X140263286Y-71965340D01*
X140263286Y-71965340D02*
X140190714Y-72001626D01*
X141351857Y-72545911D02*
X140916428Y-72545911D01*
X141134143Y-72545911D02*
X141134143Y-71783911D01*
X141134143Y-71783911D02*
X141061571Y-71892768D01*
X141061571Y-71892768D02*
X140989000Y-71965340D01*
X140989000Y-71965340D02*
X140916428Y-72001626D01*
X138975143Y-76009626D02*
X139084001Y-76045911D01*
X139084001Y-76045911D02*
X139265429Y-76045911D01*
X139265429Y-76045911D02*
X139338001Y-76009626D01*
X139338001Y-76009626D02*
X139374286Y-75973340D01*
X139374286Y-75973340D02*
X139410572Y-75900768D01*
X139410572Y-75900768D02*
X139410572Y-75828197D01*
X139410572Y-75828197D02*
X139374286Y-75755626D01*
X139374286Y-75755626D02*
X139338001Y-75719340D01*
X139338001Y-75719340D02*
X139265429Y-75683054D01*
X139265429Y-75683054D02*
X139120286Y-75646768D01*
X139120286Y-75646768D02*
X139047715Y-75610483D01*
X139047715Y-75610483D02*
X139011429Y-75574197D01*
X139011429Y-75574197D02*
X138975143Y-75501626D01*
X138975143Y-75501626D02*
X138975143Y-75429054D01*
X138975143Y-75429054D02*
X139011429Y-75356483D01*
X139011429Y-75356483D02*
X139047715Y-75320197D01*
X139047715Y-75320197D02*
X139120286Y-75283911D01*
X139120286Y-75283911D02*
X139301715Y-75283911D01*
X139301715Y-75283911D02*
X139410572Y-75320197D01*
X139628286Y-75283911D02*
X140063715Y-75283911D01*
X139846000Y-76045911D02*
X139846000Y-75283911D01*
X140281428Y-75828197D02*
X140644286Y-75828197D01*
X140208857Y-76045911D02*
X140462857Y-75283911D01*
X140462857Y-75283911D02*
X140716857Y-76045911D01*
X140862000Y-75283911D02*
X141297429Y-75283911D01*
X141079714Y-76045911D02*
X141079714Y-75283911D01*
X171123340Y-82876999D02*
X171159626Y-82913285D01*
X171159626Y-82913285D02*
X171195911Y-83022142D01*
X171195911Y-83022142D02*
X171195911Y-83094714D01*
X171195911Y-83094714D02*
X171159626Y-83203571D01*
X171159626Y-83203571D02*
X171087054Y-83276142D01*
X171087054Y-83276142D02*
X171014483Y-83312428D01*
X171014483Y-83312428D02*
X170869340Y-83348714D01*
X170869340Y-83348714D02*
X170760483Y-83348714D01*
X170760483Y-83348714D02*
X170615340Y-83312428D01*
X170615340Y-83312428D02*
X170542768Y-83276142D01*
X170542768Y-83276142D02*
X170470197Y-83203571D01*
X170470197Y-83203571D02*
X170433911Y-83094714D01*
X170433911Y-83094714D02*
X170433911Y-83022142D01*
X170433911Y-83022142D02*
X170470197Y-82913285D01*
X170470197Y-82913285D02*
X170506483Y-82876999D01*
X170687911Y-82223857D02*
X171195911Y-82223857D01*
X170397626Y-82405285D02*
X170941911Y-82586714D01*
X170941911Y-82586714D02*
X170941911Y-82114999D01*
X164773000Y-111073340D02*
X164736714Y-111109626D01*
X164736714Y-111109626D02*
X164627857Y-111145911D01*
X164627857Y-111145911D02*
X164555285Y-111145911D01*
X164555285Y-111145911D02*
X164446428Y-111109626D01*
X164446428Y-111109626D02*
X164373857Y-111037054D01*
X164373857Y-111037054D02*
X164337571Y-110964483D01*
X164337571Y-110964483D02*
X164301285Y-110819340D01*
X164301285Y-110819340D02*
X164301285Y-110710483D01*
X164301285Y-110710483D02*
X164337571Y-110565340D01*
X164337571Y-110565340D02*
X164373857Y-110492768D01*
X164373857Y-110492768D02*
X164446428Y-110420197D01*
X164446428Y-110420197D02*
X164555285Y-110383911D01*
X164555285Y-110383911D02*
X164627857Y-110383911D01*
X164627857Y-110383911D02*
X164736714Y-110420197D01*
X164736714Y-110420197D02*
X164773000Y-110456483D01*
X165027000Y-110383911D02*
X165535000Y-110383911D01*
X165535000Y-110383911D02*
X165208428Y-111145911D01*
X146110143Y-74345911D02*
X145856143Y-73983054D01*
X145674714Y-74345911D02*
X145674714Y-73583911D01*
X145674714Y-73583911D02*
X145965000Y-73583911D01*
X145965000Y-73583911D02*
X146037571Y-73620197D01*
X146037571Y-73620197D02*
X146073857Y-73656483D01*
X146073857Y-73656483D02*
X146110143Y-73729054D01*
X146110143Y-73729054D02*
X146110143Y-73837911D01*
X146110143Y-73837911D02*
X146073857Y-73910483D01*
X146073857Y-73910483D02*
X146037571Y-73946768D01*
X146037571Y-73946768D02*
X145965000Y-73983054D01*
X145965000Y-73983054D02*
X145674714Y-73983054D01*
X146400428Y-73656483D02*
X146436714Y-73620197D01*
X146436714Y-73620197D02*
X146509286Y-73583911D01*
X146509286Y-73583911D02*
X146690714Y-73583911D01*
X146690714Y-73583911D02*
X146763286Y-73620197D01*
X146763286Y-73620197D02*
X146799571Y-73656483D01*
X146799571Y-73656483D02*
X146835857Y-73729054D01*
X146835857Y-73729054D02*
X146835857Y-73801626D01*
X146835857Y-73801626D02*
X146799571Y-73910483D01*
X146799571Y-73910483D02*
X146364143Y-74345911D01*
X146364143Y-74345911D02*
X146835857Y-74345911D01*
X147198714Y-74345911D02*
X147343857Y-74345911D01*
X147343857Y-74345911D02*
X147416428Y-74309626D01*
X147416428Y-74309626D02*
X147452714Y-74273340D01*
X147452714Y-74273340D02*
X147525285Y-74164483D01*
X147525285Y-74164483D02*
X147561571Y-74019340D01*
X147561571Y-74019340D02*
X147561571Y-73729054D01*
X147561571Y-73729054D02*
X147525285Y-73656483D01*
X147525285Y-73656483D02*
X147489000Y-73620197D01*
X147489000Y-73620197D02*
X147416428Y-73583911D01*
X147416428Y-73583911D02*
X147271285Y-73583911D01*
X147271285Y-73583911D02*
X147198714Y-73620197D01*
X147198714Y-73620197D02*
X147162428Y-73656483D01*
X147162428Y-73656483D02*
X147126142Y-73729054D01*
X147126142Y-73729054D02*
X147126142Y-73910483D01*
X147126142Y-73910483D02*
X147162428Y-73983054D01*
X147162428Y-73983054D02*
X147198714Y-74019340D01*
X147198714Y-74019340D02*
X147271285Y-74055626D01*
X147271285Y-74055626D02*
X147416428Y-74055626D01*
X147416428Y-74055626D02*
X147489000Y-74019340D01*
X147489000Y-74019340D02*
X147525285Y-73983054D01*
X147525285Y-73983054D02*
X147561571Y-73910483D01*
X169083911Y-93924427D02*
X169083911Y-93488999D01*
X169845911Y-93706713D02*
X169083911Y-93706713D01*
X169845911Y-93234999D02*
X169083911Y-93234999D01*
X169083911Y-93234999D02*
X169083911Y-92944713D01*
X169083911Y-92944713D02*
X169120197Y-92872142D01*
X169120197Y-92872142D02*
X169156483Y-92835856D01*
X169156483Y-92835856D02*
X169229054Y-92799570D01*
X169229054Y-92799570D02*
X169337911Y-92799570D01*
X169337911Y-92799570D02*
X169410483Y-92835856D01*
X169410483Y-92835856D02*
X169446768Y-92872142D01*
X169446768Y-92872142D02*
X169483054Y-92944713D01*
X169483054Y-92944713D02*
X169483054Y-93234999D01*
X169156483Y-92509285D02*
X169120197Y-92472999D01*
X169120197Y-92472999D02*
X169083911Y-92400428D01*
X169083911Y-92400428D02*
X169083911Y-92218999D01*
X169083911Y-92218999D02*
X169120197Y-92146428D01*
X169120197Y-92146428D02*
X169156483Y-92110142D01*
X169156483Y-92110142D02*
X169229054Y-92073856D01*
X169229054Y-92073856D02*
X169301626Y-92073856D01*
X169301626Y-92073856D02*
X169410483Y-92110142D01*
X169410483Y-92110142D02*
X169845911Y-92545570D01*
X169845911Y-92545570D02*
X169845911Y-92073856D01*
X169083911Y-91420714D02*
X169083911Y-91565856D01*
X169083911Y-91565856D02*
X169120197Y-91638428D01*
X169120197Y-91638428D02*
X169156483Y-91674714D01*
X169156483Y-91674714D02*
X169265340Y-91747285D01*
X169265340Y-91747285D02*
X169410483Y-91783571D01*
X169410483Y-91783571D02*
X169700768Y-91783571D01*
X169700768Y-91783571D02*
X169773340Y-91747285D01*
X169773340Y-91747285D02*
X169809626Y-91710999D01*
X169809626Y-91710999D02*
X169845911Y-91638428D01*
X169845911Y-91638428D02*
X169845911Y-91493285D01*
X169845911Y-91493285D02*
X169809626Y-91420714D01*
X169809626Y-91420714D02*
X169773340Y-91384428D01*
X169773340Y-91384428D02*
X169700768Y-91348142D01*
X169700768Y-91348142D02*
X169519340Y-91348142D01*
X169519340Y-91348142D02*
X169446768Y-91384428D01*
X169446768Y-91384428D02*
X169410483Y-91420714D01*
X169410483Y-91420714D02*
X169374197Y-91493285D01*
X169374197Y-91493285D02*
X169374197Y-91638428D01*
X169374197Y-91638428D02*
X169410483Y-91710999D01*
X169410483Y-91710999D02*
X169446768Y-91747285D01*
X169446768Y-91747285D02*
X169519340Y-91783571D01*
X170873340Y-93534570D02*
X170909626Y-93570856D01*
X170909626Y-93570856D02*
X170945911Y-93679713D01*
X170945911Y-93679713D02*
X170945911Y-93752285D01*
X170945911Y-93752285D02*
X170909626Y-93861142D01*
X170909626Y-93861142D02*
X170837054Y-93933713D01*
X170837054Y-93933713D02*
X170764483Y-93969999D01*
X170764483Y-93969999D02*
X170619340Y-94006285D01*
X170619340Y-94006285D02*
X170510483Y-94006285D01*
X170510483Y-94006285D02*
X170365340Y-93969999D01*
X170365340Y-93969999D02*
X170292768Y-93933713D01*
X170292768Y-93933713D02*
X170220197Y-93861142D01*
X170220197Y-93861142D02*
X170183911Y-93752285D01*
X170183911Y-93752285D02*
X170183911Y-93679713D01*
X170183911Y-93679713D02*
X170220197Y-93570856D01*
X170220197Y-93570856D02*
X170256483Y-93534570D01*
X170909626Y-93244285D02*
X170945911Y-93135428D01*
X170945911Y-93135428D02*
X170945911Y-92953999D01*
X170945911Y-92953999D02*
X170909626Y-92881428D01*
X170909626Y-92881428D02*
X170873340Y-92845142D01*
X170873340Y-92845142D02*
X170800768Y-92808856D01*
X170800768Y-92808856D02*
X170728197Y-92808856D01*
X170728197Y-92808856D02*
X170655626Y-92845142D01*
X170655626Y-92845142D02*
X170619340Y-92881428D01*
X170619340Y-92881428D02*
X170583054Y-92953999D01*
X170583054Y-92953999D02*
X170546768Y-93099142D01*
X170546768Y-93099142D02*
X170510483Y-93171713D01*
X170510483Y-93171713D02*
X170474197Y-93207999D01*
X170474197Y-93207999D02*
X170401626Y-93244285D01*
X170401626Y-93244285D02*
X170329054Y-93244285D01*
X170329054Y-93244285D02*
X170256483Y-93207999D01*
X170256483Y-93207999D02*
X170220197Y-93171713D01*
X170220197Y-93171713D02*
X170183911Y-93099142D01*
X170183911Y-93099142D02*
X170183911Y-92917713D01*
X170183911Y-92917713D02*
X170220197Y-92808856D01*
X170945911Y-92482285D02*
X170183911Y-92482285D01*
X170183911Y-92482285D02*
X170183911Y-92300856D01*
X170183911Y-92300856D02*
X170220197Y-92191999D01*
X170220197Y-92191999D02*
X170292768Y-92119428D01*
X170292768Y-92119428D02*
X170365340Y-92083142D01*
X170365340Y-92083142D02*
X170510483Y-92046856D01*
X170510483Y-92046856D02*
X170619340Y-92046856D01*
X170619340Y-92046856D02*
X170764483Y-92083142D01*
X170764483Y-92083142D02*
X170837054Y-92119428D01*
X170837054Y-92119428D02*
X170909626Y-92191999D01*
X170909626Y-92191999D02*
X170945911Y-92300856D01*
X170945911Y-92300856D02*
X170945911Y-92482285D01*
X170728197Y-91756571D02*
X170728197Y-91393714D01*
X170945911Y-91829142D02*
X170183911Y-91575142D01*
X170183911Y-91575142D02*
X170945911Y-91321142D01*
X140110143Y-87473340D02*
X140073857Y-87509626D01*
X140073857Y-87509626D02*
X139965000Y-87545911D01*
X139965000Y-87545911D02*
X139892428Y-87545911D01*
X139892428Y-87545911D02*
X139783571Y-87509626D01*
X139783571Y-87509626D02*
X139711000Y-87437054D01*
X139711000Y-87437054D02*
X139674714Y-87364483D01*
X139674714Y-87364483D02*
X139638428Y-87219340D01*
X139638428Y-87219340D02*
X139638428Y-87110483D01*
X139638428Y-87110483D02*
X139674714Y-86965340D01*
X139674714Y-86965340D02*
X139711000Y-86892768D01*
X139711000Y-86892768D02*
X139783571Y-86820197D01*
X139783571Y-86820197D02*
X139892428Y-86783911D01*
X139892428Y-86783911D02*
X139965000Y-86783911D01*
X139965000Y-86783911D02*
X140073857Y-86820197D01*
X140073857Y-86820197D02*
X140110143Y-86856483D01*
X140364143Y-86783911D02*
X140835857Y-86783911D01*
X140835857Y-86783911D02*
X140581857Y-87074197D01*
X140581857Y-87074197D02*
X140690714Y-87074197D01*
X140690714Y-87074197D02*
X140763286Y-87110483D01*
X140763286Y-87110483D02*
X140799571Y-87146768D01*
X140799571Y-87146768D02*
X140835857Y-87219340D01*
X140835857Y-87219340D02*
X140835857Y-87400768D01*
X140835857Y-87400768D02*
X140799571Y-87473340D01*
X140799571Y-87473340D02*
X140763286Y-87509626D01*
X140763286Y-87509626D02*
X140690714Y-87545911D01*
X140690714Y-87545911D02*
X140473000Y-87545911D01*
X140473000Y-87545911D02*
X140400428Y-87509626D01*
X140400428Y-87509626D02*
X140364143Y-87473340D01*
X141126142Y-86856483D02*
X141162428Y-86820197D01*
X141162428Y-86820197D02*
X141235000Y-86783911D01*
X141235000Y-86783911D02*
X141416428Y-86783911D01*
X141416428Y-86783911D02*
X141489000Y-86820197D01*
X141489000Y-86820197D02*
X141525285Y-86856483D01*
X141525285Y-86856483D02*
X141561571Y-86929054D01*
X141561571Y-86929054D02*
X141561571Y-87001626D01*
X141561571Y-87001626D02*
X141525285Y-87110483D01*
X141525285Y-87110483D02*
X141089857Y-87545911D01*
X141089857Y-87545911D02*
X141561571Y-87545911D01*
X136760143Y-105273340D02*
X136723857Y-105309626D01*
X136723857Y-105309626D02*
X136615000Y-105345911D01*
X136615000Y-105345911D02*
X136542428Y-105345911D01*
X136542428Y-105345911D02*
X136433571Y-105309626D01*
X136433571Y-105309626D02*
X136361000Y-105237054D01*
X136361000Y-105237054D02*
X136324714Y-105164483D01*
X136324714Y-105164483D02*
X136288428Y-105019340D01*
X136288428Y-105019340D02*
X136288428Y-104910483D01*
X136288428Y-104910483D02*
X136324714Y-104765340D01*
X136324714Y-104765340D02*
X136361000Y-104692768D01*
X136361000Y-104692768D02*
X136433571Y-104620197D01*
X136433571Y-104620197D02*
X136542428Y-104583911D01*
X136542428Y-104583911D02*
X136615000Y-104583911D01*
X136615000Y-104583911D02*
X136723857Y-104620197D01*
X136723857Y-104620197D02*
X136760143Y-104656483D01*
X137050428Y-104656483D02*
X137086714Y-104620197D01*
X137086714Y-104620197D02*
X137159286Y-104583911D01*
X137159286Y-104583911D02*
X137340714Y-104583911D01*
X137340714Y-104583911D02*
X137413286Y-104620197D01*
X137413286Y-104620197D02*
X137449571Y-104656483D01*
X137449571Y-104656483D02*
X137485857Y-104729054D01*
X137485857Y-104729054D02*
X137485857Y-104801626D01*
X137485857Y-104801626D02*
X137449571Y-104910483D01*
X137449571Y-104910483D02*
X137014143Y-105345911D01*
X137014143Y-105345911D02*
X137485857Y-105345911D01*
X138175285Y-104583911D02*
X137812428Y-104583911D01*
X137812428Y-104583911D02*
X137776142Y-104946768D01*
X137776142Y-104946768D02*
X137812428Y-104910483D01*
X137812428Y-104910483D02*
X137885000Y-104874197D01*
X137885000Y-104874197D02*
X138066428Y-104874197D01*
X138066428Y-104874197D02*
X138139000Y-104910483D01*
X138139000Y-104910483D02*
X138175285Y-104946768D01*
X138175285Y-104946768D02*
X138211571Y-105019340D01*
X138211571Y-105019340D02*
X138211571Y-105200768D01*
X138211571Y-105200768D02*
X138175285Y-105273340D01*
X138175285Y-105273340D02*
X138139000Y-105309626D01*
X138139000Y-105309626D02*
X138066428Y-105345911D01*
X138066428Y-105345911D02*
X137885000Y-105345911D01*
X137885000Y-105345911D02*
X137812428Y-105309626D01*
X137812428Y-105309626D02*
X137776142Y-105273340D01*
X169605911Y-82989856D02*
X169243054Y-83243856D01*
X169605911Y-83425285D02*
X168843911Y-83425285D01*
X168843911Y-83425285D02*
X168843911Y-83134999D01*
X168843911Y-83134999D02*
X168880197Y-83062428D01*
X168880197Y-83062428D02*
X168916483Y-83026142D01*
X168916483Y-83026142D02*
X168989054Y-82989856D01*
X168989054Y-82989856D02*
X169097911Y-82989856D01*
X169097911Y-82989856D02*
X169170483Y-83026142D01*
X169170483Y-83026142D02*
X169206768Y-83062428D01*
X169206768Y-83062428D02*
X169243054Y-83134999D01*
X169243054Y-83134999D02*
X169243054Y-83425285D01*
X169605911Y-82264142D02*
X169605911Y-82699571D01*
X169605911Y-82481856D02*
X168843911Y-82481856D01*
X168843911Y-82481856D02*
X168952768Y-82554428D01*
X168952768Y-82554428D02*
X169025340Y-82626999D01*
X169025340Y-82626999D02*
X169061626Y-82699571D01*
X168843911Y-82010142D02*
X168843911Y-81538428D01*
X168843911Y-81538428D02*
X169134197Y-81792428D01*
X169134197Y-81792428D02*
X169134197Y-81683571D01*
X169134197Y-81683571D02*
X169170483Y-81611000D01*
X169170483Y-81611000D02*
X169206768Y-81574714D01*
X169206768Y-81574714D02*
X169279340Y-81538428D01*
X169279340Y-81538428D02*
X169460768Y-81538428D01*
X169460768Y-81538428D02*
X169533340Y-81574714D01*
X169533340Y-81574714D02*
X169569626Y-81611000D01*
X169569626Y-81611000D02*
X169605911Y-81683571D01*
X169605911Y-81683571D02*
X169605911Y-81901285D01*
X169605911Y-81901285D02*
X169569626Y-81973857D01*
X169569626Y-81973857D02*
X169533340Y-82010142D01*
X157573340Y-87589856D02*
X157609626Y-87626142D01*
X157609626Y-87626142D02*
X157645911Y-87734999D01*
X157645911Y-87734999D02*
X157645911Y-87807571D01*
X157645911Y-87807571D02*
X157609626Y-87916428D01*
X157609626Y-87916428D02*
X157537054Y-87988999D01*
X157537054Y-87988999D02*
X157464483Y-88025285D01*
X157464483Y-88025285D02*
X157319340Y-88061571D01*
X157319340Y-88061571D02*
X157210483Y-88061571D01*
X157210483Y-88061571D02*
X157065340Y-88025285D01*
X157065340Y-88025285D02*
X156992768Y-87988999D01*
X156992768Y-87988999D02*
X156920197Y-87916428D01*
X156920197Y-87916428D02*
X156883911Y-87807571D01*
X156883911Y-87807571D02*
X156883911Y-87734999D01*
X156883911Y-87734999D02*
X156920197Y-87626142D01*
X156920197Y-87626142D02*
X156956483Y-87589856D01*
X157645911Y-86864142D02*
X157645911Y-87299571D01*
X157645911Y-87081856D02*
X156883911Y-87081856D01*
X156883911Y-87081856D02*
X156992768Y-87154428D01*
X156992768Y-87154428D02*
X157065340Y-87226999D01*
X157065340Y-87226999D02*
X157101626Y-87299571D01*
X156883911Y-86211000D02*
X156883911Y-86356142D01*
X156883911Y-86356142D02*
X156920197Y-86428714D01*
X156920197Y-86428714D02*
X156956483Y-86465000D01*
X156956483Y-86465000D02*
X157065340Y-86537571D01*
X157065340Y-86537571D02*
X157210483Y-86573857D01*
X157210483Y-86573857D02*
X157500768Y-86573857D01*
X157500768Y-86573857D02*
X157573340Y-86537571D01*
X157573340Y-86537571D02*
X157609626Y-86501285D01*
X157609626Y-86501285D02*
X157645911Y-86428714D01*
X157645911Y-86428714D02*
X157645911Y-86283571D01*
X157645911Y-86283571D02*
X157609626Y-86211000D01*
X157609626Y-86211000D02*
X157573340Y-86174714D01*
X157573340Y-86174714D02*
X157500768Y-86138428D01*
X157500768Y-86138428D02*
X157319340Y-86138428D01*
X157319340Y-86138428D02*
X157246768Y-86174714D01*
X157246768Y-86174714D02*
X157210483Y-86211000D01*
X157210483Y-86211000D02*
X157174197Y-86283571D01*
X157174197Y-86283571D02*
X157174197Y-86428714D01*
X157174197Y-86428714D02*
X157210483Y-86501285D01*
X157210483Y-86501285D02*
X157246768Y-86537571D01*
X157246768Y-86537571D02*
X157319340Y-86573857D01*
X149326000Y-66583911D02*
X149326000Y-67128197D01*
X149326000Y-67128197D02*
X149289715Y-67237054D01*
X149289715Y-67237054D02*
X149217143Y-67309626D01*
X149217143Y-67309626D02*
X149108286Y-67345911D01*
X149108286Y-67345911D02*
X149035715Y-67345911D01*
X150015429Y-66583911D02*
X149870286Y-66583911D01*
X149870286Y-66583911D02*
X149797714Y-66620197D01*
X149797714Y-66620197D02*
X149761429Y-66656483D01*
X149761429Y-66656483D02*
X149688857Y-66765340D01*
X149688857Y-66765340D02*
X149652571Y-66910483D01*
X149652571Y-66910483D02*
X149652571Y-67200768D01*
X149652571Y-67200768D02*
X149688857Y-67273340D01*
X149688857Y-67273340D02*
X149725143Y-67309626D01*
X149725143Y-67309626D02*
X149797714Y-67345911D01*
X149797714Y-67345911D02*
X149942857Y-67345911D01*
X149942857Y-67345911D02*
X150015429Y-67309626D01*
X150015429Y-67309626D02*
X150051714Y-67273340D01*
X150051714Y-67273340D02*
X150088000Y-67200768D01*
X150088000Y-67200768D02*
X150088000Y-67019340D01*
X150088000Y-67019340D02*
X150051714Y-66946768D01*
X150051714Y-66946768D02*
X150015429Y-66910483D01*
X150015429Y-66910483D02*
X149942857Y-66874197D01*
X149942857Y-66874197D02*
X149797714Y-66874197D01*
X149797714Y-66874197D02*
X149725143Y-66910483D01*
X149725143Y-66910483D02*
X149688857Y-66946768D01*
X149688857Y-66946768D02*
X149652571Y-67019340D01*
X141710143Y-109745911D02*
X141456143Y-109383054D01*
X141274714Y-109745911D02*
X141274714Y-108983911D01*
X141274714Y-108983911D02*
X141565000Y-108983911D01*
X141565000Y-108983911D02*
X141637571Y-109020197D01*
X141637571Y-109020197D02*
X141673857Y-109056483D01*
X141673857Y-109056483D02*
X141710143Y-109129054D01*
X141710143Y-109129054D02*
X141710143Y-109237911D01*
X141710143Y-109237911D02*
X141673857Y-109310483D01*
X141673857Y-109310483D02*
X141637571Y-109346768D01*
X141637571Y-109346768D02*
X141565000Y-109383054D01*
X141565000Y-109383054D02*
X141274714Y-109383054D01*
X142000428Y-109056483D02*
X142036714Y-109020197D01*
X142036714Y-109020197D02*
X142109286Y-108983911D01*
X142109286Y-108983911D02*
X142290714Y-108983911D01*
X142290714Y-108983911D02*
X142363286Y-109020197D01*
X142363286Y-109020197D02*
X142399571Y-109056483D01*
X142399571Y-109056483D02*
X142435857Y-109129054D01*
X142435857Y-109129054D02*
X142435857Y-109201626D01*
X142435857Y-109201626D02*
X142399571Y-109310483D01*
X142399571Y-109310483D02*
X141964143Y-109745911D01*
X141964143Y-109745911D02*
X142435857Y-109745911D01*
X143161571Y-109745911D02*
X142726142Y-109745911D01*
X142943857Y-109745911D02*
X142943857Y-108983911D01*
X142943857Y-108983911D02*
X142871285Y-109092768D01*
X142871285Y-109092768D02*
X142798714Y-109165340D01*
X142798714Y-109165340D02*
X142726142Y-109201626D01*
X159273340Y-112926999D02*
X159309626Y-112963285D01*
X159309626Y-112963285D02*
X159345911Y-113072142D01*
X159345911Y-113072142D02*
X159345911Y-113144714D01*
X159345911Y-113144714D02*
X159309626Y-113253571D01*
X159309626Y-113253571D02*
X159237054Y-113326142D01*
X159237054Y-113326142D02*
X159164483Y-113362428D01*
X159164483Y-113362428D02*
X159019340Y-113398714D01*
X159019340Y-113398714D02*
X158910483Y-113398714D01*
X158910483Y-113398714D02*
X158765340Y-113362428D01*
X158765340Y-113362428D02*
X158692768Y-113326142D01*
X158692768Y-113326142D02*
X158620197Y-113253571D01*
X158620197Y-113253571D02*
X158583911Y-113144714D01*
X158583911Y-113144714D02*
X158583911Y-113072142D01*
X158583911Y-113072142D02*
X158620197Y-112963285D01*
X158620197Y-112963285D02*
X158656483Y-112926999D01*
X158910483Y-112491571D02*
X158874197Y-112564142D01*
X158874197Y-112564142D02*
X158837911Y-112600428D01*
X158837911Y-112600428D02*
X158765340Y-112636714D01*
X158765340Y-112636714D02*
X158729054Y-112636714D01*
X158729054Y-112636714D02*
X158656483Y-112600428D01*
X158656483Y-112600428D02*
X158620197Y-112564142D01*
X158620197Y-112564142D02*
X158583911Y-112491571D01*
X158583911Y-112491571D02*
X158583911Y-112346428D01*
X158583911Y-112346428D02*
X158620197Y-112273857D01*
X158620197Y-112273857D02*
X158656483Y-112237571D01*
X158656483Y-112237571D02*
X158729054Y-112201285D01*
X158729054Y-112201285D02*
X158765340Y-112201285D01*
X158765340Y-112201285D02*
X158837911Y-112237571D01*
X158837911Y-112237571D02*
X158874197Y-112273857D01*
X158874197Y-112273857D02*
X158910483Y-112346428D01*
X158910483Y-112346428D02*
X158910483Y-112491571D01*
X158910483Y-112491571D02*
X158946768Y-112564142D01*
X158946768Y-112564142D02*
X158983054Y-112600428D01*
X158983054Y-112600428D02*
X159055626Y-112636714D01*
X159055626Y-112636714D02*
X159200768Y-112636714D01*
X159200768Y-112636714D02*
X159273340Y-112600428D01*
X159273340Y-112600428D02*
X159309626Y-112564142D01*
X159309626Y-112564142D02*
X159345911Y-112491571D01*
X159345911Y-112491571D02*
X159345911Y-112346428D01*
X159345911Y-112346428D02*
X159309626Y-112273857D01*
X159309626Y-112273857D02*
X159273340Y-112237571D01*
X159273340Y-112237571D02*
X159200768Y-112201285D01*
X159200768Y-112201285D02*
X159055626Y-112201285D01*
X159055626Y-112201285D02*
X158983054Y-112237571D01*
X158983054Y-112237571D02*
X158946768Y-112273857D01*
X158946768Y-112273857D02*
X158910483Y-112346428D01*
X134710143Y-73773340D02*
X134673857Y-73809626D01*
X134673857Y-73809626D02*
X134565000Y-73845911D01*
X134565000Y-73845911D02*
X134492428Y-73845911D01*
X134492428Y-73845911D02*
X134383571Y-73809626D01*
X134383571Y-73809626D02*
X134311000Y-73737054D01*
X134311000Y-73737054D02*
X134274714Y-73664483D01*
X134274714Y-73664483D02*
X134238428Y-73519340D01*
X134238428Y-73519340D02*
X134238428Y-73410483D01*
X134238428Y-73410483D02*
X134274714Y-73265340D01*
X134274714Y-73265340D02*
X134311000Y-73192768D01*
X134311000Y-73192768D02*
X134383571Y-73120197D01*
X134383571Y-73120197D02*
X134492428Y-73083911D01*
X134492428Y-73083911D02*
X134565000Y-73083911D01*
X134565000Y-73083911D02*
X134673857Y-73120197D01*
X134673857Y-73120197D02*
X134710143Y-73156483D01*
X135363286Y-73337911D02*
X135363286Y-73845911D01*
X135181857Y-73047626D02*
X135000428Y-73591911D01*
X135000428Y-73591911D02*
X135472143Y-73591911D01*
X135689857Y-73083911D02*
X136197857Y-73083911D01*
X136197857Y-73083911D02*
X135871285Y-73845911D01*
X139710143Y-84144140D02*
X139673857Y-84180426D01*
X139673857Y-84180426D02*
X139565000Y-84216711D01*
X139565000Y-84216711D02*
X139492428Y-84216711D01*
X139492428Y-84216711D02*
X139383571Y-84180426D01*
X139383571Y-84180426D02*
X139311000Y-84107854D01*
X139311000Y-84107854D02*
X139274714Y-84035283D01*
X139274714Y-84035283D02*
X139238428Y-83890140D01*
X139238428Y-83890140D02*
X139238428Y-83781283D01*
X139238428Y-83781283D02*
X139274714Y-83636140D01*
X139274714Y-83636140D02*
X139311000Y-83563568D01*
X139311000Y-83563568D02*
X139383571Y-83490997D01*
X139383571Y-83490997D02*
X139492428Y-83454711D01*
X139492428Y-83454711D02*
X139565000Y-83454711D01*
X139565000Y-83454711D02*
X139673857Y-83490997D01*
X139673857Y-83490997D02*
X139710143Y-83527283D01*
X139964143Y-83454711D02*
X140435857Y-83454711D01*
X140435857Y-83454711D02*
X140181857Y-83744997D01*
X140181857Y-83744997D02*
X140290714Y-83744997D01*
X140290714Y-83744997D02*
X140363286Y-83781283D01*
X140363286Y-83781283D02*
X140399571Y-83817568D01*
X140399571Y-83817568D02*
X140435857Y-83890140D01*
X140435857Y-83890140D02*
X140435857Y-84071568D01*
X140435857Y-84071568D02*
X140399571Y-84144140D01*
X140399571Y-84144140D02*
X140363286Y-84180426D01*
X140363286Y-84180426D02*
X140290714Y-84216711D01*
X140290714Y-84216711D02*
X140073000Y-84216711D01*
X140073000Y-84216711D02*
X140000428Y-84180426D01*
X140000428Y-84180426D02*
X139964143Y-84144140D01*
X140907571Y-83454711D02*
X140980142Y-83454711D01*
X140980142Y-83454711D02*
X141052714Y-83490997D01*
X141052714Y-83490997D02*
X141089000Y-83527283D01*
X141089000Y-83527283D02*
X141125285Y-83599854D01*
X141125285Y-83599854D02*
X141161571Y-83744997D01*
X141161571Y-83744997D02*
X141161571Y-83926426D01*
X141161571Y-83926426D02*
X141125285Y-84071568D01*
X141125285Y-84071568D02*
X141089000Y-84144140D01*
X141089000Y-84144140D02*
X141052714Y-84180426D01*
X141052714Y-84180426D02*
X140980142Y-84216711D01*
X140980142Y-84216711D02*
X140907571Y-84216711D01*
X140907571Y-84216711D02*
X140835000Y-84180426D01*
X140835000Y-84180426D02*
X140798714Y-84144140D01*
X140798714Y-84144140D02*
X140762428Y-84071568D01*
X140762428Y-84071568D02*
X140726142Y-83926426D01*
X140726142Y-83926426D02*
X140726142Y-83744997D01*
X140726142Y-83744997D02*
X140762428Y-83599854D01*
X140762428Y-83599854D02*
X140798714Y-83527283D01*
X140798714Y-83527283D02*
X140835000Y-83490997D01*
X140835000Y-83490997D02*
X140907571Y-83454711D01*
X165610143Y-103373340D02*
X165573857Y-103409626D01*
X165573857Y-103409626D02*
X165465000Y-103445911D01*
X165465000Y-103445911D02*
X165392428Y-103445911D01*
X165392428Y-103445911D02*
X165283571Y-103409626D01*
X165283571Y-103409626D02*
X165211000Y-103337054D01*
X165211000Y-103337054D02*
X165174714Y-103264483D01*
X165174714Y-103264483D02*
X165138428Y-103119340D01*
X165138428Y-103119340D02*
X165138428Y-103010483D01*
X165138428Y-103010483D02*
X165174714Y-102865340D01*
X165174714Y-102865340D02*
X165211000Y-102792768D01*
X165211000Y-102792768D02*
X165283571Y-102720197D01*
X165283571Y-102720197D02*
X165392428Y-102683911D01*
X165392428Y-102683911D02*
X165465000Y-102683911D01*
X165465000Y-102683911D02*
X165573857Y-102720197D01*
X165573857Y-102720197D02*
X165610143Y-102756483D01*
X166335857Y-103445911D02*
X165900428Y-103445911D01*
X166118143Y-103445911D02*
X166118143Y-102683911D01*
X166118143Y-102683911D02*
X166045571Y-102792768D01*
X166045571Y-102792768D02*
X165973000Y-102865340D01*
X165973000Y-102865340D02*
X165900428Y-102901626D01*
X166626142Y-102756483D02*
X166662428Y-102720197D01*
X166662428Y-102720197D02*
X166735000Y-102683911D01*
X166735000Y-102683911D02*
X166916428Y-102683911D01*
X166916428Y-102683911D02*
X166989000Y-102720197D01*
X166989000Y-102720197D02*
X167025285Y-102756483D01*
X167025285Y-102756483D02*
X167061571Y-102829054D01*
X167061571Y-102829054D02*
X167061571Y-102901626D01*
X167061571Y-102901626D02*
X167025285Y-103010483D01*
X167025285Y-103010483D02*
X166589857Y-103445911D01*
X166589857Y-103445911D02*
X167061571Y-103445911D01*
X148637571Y-74545911D02*
X148637571Y-73783911D01*
X148637571Y-73783911D02*
X148819000Y-73783911D01*
X148819000Y-73783911D02*
X148927857Y-73820197D01*
X148927857Y-73820197D02*
X149000428Y-73892768D01*
X149000428Y-73892768D02*
X149036714Y-73965340D01*
X149036714Y-73965340D02*
X149073000Y-74110483D01*
X149073000Y-74110483D02*
X149073000Y-74219340D01*
X149073000Y-74219340D02*
X149036714Y-74364483D01*
X149036714Y-74364483D02*
X149000428Y-74437054D01*
X149000428Y-74437054D02*
X148927857Y-74509626D01*
X148927857Y-74509626D02*
X148819000Y-74545911D01*
X148819000Y-74545911D02*
X148637571Y-74545911D01*
X149798714Y-74545911D02*
X149363285Y-74545911D01*
X149581000Y-74545911D02*
X149581000Y-73783911D01*
X149581000Y-73783911D02*
X149508428Y-73892768D01*
X149508428Y-73892768D02*
X149435857Y-73965340D01*
X149435857Y-73965340D02*
X149363285Y-74001626D01*
X163583911Y-93824427D02*
X163583911Y-93388999D01*
X164345911Y-93606713D02*
X163583911Y-93606713D01*
X164345911Y-93134999D02*
X163583911Y-93134999D01*
X163583911Y-93134999D02*
X163583911Y-92844713D01*
X163583911Y-92844713D02*
X163620197Y-92772142D01*
X163620197Y-92772142D02*
X163656483Y-92735856D01*
X163656483Y-92735856D02*
X163729054Y-92699570D01*
X163729054Y-92699570D02*
X163837911Y-92699570D01*
X163837911Y-92699570D02*
X163910483Y-92735856D01*
X163910483Y-92735856D02*
X163946768Y-92772142D01*
X163946768Y-92772142D02*
X163983054Y-92844713D01*
X163983054Y-92844713D02*
X163983054Y-93134999D01*
X163656483Y-92409285D02*
X163620197Y-92372999D01*
X163620197Y-92372999D02*
X163583911Y-92300428D01*
X163583911Y-92300428D02*
X163583911Y-92118999D01*
X163583911Y-92118999D02*
X163620197Y-92046428D01*
X163620197Y-92046428D02*
X163656483Y-92010142D01*
X163656483Y-92010142D02*
X163729054Y-91973856D01*
X163729054Y-91973856D02*
X163801626Y-91973856D01*
X163801626Y-91973856D02*
X163910483Y-92010142D01*
X163910483Y-92010142D02*
X164345911Y-92445570D01*
X164345911Y-92445570D02*
X164345911Y-91973856D01*
X163583911Y-91719856D02*
X163583911Y-91211856D01*
X163583911Y-91211856D02*
X164345911Y-91538428D01*
X165573340Y-92807999D02*
X165609626Y-92844285D01*
X165609626Y-92844285D02*
X165645911Y-92953142D01*
X165645911Y-92953142D02*
X165645911Y-93025714D01*
X165645911Y-93025714D02*
X165609626Y-93134571D01*
X165609626Y-93134571D02*
X165537054Y-93207142D01*
X165537054Y-93207142D02*
X165464483Y-93243428D01*
X165464483Y-93243428D02*
X165319340Y-93279714D01*
X165319340Y-93279714D02*
X165210483Y-93279714D01*
X165210483Y-93279714D02*
X165065340Y-93243428D01*
X165065340Y-93243428D02*
X164992768Y-93207142D01*
X164992768Y-93207142D02*
X164920197Y-93134571D01*
X164920197Y-93134571D02*
X164883911Y-93025714D01*
X164883911Y-93025714D02*
X164883911Y-92953142D01*
X164883911Y-92953142D02*
X164920197Y-92844285D01*
X164920197Y-92844285D02*
X164956483Y-92807999D01*
X165246768Y-92481428D02*
X165246768Y-92227428D01*
X165645911Y-92118571D02*
X165645911Y-92481428D01*
X165645911Y-92481428D02*
X164883911Y-92481428D01*
X164883911Y-92481428D02*
X164883911Y-92118571D01*
X165645911Y-91791999D02*
X164883911Y-91791999D01*
X164883911Y-91791999D02*
X165645911Y-91356570D01*
X165645911Y-91356570D02*
X164883911Y-91356570D01*
X147023340Y-84239856D02*
X147059626Y-84276142D01*
X147059626Y-84276142D02*
X147095911Y-84384999D01*
X147095911Y-84384999D02*
X147095911Y-84457571D01*
X147095911Y-84457571D02*
X147059626Y-84566428D01*
X147059626Y-84566428D02*
X146987054Y-84638999D01*
X146987054Y-84638999D02*
X146914483Y-84675285D01*
X146914483Y-84675285D02*
X146769340Y-84711571D01*
X146769340Y-84711571D02*
X146660483Y-84711571D01*
X146660483Y-84711571D02*
X146515340Y-84675285D01*
X146515340Y-84675285D02*
X146442768Y-84638999D01*
X146442768Y-84638999D02*
X146370197Y-84566428D01*
X146370197Y-84566428D02*
X146333911Y-84457571D01*
X146333911Y-84457571D02*
X146333911Y-84384999D01*
X146333911Y-84384999D02*
X146370197Y-84276142D01*
X146370197Y-84276142D02*
X146406483Y-84239856D01*
X146406483Y-83949571D02*
X146370197Y-83913285D01*
X146370197Y-83913285D02*
X146333911Y-83840714D01*
X146333911Y-83840714D02*
X146333911Y-83659285D01*
X146333911Y-83659285D02*
X146370197Y-83586714D01*
X146370197Y-83586714D02*
X146406483Y-83550428D01*
X146406483Y-83550428D02*
X146479054Y-83514142D01*
X146479054Y-83514142D02*
X146551626Y-83514142D01*
X146551626Y-83514142D02*
X146660483Y-83550428D01*
X146660483Y-83550428D02*
X147095911Y-83985856D01*
X147095911Y-83985856D02*
X147095911Y-83514142D01*
X146406483Y-83223857D02*
X146370197Y-83187571D01*
X146370197Y-83187571D02*
X146333911Y-83115000D01*
X146333911Y-83115000D02*
X146333911Y-82933571D01*
X146333911Y-82933571D02*
X146370197Y-82861000D01*
X146370197Y-82861000D02*
X146406483Y-82824714D01*
X146406483Y-82824714D02*
X146479054Y-82788428D01*
X146479054Y-82788428D02*
X146551626Y-82788428D01*
X146551626Y-82788428D02*
X146660483Y-82824714D01*
X146660483Y-82824714D02*
X147095911Y-83260142D01*
X147095911Y-83260142D02*
X147095911Y-82788428D01*
X149875572Y-114183911D02*
X150311001Y-114183911D01*
X150093286Y-114945911D02*
X150093286Y-114183911D01*
X150565000Y-114945911D02*
X150565000Y-114183911D01*
X150565000Y-114183911D02*
X150855286Y-114183911D01*
X150855286Y-114183911D02*
X150927857Y-114220197D01*
X150927857Y-114220197D02*
X150964143Y-114256483D01*
X150964143Y-114256483D02*
X151000429Y-114329054D01*
X151000429Y-114329054D02*
X151000429Y-114437911D01*
X151000429Y-114437911D02*
X150964143Y-114510483D01*
X150964143Y-114510483D02*
X150927857Y-114546768D01*
X150927857Y-114546768D02*
X150855286Y-114583054D01*
X150855286Y-114583054D02*
X150565000Y-114583054D01*
X151726143Y-114945911D02*
X151290714Y-114945911D01*
X151508429Y-114945911D02*
X151508429Y-114183911D01*
X151508429Y-114183911D02*
X151435857Y-114292768D01*
X151435857Y-114292768D02*
X151363286Y-114365340D01*
X151363286Y-114365340D02*
X151290714Y-114401626D01*
X152016428Y-114256483D02*
X152052714Y-114220197D01*
X152052714Y-114220197D02*
X152125286Y-114183911D01*
X152125286Y-114183911D02*
X152306714Y-114183911D01*
X152306714Y-114183911D02*
X152379286Y-114220197D01*
X152379286Y-114220197D02*
X152415571Y-114256483D01*
X152415571Y-114256483D02*
X152451857Y-114329054D01*
X152451857Y-114329054D02*
X152451857Y-114401626D01*
X152451857Y-114401626D02*
X152415571Y-114510483D01*
X152415571Y-114510483D02*
X151980143Y-114945911D01*
X151980143Y-114945911D02*
X152451857Y-114945911D01*
X150202142Y-116045911D02*
X150202142Y-115283911D01*
X150202142Y-115283911D02*
X150492428Y-115283911D01*
X150492428Y-115283911D02*
X150564999Y-115320197D01*
X150564999Y-115320197D02*
X150601285Y-115356483D01*
X150601285Y-115356483D02*
X150637571Y-115429054D01*
X150637571Y-115429054D02*
X150637571Y-115537911D01*
X150637571Y-115537911D02*
X150601285Y-115610483D01*
X150601285Y-115610483D02*
X150564999Y-115646768D01*
X150564999Y-115646768D02*
X150492428Y-115683054D01*
X150492428Y-115683054D02*
X150202142Y-115683054D01*
X151109285Y-115283911D02*
X151254428Y-115283911D01*
X151254428Y-115283911D02*
X151326999Y-115320197D01*
X151326999Y-115320197D02*
X151399571Y-115392768D01*
X151399571Y-115392768D02*
X151435856Y-115537911D01*
X151435856Y-115537911D02*
X151435856Y-115791911D01*
X151435856Y-115791911D02*
X151399571Y-115937054D01*
X151399571Y-115937054D02*
X151326999Y-116009626D01*
X151326999Y-116009626D02*
X151254428Y-116045911D01*
X151254428Y-116045911D02*
X151109285Y-116045911D01*
X151109285Y-116045911D02*
X151036714Y-116009626D01*
X151036714Y-116009626D02*
X150964142Y-115937054D01*
X150964142Y-115937054D02*
X150927856Y-115791911D01*
X150927856Y-115791911D02*
X150927856Y-115537911D01*
X150927856Y-115537911D02*
X150964142Y-115392768D01*
X150964142Y-115392768D02*
X151036714Y-115320197D01*
X151036714Y-115320197D02*
X151109285Y-115283911D01*
X151762428Y-116045911D02*
X151762428Y-115283911D01*
X151762428Y-115283911D02*
X152197857Y-116045911D01*
X152197857Y-116045911D02*
X152197857Y-115283911D01*
X164875572Y-114135911D02*
X165311001Y-114135911D01*
X165093286Y-114897911D02*
X165093286Y-114135911D01*
X165565000Y-114897911D02*
X165565000Y-114135911D01*
X165565000Y-114135911D02*
X165855286Y-114135911D01*
X165855286Y-114135911D02*
X165927857Y-114172197D01*
X165927857Y-114172197D02*
X165964143Y-114208483D01*
X165964143Y-114208483D02*
X166000429Y-114281054D01*
X166000429Y-114281054D02*
X166000429Y-114389911D01*
X166000429Y-114389911D02*
X165964143Y-114462483D01*
X165964143Y-114462483D02*
X165927857Y-114498768D01*
X165927857Y-114498768D02*
X165855286Y-114535054D01*
X165855286Y-114535054D02*
X165565000Y-114535054D01*
X166726143Y-114897911D02*
X166290714Y-114897911D01*
X166508429Y-114897911D02*
X166508429Y-114135911D01*
X166508429Y-114135911D02*
X166435857Y-114244768D01*
X166435857Y-114244768D02*
X166363286Y-114317340D01*
X166363286Y-114317340D02*
X166290714Y-114353626D01*
X167161571Y-114462483D02*
X167089000Y-114426197D01*
X167089000Y-114426197D02*
X167052714Y-114389911D01*
X167052714Y-114389911D02*
X167016428Y-114317340D01*
X167016428Y-114317340D02*
X167016428Y-114281054D01*
X167016428Y-114281054D02*
X167052714Y-114208483D01*
X167052714Y-114208483D02*
X167089000Y-114172197D01*
X167089000Y-114172197D02*
X167161571Y-114135911D01*
X167161571Y-114135911D02*
X167306714Y-114135911D01*
X167306714Y-114135911D02*
X167379286Y-114172197D01*
X167379286Y-114172197D02*
X167415571Y-114208483D01*
X167415571Y-114208483D02*
X167451857Y-114281054D01*
X167451857Y-114281054D02*
X167451857Y-114317340D01*
X167451857Y-114317340D02*
X167415571Y-114389911D01*
X167415571Y-114389911D02*
X167379286Y-114426197D01*
X167379286Y-114426197D02*
X167306714Y-114462483D01*
X167306714Y-114462483D02*
X167161571Y-114462483D01*
X167161571Y-114462483D02*
X167089000Y-114498768D01*
X167089000Y-114498768D02*
X167052714Y-114535054D01*
X167052714Y-114535054D02*
X167016428Y-114607626D01*
X167016428Y-114607626D02*
X167016428Y-114752768D01*
X167016428Y-114752768D02*
X167052714Y-114825340D01*
X167052714Y-114825340D02*
X167089000Y-114861626D01*
X167089000Y-114861626D02*
X167161571Y-114897911D01*
X167161571Y-114897911D02*
X167306714Y-114897911D01*
X167306714Y-114897911D02*
X167379286Y-114861626D01*
X167379286Y-114861626D02*
X167415571Y-114825340D01*
X167415571Y-114825340D02*
X167451857Y-114752768D01*
X167451857Y-114752768D02*
X167451857Y-114607626D01*
X167451857Y-114607626D02*
X167415571Y-114535054D01*
X167415571Y-114535054D02*
X167379286Y-114498768D01*
X167379286Y-114498768D02*
X167306714Y-114462483D01*
X164911857Y-118259626D02*
X165020715Y-118295911D01*
X165020715Y-118295911D02*
X165202143Y-118295911D01*
X165202143Y-118295911D02*
X165274715Y-118259626D01*
X165274715Y-118259626D02*
X165311000Y-118223340D01*
X165311000Y-118223340D02*
X165347286Y-118150768D01*
X165347286Y-118150768D02*
X165347286Y-118078197D01*
X165347286Y-118078197D02*
X165311000Y-118005626D01*
X165311000Y-118005626D02*
X165274715Y-117969340D01*
X165274715Y-117969340D02*
X165202143Y-117933054D01*
X165202143Y-117933054D02*
X165057000Y-117896768D01*
X165057000Y-117896768D02*
X164984429Y-117860483D01*
X164984429Y-117860483D02*
X164948143Y-117824197D01*
X164948143Y-117824197D02*
X164911857Y-117751626D01*
X164911857Y-117751626D02*
X164911857Y-117679054D01*
X164911857Y-117679054D02*
X164948143Y-117606483D01*
X164948143Y-117606483D02*
X164984429Y-117570197D01*
X164984429Y-117570197D02*
X165057000Y-117533911D01*
X165057000Y-117533911D02*
X165238429Y-117533911D01*
X165238429Y-117533911D02*
X165347286Y-117570197D01*
X165673857Y-118295911D02*
X165673857Y-117533911D01*
X165673857Y-117533911D02*
X165855286Y-117533911D01*
X165855286Y-117533911D02*
X165964143Y-117570197D01*
X165964143Y-117570197D02*
X166036714Y-117642768D01*
X166036714Y-117642768D02*
X166073000Y-117715340D01*
X166073000Y-117715340D02*
X166109286Y-117860483D01*
X166109286Y-117860483D02*
X166109286Y-117969340D01*
X166109286Y-117969340D02*
X166073000Y-118114483D01*
X166073000Y-118114483D02*
X166036714Y-118187054D01*
X166036714Y-118187054D02*
X165964143Y-118259626D01*
X165964143Y-118259626D02*
X165855286Y-118295911D01*
X165855286Y-118295911D02*
X165673857Y-118295911D01*
X166399571Y-118078197D02*
X166762429Y-118078197D01*
X166327000Y-118295911D02*
X166581000Y-117533911D01*
X166581000Y-117533911D02*
X166835000Y-118295911D01*
X167234143Y-117533911D02*
X167306714Y-117533911D01*
X167306714Y-117533911D02*
X167379286Y-117570197D01*
X167379286Y-117570197D02*
X167415572Y-117606483D01*
X167415572Y-117606483D02*
X167451857Y-117679054D01*
X167451857Y-117679054D02*
X167488143Y-117824197D01*
X167488143Y-117824197D02*
X167488143Y-118005626D01*
X167488143Y-118005626D02*
X167451857Y-118150768D01*
X167451857Y-118150768D02*
X167415572Y-118223340D01*
X167415572Y-118223340D02*
X167379286Y-118259626D01*
X167379286Y-118259626D02*
X167306714Y-118295911D01*
X167306714Y-118295911D02*
X167234143Y-118295911D01*
X167234143Y-118295911D02*
X167161572Y-118259626D01*
X167161572Y-118259626D02*
X167125286Y-118223340D01*
X167125286Y-118223340D02*
X167089000Y-118150768D01*
X167089000Y-118150768D02*
X167052714Y-118005626D01*
X167052714Y-118005626D02*
X167052714Y-117824197D01*
X167052714Y-117824197D02*
X167089000Y-117679054D01*
X167089000Y-117679054D02*
X167125286Y-117606483D01*
X167125286Y-117606483D02*
X167161572Y-117570197D01*
X167161572Y-117570197D02*
X167234143Y-117533911D01*
X140310143Y-85973340D02*
X140273857Y-86009626D01*
X140273857Y-86009626D02*
X140165000Y-86045911D01*
X140165000Y-86045911D02*
X140092428Y-86045911D01*
X140092428Y-86045911D02*
X139983571Y-86009626D01*
X139983571Y-86009626D02*
X139911000Y-85937054D01*
X139911000Y-85937054D02*
X139874714Y-85864483D01*
X139874714Y-85864483D02*
X139838428Y-85719340D01*
X139838428Y-85719340D02*
X139838428Y-85610483D01*
X139838428Y-85610483D02*
X139874714Y-85465340D01*
X139874714Y-85465340D02*
X139911000Y-85392768D01*
X139911000Y-85392768D02*
X139983571Y-85320197D01*
X139983571Y-85320197D02*
X140092428Y-85283911D01*
X140092428Y-85283911D02*
X140165000Y-85283911D01*
X140165000Y-85283911D02*
X140273857Y-85320197D01*
X140273857Y-85320197D02*
X140310143Y-85356483D01*
X140564143Y-85283911D02*
X141035857Y-85283911D01*
X141035857Y-85283911D02*
X140781857Y-85574197D01*
X140781857Y-85574197D02*
X140890714Y-85574197D01*
X140890714Y-85574197D02*
X140963286Y-85610483D01*
X140963286Y-85610483D02*
X140999571Y-85646768D01*
X140999571Y-85646768D02*
X141035857Y-85719340D01*
X141035857Y-85719340D02*
X141035857Y-85900768D01*
X141035857Y-85900768D02*
X140999571Y-85973340D01*
X140999571Y-85973340D02*
X140963286Y-86009626D01*
X140963286Y-86009626D02*
X140890714Y-86045911D01*
X140890714Y-86045911D02*
X140673000Y-86045911D01*
X140673000Y-86045911D02*
X140600428Y-86009626D01*
X140600428Y-86009626D02*
X140564143Y-85973340D01*
X141761571Y-86045911D02*
X141326142Y-86045911D01*
X141543857Y-86045911D02*
X141543857Y-85283911D01*
X141543857Y-85283911D02*
X141471285Y-85392768D01*
X141471285Y-85392768D02*
X141398714Y-85465340D01*
X141398714Y-85465340D02*
X141326142Y-85501626D01*
X165573000Y-107923340D02*
X165536714Y-107959626D01*
X165536714Y-107959626D02*
X165427857Y-107995911D01*
X165427857Y-107995911D02*
X165355285Y-107995911D01*
X165355285Y-107995911D02*
X165246428Y-107959626D01*
X165246428Y-107959626D02*
X165173857Y-107887054D01*
X165173857Y-107887054D02*
X165137571Y-107814483D01*
X165137571Y-107814483D02*
X165101285Y-107669340D01*
X165101285Y-107669340D02*
X165101285Y-107560483D01*
X165101285Y-107560483D02*
X165137571Y-107415340D01*
X165137571Y-107415340D02*
X165173857Y-107342768D01*
X165173857Y-107342768D02*
X165246428Y-107270197D01*
X165246428Y-107270197D02*
X165355285Y-107233911D01*
X165355285Y-107233911D02*
X165427857Y-107233911D01*
X165427857Y-107233911D02*
X165536714Y-107270197D01*
X165536714Y-107270197D02*
X165573000Y-107306483D01*
X165935857Y-107995911D02*
X166081000Y-107995911D01*
X166081000Y-107995911D02*
X166153571Y-107959626D01*
X166153571Y-107959626D02*
X166189857Y-107923340D01*
X166189857Y-107923340D02*
X166262428Y-107814483D01*
X166262428Y-107814483D02*
X166298714Y-107669340D01*
X166298714Y-107669340D02*
X166298714Y-107379054D01*
X166298714Y-107379054D02*
X166262428Y-107306483D01*
X166262428Y-107306483D02*
X166226143Y-107270197D01*
X166226143Y-107270197D02*
X166153571Y-107233911D01*
X166153571Y-107233911D02*
X166008428Y-107233911D01*
X166008428Y-107233911D02*
X165935857Y-107270197D01*
X165935857Y-107270197D02*
X165899571Y-107306483D01*
X165899571Y-107306483D02*
X165863285Y-107379054D01*
X165863285Y-107379054D02*
X165863285Y-107560483D01*
X165863285Y-107560483D02*
X165899571Y-107633054D01*
X165899571Y-107633054D02*
X165935857Y-107669340D01*
X165935857Y-107669340D02*
X166008428Y-107705626D01*
X166008428Y-107705626D02*
X166153571Y-107705626D01*
X166153571Y-107705626D02*
X166226143Y-107669340D01*
X166226143Y-107669340D02*
X166262428Y-107633054D01*
X166262428Y-107633054D02*
X166298714Y-107560483D01*
X165910143Y-101273340D02*
X165873857Y-101309626D01*
X165873857Y-101309626D02*
X165765000Y-101345911D01*
X165765000Y-101345911D02*
X165692428Y-101345911D01*
X165692428Y-101345911D02*
X165583571Y-101309626D01*
X165583571Y-101309626D02*
X165511000Y-101237054D01*
X165511000Y-101237054D02*
X165474714Y-101164483D01*
X165474714Y-101164483D02*
X165438428Y-101019340D01*
X165438428Y-101019340D02*
X165438428Y-100910483D01*
X165438428Y-100910483D02*
X165474714Y-100765340D01*
X165474714Y-100765340D02*
X165511000Y-100692768D01*
X165511000Y-100692768D02*
X165583571Y-100620197D01*
X165583571Y-100620197D02*
X165692428Y-100583911D01*
X165692428Y-100583911D02*
X165765000Y-100583911D01*
X165765000Y-100583911D02*
X165873857Y-100620197D01*
X165873857Y-100620197D02*
X165910143Y-100656483D01*
X166635857Y-101345911D02*
X166200428Y-101345911D01*
X166418143Y-101345911D02*
X166418143Y-100583911D01*
X166418143Y-100583911D02*
X166345571Y-100692768D01*
X166345571Y-100692768D02*
X166273000Y-100765340D01*
X166273000Y-100765340D02*
X166200428Y-100801626D01*
X166889857Y-100583911D02*
X167397857Y-100583911D01*
X167397857Y-100583911D02*
X167071285Y-101345911D01*
X170375572Y-68083911D02*
X170811001Y-68083911D01*
X170593286Y-68845911D02*
X170593286Y-68083911D01*
X171065000Y-68845911D02*
X171065000Y-68083911D01*
X171065000Y-68083911D02*
X171355286Y-68083911D01*
X171355286Y-68083911D02*
X171427857Y-68120197D01*
X171427857Y-68120197D02*
X171464143Y-68156483D01*
X171464143Y-68156483D02*
X171500429Y-68229054D01*
X171500429Y-68229054D02*
X171500429Y-68337911D01*
X171500429Y-68337911D02*
X171464143Y-68410483D01*
X171464143Y-68410483D02*
X171427857Y-68446768D01*
X171427857Y-68446768D02*
X171355286Y-68483054D01*
X171355286Y-68483054D02*
X171065000Y-68483054D01*
X171790714Y-68156483D02*
X171827000Y-68120197D01*
X171827000Y-68120197D02*
X171899572Y-68083911D01*
X171899572Y-68083911D02*
X172081000Y-68083911D01*
X172081000Y-68083911D02*
X172153572Y-68120197D01*
X172153572Y-68120197D02*
X172189857Y-68156483D01*
X172189857Y-68156483D02*
X172226143Y-68229054D01*
X172226143Y-68229054D02*
X172226143Y-68301626D01*
X172226143Y-68301626D02*
X172189857Y-68410483D01*
X172189857Y-68410483D02*
X171754429Y-68845911D01*
X171754429Y-68845911D02*
X172226143Y-68845911D01*
X172589000Y-68845911D02*
X172734143Y-68845911D01*
X172734143Y-68845911D02*
X172806714Y-68809626D01*
X172806714Y-68809626D02*
X172843000Y-68773340D01*
X172843000Y-68773340D02*
X172915571Y-68664483D01*
X172915571Y-68664483D02*
X172951857Y-68519340D01*
X172951857Y-68519340D02*
X172951857Y-68229054D01*
X172951857Y-68229054D02*
X172915571Y-68156483D01*
X172915571Y-68156483D02*
X172879286Y-68120197D01*
X172879286Y-68120197D02*
X172806714Y-68083911D01*
X172806714Y-68083911D02*
X172661571Y-68083911D01*
X172661571Y-68083911D02*
X172589000Y-68120197D01*
X172589000Y-68120197D02*
X172552714Y-68156483D01*
X172552714Y-68156483D02*
X172516428Y-68229054D01*
X172516428Y-68229054D02*
X172516428Y-68410483D01*
X172516428Y-68410483D02*
X172552714Y-68483054D01*
X172552714Y-68483054D02*
X172589000Y-68519340D01*
X172589000Y-68519340D02*
X172661571Y-68555626D01*
X172661571Y-68555626D02*
X172806714Y-68555626D01*
X172806714Y-68555626D02*
X172879286Y-68519340D01*
X172879286Y-68519340D02*
X172915571Y-68483054D01*
X172915571Y-68483054D02*
X172951857Y-68410483D01*
X171119428Y-71470197D02*
X171046857Y-71433911D01*
X171046857Y-71433911D02*
X170937999Y-71433911D01*
X170937999Y-71433911D02*
X170829142Y-71470197D01*
X170829142Y-71470197D02*
X170756571Y-71542768D01*
X170756571Y-71542768D02*
X170720285Y-71615340D01*
X170720285Y-71615340D02*
X170683999Y-71760483D01*
X170683999Y-71760483D02*
X170683999Y-71869340D01*
X170683999Y-71869340D02*
X170720285Y-72014483D01*
X170720285Y-72014483D02*
X170756571Y-72087054D01*
X170756571Y-72087054D02*
X170829142Y-72159626D01*
X170829142Y-72159626D02*
X170937999Y-72195911D01*
X170937999Y-72195911D02*
X171010571Y-72195911D01*
X171010571Y-72195911D02*
X171119428Y-72159626D01*
X171119428Y-72159626D02*
X171155714Y-72123340D01*
X171155714Y-72123340D02*
X171155714Y-71869340D01*
X171155714Y-71869340D02*
X171010571Y-71869340D01*
X171482285Y-72195911D02*
X171482285Y-71433911D01*
X171482285Y-71433911D02*
X171917714Y-72195911D01*
X171917714Y-72195911D02*
X171917714Y-71433911D01*
X172280571Y-72195911D02*
X172280571Y-71433911D01*
X172280571Y-71433911D02*
X172462000Y-71433911D01*
X172462000Y-71433911D02*
X172570857Y-71470197D01*
X172570857Y-71470197D02*
X172643428Y-71542768D01*
X172643428Y-71542768D02*
X172679714Y-71615340D01*
X172679714Y-71615340D02*
X172716000Y-71760483D01*
X172716000Y-71760483D02*
X172716000Y-71869340D01*
X172716000Y-71869340D02*
X172679714Y-72014483D01*
X172679714Y-72014483D02*
X172643428Y-72087054D01*
X172643428Y-72087054D02*
X172570857Y-72159626D01*
X172570857Y-72159626D02*
X172462000Y-72195911D01*
X172462000Y-72195911D02*
X172280571Y-72195911D01*
X159610143Y-106173340D02*
X159573857Y-106209626D01*
X159573857Y-106209626D02*
X159465000Y-106245911D01*
X159465000Y-106245911D02*
X159392428Y-106245911D01*
X159392428Y-106245911D02*
X159283571Y-106209626D01*
X159283571Y-106209626D02*
X159211000Y-106137054D01*
X159211000Y-106137054D02*
X159174714Y-106064483D01*
X159174714Y-106064483D02*
X159138428Y-105919340D01*
X159138428Y-105919340D02*
X159138428Y-105810483D01*
X159138428Y-105810483D02*
X159174714Y-105665340D01*
X159174714Y-105665340D02*
X159211000Y-105592768D01*
X159211000Y-105592768D02*
X159283571Y-105520197D01*
X159283571Y-105520197D02*
X159392428Y-105483911D01*
X159392428Y-105483911D02*
X159465000Y-105483911D01*
X159465000Y-105483911D02*
X159573857Y-105520197D01*
X159573857Y-105520197D02*
X159610143Y-105556483D01*
X160335857Y-106245911D02*
X159900428Y-106245911D01*
X160118143Y-106245911D02*
X160118143Y-105483911D01*
X160118143Y-105483911D02*
X160045571Y-105592768D01*
X160045571Y-105592768D02*
X159973000Y-105665340D01*
X159973000Y-105665340D02*
X159900428Y-105701626D01*
X160589857Y-105483911D02*
X161061571Y-105483911D01*
X161061571Y-105483911D02*
X160807571Y-105774197D01*
X160807571Y-105774197D02*
X160916428Y-105774197D01*
X160916428Y-105774197D02*
X160989000Y-105810483D01*
X160989000Y-105810483D02*
X161025285Y-105846768D01*
X161025285Y-105846768D02*
X161061571Y-105919340D01*
X161061571Y-105919340D02*
X161061571Y-106100768D01*
X161061571Y-106100768D02*
X161025285Y-106173340D01*
X161025285Y-106173340D02*
X160989000Y-106209626D01*
X160989000Y-106209626D02*
X160916428Y-106245911D01*
X160916428Y-106245911D02*
X160698714Y-106245911D01*
X160698714Y-106245911D02*
X160626142Y-106209626D01*
X160626142Y-106209626D02*
X160589857Y-106173340D01*
X153073340Y-113239856D02*
X153109626Y-113276142D01*
X153109626Y-113276142D02*
X153145911Y-113384999D01*
X153145911Y-113384999D02*
X153145911Y-113457571D01*
X153145911Y-113457571D02*
X153109626Y-113566428D01*
X153109626Y-113566428D02*
X153037054Y-113638999D01*
X153037054Y-113638999D02*
X152964483Y-113675285D01*
X152964483Y-113675285D02*
X152819340Y-113711571D01*
X152819340Y-113711571D02*
X152710483Y-113711571D01*
X152710483Y-113711571D02*
X152565340Y-113675285D01*
X152565340Y-113675285D02*
X152492768Y-113638999D01*
X152492768Y-113638999D02*
X152420197Y-113566428D01*
X152420197Y-113566428D02*
X152383911Y-113457571D01*
X152383911Y-113457571D02*
X152383911Y-113384999D01*
X152383911Y-113384999D02*
X152420197Y-113276142D01*
X152420197Y-113276142D02*
X152456483Y-113239856D01*
X152456483Y-112949571D02*
X152420197Y-112913285D01*
X152420197Y-112913285D02*
X152383911Y-112840714D01*
X152383911Y-112840714D02*
X152383911Y-112659285D01*
X152383911Y-112659285D02*
X152420197Y-112586714D01*
X152420197Y-112586714D02*
X152456483Y-112550428D01*
X152456483Y-112550428D02*
X152529054Y-112514142D01*
X152529054Y-112514142D02*
X152601626Y-112514142D01*
X152601626Y-112514142D02*
X152710483Y-112550428D01*
X152710483Y-112550428D02*
X153145911Y-112985856D01*
X153145911Y-112985856D02*
X153145911Y-112514142D01*
X152710483Y-112078714D02*
X152674197Y-112151285D01*
X152674197Y-112151285D02*
X152637911Y-112187571D01*
X152637911Y-112187571D02*
X152565340Y-112223857D01*
X152565340Y-112223857D02*
X152529054Y-112223857D01*
X152529054Y-112223857D02*
X152456483Y-112187571D01*
X152456483Y-112187571D02*
X152420197Y-112151285D01*
X152420197Y-112151285D02*
X152383911Y-112078714D01*
X152383911Y-112078714D02*
X152383911Y-111933571D01*
X152383911Y-111933571D02*
X152420197Y-111861000D01*
X152420197Y-111861000D02*
X152456483Y-111824714D01*
X152456483Y-111824714D02*
X152529054Y-111788428D01*
X152529054Y-111788428D02*
X152565340Y-111788428D01*
X152565340Y-111788428D02*
X152637911Y-111824714D01*
X152637911Y-111824714D02*
X152674197Y-111861000D01*
X152674197Y-111861000D02*
X152710483Y-111933571D01*
X152710483Y-111933571D02*
X152710483Y-112078714D01*
X152710483Y-112078714D02*
X152746768Y-112151285D01*
X152746768Y-112151285D02*
X152783054Y-112187571D01*
X152783054Y-112187571D02*
X152855626Y-112223857D01*
X152855626Y-112223857D02*
X153000768Y-112223857D01*
X153000768Y-112223857D02*
X153073340Y-112187571D01*
X153073340Y-112187571D02*
X153109626Y-112151285D01*
X153109626Y-112151285D02*
X153145911Y-112078714D01*
X153145911Y-112078714D02*
X153145911Y-111933571D01*
X153145911Y-111933571D02*
X153109626Y-111861000D01*
X153109626Y-111861000D02*
X153073340Y-111824714D01*
X153073340Y-111824714D02*
X153000768Y-111788428D01*
X153000768Y-111788428D02*
X152855626Y-111788428D01*
X152855626Y-111788428D02*
X152783054Y-111824714D01*
X152783054Y-111824714D02*
X152746768Y-111861000D01*
X152746768Y-111861000D02*
X152710483Y-111933571D01*
X163046000Y-69483911D02*
X163046000Y-70028197D01*
X163046000Y-70028197D02*
X163009715Y-70137054D01*
X163009715Y-70137054D02*
X162937143Y-70209626D01*
X162937143Y-70209626D02*
X162828286Y-70245911D01*
X162828286Y-70245911D02*
X162755715Y-70245911D01*
X163336286Y-69483911D02*
X163808000Y-69483911D01*
X163808000Y-69483911D02*
X163554000Y-69774197D01*
X163554000Y-69774197D02*
X163662857Y-69774197D01*
X163662857Y-69774197D02*
X163735429Y-69810483D01*
X163735429Y-69810483D02*
X163771714Y-69846768D01*
X163771714Y-69846768D02*
X163808000Y-69919340D01*
X163808000Y-69919340D02*
X163808000Y-70100768D01*
X163808000Y-70100768D02*
X163771714Y-70173340D01*
X163771714Y-70173340D02*
X163735429Y-70209626D01*
X163735429Y-70209626D02*
X163662857Y-70245911D01*
X163662857Y-70245911D02*
X163445143Y-70245911D01*
X163445143Y-70245911D02*
X163372571Y-70209626D01*
X163372571Y-70209626D02*
X163336286Y-70173340D01*
X151544428Y-88308911D02*
X151544428Y-88925768D01*
X151544428Y-88925768D02*
X151580714Y-88998340D01*
X151580714Y-88998340D02*
X151617000Y-89034626D01*
X151617000Y-89034626D02*
X151689571Y-89070911D01*
X151689571Y-89070911D02*
X151834714Y-89070911D01*
X151834714Y-89070911D02*
X151907285Y-89034626D01*
X151907285Y-89034626D02*
X151943571Y-88998340D01*
X151943571Y-88998340D02*
X151979857Y-88925768D01*
X151979857Y-88925768D02*
X151979857Y-88308911D01*
X152306428Y-88381483D02*
X152342714Y-88345197D01*
X152342714Y-88345197D02*
X152415286Y-88308911D01*
X152415286Y-88308911D02*
X152596714Y-88308911D01*
X152596714Y-88308911D02*
X152669286Y-88345197D01*
X152669286Y-88345197D02*
X152705571Y-88381483D01*
X152705571Y-88381483D02*
X152741857Y-88454054D01*
X152741857Y-88454054D02*
X152741857Y-88526626D01*
X152741857Y-88526626D02*
X152705571Y-88635483D01*
X152705571Y-88635483D02*
X152270143Y-89070911D01*
X152270143Y-89070911D02*
X152741857Y-89070911D01*
X144209626Y-116315999D02*
X144245911Y-116207142D01*
X144245911Y-116207142D02*
X144245911Y-116025713D01*
X144245911Y-116025713D02*
X144209626Y-115953142D01*
X144209626Y-115953142D02*
X144173340Y-115916856D01*
X144173340Y-115916856D02*
X144100768Y-115880570D01*
X144100768Y-115880570D02*
X144028197Y-115880570D01*
X144028197Y-115880570D02*
X143955626Y-115916856D01*
X143955626Y-115916856D02*
X143919340Y-115953142D01*
X143919340Y-115953142D02*
X143883054Y-116025713D01*
X143883054Y-116025713D02*
X143846768Y-116170856D01*
X143846768Y-116170856D02*
X143810483Y-116243427D01*
X143810483Y-116243427D02*
X143774197Y-116279713D01*
X143774197Y-116279713D02*
X143701626Y-116315999D01*
X143701626Y-116315999D02*
X143629054Y-116315999D01*
X143629054Y-116315999D02*
X143556483Y-116279713D01*
X143556483Y-116279713D02*
X143520197Y-116243427D01*
X143520197Y-116243427D02*
X143483911Y-116170856D01*
X143483911Y-116170856D02*
X143483911Y-115989427D01*
X143483911Y-115989427D02*
X143520197Y-115880570D01*
X143483911Y-115626570D02*
X144245911Y-115445142D01*
X144245911Y-115445142D02*
X143701626Y-115299999D01*
X143701626Y-115299999D02*
X144245911Y-115154856D01*
X144245911Y-115154856D02*
X143483911Y-114973428D01*
X144245911Y-114283999D02*
X144245911Y-114719428D01*
X144245911Y-114501713D02*
X143483911Y-114501713D01*
X143483911Y-114501713D02*
X143592768Y-114574285D01*
X143592768Y-114574285D02*
X143665340Y-114646856D01*
X143665340Y-114646856D02*
X143701626Y-114719428D01*
X132075572Y-88083911D02*
X132511001Y-88083911D01*
X132293286Y-88845911D02*
X132293286Y-88083911D01*
X132765000Y-88845911D02*
X132765000Y-88083911D01*
X132765000Y-88083911D02*
X133055286Y-88083911D01*
X133055286Y-88083911D02*
X133127857Y-88120197D01*
X133127857Y-88120197D02*
X133164143Y-88156483D01*
X133164143Y-88156483D02*
X133200429Y-88229054D01*
X133200429Y-88229054D02*
X133200429Y-88337911D01*
X133200429Y-88337911D02*
X133164143Y-88410483D01*
X133164143Y-88410483D02*
X133127857Y-88446768D01*
X133127857Y-88446768D02*
X133055286Y-88483054D01*
X133055286Y-88483054D02*
X132765000Y-88483054D01*
X133490714Y-88156483D02*
X133527000Y-88120197D01*
X133527000Y-88120197D02*
X133599572Y-88083911D01*
X133599572Y-88083911D02*
X133781000Y-88083911D01*
X133781000Y-88083911D02*
X133853572Y-88120197D01*
X133853572Y-88120197D02*
X133889857Y-88156483D01*
X133889857Y-88156483D02*
X133926143Y-88229054D01*
X133926143Y-88229054D02*
X133926143Y-88301626D01*
X133926143Y-88301626D02*
X133889857Y-88410483D01*
X133889857Y-88410483D02*
X133454429Y-88845911D01*
X133454429Y-88845911D02*
X133926143Y-88845911D01*
X134361571Y-88410483D02*
X134289000Y-88374197D01*
X134289000Y-88374197D02*
X134252714Y-88337911D01*
X134252714Y-88337911D02*
X134216428Y-88265340D01*
X134216428Y-88265340D02*
X134216428Y-88229054D01*
X134216428Y-88229054D02*
X134252714Y-88156483D01*
X134252714Y-88156483D02*
X134289000Y-88120197D01*
X134289000Y-88120197D02*
X134361571Y-88083911D01*
X134361571Y-88083911D02*
X134506714Y-88083911D01*
X134506714Y-88083911D02*
X134579286Y-88120197D01*
X134579286Y-88120197D02*
X134615571Y-88156483D01*
X134615571Y-88156483D02*
X134651857Y-88229054D01*
X134651857Y-88229054D02*
X134651857Y-88265340D01*
X134651857Y-88265340D02*
X134615571Y-88337911D01*
X134615571Y-88337911D02*
X134579286Y-88374197D01*
X134579286Y-88374197D02*
X134506714Y-88410483D01*
X134506714Y-88410483D02*
X134361571Y-88410483D01*
X134361571Y-88410483D02*
X134289000Y-88446768D01*
X134289000Y-88446768D02*
X134252714Y-88483054D01*
X134252714Y-88483054D02*
X134216428Y-88555626D01*
X134216428Y-88555626D02*
X134216428Y-88700768D01*
X134216428Y-88700768D02*
X134252714Y-88773340D01*
X134252714Y-88773340D02*
X134289000Y-88809626D01*
X134289000Y-88809626D02*
X134361571Y-88845911D01*
X134361571Y-88845911D02*
X134506714Y-88845911D01*
X134506714Y-88845911D02*
X134579286Y-88809626D01*
X134579286Y-88809626D02*
X134615571Y-88773340D01*
X134615571Y-88773340D02*
X134651857Y-88700768D01*
X134651857Y-88700768D02*
X134651857Y-88555626D01*
X134651857Y-88555626D02*
X134615571Y-88483054D01*
X134615571Y-88483054D02*
X134579286Y-88446768D01*
X134579286Y-88446768D02*
X134506714Y-88410483D01*
X132819428Y-91820197D02*
X132746857Y-91783911D01*
X132746857Y-91783911D02*
X132637999Y-91783911D01*
X132637999Y-91783911D02*
X132529142Y-91820197D01*
X132529142Y-91820197D02*
X132456571Y-91892768D01*
X132456571Y-91892768D02*
X132420285Y-91965340D01*
X132420285Y-91965340D02*
X132383999Y-92110483D01*
X132383999Y-92110483D02*
X132383999Y-92219340D01*
X132383999Y-92219340D02*
X132420285Y-92364483D01*
X132420285Y-92364483D02*
X132456571Y-92437054D01*
X132456571Y-92437054D02*
X132529142Y-92509626D01*
X132529142Y-92509626D02*
X132637999Y-92545911D01*
X132637999Y-92545911D02*
X132710571Y-92545911D01*
X132710571Y-92545911D02*
X132819428Y-92509626D01*
X132819428Y-92509626D02*
X132855714Y-92473340D01*
X132855714Y-92473340D02*
X132855714Y-92219340D01*
X132855714Y-92219340D02*
X132710571Y-92219340D01*
X133182285Y-92545911D02*
X133182285Y-91783911D01*
X133182285Y-91783911D02*
X133617714Y-92545911D01*
X133617714Y-92545911D02*
X133617714Y-91783911D01*
X133980571Y-92545911D02*
X133980571Y-91783911D01*
X133980571Y-91783911D02*
X134162000Y-91783911D01*
X134162000Y-91783911D02*
X134270857Y-91820197D01*
X134270857Y-91820197D02*
X134343428Y-91892768D01*
X134343428Y-91892768D02*
X134379714Y-91965340D01*
X134379714Y-91965340D02*
X134416000Y-92110483D01*
X134416000Y-92110483D02*
X134416000Y-92219340D01*
X134416000Y-92219340D02*
X134379714Y-92364483D01*
X134379714Y-92364483D02*
X134343428Y-92437054D01*
X134343428Y-92437054D02*
X134270857Y-92509626D01*
X134270857Y-92509626D02*
X134162000Y-92545911D01*
X134162000Y-92545911D02*
X133980571Y-92545911D01*
X141946000Y-65434711D02*
X141946000Y-65978997D01*
X141946000Y-65978997D02*
X141909715Y-66087854D01*
X141909715Y-66087854D02*
X141837143Y-66160426D01*
X141837143Y-66160426D02*
X141728286Y-66196711D01*
X141728286Y-66196711D02*
X141655715Y-66196711D01*
X142635429Y-65688711D02*
X142635429Y-66196711D01*
X142454000Y-65398426D02*
X142272571Y-65942711D01*
X142272571Y-65942711D02*
X142744286Y-65942711D01*
D12*
%TO.C,C29*%
X140853733Y-99990000D02*
X141146267Y-99990000D01*
X140853733Y-101010000D02*
X141146267Y-101010000D01*
%TO.C,R17*%
X157695276Y-72727500D02*
X158204724Y-72727500D01*
X157695276Y-73772500D02*
X158204724Y-73772500D01*
%TO.C,R16*%
X157695276Y-74227500D02*
X158204724Y-74227500D01*
X157695276Y-75272500D02*
X158204724Y-75272500D01*
%TO.C,C11*%
X163246267Y-105640000D02*
X162953733Y-105640000D01*
X163246267Y-106660000D02*
X162953733Y-106660000D01*
%TO.C,TP9*%
X153850000Y-80100000D02*
G75*
G02*
X151950000Y-80100000I-950000J0D01*
G01*
X151950000Y-80100000D02*
G75*
G02*
X153850000Y-80100000I950000J0D01*
G01*
%TO.C,R12*%
X167227500Y-85245276D02*
X167227500Y-85754724D01*
X168272500Y-85245276D02*
X168272500Y-85754724D01*
%TO.C,C23*%
X155490000Y-109646267D02*
X155490000Y-109353733D01*
X156510000Y-109646267D02*
X156510000Y-109353733D01*
%TO.C,TP30*%
X171450000Y-109000000D02*
G75*
G02*
X169550000Y-109000000I-950000J0D01*
G01*
X169550000Y-109000000D02*
G75*
G02*
X171450000Y-109000000I950000J0D01*
G01*
%TO.C,C26*%
X140853733Y-102990000D02*
X141146267Y-102990000D01*
X140853733Y-104010000D02*
X141146267Y-104010000D01*
%TO.C,C10*%
X163246267Y-104140000D02*
X162953733Y-104140000D01*
X163246267Y-105160000D02*
X162953733Y-105160000D01*
%TO.C,J2*%
X122340000Y-71920000D02*
X115250000Y-71920000D01*
X122340000Y-85080000D02*
X115250000Y-85080000D01*
X127410000Y-71920000D02*
X125760000Y-71920000D01*
X127410000Y-74090000D02*
X127410000Y-71920000D01*
X127410000Y-74090000D02*
X129250000Y-74090000D01*
X127410000Y-82910000D02*
X127410000Y-85080000D01*
X127410000Y-85080000D02*
X125760000Y-85080000D01*
%TO.C,SW2*%
X138150000Y-112750000D02*
X138200000Y-112750000D01*
X138150000Y-117650000D02*
X138150000Y-112750000D01*
X138150000Y-117650000D02*
X138200000Y-117650000D01*
X139850000Y-112750000D02*
X141350000Y-112750000D01*
X139850000Y-117650000D02*
X141350000Y-117650000D01*
X143050000Y-112750000D02*
X143000000Y-112750000D01*
X143050000Y-117650000D02*
X143000000Y-117650000D01*
X143050000Y-117650000D02*
X143050000Y-112750000D01*
%TO.C,TP13*%
X133350000Y-114700000D02*
G75*
G02*
X131450000Y-114700000I-950000J0D01*
G01*
X131450000Y-114700000D02*
G75*
G02*
X133350000Y-114700000I950000J0D01*
G01*
%TO.C,C34*%
X160390000Y-73746267D02*
X160390000Y-73453733D01*
X161410000Y-73746267D02*
X161410000Y-73453733D01*
%TO.C,TP25*%
X168350000Y-89800000D02*
G75*
G02*
X166450000Y-89800000I-950000J0D01*
G01*
X166450000Y-89800000D02*
G75*
G02*
X168350000Y-89800000I950000J0D01*
G01*
%TO.C,BT1*%
X120140000Y-91915000D02*
X120990000Y-91915000D01*
X120140000Y-100085000D02*
X120140000Y-91915000D01*
X120990000Y-100085000D02*
X120140000Y-100085000D01*
X124510000Y-91915000D02*
X125360000Y-91915000D01*
X124510000Y-100085000D02*
X125360000Y-100085000D01*
X125360000Y-91915000D02*
X125360000Y-94240000D01*
X125360000Y-97760000D02*
X127750000Y-97760000D01*
X125360000Y-100085000D02*
X125360000Y-97760000D01*
%TO.C,C27*%
X140853733Y-101490000D02*
X141146267Y-101490000D01*
X140853733Y-102510000D02*
X141146267Y-102510000D01*
%TO.C,R19*%
X143245276Y-70377500D02*
X143754724Y-70377500D01*
X143245276Y-71422500D02*
X143754724Y-71422500D01*
%TO.C,J5*%
X123855000Y-64570800D02*
X123855000Y-67330800D01*
X129045000Y-64570800D02*
X123855000Y-64570800D01*
X129045000Y-64570800D02*
X129045000Y-67330800D01*
X129045000Y-67330800D02*
X123855000Y-67330800D01*
X130315000Y-64570800D02*
X131695000Y-64570800D01*
X131695000Y-64570800D02*
X131695000Y-65950800D01*
%TO.C,TP1*%
X130850000Y-97100000D02*
G75*
G02*
X128950000Y-97100000I-950000J0D01*
G01*
X128950000Y-97100000D02*
G75*
G02*
X130850000Y-97100000I950000J0D01*
G01*
%TO.C,R20*%
X149654724Y-110277500D02*
X149145276Y-110277500D01*
X149654724Y-111322500D02*
X149145276Y-111322500D01*
%TO.C,C46*%
X131753733Y-74490000D02*
X132046267Y-74490000D01*
X131753733Y-75510000D02*
X132046267Y-75510000D01*
%TO.C,R28*%
X143245276Y-71877500D02*
X143754724Y-71877500D01*
X143245276Y-72922500D02*
X143754724Y-72922500D01*
%TO.C,C37*%
X159865000Y-86838748D02*
X159865000Y-87361252D01*
X161335000Y-86838748D02*
X161335000Y-87361252D01*
%TO.C,C33*%
X153890000Y-109646267D02*
X153890000Y-109353733D01*
X154910000Y-109646267D02*
X154910000Y-109353733D01*
%TO.C,C76*%
X161996267Y-108640000D02*
X161703733Y-108640000D01*
X161996267Y-109660000D02*
X161703733Y-109660000D01*
%TO.C,TP17*%
X163250000Y-116200000D02*
G75*
G02*
X161350000Y-116200000I-950000J0D01*
G01*
X161350000Y-116200000D02*
G75*
G02*
X163250000Y-116200000I950000J0D01*
G01*
%TO.C,C60*%
X139083767Y-110290000D02*
X138791233Y-110290000D01*
X139083767Y-111310000D02*
X138791233Y-111310000D01*
%TO.C,C18*%
X147790000Y-87353733D02*
X147790000Y-87646267D01*
X148810000Y-87353733D02*
X148810000Y-87646267D01*
%TO.C,C59*%
X146146267Y-110290000D02*
X145853733Y-110290000D01*
X146146267Y-111310000D02*
X145853733Y-111310000D01*
%TO.C,R31*%
X165727500Y-85245276D02*
X165727500Y-85754724D01*
X166772500Y-85245276D02*
X166772500Y-85754724D01*
%TO.C,J1*%
X174890000Y-86935000D02*
X174890000Y-86110000D01*
X174890000Y-102065000D02*
X173090000Y-102065000D01*
X174890000Y-102890000D02*
X174890000Y-102065000D01*
X178860000Y-83955000D02*
X179400000Y-83955000D01*
X179400000Y-82930000D02*
X180510000Y-82930000D01*
X179400000Y-83955000D02*
X179400000Y-82930000D01*
X179400000Y-105045000D02*
X178860000Y-105045000D01*
X179400000Y-106070000D02*
X179400000Y-105045000D01*
X180510000Y-82930000D02*
X180510000Y-106070000D01*
X180510000Y-106070000D02*
X179400000Y-106070000D01*
%TO.C,C75*%
X156990000Y-110246267D02*
X156990000Y-109953733D01*
X158010000Y-110246267D02*
X158010000Y-109953733D01*
%TO.C,TP11*%
X141050000Y-74000000D02*
G75*
G02*
X139150000Y-74000000I-950000J0D01*
G01*
X139150000Y-74000000D02*
G75*
G02*
X141050000Y-74000000I950000J0D01*
G01*
%TO.C,C4*%
X170240000Y-85646267D02*
X170240000Y-85353733D01*
X171260000Y-85646267D02*
X171260000Y-85353733D01*
%TO.C,C7*%
X162361252Y-110165000D02*
X161838748Y-110165000D01*
X162361252Y-111635000D02*
X161838748Y-111635000D01*
%TO.C,R29*%
X143245276Y-73377500D02*
X143754724Y-73377500D01*
X143245276Y-74422500D02*
X143754724Y-74422500D01*
%TO.C,TP26*%
X170950000Y-89800000D02*
G75*
G02*
X169050000Y-89800000I-950000J0D01*
G01*
X169050000Y-89800000D02*
G75*
G02*
X170950000Y-89800000I950000J0D01*
G01*
%TO.C,C32*%
X143491233Y-86590000D02*
X143783767Y-86590000D01*
X143491233Y-87610000D02*
X143783767Y-87610000D01*
%TO.C,C25*%
X140488748Y-104515000D02*
X141011252Y-104515000D01*
X140488748Y-105985000D02*
X141011252Y-105985000D01*
%TO.C,R13*%
X168727500Y-85245276D02*
X168727500Y-85754724D01*
X169772500Y-85245276D02*
X169772500Y-85754724D01*
%TO.C,C16*%
X158290000Y-87053733D02*
X158290000Y-87346267D01*
X159310000Y-87053733D02*
X159310000Y-87346267D01*
%TO.C,J6*%
X151330000Y-67750000D02*
X151330000Y-69450000D01*
X160670000Y-67750000D02*
X160670000Y-69450000D01*
%TO.C,R21*%
X142554724Y-110277500D02*
X142045276Y-110277500D01*
X142554724Y-111322500D02*
X142045276Y-111322500D01*
%TO.C,C8*%
X158490000Y-110246267D02*
X158490000Y-109953733D01*
X159510000Y-110246267D02*
X159510000Y-109953733D01*
%TO.C,C47*%
X131753733Y-72990000D02*
X132046267Y-72990000D01*
X131753733Y-74010000D02*
X132046267Y-74010000D01*
%TO.C,C30*%
X143138748Y-83135800D02*
X143661252Y-83135800D01*
X143138748Y-84605800D02*
X143661252Y-84605800D01*
%TO.C,C12*%
X162953733Y-102640000D02*
X163246267Y-102640000D01*
X162953733Y-103660000D02*
X163246267Y-103660000D01*
D13*
%TO.C,D1*%
X149300000Y-71400000D02*
X148900000Y-71400000D01*
X149300000Y-73400000D02*
X148900000Y-73400000D01*
X150300000Y-73800000D02*
X150500000Y-73500000D01*
X150500000Y-73800000D02*
X150300000Y-73500000D01*
X150575000Y-73650000D02*
X150225000Y-73650000D01*
D12*
%TO.C,TP27*%
X165750000Y-89800000D02*
G75*
G02*
X163850000Y-89800000I-950000J0D01*
G01*
X163850000Y-89800000D02*
G75*
G02*
X165750000Y-89800000I950000J0D01*
G01*
%TO.C,C22*%
X146240000Y-87353733D02*
X146240000Y-87646267D01*
X147260000Y-87353733D02*
X147260000Y-87646267D01*
%TO.C,TP12*%
X152050000Y-112900000D02*
G75*
G02*
X150150000Y-112900000I-950000J0D01*
G01*
X150150000Y-112900000D02*
G75*
G02*
X152050000Y-112900000I950000J0D01*
G01*
%TO.C,TP18*%
X167150000Y-116200000D02*
G75*
G02*
X165250000Y-116200000I-950000J0D01*
G01*
X165250000Y-116200000D02*
G75*
G02*
X167150000Y-116200000I950000J0D01*
G01*
%TO.C,C31*%
X143491233Y-85090000D02*
X143783767Y-85090000D01*
X143491233Y-86110000D02*
X143783767Y-86110000D01*
%TO.C,C9*%
X163246267Y-107140000D02*
X162953733Y-107140000D01*
X163246267Y-108160000D02*
X162953733Y-108160000D01*
%TO.C,C17*%
X163446267Y-100490000D02*
X163153733Y-100490000D01*
X163446267Y-101510000D02*
X163153733Y-101510000D01*
%TO.C,TP29*%
X172650000Y-70100000D02*
G75*
G02*
X170750000Y-70100000I-950000J0D01*
G01*
X170750000Y-70100000D02*
G75*
G02*
X172650000Y-70100000I950000J0D01*
G01*
%TO.C,C13*%
X159446267Y-107090000D02*
X159153733Y-107090000D01*
X159446267Y-108110000D02*
X159153733Y-108110000D01*
%TO.C,C28*%
X152290000Y-109646267D02*
X152290000Y-109353733D01*
X153310000Y-109646267D02*
X153310000Y-109353733D01*
D10*
%TO.C,J3*%
X162400000Y-69100000D02*
X164430000Y-69100000D01*
X162400000Y-80500000D02*
X162400000Y-69100000D01*
X162400000Y-80500000D02*
X163990000Y-80500000D01*
X167900000Y-69100000D02*
X167320000Y-69100000D01*
X167900000Y-69530000D02*
X167900000Y-69100000D01*
X167900000Y-79180000D02*
X167900000Y-71120000D01*
D11*
X161750000Y-71250000D02*
G75*
G02*
X161550000Y-71250000I-100000J0D01*
G01*
X161550000Y-71250000D02*
G75*
G02*
X161750000Y-71250000I100000J0D01*
G01*
D12*
%TO.C,U2*%
X145015000Y-90965000D02*
X145015000Y-91490000D01*
X145015000Y-105185000D02*
X145015000Y-104660000D01*
X145540000Y-90965000D02*
X145015000Y-90965000D01*
X145540000Y-105185000D02*
X145015000Y-105185000D01*
X158710000Y-90965000D02*
X159235000Y-90965000D01*
X158710000Y-105185000D02*
X159235000Y-105185000D01*
X159235000Y-90965000D02*
X159235000Y-91490000D01*
X159235000Y-105185000D02*
X159235000Y-104660000D01*
X144425000Y-91490000D02*
X144085000Y-91020000D01*
X144765000Y-91020000D01*
X144425000Y-91490000D01*
G36*
X144425000Y-91490000D02*
G01*
X144085000Y-91020000D01*
X144765000Y-91020000D01*
X144425000Y-91490000D01*
G37*
%TO.C,SW1*%
X144650000Y-112750000D02*
X144700000Y-112750000D01*
X144650000Y-117650000D02*
X144650000Y-112750000D01*
X144650000Y-117650000D02*
X144700000Y-117650000D01*
X146350000Y-112750000D02*
X147850000Y-112750000D01*
X146350000Y-117650000D02*
X147850000Y-117650000D01*
X149550000Y-112750000D02*
X149500000Y-112750000D01*
X149550000Y-117650000D02*
X149500000Y-117650000D01*
X149550000Y-117650000D02*
X149550000Y-112750000D01*
%TO.C,TP28*%
X134350000Y-90300000D02*
G75*
G02*
X132450000Y-90300000I-950000J0D01*
G01*
X132450000Y-90300000D02*
G75*
G02*
X134350000Y-90300000I950000J0D01*
G01*
%TO.C,J4*%
X132720000Y-64570800D02*
X132720000Y-67330800D01*
X137910000Y-64570800D02*
X132720000Y-64570800D01*
X137910000Y-64570800D02*
X137910000Y-67330800D01*
X137910000Y-67330800D02*
X132720000Y-67330800D01*
X139180000Y-64570800D02*
X140560000Y-64570800D01*
X140560000Y-64570800D02*
X140560000Y-65950800D01*
%TD*%
M02*
