M48
; DRILL file {KiCad 9.0.6} date 2025-11-11T20:18:04-0500
; FORMAT={-:-/ absolute / metric / decimal}
; #@! TF.CreationDate,2025-11-11T20:18:04-05:00
; #@! TF.GenerationSoftware,Kicad,Pcbnew,9.0.6
; #@! TF.FileFunction,Plated,1,6,PTH
FMAT,2
METRIC
; #@! TA.AperFunction,Plated,PTH,ViaDrill
T1C0.203
; #@! TA.AperFunction,Plated,PTH,ComponentDrill
T2C0.600
; #@! TA.AperFunction,Plated,PTH,ComponentDrill
T3C1.000
%
G90
G05
T1
X116.7Y-78.3
X117.3Y-107.5
X117.442Y-102.1
X117.442Y-102.6
X117.942Y-102.1
X117.942Y-102.6
X118.35Y-94.862
X118.442Y-102.1
X118.442Y-102.6
X118.942Y-102.6
X118.949Y-102.098
X119.0Y-91.6
X119.0Y-92.2
X119.0Y-92.8
X119.692Y-107.15
X119.7Y-111.2
X120.525Y-101.412
X120.555Y-103.45
X120.78Y-105.65
X122.3Y-78.3
X122.5Y-95.0
X122.75Y-92.6
X122.75Y-99.4
X122.9Y-70.3
X122.9Y-73.9
X123.0Y-95.0
X123.2Y-83.3
X123.2Y-86.7
X123.442Y-106.0
X123.5Y-95.0
X123.7Y-113.8
X123.792Y-103.45
X123.8Y-89.5
X123.892Y-101.45
X124.0Y-95.0
X124.5Y-95.0
X125.0Y-95.0
X125.1Y-83.3
X125.1Y-86.7
X125.2Y-70.3
X125.2Y-73.9
X125.25Y-90.5
X125.5Y-95.0
X125.75Y-90.5
X125.8Y-89.5
X126.0Y-95.0
X126.25Y-90.5
X126.825Y-111.312
X127.0Y-81.7
X127.0Y-82.2
X127.05Y-100.4
X127.35Y-90.5
X127.55Y-100.4
X127.6Y-81.7
X127.6Y-82.2
X127.75Y-101.438
X127.85Y-90.5
X127.9Y-89.5
X128.05Y-94.037
X128.05Y-100.4
X128.2Y-81.7
X128.2Y-82.2
X128.35Y-90.5
X128.55Y-100.4
X128.8Y-83.01
X128.8Y-83.41
X128.8Y-83.81
X128.8Y-107.6
X129.149Y-78.191
X129.15Y-98.6
X129.162Y-99.512
X129.179Y-78.806
X129.25Y-94.8
X129.3Y-83.01
X129.3Y-83.41
X129.3Y-83.81
X130.1Y-117.1
X130.35Y-101.9
X130.4Y-88.0
X130.5Y-71.7
X130.5Y-72.3
X130.95Y-101.9
X131.1Y-71.7
X131.1Y-72.3
X131.5Y-96.5
X131.5Y-97.25
X131.5Y-98.0
X131.5Y-98.75
X131.5Y-99.5
X131.7Y-71.7
X131.7Y-72.3
X132.225Y-99.5
X132.25Y-96.5
X132.25Y-97.25
X132.25Y-98.0
X132.25Y-98.75
X132.5Y-70.5
X132.5Y-71.0
X132.5Y-76.1
X132.95Y-106.1
X133.0Y-70.5
X133.0Y-71.0
X133.0Y-96.5
X133.0Y-97.25
X133.0Y-98.0
X133.0Y-98.75
X133.0Y-99.5
X133.05Y-105.1
X133.25Y-94.3
X133.3Y-76.1
X133.5Y-70.5
X133.5Y-71.0
X133.55Y-105.1
X133.6Y-106.1
X133.7Y-107.55
X133.75Y-96.5
X133.75Y-97.25
X133.75Y-98.0
X133.75Y-98.75
X133.75Y-99.5
X133.75Y-102.0
X134.0Y-70.5
X134.0Y-71.0
X134.05Y-105.1
X134.4Y-88.9
X134.45Y-101.85
X134.45Y-102.35
X134.5Y-73.365
X134.5Y-96.5
X134.5Y-97.25
X134.5Y-98.0
X134.5Y-98.75
X134.5Y-99.5
X134.7Y-111.112
X134.887Y-83.5
X134.95Y-101.85
X134.95Y-102.35
X135.112Y-92.9
X135.45Y-101.85
X135.45Y-102.35
X135.5Y-69.2
X135.95Y-101.85
X135.95Y-102.35
X136.1Y-110.85
X136.1Y-111.45
X136.2Y-84.9
X136.5Y-73.4
X136.5Y-74.0
X136.5Y-74.6
X136.55Y-109.05
X136.55Y-110.85
X136.55Y-111.45
X136.685Y-100.352
X136.7Y-69.8
X136.85Y-95.4
X137.0Y-108.0
X137.0Y-110.85
X137.0Y-111.45
X137.2Y-69.8
X137.2Y-73.4
X137.2Y-74.0
X137.2Y-74.6
X137.3Y-99.9
X137.3Y-100.4
X137.762Y-102.287
X137.8Y-99.9
X137.8Y-100.4
X138.0Y-108.0
X138.075Y-110.8
X138.1Y-90.2
X138.3Y-100.4
X138.6Y-90.2
X138.8Y-102.3
X139.0Y-108.0
X139.0Y-112.575
X139.0Y-117.825
X139.1Y-90.2
X140.0Y-98.7
X140.1Y-84.2
X140.1Y-85.3
X140.1Y-108.9
X140.137Y-102.0
X140.137Y-103.5
X140.2Y-69.647
X140.287Y-97.0
X140.3Y-99.2
X140.6Y-98.7
X140.9Y-99.2
X141.133Y-76.35
X141.5Y-104.8
X141.5Y-105.25
X141.5Y-105.7
X141.9Y-69.7
X142.085Y-75.33
X142.1Y-104.8
X142.1Y-105.25
X142.1Y-105.7
X142.362Y-83.9
X142.7Y-90.5
X143.0Y-99.875
X143.0Y-100.4
X143.0Y-100.9
X143.0Y-101.4
X143.133Y-76.35
X143.591Y-106.191
X143.7Y-82.1
X143.7Y-82.7
X143.801Y-81.37
X143.801Y-86.4
X144.2Y-109.6
X144.3Y-82.1
X144.3Y-82.7
X144.8Y-88.2
X144.8Y-88.8
X145.133Y-76.35
X145.3Y-114.9
X145.4Y-88.2
X145.4Y-88.8
X145.5Y-112.575
X145.5Y-117.825
X145.6Y-100.3
X145.6Y-102.6
X145.684Y-97.898
X145.7Y-87.5
X146.2Y-87.5
X147.1Y-99.0
X147.1Y-102.9
X147.133Y-76.35
X147.2Y-96.09
X147.2Y-96.59
X147.2Y-97.09
X147.2Y-97.59
X147.7Y-96.09
X147.7Y-96.59
X147.7Y-97.09
X147.7Y-97.59
X147.8Y-85.2
X147.9Y-66.4
X148.087Y-79.687
X148.128Y-92.73
X148.4Y-98.6
X148.4Y-99.2
X148.4Y-99.8
X148.631Y-75.357
X148.7Y-92.3
X148.7Y-107.5
X148.75Y-77.85
X148.8Y-94.7
X149.0Y-97.4
X149.0Y-98.0
X149.0Y-98.6
X149.0Y-99.2
X149.0Y-99.8
X149.1Y-89.1
X149.3Y-86.0
X149.3Y-107.209
X149.5Y-104.6
X149.55Y-91.95
X149.6Y-88.7
X149.7Y-71.675
X149.9Y-92.3
X149.9Y-102.5
X149.9Y-103.0
X149.9Y-103.5
X150.3Y-66.7
X150.3Y-88.6
X150.3Y-91.6
X150.3Y-94.7
X150.3Y-107.5
X150.4Y-102.5
X150.4Y-103.0
X150.4Y-103.5
X150.5Y-104.6
X150.6Y-72.8
X150.6Y-73.3
X150.6Y-73.8
X150.7Y-77.1
X151.1Y-72.8
X151.1Y-73.3
X151.1Y-73.8
X151.1Y-91.7
X151.1Y-98.7
X151.154Y-107.054
X151.2Y-93.6
X151.2Y-97.2
X151.4Y-77.6
X151.6Y-104.2
X151.6Y-109.5
X151.8Y-93.6
X151.8Y-99.4
X151.9Y-94.7
X151.9Y-98.0
X152.0Y-96.5
X152.1Y-78.9
X152.1Y-109.5
X152.325Y-104.4
X152.387Y-101.25
X152.62Y-89.0
X152.8Y-110.362
X152.9Y-96.9
X153.1Y-66.7
X153.2Y-98.8
X153.2Y-99.4
X153.23Y-89.0
X153.25Y-70.58
X153.278Y-109.497
X153.3Y-91.6
X153.5Y-94.7
X153.5Y-95.4
X153.8Y-98.2
X153.8Y-98.8
X153.8Y-99.4
X153.8Y-100.0
X153.8Y-100.6
X153.9Y-109.5
X154.0Y-91.5
X154.084Y-102.8
X154.2Y-95.4
X154.4Y-110.362
X154.9Y-91.8
X154.9Y-109.5
X155.1Y-68.4
X155.1Y-69.0
X155.5Y-96.3
X155.5Y-96.9
X155.5Y-97.3
X155.5Y-101.4
X155.5Y-109.5
X155.537Y-103.0
X155.6Y-75.385
X155.7Y-68.4
X155.7Y-69.0
X155.725Y-76.625
X155.725Y-77.125
X155.725Y-77.625
X155.725Y-78.125
X156.0Y-110.362
X156.2Y-117.7
X156.225Y-76.625
X156.225Y-77.125
X156.225Y-77.625
X156.225Y-78.125
X156.3Y-68.4
X156.3Y-69.0
X156.5Y-109.5
X156.9Y-68.4
X156.9Y-69.0
X157.2Y-81.2
X157.25Y-87.2
X157.25Y-100.1
X157.262Y-98.5
X157.48Y-79.746
X157.5Y-110.962
X157.8Y-87.5
X157.8Y-88.2
X157.98Y-76.296
X158.0Y-93.8
X158.0Y-97.7
X158.5Y-66.7
X158.5Y-100.0
X158.5Y-100.75
X158.6Y-96.4
X158.721Y-95.273
X158.75Y-70.58
X158.8Y-86.337
X158.862Y-73.25
X158.862Y-74.75
X158.98Y-75.996
X159.0Y-105.7
X159.0Y-110.962
X159.2Y-106.5
X160.162Y-107.6
X160.3Y-68.6
X160.362Y-84.3
X160.6Y-86.062
X160.6Y-112.4
X160.6Y-112.9
X160.9Y-72.737
X160.9Y-74.462
X161.0Y-101.1
X161.0Y-105.1
X161.08Y-76.496
X161.08Y-76.996
X161.08Y-77.496
X161.08Y-77.996
X161.08Y-78.496
X161.084Y-98.316
X161.088Y-107.046
X161.1Y-112.4
X161.1Y-112.9
X161.2Y-100.5
X161.3Y-89.9
X161.3Y-103.2
X161.4Y-90.8
X161.4Y-101.8
X161.516Y-97.884
X161.584Y-94.884
X161.6Y-96.57
X161.6Y-97.18
X161.6Y-112.4
X161.6Y-112.9
X161.8Y-73.1
X161.88Y-76.496
X161.88Y-76.996
X161.88Y-77.496
X161.88Y-77.996
X161.88Y-78.496
X162.016Y-95.316
X162.1Y-80.5
X162.2Y-66.7
X162.3Y-73.1
X162.441Y-101.003
X162.5Y-102.0
X162.713Y-109.15
X162.9Y-97.7
X163.137Y-110.9
X163.5Y-95.5
X163.963Y-104.65
X163.963Y-106.15
X163.963Y-107.65
X164.843Y-73.209
X165.73Y-79.746
X166.1Y-90.0
X166.2Y-81.439
X166.312Y-88.25
X166.312Y-92.5
X166.48Y-73.296
X166.747Y-81.694
X167.3Y-101.3
X167.482Y-82.205
X167.73Y-79.746
X167.75Y-83.6
X168.01Y-82.443
X168.6Y-82.7
X169.73Y-79.746
X170.0Y-97.7
X170.3Y-114.5
X170.5Y-86.1
X170.5Y-86.6
X170.5Y-109.0
X170.75Y-84.75
X171.0Y-86.1
X171.0Y-86.6
X171.0Y-95.5
X171.7Y-70.1
X171.73Y-73.671
X171.73Y-79.746
X171.756Y-100.093
X171.9Y-97.1
X171.997Y-94.347
X172.1Y-88.5
X172.2Y-116.2
X172.244Y-90.544
X172.3Y-91.5
X172.5Y-97.1
X172.533Y-100.2
X172.7Y-94.2
X174.0Y-92.5
X174.0Y-95.5
X174.0Y-98.5
X174.0Y-101.5
X175.2Y-109.6
X176.8Y-84.51
X176.8Y-104.49
X176.88Y-76.096
X176.88Y-76.709
X176.88Y-77.296
X177.48Y-76.096
X177.48Y-76.696
X177.48Y-77.296
X177.6Y-71.9
X178.0Y-80.3
X178.2Y-95.4
T3
X125.235Y-65.951
X127.775Y-65.951
X130.315Y-65.951
X134.1Y-65.951
X136.64Y-65.951
X139.18Y-65.951
T2
X124.9Y-72.1G85X123.2Y-72.1
G05
X124.9Y-84.9G85X123.2Y-84.9
G05
X151.68Y-67.0G85X151.68Y-66.4
G05
X151.68Y-70.8G85X151.68Y-70.2
G05
X160.32Y-67.0G85X160.32Y-66.4
G05
X160.32Y-70.8G85X160.32Y-70.2
G05
M30
