%TF.GenerationSoftware,KiCad,Pcbnew,9.0.6*%
%TF.CreationDate,2025-11-11T20:17:46-05:00*%
%TF.ProjectId,CameraPCB,43616d65-7261-4504-9342-2e6b69636164,rev?*%
%TF.SameCoordinates,Original*%
%TF.FileFunction,Paste,Bot*%
%TF.FilePolarity,Positive*%
%FSLAX46Y46*%
G04 Gerber Fmt 4.6, Leading zero omitted, Abs format (unit mm)*
G04 Created by KiCad (PCBNEW 9.0.6) date 2025-11-11 20:17:46*
%MOMM*%
%LPD*%
G01*
G04 APERTURE LIST*
G04 Aperture macros list*
%AMRoundRect*
0 Rectangle with rounded corners*
0 $1 Rounding radius*
0 $2 $3 $4 $5 $6 $7 $8 $9 X,Y pos of 4 corners*
0 Add a 4 corners polygon primitive as box body*
4,1,4,$2,$3,$4,$5,$6,$7,$8,$9,$2,$3,0*
0 Add four circle primitives for the rounded corners*
1,1,$1+$1,$2,$3*
1,1,$1+$1,$4,$5*
1,1,$1+$1,$6,$7*
1,1,$1+$1,$8,$9*
0 Add four rect primitives between the rounded corners*
20,1,$1+$1,$2,$3,$4,$5,0*
20,1,$1+$1,$4,$5,$6,$7,0*
20,1,$1+$1,$6,$7,$8,$9,0*
20,1,$1+$1,$8,$9,$2,$3,0*%
G04 Aperture macros list end*
%ADD10C,0.010000*%
%ADD11RoundRect,0.250000X0.337500X0.475000X-0.337500X0.475000X-0.337500X-0.475000X0.337500X-0.475000X0*%
%ADD12RoundRect,0.137500X0.137500X0.662500X-0.137500X0.662500X-0.137500X-0.662500X0.137500X-0.662500X0*%
%ADD13RoundRect,0.237500X0.237500X-0.250000X0.237500X0.250000X-0.237500X0.250000X-0.237500X-0.250000X0*%
%ADD14RoundRect,0.237500X-0.237500X0.300000X-0.237500X-0.300000X0.237500X-0.300000X0.237500X0.300000X0*%
%ADD15R,1.200000X1.000000*%
%ADD16RoundRect,0.237500X0.237500X-0.300000X0.237500X0.300000X-0.237500X0.300000X-0.237500X-0.300000X0*%
%ADD17RoundRect,0.237500X0.250000X0.237500X-0.250000X0.237500X-0.250000X-0.237500X0.250000X-0.237500X0*%
%ADD18RoundRect,0.250000X-0.475000X0.337500X-0.475000X-0.337500X0.475000X-0.337500X0.475000X0.337500X0*%
%ADD19RoundRect,0.237500X-0.300000X-0.237500X0.300000X-0.237500X0.300000X0.237500X-0.300000X0.237500X0*%
%ADD20RoundRect,0.250000X0.475000X-0.337500X0.475000X0.337500X-0.475000X0.337500X-0.475000X-0.337500X0*%
%ADD21R,1.200000X0.600000*%
%ADD22O,0.600000X0.240000*%
%ADD23RoundRect,0.237500X0.300000X0.237500X-0.300000X0.237500X-0.300000X-0.237500X0.300000X-0.237500X0*%
%ADD24RoundRect,0.237500X-0.237500X0.250000X-0.237500X-0.250000X0.237500X-0.250000X0.237500X0.250000X0*%
%ADD25RoundRect,0.250000X-0.312500X-0.625000X0.312500X-0.625000X0.312500X0.625000X-0.312500X0.625000X0*%
%ADD26RoundRect,0.250001X0.849999X-0.499999X0.849999X0.499999X-0.849999X0.499999X-0.849999X-0.499999X0*%
%ADD27RoundRect,0.237500X-0.250000X-0.237500X0.250000X-0.237500X0.250000X0.237500X-0.250000X0.237500X0*%
%ADD28RoundRect,0.250000X-0.337500X-0.475000X0.337500X-0.475000X0.337500X0.475000X-0.337500X0.475000X0*%
%ADD29RoundRect,0.250001X-0.849999X0.499999X-0.849999X-0.499999X0.849999X-0.499999X0.849999X0.499999X0*%
%ADD30RoundRect,0.250001X0.499999X0.849999X-0.499999X0.849999X-0.499999X-0.849999X0.499999X-0.849999X0*%
%ADD31RoundRect,0.250000X-0.315000X-0.315000X0.315000X-0.315000X0.315000X0.315000X-0.315000X0.315000X0*%
%ADD32RoundRect,0.050000X-0.375000X-0.050000X0.375000X-0.050000X0.375000X0.050000X-0.375000X0.050000X0*%
%ADD33RoundRect,0.050000X-0.050000X-0.375000X0.050000X-0.375000X0.050000X0.375000X-0.050000X0.375000X0*%
G04 APERTURE END LIST*
D10*
%TO.C,U4*%
X136293476Y-72750000D02*
X136553476Y-72750000D01*
X136553476Y-71900000D01*
X136753476Y-71900000D01*
X136753476Y-74000000D01*
X136093476Y-74000000D01*
X136093476Y-71900000D01*
X136293476Y-71900000D01*
X136293476Y-72750000D01*
G36*
X136293476Y-72750000D02*
G01*
X136553476Y-72750000D01*
X136553476Y-71900000D01*
X136753476Y-71900000D01*
X136753476Y-74000000D01*
X136093476Y-74000000D01*
X136093476Y-71900000D01*
X136293476Y-71900000D01*
X136293476Y-72750000D01*
G37*
X136753476Y-76300000D02*
X136553476Y-76300000D01*
X136553476Y-75450000D01*
X136293476Y-75450000D01*
X136293476Y-76300000D01*
X136093476Y-76300000D01*
X136093476Y-74200000D01*
X136753476Y-74200000D01*
X136753476Y-76300000D01*
G36*
X136753476Y-76300000D02*
G01*
X136553476Y-76300000D01*
X136553476Y-75450000D01*
X136293476Y-75450000D01*
X136293476Y-76300000D01*
X136093476Y-76300000D01*
X136093476Y-74200000D01*
X136753476Y-74200000D01*
X136753476Y-76300000D01*
G37*
X137213476Y-72750000D02*
X137473476Y-72750000D01*
X137473476Y-71900000D01*
X137673476Y-71900000D01*
X137673476Y-74000000D01*
X137013476Y-74000000D01*
X137013476Y-71900000D01*
X137213476Y-71900000D01*
X137213476Y-72750000D01*
G36*
X137213476Y-72750000D02*
G01*
X137473476Y-72750000D01*
X137473476Y-71900000D01*
X137673476Y-71900000D01*
X137673476Y-74000000D01*
X137013476Y-74000000D01*
X137013476Y-71900000D01*
X137213476Y-71900000D01*
X137213476Y-72750000D01*
G37*
X137673476Y-76300000D02*
X137473476Y-76300000D01*
X137473476Y-75450000D01*
X137213476Y-75450000D01*
X137213476Y-76300000D01*
X137013476Y-76300000D01*
X137013476Y-74200000D01*
X137673476Y-74200000D01*
X137673476Y-76300000D01*
G36*
X137673476Y-76300000D02*
G01*
X137473476Y-76300000D01*
X137473476Y-75450000D01*
X137213476Y-75450000D01*
X137213476Y-76300000D01*
X137013476Y-76300000D01*
X137013476Y-74200000D01*
X137673476Y-74200000D01*
X137673476Y-76300000D01*
G37*
%TO.C,U3*%
X160890415Y-76146404D02*
X161150415Y-76146404D01*
X161150415Y-75296404D01*
X161350415Y-75296404D01*
X161350415Y-77396404D01*
X160690415Y-77396404D01*
X160690415Y-75296404D01*
X160890415Y-75296404D01*
X160890415Y-76146404D01*
G36*
X160890415Y-76146404D02*
G01*
X161150415Y-76146404D01*
X161150415Y-75296404D01*
X161350415Y-75296404D01*
X161350415Y-77396404D01*
X160690415Y-77396404D01*
X160690415Y-75296404D01*
X160890415Y-75296404D01*
X160890415Y-76146404D01*
G37*
X161350415Y-79696404D02*
X161150415Y-79696404D01*
X161150415Y-78846404D01*
X160890415Y-78846404D01*
X160890415Y-79696404D01*
X160690415Y-79696404D01*
X160690415Y-77596404D01*
X161350415Y-77596404D01*
X161350415Y-79696404D01*
G36*
X161350415Y-79696404D02*
G01*
X161150415Y-79696404D01*
X161150415Y-78846404D01*
X160890415Y-78846404D01*
X160890415Y-79696404D01*
X160690415Y-79696404D01*
X160690415Y-77596404D01*
X161350415Y-77596404D01*
X161350415Y-79696404D01*
G37*
X161810415Y-76146404D02*
X162070415Y-76146404D01*
X162070415Y-75296404D01*
X162270415Y-75296404D01*
X162270415Y-77396404D01*
X161610415Y-77396404D01*
X161610415Y-75296404D01*
X161810415Y-75296404D01*
X161810415Y-76146404D01*
G36*
X161810415Y-76146404D02*
G01*
X162070415Y-76146404D01*
X162070415Y-75296404D01*
X162270415Y-75296404D01*
X162270415Y-77396404D01*
X161610415Y-77396404D01*
X161610415Y-75296404D01*
X161810415Y-75296404D01*
X161810415Y-76146404D01*
G37*
X162270415Y-79696404D02*
X162070415Y-79696404D01*
X162070415Y-78846404D01*
X161810415Y-78846404D01*
X161810415Y-79696404D01*
X161610415Y-79696404D01*
X161610415Y-77596404D01*
X162270415Y-77596404D01*
X162270415Y-79696404D01*
G36*
X162270415Y-79696404D02*
G01*
X162070415Y-79696404D01*
X162070415Y-78846404D01*
X161810415Y-78846404D01*
X161810415Y-79696404D01*
X161610415Y-79696404D01*
X161610415Y-77596404D01*
X162270415Y-77596404D01*
X162270415Y-79696404D01*
G37*
%TD*%
D11*
%TO.C,C61*%
X140287500Y-97000000D03*
X138212500Y-97000000D03*
%TD*%
D12*
%TO.C,L1*%
X162205415Y-81996404D03*
X160755415Y-81996404D03*
%TD*%
D13*
%TO.C,R5*%
X168500000Y-86012500D03*
X168500000Y-84187500D03*
%TD*%
D14*
%TO.C,C78*%
X149300000Y-86000000D03*
X149300000Y-87725000D03*
%TD*%
D15*
%TO.C,Y4*%
X155550000Y-100100000D03*
X157250000Y-100100000D03*
X157250000Y-101400000D03*
X155550000Y-101400000D03*
%TD*%
D16*
%TO.C,C45*%
X136750000Y-93225000D03*
X136750000Y-91500000D03*
%TD*%
D17*
%TO.C,R9*%
X161925000Y-105100000D03*
X160100000Y-105100000D03*
%TD*%
D18*
%TO.C,C36*%
X133250000Y-104062500D03*
X133250000Y-106137500D03*
%TD*%
%TO.C,C66*%
X147133476Y-74275000D03*
X147133476Y-76350000D03*
%TD*%
D19*
%TO.C,C41*%
X155537500Y-103000000D03*
X157262500Y-103000000D03*
%TD*%
D20*
%TO.C,C35*%
X136562500Y-111150000D03*
X136562500Y-109075000D03*
%TD*%
D21*
%TO.C,Y2*%
X164550000Y-90050000D03*
X170850000Y-90050000D03*
X170850000Y-90950000D03*
X164550000Y-90950000D03*
%TD*%
D18*
%TO.C,C72*%
X167730415Y-77671404D03*
X167730415Y-79746404D03*
%TD*%
D19*
%TO.C,C2*%
X163117915Y-73208904D03*
X164842915Y-73208904D03*
%TD*%
D18*
%TO.C,C54*%
X118350000Y-94862500D03*
X118350000Y-96937500D03*
%TD*%
D11*
%TO.C,C19*%
X152387500Y-101250000D03*
X150312500Y-101250000D03*
%TD*%
D18*
%TO.C,C3*%
X157480415Y-77671404D03*
X157480415Y-79746404D03*
%TD*%
%TO.C,C43*%
X127850000Y-89462500D03*
X127850000Y-91537500D03*
%TD*%
D14*
%TO.C,C14*%
X152300000Y-89975000D03*
X152300000Y-91700000D03*
%TD*%
D18*
%TO.C,C63*%
X123750000Y-89462500D03*
X123750000Y-91537500D03*
%TD*%
%TO.C,C65*%
X145133476Y-74275000D03*
X145133476Y-76350000D03*
%TD*%
D22*
%TO.C,U4*%
X138283476Y-72600000D03*
X138283476Y-73100000D03*
X138283476Y-73600000D03*
X138283476Y-74100000D03*
X138283476Y-74600000D03*
X138283476Y-75100000D03*
X138283476Y-75600000D03*
X135483476Y-75600000D03*
X135483476Y-75100000D03*
X135483476Y-74600000D03*
X135483476Y-74100000D03*
X135483476Y-73600000D03*
X135483476Y-73100000D03*
X135483476Y-72600000D03*
%TD*%
D23*
%TO.C,C5*%
X136912500Y-103950000D03*
X135187500Y-103950000D03*
%TD*%
D24*
%TO.C,R15*%
X140550000Y-92887500D03*
X140550000Y-94712500D03*
%TD*%
D20*
%TO.C,C58*%
X137762500Y-102287500D03*
X137762500Y-100212500D03*
%TD*%
%TO.C,C44*%
X138650000Y-91237500D03*
X138650000Y-89162500D03*
%TD*%
D19*
%TO.C,C38*%
X164587500Y-88250000D03*
X166312500Y-88250000D03*
%TD*%
D18*
%TO.C,C70*%
X169730415Y-77671404D03*
X169730415Y-79746404D03*
%TD*%
D20*
%TO.C,C50*%
X139792500Y-102287500D03*
X139792500Y-100212500D03*
%TD*%
D14*
%TO.C,C77*%
X159900000Y-101837500D03*
X159900000Y-103562500D03*
%TD*%
%TO.C,C55*%
X128050000Y-94037500D03*
X128050000Y-95762500D03*
%TD*%
D18*
%TO.C,C68*%
X165730415Y-77671404D03*
X165730415Y-79746404D03*
%TD*%
D25*
%TO.C,R14*%
X131400000Y-111012500D03*
X134325000Y-111012500D03*
%TD*%
D26*
%TO.C,L9*%
X132250000Y-91050000D03*
X132250000Y-85550000D03*
%TD*%
D23*
%TO.C,C20*%
X151962500Y-98000000D03*
X150237500Y-98000000D03*
%TD*%
D17*
%TO.C,R26*%
X145295976Y-71812500D03*
X143470976Y-71812500D03*
%TD*%
D19*
%TO.C,C40*%
X155537500Y-98500000D03*
X157262500Y-98500000D03*
%TD*%
D24*
%TO.C,R1*%
X162450000Y-89587500D03*
X162450000Y-91412500D03*
%TD*%
D17*
%TO.C,R24*%
X169892915Y-75208904D03*
X168067915Y-75208904D03*
%TD*%
D13*
%TO.C,R6*%
X165500000Y-86012500D03*
X165500000Y-84187500D03*
%TD*%
D23*
%TO.C,C21*%
X151962500Y-99500000D03*
X150237500Y-99500000D03*
%TD*%
D27*
%TO.C,R22*%
X120780000Y-107150000D03*
X122605000Y-107150000D03*
%TD*%
D19*
%TO.C,C39*%
X164587500Y-92500000D03*
X166312500Y-92500000D03*
%TD*%
D16*
%TO.C,C48*%
X138950000Y-94662500D03*
X138950000Y-92937500D03*
%TD*%
D18*
%TO.C,C53*%
X141133476Y-74275000D03*
X141133476Y-76350000D03*
%TD*%
D23*
%TO.C,C57*%
X135112500Y-92900000D03*
X133387500Y-92900000D03*
%TD*%
%TO.C,C24*%
X151962500Y-96500000D03*
X150237500Y-96500000D03*
%TD*%
D24*
%TO.C,R30*%
X147800000Y-85950000D03*
X147800000Y-87775000D03*
%TD*%
D13*
%TO.C,R27*%
X141883476Y-71725000D03*
X141883476Y-69900000D03*
%TD*%
D18*
%TO.C,C62*%
X125800000Y-89462500D03*
X125800000Y-91537500D03*
%TD*%
D14*
%TO.C,C79*%
X150800000Y-86000000D03*
X150800000Y-87725000D03*
%TD*%
D18*
%TO.C,C69*%
X171730415Y-77671404D03*
X171730415Y-79746404D03*
%TD*%
%TO.C,C51*%
X132883476Y-74275000D03*
X132883476Y-76350000D03*
%TD*%
D20*
%TO.C,C71*%
X171730415Y-75746404D03*
X171730415Y-73671404D03*
%TD*%
D11*
%TO.C,C56*%
X134887500Y-83500000D03*
X132812500Y-83500000D03*
%TD*%
D13*
%TO.C,R2*%
X171500000Y-86012500D03*
X171500000Y-84187500D03*
%TD*%
D28*
%TO.C,C74*%
X120555000Y-103450000D03*
X122630000Y-103450000D03*
%TD*%
D11*
%TO.C,C6*%
X128900000Y-111312500D03*
X126825000Y-111312500D03*
%TD*%
D24*
%TO.C,R18*%
X157000000Y-82487500D03*
X157000000Y-84312500D03*
%TD*%
D12*
%TO.C,L2*%
X137608476Y-78600000D03*
X136158476Y-78600000D03*
%TD*%
D29*
%TO.C,L5*%
X128892500Y-103750000D03*
X128892500Y-109250000D03*
%TD*%
D14*
%TO.C,C49*%
X142150000Y-92937500D03*
X142150000Y-94662500D03*
%TD*%
D20*
%TO.C,C42*%
X127750000Y-101437500D03*
X127750000Y-99362500D03*
%TD*%
D30*
%TO.C,L8*%
X126100000Y-97000000D03*
X120600000Y-97000000D03*
%TD*%
D22*
%TO.C,U3*%
X162880415Y-75996404D03*
X162880415Y-76496404D03*
X162880415Y-76996404D03*
X162880415Y-77496404D03*
X162880415Y-77996404D03*
X162880415Y-78496404D03*
X162880415Y-78996404D03*
X160080415Y-78996404D03*
X160080415Y-78496404D03*
X160080415Y-77996404D03*
X160080415Y-77496404D03*
X160080415Y-76996404D03*
X160080415Y-76496404D03*
X160080415Y-75996404D03*
%TD*%
D14*
%TO.C,C15*%
X159800000Y-93937500D03*
X159800000Y-95662500D03*
%TD*%
D19*
%TO.C,C80*%
X158637500Y-84300000D03*
X160362500Y-84300000D03*
%TD*%
D13*
%TO.C,R4*%
X167000000Y-86012500D03*
X167000000Y-84187500D03*
%TD*%
D28*
%TO.C,C73*%
X120525000Y-101412500D03*
X122600000Y-101412500D03*
%TD*%
D31*
%TO.C,U1*%
X131550000Y-96700000D03*
X131550000Y-98100000D03*
X131550000Y-99500000D03*
X132950000Y-96700000D03*
X132950000Y-98100000D03*
X132950000Y-99500000D03*
X134350000Y-96700000D03*
X134350000Y-98100000D03*
X134350000Y-99500000D03*
D32*
X130000000Y-100300000D03*
X130000000Y-99900000D03*
X130000000Y-99500000D03*
X130000000Y-99100000D03*
X130000000Y-98700000D03*
X130000000Y-98300000D03*
X130000000Y-97900000D03*
X130000000Y-97500000D03*
X130000000Y-97100000D03*
X130000000Y-96700000D03*
X130000000Y-96300000D03*
X130000000Y-95900000D03*
D33*
X130750000Y-95150000D03*
X131150000Y-95150000D03*
X131550000Y-95150000D03*
X131950000Y-95150000D03*
X132350000Y-95150000D03*
X132750000Y-95150000D03*
X133150000Y-95150000D03*
X133550000Y-95150000D03*
X133950000Y-95150000D03*
X134350000Y-95150000D03*
X134750000Y-95150000D03*
X135150000Y-95150000D03*
D32*
X135900000Y-95900000D03*
X135900000Y-96300000D03*
X135900000Y-96700000D03*
X135900000Y-97100000D03*
X135900000Y-97500000D03*
X135900000Y-97900000D03*
X135900000Y-98300000D03*
X135900000Y-98700000D03*
X135900000Y-99100000D03*
X135900000Y-99500000D03*
X135900000Y-99900000D03*
X135900000Y-100300000D03*
D33*
X135150000Y-101050000D03*
X134750000Y-101050000D03*
X134350000Y-101050000D03*
X133950000Y-101050000D03*
X133550000Y-101050000D03*
X133150000Y-101050000D03*
X132750000Y-101050000D03*
X132350000Y-101050000D03*
X131950000Y-101050000D03*
X131550000Y-101050000D03*
X131150000Y-101050000D03*
X130750000Y-101050000D03*
%TD*%
D19*
%TO.C,C52*%
X138520976Y-69812500D03*
X140245976Y-69812500D03*
%TD*%
D27*
%TO.C,R10*%
X160100000Y-106600000D03*
X161925000Y-106600000D03*
%TD*%
D18*
%TO.C,C64*%
X143133476Y-74275000D03*
X143133476Y-76350000D03*
%TD*%
D27*
%TO.C,R23*%
X120780000Y-105650000D03*
X122605000Y-105650000D03*
%TD*%
%TO.C,R11*%
X162187500Y-100100000D03*
X164012500Y-100100000D03*
%TD*%
D13*
%TO.C,R25*%
X166480415Y-75121404D03*
X166480415Y-73296404D03*
%TD*%
%TO.C,R3*%
X170000000Y-86012500D03*
X170000000Y-84187500D03*
%TD*%
D20*
%TO.C,C67*%
X147133476Y-72350000D03*
X147133476Y-70275000D03*
%TD*%
M02*
